<?xml version="1.0" encoding="utf-8"?>
<!-- Generator: Adobe Illustrator 25.0.0, SVG Export Plug-In . SVG Version: 6.00 Build 0)  -->
<svg version="1.1" id="Capa_1" xmlns="http://www.w3.org/2000/svg" xmlns:xlink="http://www.w3.org/1999/xlink" x="0px" y="0px"
	 viewBox="0 0 20 20" style="enable-background:new 0 0 20 20;" xml:space="preserve">
<style type="text/css">
	.st0{fill:#FFEC2D;}
	.st1{fill:none;stroke:#FFEC2D;stroke-width:1.7923;}
</style>
<path class="st0" d="M8.6,6.4l0-0.9l0.9,0l0,0.9L8.6,6.4z M3.2,14.1c-0.3,0.4-0.9,0.4-1.3,0.1c-0.4-0.3-0.4-0.9-0.1-1.3L3.2,14.1z
	 M3.6,5.5l5,0l0,1.8l-5,0L3.6,5.5z M9.5,6.4l0,5l-1.8,0l0-5L9.5,6.4z M9.3,7l-6.2,7.1L1.8,13L8,5.9L9.3,7z"/>
<path class="st1" d="M4.5,5L4.5,5c0-1.6,0-2.4,0.5-3C5,2,5,2,5.1,2c0.5-0.5,1.3-0.5,3-0.5h2.1c2.5,0,3.8,0,4.6,0.8
	c0.8,0.8,0.8,2.1,0.8,4.6v6.2c0,2.5,0,3.8-0.8,4.6c-0.8,0.8-2.1,0.8-4.6,0.8H7.9c-1.5,0-2.2,0-2.7-0.4C5.1,18,5,17.9,4.9,17.8
	c-0.4-0.5-0.4-1.2-0.4-2.7l0,0"/>
<polygon class="st0" points="5,2.2 5,4 14.9,4 14.9,2.2 "/>
<polygon class="st0" points="5,16 5,17.8 14.9,17.8 14.9,16 "/>
</svg>
