<?xml version="1.0" encoding="utf-8"?>
<!-- Generator: Adobe Illustrator 25.0.0, SVG Export Plug-In . SVG Version: 6.00 Build 0)  -->
<svg version="1.1" xmlns="http://www.w3.org/2000/svg" xmlns:xlink="http://www.w3.org/1999/xlink" x="0px" y="0px"
	 viewBox="0 0 20 20" style="enable-background:new 0 0 20 20;" xml:space="preserve">
<style type="text/css">
	.st0{fill:none;stroke:#FFEC2D;stroke-width:1.8378;}
	.st1{fill:none;stroke:#FFEC2D;stroke-width:1.8378;stroke-linecap:square;stroke-linejoin:round;}
</style>
<g id="Capa_1">
	<path class="st0" d="M1.7,9.1c0-3.5,0-5.2,1.1-6.3C3.8,1.8,5.6,1.8,9,1.8h1.8c3.5,0,5.2,0,6.3,1.1c1.1,1.1,1.1,2.8,1.1,6.3v1.8
		c0,3.5,0,5.2-1.1,6.3c-1.1,1.1-2.8,1.1-6.3,1.1H9c-3.5,0-5.2,0-6.3-1.1c-1.1-1.1-1.1-2.8-1.1-6.3V9.1z"/>
	<path class="st1" d="M10,6.4v7.4"/>
	<path class="st1" d="M13.6,10H6.3"/>
</g>
<g id="Capa_2">
</g>
</svg>
