<?xml version="1.0" encoding="utf-8"?>
<!-- Generator: Adobe Illustrator 25.0.0, SVG Export Plug-In . SVG Version: 6.00 Build 0)  -->
<svg version="1.1" xmlns="http://www.w3.org/2000/svg" xmlns:xlink="http://www.w3.org/1999/xlink" x="0px" y="0px"
	 viewBox="0 0 20 20" style="enable-background:new 0 0 20 20;" xml:space="preserve">
<style type="text/css">
	.st0{fill:#FFEC2D;}
	.st1{fill:none;stroke:#FFEC2D;stroke-width:2;}
</style>
<g id="Capa_1">
	<path class="st0" d="M10,2.2L9.3,1.5L10,0.8l0.7,0.7L10,2.2z M11,15.2c0,0.6-0.4,1-1,1c-0.6,0-1-0.4-1-1H11z M4.3,6.5l5-5l1.4,1.4
		l-5,5L4.3,6.5z M10.7,1.5l5,5l-1.4,1.4l-5-5L10.7,1.5z M11,2.2v13H9v-13H11z"/>
	<path class="st1" d="M7.4,9.8c0,0-2.1,0-3.2,0c-0.8,0-1.1,0.7-1.2,1c0,0.1,0,0.2,0,0.3v5.1c0,1.1,0.9,2,2,2h10c1.1,0,2-0.9,2-2v-1
		v-4.3c0,0-0.1-1.1-1.2-1.1s-3.3,0-3.3,0"/>
</g>
<g id="Capa_2">
</g>
</svg>
