<?xml version="1.0" encoding="utf-8"?>
<!-- Generator: Adobe Illustrator 25.0.0, SVG Export Plug-In . SVG Version: 6.00 Build 0)  -->
<svg version="1.1" id="PRINT" xmlns="http://www.w3.org/2000/svg" xmlns:xlink="http://www.w3.org/1999/xlink" x="0px" y="0px"
	 viewBox="0 0 171.3 465.1" style="enable-background:new 0 0 171.3 465.1;" xml:space="preserve">
<style type="text/css">
	.st0{fill:#034BB8;}
</style>
<g>
	<path class="st0" d="M171.5,227.2"/>
	<path class="st0" d="M170,223.9c-2.3-0.9-3.4-3.4-2.5-5.7"/>
	<path class="st0" d="M169.2,246.3c-2.2-0.8-3.5-3.5-2.6-5.8"/>
	<path class="st0" d="M170.7,249.7"/>
	<path class="st0" d="M165.1,237.1c-2.3-0.9-3.4-3.4-2.5-5.7c0.9-2.3,3.5-3.5,5.7-2.6c2.2,0.9,3.4,3.5,2.6,5.8
		C170,236.8,167.4,238,165.1,237.1z"/>
	<path class="st0" d="M170.9,201.7c-2.2-0.9-3.4-3.5-2.5-5.8"/>
	<path class="st0" d="M171.6,212.4c-0.9,2.3-3.6,3.4-5.8,2.4c-2.1-0.9-3.2-3.4-2.4-5.6c0.8-2.3,3.5-3.4,5.7-2.5"/>
	<path class="st0" d="M161.1,228c-2.2-0.8-3.4-3.3-2.6-5.5c0.8-2.3,3.4-3.5,5.7-2.7c2.3,0.9,3.4,3.5,2.5,5.7
		C165.7,227.8,163.2,228.8,161.1,228z"/>
	<path class="st0" d="M161.8,253.6c0.9-2.2,3.3-3.3,5.5-2.5c2.3,0.8,3.5,3.4,2.6,5.7c-0.9,2.3-3.5,3.4-5.8,2.4
		C162,258.3,160.9,255.8,161.8,253.6z"/>
	<path class="st0" d="M168.6,268.4c-2.3-0.8-3.6-3.3-2.8-5.6c0.8-2.3,3.4-3.5,5.6-2.7"/>
	<path class="st0" d="M170,271.8"/>
	<path class="st0" d="M165.8,247.6c-0.8,2.2-3.2,3.4-5.4,2.7c-2.3-0.8-3.6-3.4-2.7-5.7c0.8-2.2,3.3-3.3,5.5-2.5
		C165.5,242.9,166.6,245.3,165.8,247.6z"/>
	<path class="st0" d="M166.9,192.6c-2.2-0.8-3.4-3.3-2.6-5.5c0.8-2.2,3.2-3.4,5.5-2.6"/>
	<path class="st0" d="M161.7,238.6c-0.8,2.2-3.3,3.3-5.5,2.4c-2.3-0.9-3.3-3.2-2.4-5.5c0.9-2.2,3.3-3.3,5.5-2.5
		C161.4,233.9,162.5,236.5,161.7,238.6z"/>
	<path class="st0" d="M162.4,216.4c-0.9,2.2-3.3,3.3-5.5,2.5c-2.2-0.8-3.3-3.4-2.4-5.5c0.8-2.2,3.3-3.2,5.5-2.4
		C162.3,211.8,163.3,214.1,162.4,216.4z"/>
	<path class="st0" d="M165,197.7c2.2,0.9,3.3,3.2,2.4,5.5c-0.8,2.2-3.2,3.3-5.5,2.6c-2.3-0.8-3.5-3.5-2.5-5.7
		C160.3,197.9,162.8,196.9,165,197.7z"/>
	<path class="st0" d="M169.3,173.9"/>
	<path class="st0" d="M164.9,270c-0.9,2.2-3.4,3.2-5.6,2.2c-2.2-1-3.1-3.3-2.1-5.6c0.9-2,3.3-3,5.4-2.2
		C164.6,265.3,165.7,267.9,164.9,270z"/>
	<path class="st0" d="M161.2,275.6c1-2.1,3.5-3,5.7-2c2.2,1,3,3.5,1.9,5.7c-1,2-3.5,2.9-5.5,2C161.2,280.4,160.2,277.7,161.2,275.6z
		"/>
	<path class="st0" d="M157.4,229.6c-0.9,2.2-3.4,3.2-5.5,2.3c-2-0.9-3.1-3.3-2.3-5.4c0.8-2.2,3.3-3.3,5.5-2.4
		C157.3,225,158.3,227.4,157.4,229.6z"/>
	<path class="st0" d="M158.4,255.4c2.2,0.9,3.2,3.3,2.3,5.5c-0.9,2.1-3.2,3.1-5.3,2.4c-2.1-0.8-3.3-3.4-2.5-5.5
		C153.6,255.6,156.1,254.6,158.4,255.4z"/>
	<path class="st0" d="M167.6,290.3c-2.2-0.9-3.2-3.3-2.2-5.6c0.9-2.1,3.4-3.1,5.4-2.2"/>
	<path class="st0" d="M163.3,194c-0.7,2.1-3.1,3.2-5.2,2.6c-2.3-0.7-3.5-3.1-2.7-5.3c0.8-2.1,3-3.3,5.2-2.7
		C162.7,189.3,164.1,191.9,163.3,194z"/>
	<path class="st0" d="M150.9,254c-2.1-1-2.9-3.3-2-5.4c0.9-2.2,3.5-3.2,5.6-2.2c2,1,3,3.5,2.1,5.5C155.6,254.1,153.1,255,150.9,254z
		"/>
	<path class="st0" d="M169.4,294"/>
	<path class="st0" d="M155.9,201.9c2.1,0.8,3.2,3.5,2.3,5.6c-0.9,2-3.3,3-5.4,2.2c-2.2-0.9-3.2-3.3-2.3-5.5
		C151.5,202.1,153.9,201.1,155.9,201.9z"/>
	<path class="st0" d="M168.2,180.8c-0.7,2.1-3.1,3.3-5.2,2.5c-2.2-0.7-3.4-3-2.7-5.2c0.7-2.3,3.2-3.5,5.4-2.7
		C167.8,176.3,168.9,178.8,168.2,180.8z"/>
	<path class="st0" d="M147.2,245.1c-2-0.7-3.2-3.2-2.5-5.3c0.7-2.1,3.1-3.3,5.2-2.6c2.3,0.7,3.4,3.2,2.6,5.4
		C151.6,244.8,149.3,245.9,147.2,245.1z"/>
	<path class="st0" d="M153.3,220.6c-0.9,2.1-3.2,3.1-5.4,2.3c-2.2-0.9-3.2-3.3-2.3-5.5c0.9-2,3.4-3,5.4-2.1
		C153.1,216,154.1,218.6,153.3,220.6z"/>
	<path class="st0" d="M148.3,233.5c-0.8,2.1-3.1,3.2-5.2,2.5c-2.1-0.8-3.2-3.1-2.5-5.2c0.8-2.1,3.1-3.2,5.2-2.5
		C148,229.1,149.1,231.4,148.3,233.5z"/>
	<path class="st0" d="M167.9,170.2c-2.1-0.8-3.3-3.1-2.5-5.2c0.8-2.1,3.1-3.3,5.2-2.5"/>
	<path class="st0" d="M154.1,198.2c-0.8,2.1-3.2,3.2-5.3,2.3c-2-0.8-3.1-3-2.4-5.1c0.7-2.2,3.1-3.3,5.2-2.5
		C153.8,193.7,154.9,196.1,154.1,198.2z"/>
	<path class="st0" d="M155.7,273.8c-0.7,2.2-3.1,3.3-5.2,2.5c-2-0.7-3.1-2.9-2.5-5c0.7-2.2,3-3.4,5.1-2.7S156.4,271.6,155.7,273.8z"
		/>
	<path class="st0" d="M157.4,277.7c2.1,0.8,3.2,3.2,2.4,5.3c-0.8,2-3,3.1-5.1,2.4c-2.1-0.7-3.3-3.1-2.6-5.2
		C152.9,278.1,155.2,276.9,157.4,277.7z"/>
	<path class="st0" d="M159,185.1c-0.8,2.1-3.2,3.1-5.3,2.3c-2-0.8-3-3.1-2.3-5.1c0.8-2.1,3.1-3.2,5.3-2.4
		C158.8,180.6,159.8,183,159,185.1z"/>
	<path class="st0" d="M143.9,213.7c-2.1-0.8-3.1-3.2-2.3-5.3c0.8-2,3-3,5.1-2.3c2.1,0.7,3.2,3.1,2.5,5.2
		C148.4,213.4,146,214.5,143.9,213.7z"/>
	<path class="st0" d="M170.4,151.8"/>
	<path class="st0" d="M165.6,295.9c2.1,0.8,3.1,2.9,2.4,5c-0.8,2.2-3.1,3.3-5.2,2.5c-2.1-0.8-3.1-3.3-2.3-5.3
		C161.3,296.1,163.5,295.2,165.6,295.9z"/>
	<path class="st0" d="M163.9,171.9c-0.9,2.1-3.3,3-5.4,2.1c-2-0.9-2.9-3.1-2-5.2c0.8-2,3.1-3,5.1-2.3
		C163.7,167.4,164.7,169.9,163.9,171.9z"/>
	<path class="st0" d="M163.9,291.9c-0.8,2.1-3.1,3.2-5.2,2.5c-2-0.8-3.1-2.9-2.5-5c0.7-2.2,3-3.4,5.1-2.7
		C163.5,287.4,164.6,289.8,163.9,291.9z"/>
	<path class="st0" d="M144.2,224.4c-0.7,2-2.9,3.1-5,2.5c-2.2-0.7-3.4-2.9-2.6-5.1c0.7-2.1,2.9-3.2,5-2.5
		C143.7,219.9,144.9,222.3,144.2,224.4z"/>
	<path class="st0" d="M147.5,255.7c-0.7,2-2.9,3.1-5,2.5c-2.2-0.7-3.4-3-2.6-5.1c0.7-2.1,2.9-3.2,5-2.5
		C147,251.2,148.2,253.6,147.5,255.7z"/>
	<path class="st0" d="M146.2,267.2c-2.1-0.8-3.1-3.3-2.2-5.3c0.9-2.1,3.3-3,5.4-2.1c2,0.9,2.9,3.1,2.1,5.1
		C150.7,267,148.3,268,146.2,267.2z"/>
	<path class="st0" d="M166.9,312.4c-2.2-0.8-3.2-3.1-2.2-5.3c0.9-2,3.2-3,5.1-2.1"/>
	<path class="st0" d="M140.8,241.6c2.1,0.7,3.1,2.8,2.5,4.9c-0.7,2.2-3,3.3-5.1,2.6c-2.1-0.7-3.2-3.2-2.4-5.2
		C136.6,241.9,138.8,240.9,140.8,241.6z"/>
	<path class="st0" d="M168.9,158.6c-0.7,2-3,3.1-5,2.4c-2.1-0.7-3.2-2.8-2.5-4.9c0.7-2.2,3.1-3.3,5.1-2.5
		C168.5,154.3,169.6,156.6,168.9,158.6z"/>
	<path class="st0" d="M147.7,184.1c2,0.8,3,3,2.1,5.1c-0.8,2-3.1,3-5,2.3c-2.1-0.8-3.1-3.3-2.2-5.3
		C143.4,184.1,145.6,183.3,147.7,184.1z"/>
	<path class="st0" d="M144.8,202.3c-0.8,2-3.1,3-5.1,2.2c-2-0.8-3-3.1-2.3-5.1c0.8-2.1,3.2-3.1,5.3-2.3
		C144.8,198.1,145.7,200.3,144.8,202.3z"/>
	<path class="st0" d="M148.4,282c1.9,0.8,3,3.2,2.2,5.1c-0.8,2-3.1,2.9-5.1,2.1c-2-0.8-3-3-2.1-5.1
		C144.1,282.2,146.5,281.2,148.4,282z"/>
	<path class="st0" d="M139.2,237.6c-0.7,2-3,3.1-5,2.3c-2.1-0.8-3.1-2.9-2.4-5c0.7-2,3-3.1,5-2.4
		C138.7,233.2,139.9,235.6,139.2,237.6z"/>
	<path class="st0" d="M146.5,277.9c-0.7,2-3,3.2-5,2.5c-2-0.7-3.1-3.1-2.4-5c0.7-2,3-3.1,5-2.4C146.2,273.7,147.2,275.8,146.5,277.9
		z"/>
	<path class="st0" d="M152.5,170.9c2.1,0.8,3,3,2.2,5.1c-0.8,2-3.1,3-5.1,2.2c-2-0.8-3-3.2-2.2-5.1
		C148.2,171.1,150.5,170.1,152.5,170.9z"/>
	<path class="st0" d="M171,321.5c-1.9-0.8-3-3.2-2.3-5.1"/>
	<path class="st0" d="M140.1,263.9c1.9,0.7,3,3.1,2.3,5.1c-0.7,2-3,3-5,2.2c-2.1-0.8-3-2.9-2.2-5
		C135.8,264.2,138.1,263.1,140.1,263.9z"/>
	<path class="st0" d="M149.6,298.4c-1.9-0.7-3-3.1-2.3-5c0.7-2,3-3,5-2.3c2.1,0.8,3.1,2.9,2.3,5
		C153.9,298.1,151.6,299.1,149.6,298.4z"/>
	<path class="st0" d="M139.9,215.4c-0.8,2-3,3.1-5,2.4c-2-0.7-3.1-3.1-2.4-5.1c0.7-2,3-3,5.1-2.3
		C139.7,211.2,140.7,213.3,139.9,215.4z"/>
	<path class="st0" d="M159.7,162.6c-0.7,2-3,3.2-5,2.5c-2-0.7-3.1-3.1-2.4-5.1c0.7-1.9,2.9-2.9,4.8-2.3
		C159.3,158.4,160.4,160.5,159.7,162.6z"/>
	<path class="st0" d="M134.1,250.8c-0.7,1.9-2.9,2.9-4.8,2.2c-2.1-0.7-3.1-2.9-2.3-5c0.7-1.9,2.9-3,4.8-2.3
		C133.7,246.4,134.8,248.8,134.1,250.8z"/>
	<path class="st0" d="M134.9,228.6c-0.8,2-3.1,3-5.1,2.2c-1.8-0.8-2.8-3-2.2-4.9c0.7-2,3-3,5-2.3
		C134.7,224.4,135.7,226.6,134.9,228.6z"/>
	<path class="st0" d="M138.2,259.7c-0.7,2-3,3.2-5,2.4c-2-0.7-3.1-3.1-2.3-5.1c0.7-1.9,2.9-2.9,4.8-2.3
		C137.8,255.5,138.9,257.6,138.2,259.7z"/>
	<path class="st0" d="M168.7,147.7c-1.9-0.7-2.9-2.8-2.3-4.8c0.7-2,2.9-3.2,4.9-2.5"/>
	<path class="st0" d="M158.8,305.1c-0.7,2-3,3.1-5,2.3c-2-0.7-3-2.8-2.3-4.7c0.6-2.1,2.9-3.2,4.9-2.6
		C158.3,300.7,159.5,303.1,158.8,305.1z"/>
	<path class="st0" d="M140.7,193.3c-0.8,2-3.1,2.9-5.1,2.1c-2-0.8-2.9-3.1-2-5.1c0.8-1.8,3-2.8,4.9-2
		C140.4,188.9,141.5,191.3,140.7,193.3z"/>
	<path class="st0" d="M140.7,182.2c-2.1-0.8-3-3-2.2-5c0.8-1.9,3-2.9,4.9-2.2c2,0.7,3,3.1,2.2,5.1
		C144.8,182,142.6,182.9,140.7,182.2z"/>
	<path class="st0" d="M158,316.5c-1.9-0.6-3-2.8-2.4-4.7c0.6-2,2.9-3.2,4.9-2.5c2,0.7,3,2.7,2.4,4.7
		C162.3,316,160.1,317.1,158,316.5z"/>
	<path class="st0" d="M135.7,206.4c-0.8,2-3.1,3-5.1,2.1c-1.9-0.8-2.8-3-2-4.9c0.8-2,3.1-3,5.1-2.1
		C135.5,202.3,136.5,204.5,135.7,206.4z"/>
	<path class="st0" d="M162.2,144.6c2,0.7,3,2.8,2.4,4.8c-0.7,2.1-2.9,3.2-5,2.4c-1.9-0.7-2.9-2.9-2.2-4.9
		C158.1,145,160.3,143.9,162.2,144.6z"/>
	<path class="st0" d="M145.7,169.1c-1.9-0.7-3-2.8-2.4-4.8c0.7-2.1,2.9-3.1,5-2.3c1.9,0.8,2.9,2.9,2.2,4.8
		C149.8,168.7,147.7,169.7,145.7,169.1z"/>
	<path class="st0" d="M130.7,219.6c-0.8,1.9-3,2.8-4.9,2.1c-2-0.8-3-3.1-2.1-5.1c0.8-1.9,3-2.7,4.9-1.9
		C130.6,215.5,131.5,217.7,130.7,219.6z"/>
	<path class="st0" d="M166.8,323.2c-0.8,2-2.9,2.9-4.8,2.2c-1.9-0.7-2.9-2.9-2.2-4.8c0.7-1.9,2.9-2.9,4.8-2.1
		C166.6,319.1,167.6,321.3,166.8,323.2z"/>
	<path class="st0" d="M129.9,241.8c-0.8,1.9-2.9,2.8-4.8,2.1c-1.9-0.7-2.9-2.8-2.2-4.8c0.7-2,3-3.1,5-2.2
		C129.7,237.7,130.6,239.9,129.9,241.8z"/>
	<path class="st0" d="M171.5,129.5"/>
	<path class="st0" d="M153.3,148.9c2,0.8,2.8,2.9,2,4.8c-0.8,1.9-3,2.8-4.9,2c-1.9-0.8-2.8-3-2-4.9
		C149.2,149,151.4,148.1,153.3,148.9z"/>
	<path class="st0" d="M133.1,273.1c-0.8,1.9-3,2.8-4.9,1.9c-2-0.8-2.7-3-1.9-4.9c0.8-1.8,2.9-2.6,4.7-1.9
		C132.9,268.9,133.9,271.2,133.1,273.1z"/>
	<path class="st0" d="M129.3,192.4c1.9,0.7,3,2.9,2.3,4.8c-0.7,2-2.9,2.9-4.8,2.1c-1.9-0.7-2.8-2.7-2.1-4.6
		C125.2,192.8,127.3,191.7,129.3,192.4z"/>
	<path class="st0" d="M141.4,291.1c-0.8,1.9-2.9,2.8-4.8,2.1c-2-0.8-2.9-2.8-2.1-4.8c0.8-1.9,2.9-2.9,4.8-2.1
		C141.1,287,142.1,289.3,141.4,291.1z"/>
	<path class="st0" d="M145.4,300.2c-0.8,1.9-3,2.8-4.9,2c-1.9-0.8-2.7-3.2-1.9-5c0.8-1.8,2.9-2.6,4.7-1.9
		C145.3,296.2,146.2,298.3,145.4,300.2z"/>
	<path class="st0" d="M136.5,184c-0.7,2-2.9,2.9-4.8,2.1c-1.9-0.7-2.8-2.7-2.1-4.6c0.7-2,2.8-3.1,4.7-2.4
		C136.1,179.9,137.2,182.1,136.5,184z"/>
	<path class="st0" d="M132.4,284.2c-1.9-0.8-2.8-3-2.1-4.9c0.8-1.9,2.9-2.8,4.8-2.1c2,0.8,2.9,2.8,2.1,4.8
		C136.4,284,134.3,284.9,132.4,284.2z"/>
	<path class="st0" d="M128.9,263.9c-0.8,2-3,2.9-4.8,2.1c-1.9-0.8-2.8-3.1-2-4.9c0.8-1.8,2.8-2.6,4.7-2
		C128.8,259.9,129.7,262,128.9,263.9z"/>
	<path class="st0" d="M134.5,168.2c0.8-1.9,3-2.9,4.9-2c1.9,0.8,2.8,3.1,1.9,5c-0.8,1.8-2.8,2.6-4.7,1.9
		C134.6,172.2,133.7,170.2,134.5,168.2z"/>
	<path class="st0" d="M125.7,232.6c-0.7,2-2.8,3-4.8,2.2c-1.9-0.7-2.9-3-2.1-4.9c0.7-1.8,2.8-2.7,4.6-2.1
		C125.4,228.5,126.4,230.6,125.7,232.6z"/>
	<path class="st0" d="M169.4,136.3c-0.7,1.9-2.9,2.8-4.8,2.1c-1.9-0.7-2.8-2.6-2.1-4.5c0.7-2,2.8-3,4.7-2.3
		C169.1,132.2,170.1,134.5,169.4,136.3z"/>
	<path class="st0" d="M171,332.2c-0.7,1.9-2.9,2.9-4.8,2.1c-1.9-0.7-2.8-2.6-2.2-4.5c0.7-2,2.7-3.1,4.7-2.4
		C170.6,328.1,171.6,330.3,171,332.2z"/>
	<path class="st0" d="M149.6,309.2c-0.7,1.9-2.9,2.9-4.8,2.1c-1.9-0.7-2.8-2.6-2.1-4.5c0.7-2,2.7-3,4.7-2.4
		C149.2,305,150.2,307.3,149.6,309.2z"/>
	<path class="st0" d="M124.5,205.6c1.8,0.8,2.8,3.1,2,4.9c-0.8,1.9-3,2.7-4.9,1.9c-1.8-0.8-2.6-2.8-1.9-4.6
		C120.4,205.8,122.6,204.9,124.5,205.6z"/>
	<path class="st0" d="M148.9,320.4c-1.9-0.7-2.9-3-2.1-4.9c0.8-1.8,2.8-2.7,4.7-2c2,0.8,2.9,2.8,2.1,4.8
		C152.8,320.2,150.7,321.1,148.9,320.4z"/>
	<path class="st0" d="M158.1,135.7c1.9,0.7,2.9,2.6,2.2,4.5c-0.6,2-2.7,3.1-4.7,2.4c-1.9-0.7-2.9-3-2.2-4.8
		C154.2,136,156.2,135.1,158.1,135.7z"/>
	<path class="st0" d="M124.9,254.8c-0.7,1.9-2.9,2.8-4.9,2c-1.9-0.8-2.7-2.7-2-4.6c0.7-1.9,2.7-2.8,4.6-2.2
		C124.5,250.7,125.6,253,124.9,254.8z"/>
	<path class="st0" d="M116.8,225.6c-1.9-0.7-2.7-2.7-2-4.6c0.7-1.9,2.9-3,4.8-2.2c1.7,0.7,2.7,2.9,2.1,4.7
		C120.9,225.4,118.7,226.3,116.8,225.6z"/>
	<path class="st0" d="M141.6,159.8c-1.9-0.7-2.8-2.7-2.1-4.6c0.7-2,2.9-3,4.8-2.2c1.7,0.7,2.7,2.9,2.1,4.6
		C145.7,159.6,143.5,160.5,141.6,159.8z"/>
	<path class="st0" d="M153.1,329.4c-1.9-0.7-2.8-2.6-2.1-4.5c0.7-2,2.9-3,4.8-2.2c1.7,0.7,2.7,2.9,2,4.7
		C157,329.1,154.9,330,153.1,329.4z"/>
	<path class="st0" d="M130.2,170.4c1.9,0.8,2.7,2.7,2,4.6c-0.7,1.8-2.8,2.8-4.6,2.1c-1.9-0.7-2.9-3-2.1-4.9
		C126.3,170.5,128.4,169.6,130.2,170.4z"/>
	<path class="st0" d="M127.3,188.1c-0.7,1.8-2.8,2.8-4.6,2.2c-1.9-0.7-2.9-3-2.1-4.8c0.8-1.8,2.9-2.6,4.7-1.9
		C127.1,184.3,128,186.3,127.3,188.1z"/>
	<path class="st0" d="M170.3,343.4c-1.9-0.7-2.9-3.1-2.1-4.9"/>
	<path class="st0" d="M120.7,245.7c-0.7,1.9-2.7,2.8-4.6,2.2c-1.9-0.7-3-3-2.2-4.8c0.8-1.8,2.8-2.7,4.7-2
		C120.5,241.9,121.4,243.8,120.7,245.7z"/>
	<path class="st0" d="M135,157.2c1.9,0.7,2.8,2.7,2.1,4.5c-0.7,1.9-2.7,2.8-4.5,2.2c-1.8-0.6-2.8-2.8-2.2-4.6
		C131.1,157.5,133.2,156.5,135,157.2z"/>
	<path class="st0" d="M130,290.6c1.9,0.7,2.8,2.7,2.1,4.6c-0.7,1.8-2.8,2.8-4.6,2.1c-1.8-0.7-2.8-2.8-2.1-4.6
		C126.1,290.8,128.2,289.9,130,290.6z"/>
	<path class="st0" d="M169.6,125.2c-1.9-0.7-2.8-2.7-2-4.6"/>
	<path class="st0" d="M146.7,146.6c-1.9-0.6-2.9-2.6-2.3-4.5c0.6-2,2.8-3,4.7-2.3c1.8,0.7,2.8,2.8,2.1,4.6
		C150.6,146.3,148.5,147.2,146.7,146.6z"/>
	<path class="st0" d="M123.6,288.2c-1.9-0.7-2.9-2.6-2.2-4.5c0.6-1.9,2.7-2.9,4.5-2.3c1.8,0.6,2.9,2.8,2.3,4.6
		C127.5,287.8,125.4,288.8,123.6,288.2z"/>
	<path class="st0" d="M120.3,196.7c1.8,0.7,2.7,2.7,2,4.6c-0.7,1.8-2.8,2.8-4.6,2.1c-1.9-0.7-2.9-3-2.1-4.8
		C116.4,196.8,118.5,196,120.3,196.7z"/>
	<path class="st0" d="M123.9,277.1c-0.7,1.8-2.8,2.7-4.6,2c-1.8-0.7-2.7-2.8-2-4.6c0.7-1.8,2.8-2.7,4.6-2
		C123.7,273.2,124.6,275.2,123.9,277.1z"/>
	<path class="st0" d="M160.6,129.3c-1.8-0.7-2.8-2.8-2.1-4.6c0.7-1.7,2.6-2.6,4.4-2.1c1.9,0.6,2.9,2.6,2.2,4.5
		C164.5,129,162.4,130,160.6,129.3z"/>
	<path class="st0" d="M159.7,331.8c1.8,0.7,2.7,2.8,1.9,4.7c-0.7,1.7-2.7,2.6-4.4,2c-1.8-0.7-2.8-2.8-2.1-4.6
		C155.8,332,157.9,331.1,159.7,331.8z"/>
	<path class="st0" d="M136.2,304.3c-0.7,1.8-2.8,2.7-4.6,1.9c-1.8-0.7-2.7-2.8-2-4.6c0.7-1.8,2.9-2.7,4.6-2
		C136,300.3,136.9,302.5,136.2,304.3z"/>
	<path class="st0" d="M135.7,315.3c-1.8-0.7-2.7-2.9-1.9-4.7c0.8-1.8,2.9-2.6,4.7-1.8c1.7,0.8,2.5,2.7,1.8,4.5
		C139.6,315.1,137.5,316,135.7,315.3z"/>
	<path class="st0" d="M116.5,236.8c-0.7,1.8-2.8,2.7-4.6,1.9c-1.8-0.7-2.7-2.8-2-4.6c0.7-1.8,2.9-2.7,4.6-2
		C116.3,232.8,117.2,235,116.5,236.8z"/>
	<path class="st0" d="M119.8,268c-0.7,1.8-2.8,2.7-4.6,2c-1.8-0.8-2.7-2.8-1.9-4.7c0.7-1.7,2.7-2.5,4.5-1.9
		C119.5,264.1,120.5,266.2,119.8,268z"/>
	<path class="st0" d="M115.6,210c1.8,0.8,2.5,3,1.6,4.7c-0.8,1.8-3,2.5-4.7,1.7c-1.8-0.9-2.5-3-1.6-4.8
		C111.7,209.9,113.8,209.2,115.6,210z"/>
	<path class="st0" d="M140.1,144.1c1.8,0.7,2.7,2.8,2,4.6c-0.8,1.8-2.9,2.6-4.6,1.9c-1.7-0.8-2.5-2.6-1.9-4.4
		C136.2,144.3,138.2,143.4,140.1,144.1z"/>
	<path class="st0" d="M115.6,258.9c-0.7,1.8-2.8,2.7-4.6,1.9c-1.7-0.7-2.5-2.6-1.9-4.4c0.7-1.8,2.7-2.8,4.5-2.1
		C115.4,255.1,116.3,257.1,115.6,258.9z"/>
	<path class="st0" d="M107.8,229.6c-1.8-0.7-2.6-2.6-2-4.4c0.7-1.9,2.7-2.8,4.5-2.1c1.7,0.7,2.6,2.7,2,4.4
		C111.7,229.4,109.6,230.3,107.8,229.6z"/>
	<path class="st0" d="M144.3,322.4c-0.7,1.7-2.6,2.6-4.4,2c-1.8-0.7-2.8-2.8-2-4.6c0.7-1.8,2.9-2.6,4.7-1.8
		C144.3,318.7,145,320.6,144.3,322.4z"/>
	<path class="st0" d="M144.1,333.3c-1.8-0.7-2.7-2.5-2-4.3c0.6-1.8,2.5-2.7,4.3-2.2c1.8,0.6,2.8,2.8,2.1,4.6
		C147.8,333.1,145.8,333.9,144.1,333.3z"/>
	<path class="st0" d="M128,165.8c-0.7,1.9-2.7,2.8-4.5,2c-1.7-0.7-2.6-2.7-2-4.4c0.6-1.8,2.7-2.8,4.5-2
		C127.8,162.2,128.6,164,128,165.8z"/>
	<path class="st0" d="M154,126.9c1.8,0.7,2.6,2.6,2,4.4c-0.7,1.9-2.7,2.8-4.5,2.1c-1.7-0.7-2.6-2.6-2-4.4
		C150.1,127.1,152.2,126.1,154,126.9z"/>
	<path class="st0" d="M118.5,181c-1.8-0.7-2.7-2.9-1.9-4.6c0.8-1.7,2.7-2.5,4.5-1.8c1.9,0.7,2.7,2.8,1.9,4.6
		C122.2,180.9,120.2,181.7,118.5,181z"/>
	<path class="st0" d="M163.8,340.9c1.8,0.7,2.6,2.5,2,4.3c-0.7,1.9-2.7,2.8-4.5,2.1c-1.7-0.7-2.6-2.7-2-4.4
		C159.9,341.1,161.9,340.2,163.8,340.9z"/>
	<path class="st0" d="M111.5,249.7c-0.6,1.8-2.5,2.8-4.3,2.2c-1.8-0.6-2.9-2.7-2.2-4.5c0.7-1.7,2.6-2.6,4.4-2
		C111.2,246,112.1,247.9,111.5,249.7z"/>
	<path class="st0" d="M108.8,207.4c-1.7-0.6-2.7-2.6-2.1-4.3c0.6-1.9,2.7-2.8,4.5-2.1c1.8,0.7,2.6,2.6,1.9,4.4
		C112.4,207.1,110.5,208,108.8,207.4z"/>
	<path class="st0" d="M113.7,194.3c-1.8-0.7-2.8-2.8-2.1-4.6c0.7-1.7,2.6-2.6,4.4-2c1.8,0.6,2.7,2.5,2.2,4.3
		C117.6,193.9,115.5,194.9,113.7,194.3z"/>
	<path class="st0" d="M165.6,115.9c-1.8-0.7-2.6-2.5-1.9-4.3c0.7-1.8,2.6-2.6,4.4-2c1.7,0.6,2.6,2.7,2,4.4
		C169.3,115.7,167.3,116.6,165.6,115.9z"/>
	<path class="st0" d="M114.5,292.1c-1.8-0.7-2.6-2.5-2-4.3c0.7-1.8,2.6-2.7,4.3-2c1.7,0.6,2.6,2.7,2,4.4
		C118.2,291.9,116.2,292.7,114.5,292.1z"/>
	<path class="st0" d="M132.8,152.8c-0.7,1.7-2.7,2.5-4.4,1.9c-1.7-0.7-2.6-2.7-1.9-4.4c0.7-1.8,2.8-2.7,4.6-1.9
		C132.8,149.2,133.5,151,132.8,152.8z"/>
	<path class="st0" d="M106.1,214.2c1.8,0.7,2.6,2.5,2,4.3c-0.7,1.8-2.6,2.7-4.3,2c-1.7-0.6-2.6-2.7-2-4.4
		C102.4,214.4,104.4,213.5,106.1,214.2z"/>
	<path class="st0" d="M121,294.9c1.8,0.7,2.5,2.6,1.8,4.4c-0.7,1.7-2.7,2.6-4.4,1.8c-1.6-0.7-2.5-2.8-1.8-4.5
		C117.3,295,119.3,294.2,121,294.9z"/>
	<path class="st0" d="M142.4,137.3c-1.8-0.7-2.6-2.5-1.9-4.3c0.7-1.7,2.6-2.6,4.3-2c1.8,0.6,2.7,2.9,2,4.6
		C146.1,137.2,144.2,138,142.4,137.3z"/>
	<path class="st0" d="M103.1,242.7c-1.8-0.6-2.7-2.4-2.1-4.3c0.6-1.8,2.5-2.7,4.3-2.1c1.7,0.6,2.7,2.7,2.1,4.3
		C106.8,242.4,104.8,243.3,103.1,242.7z"/>
	<path class="st0" d="M106.2,273.9c-1.8-0.7-2.6-2.6-1.8-4.4c0.7-1.6,2.5-2.5,4.2-1.9c1.7,0.6,2.7,2.7,2,4.4
		C109.9,273.7,107.9,274.6,106.2,273.9z"/>
	<path class="st0" d="M109.5,185c-1.8-0.7-2.5-2.7-1.7-4.4c0.7-1.6,2.6-2.4,4.2-1.8c1.6,0.6,2.6,2.8,2,4.4
		C113.2,184.9,111.2,185.7,109.5,185z"/>
	<path class="st0" d="M114.7,281c-0.6,1.8-2.5,2.7-4.3,2.1c-1.7-0.6-2.7-2.6-2.1-4.3c0.6-1.7,2.5-2.7,4.3-2
		C114.4,277.4,115.3,279.2,114.7,281z"/>
	<path class="st0" d="M165.5,356.3c-1.8-0.7-2.6-2.5-2-4.3c0.6-1.8,2.6-2.7,4.3-2c1.6,0.6,2.6,2.7,2,4.4
		C169.2,356.1,167.2,356.9,165.5,356.3z"/>
	<path class="st0" d="M160.8,118.2c-0.7,1.7-2.8,2.6-4.4,1.9c-1.5-0.7-2.4-2.7-1.8-4.2c0.6-1.7,2.6-2.6,4.4-2
		C160.7,114.5,161.5,116.4,160.8,118.2z"/>
	<path class="st0" d="M129.2,313c1.8,0.7,2.6,2.6,1.9,4.4c-0.7,1.6-2.5,2.5-4.2,1.9c-1.7-0.6-2.7-2.7-2.1-4.4
		C125.4,313.2,127.4,312.3,129.2,313z"/>
	<path class="st0" d="M122.7,310.2c-1.8-0.7-2.6-2.5-2-4.3c0.7-1.8,2.6-2.7,4.3-2c1.6,0.6,2.6,2.7,2,4.4
		C126.4,309.9,124.5,310.8,122.7,310.2z"/>
	<path class="st0" d="M152.4,340.4c-0.7,1.7-2.7,2.6-4.4,1.9c-1.6-0.7-2.5-2.8-1.9-4.4c0.7-1.7,2.7-2.5,4.4-1.8
		C152.4,336.8,153.1,338.6,152.4,340.4z"/>
	<path class="st0" d="M137.8,139.4c-0.6,1.8-2.6,2.7-4.3,2c-1.6-0.6-2.6-2.8-1.9-4.4c0.7-1.6,2.5-2.4,4.2-1.8
		C137.5,135.8,138.4,137.7,137.8,139.4z"/>
	<path class="st0" d="M114.6,171.9c-1.8-0.6-2.7-2.5-2-4.3c0.6-1.8,2.6-2.7,4.3-2c1.5,0.6,2.5,2.6,2,4.2
		C118.4,171.5,116.4,172.5,114.6,171.9z"/>
	<path class="st0" d="M104.8,198.2c-1.8-0.6-2.7-2.5-2.1-4.3c0.6-1.8,2.6-2.7,4.3-2c1.5,0.6,2.5,2.5,2,4.2
		C108.5,197.8,106.5,198.8,104.8,198.2z"/>
	<path class="st0" d="M103.1,231.7c-0.7,1.7-2.7,2.6-4.4,1.8c-1.5-0.7-2.4-2.6-1.8-4.2c0.6-1.7,2.6-2.6,4.3-1.9
		C103,228.1,103.8,230,103.1,231.7z"/>
	<path class="st0" d="M106.3,263.1c-0.7,1.7-2.8,2.5-4.4,1.8c-1.5-0.7-2.3-2.7-1.8-4.2c0.6-1.7,2.6-2.5,4.4-1.9
		C106.3,259.4,107.1,261.3,106.3,263.1z"/>
	<path class="st0" d="M131,328.3c-1.7-0.6-2.6-2.3-2.1-4c0.5-1.8,2.5-2.8,4.2-2.2c1.7,0.6,2.7,2.7,2,4.4
		C134.6,328,132.7,328.8,131,328.3z"/>
	<path class="st0" d="M152.3,351.3c-1.7-0.7-2.5-2.4-1.9-4.1c0.6-1.8,2.6-2.7,4.3-2c1.6,0.6,2.5,2.6,1.9,4.2
		C156,351,154,351.9,152.3,351.3z"/>
	<path class="st0" d="M147.5,124.1c-1.7-0.6-2.5-2.4-2-4.1c0.6-1.8,2.6-2.8,4.3-2.1c1.7,0.6,2.6,2.8,1.9,4.4
		C151.1,123.9,149.2,124.7,147.5,124.1z"/>
	<path class="st0" d="M99.6,211.3c-1.6-0.7-2.4-2.5-1.8-4.2c0.7-1.8,2.7-2.6,4.4-1.9c1.6,0.7,2.4,2.7,1.8,4.2
		C103.3,211.1,101.3,212,99.6,211.3z"/>
	<path class="st0" d="M119.4,158.6c-1.6-0.7-2.4-2.5-1.8-4.2c0.7-1.8,2.7-2.6,4.4-1.9c1.6,0.7,2.4,2.6,1.8,4.2
		C123.1,158.5,121.1,159.3,119.4,158.6z"/>
	<path class="st0" d="M170.7,102.7c-1.7-0.6-2.6-2.4-2.1-4"/>
	<path class="st0" d="M140.8,122.1c1.6,0.7,2.4,2.5,1.8,4.1c-0.7,1.7-2.7,2.6-4.4,1.8c-1.6-0.7-2.3-2.6-1.6-4.2
		C137.3,122.2,139.2,121.5,140.8,122.1z"/>
	<path class="st0" d="M124.4,145.4c-1.6-0.6-2.5-2.5-1.9-4.1c0.6-1.8,2.6-2.6,4.3-1.9c1.6,0.7,2.4,2.6,1.7,4.2
		C127.9,145.3,126.1,146.1,124.4,145.4z"/>
	<path class="st0" d="M139.3,335.3c-0.6,1.7-2.4,2.6-4.1,2.1c-1.8-0.5-2.7-2.6-2.1-4.3c0.6-1.6,2.5-2.5,4.2-1.8
		C139,331.8,139.8,333.6,139.3,335.3z"/>
	<path class="st0" d="M98.1,255.8c-1.7-0.6-2.6-2.4-2.1-4c0.6-1.8,2.5-2.8,4.3-2.1c1.6,0.6,2.5,2.5,1.9,4.2
		C101.7,255.5,99.8,256.3,98.1,255.8z"/>
	<path class="st0" d="M169.7,365.3c-1.7-0.6-2.7-2.7-2-4.4"/>
	<path class="st0" d="M96.9,218.4c1.7,0.6,2.6,2.4,2,4.1c-0.6,1.7-2.4,2.6-4.1,2c-1.7-0.6-2.6-2.4-2-4.1
		C93.4,218.7,95.2,217.8,96.9,218.4z"/>
	<path class="st0" d="M113.7,314.1c-1.7-0.6-2.5-2.4-1.9-4.1c0.6-1.6,2.3-2.4,3.9-1.9c1.7,0.5,2.6,2.4,2,4.1
		C117.3,313.9,115.4,314.7,113.7,314.1z"/>
	<path class="st0" d="M111.7,299.1c1.7,0.6,2.6,2.3,2,4c-0.6,1.7-2.4,2.6-4,2c-1.6-0.6-2.6-2.4-2-4.1
		C108.2,299.4,110,298.5,111.7,299.1z"/>
	<path class="st0" d="M105.5,175.8c-1.7-0.7-2.5-2.4-1.8-4.1c0.6-1.7,2.5-2.5,4.1-1.8c1.6,0.6,2.5,2.5,1.8,4.1
		C109,175.6,107.2,176.5,105.5,175.8z"/>
	<path class="st0" d="M141.3,340.3c1.7,0.6,2.6,2.4,1.9,4.1c-0.6,1.6-2.3,2.4-3.9,2c-1.7-0.5-2.6-2.4-2.1-4
		C137.8,340.6,139.6,339.7,141.3,340.3z"/>
	<path class="st0" d="M156.5,360.3c-1.7-0.6-2.5-2.4-2-4.1c0.6-1.7,2.4-2.6,4-2c1.6,0.6,2.5,2.4,2,4.1
		C160,360,158.2,360.9,156.5,360.3z"/>
	<path class="st0" d="M110.5,162.6c-1.7-0.7-2.5-2.5-1.8-4.1c0.6-1.6,2.4-2.3,3.9-1.8c1.7,0.6,2.6,2.5,2,4.1
		C114,162.4,112.1,163.3,110.5,162.6z"/>
	<path class="st0" d="M105.3,296c-1.6-0.7-2.4-2.5-1.7-4.2c0.7-1.6,2.6-2.4,4.2-1.7c1.6,0.7,2.4,2.6,1.7,4.2
		C108.8,295.9,107,296.6,105.3,296z"/>
	<path class="st0" d="M103.5,281c1.7,0.6,2.6,2.3,2,4.1c-0.6,1.6-2.2,2.5-3.9,2c-1.7-0.5-2.7-2.3-2.2-4
		C99.9,281.4,101.8,280.4,103.5,281z"/>
	<path class="st0" d="M95.7,202.2c-1.7-0.6-2.5-2.4-1.9-4.1c0.6-1.6,2.3-2.4,3.9-1.9c1.7,0.5,2.6,2.4,2.1,4
		C99.2,201.9,97.4,202.8,95.7,202.2z"/>
	<path class="st0" d="M161.6,106.8c-1.7-0.6-2.6-2.3-2-4c0.6-1.7,2.4-2.6,4-2c1.6,0.6,2.6,2.4,2,4.1
		C165.1,106.4,163.3,107.3,161.6,106.8z"/>
	<path class="st0" d="M94.1,246.6c-1.7-0.6-2.6-2.3-2-4c0.6-1.7,2.4-2.6,4-2c1.6,0.6,2.6,2.4,2,4.1
		C97.6,246.3,95.7,247.2,94.1,246.6z"/>
	<path class="st0" d="M100.5,189c-1.7-0.7-2.5-2.5-1.8-4.1c0.7-1.6,2.5-2.5,4.1-1.8c1.6,0.7,2.4,2.5,1.8,4.2
		C104,188.8,102.2,189.6,100.5,189z"/>
	<path class="st0" d="M131.6,126.3c1.7,0.6,2.5,2.4,1.8,4.1c-0.6,1.5-2.3,2.4-3.9,1.9c-1.6-0.5-2.6-2.4-2-4.1
		C128.1,126.6,130,125.7,131.6,126.3z"/>
	<path class="st0" d="M97.2,277.8c-1.7-0.7-2.5-2.4-1.8-4.1c0.6-1.5,2.4-2.3,3.9-1.8c1.6,0.5,2.6,2.4,2,4.1
		C100.8,277.6,98.9,278.5,97.2,277.8z"/>
	<path class="st0" d="M156.5,109c-0.6,1.7-2.5,2.5-4.1,1.9c-1.6-0.6-2.4-2.6-1.7-4.2c0.6-1.5,2.4-2.3,4-1.7
		C156.4,105.5,157.2,107.2,156.5,109z"/>
	<path class="st0" d="M121.8,321.3c-0.6,1.7-2.5,2.5-4.1,1.8c-1.6-0.7-2.4-2.6-1.7-4.2c0.6-1.5,2.4-2.3,4-1.7
		C121.7,317.9,122.5,319.6,121.8,321.3z"/>
	<path class="st0" d="M99,174.3c1.5,0.8,2.1,2.5,1.3,4.1c-0.7,1.5-2.6,2.2-4,1.5c-1.5-0.8-2.2-2.9-1.4-4.3
		C95.7,174,97.5,173.5,99,174.3z"/>
	<path class="st0" d="M120.4,136.2c-1.6-0.6-2.4-2.2-1.8-3.9c0.6-1.6,2.3-2.4,3.9-1.9c1.6,0.5,2.5,2.6,1.9,4.1
		C123.7,136.1,122,136.8,120.4,136.2z"/>
	<path class="st0" d="M122,332.2c-1.6-0.6-2.4-2.2-1.9-3.8c0.6-1.7,2.4-2.6,4-2c1.6,0.6,2.5,2.6,1.8,4.2
		C125.3,332,123.5,332.7,122,332.2z"/>
	<path class="st0" d="M115.5,149.4c-1.7-0.6-2.5-2.4-1.8-4.1c0.6-1.5,2.3-2.4,3.9-1.9c1.6,0.5,2.6,2.4,2,4
		C119,149.2,117.1,150,115.5,149.4z"/>
	<path class="st0" d="M128.2,335.5c1.6,0.6,2.4,2.2,1.8,3.8c-0.5,1.6-2.3,2.5-3.8,2c-1.6-0.5-2.6-2.5-2-4.1
		C124.8,335.7,126.6,334.9,128.2,335.5z"/>
	<path class="st0" d="M164.5,367.5c-0.6,1.5-2.4,2.3-3.9,1.8c-1.6-0.6-2.5-2.6-1.8-4.1c0.7-1.6,2.6-2.3,4.2-1.6
		C164.5,364.3,165.2,365.9,164.5,367.5z"/>
	<path class="st0" d="M143.5,114.9c-1.6-0.6-2.4-2.2-1.9-3.8c0.5-1.7,2.4-2.6,4-2.1c1.6,0.6,2.5,2.6,1.9,4.1
		C146.9,114.7,145.1,115.4,143.5,114.9z"/>
	<path class="st0" d="M97.1,266.9c-0.6,1.7-2.5,2.6-4.1,1.9c-1.5-0.6-2.3-2.4-1.8-3.9c0.5-1.7,2.4-2.5,4.1-1.9
		C97,263.6,97.7,265.2,97.1,266.9z"/>
	<path class="st0" d="M89.2,259.7c-1.6-0.5-2.5-2.2-1.9-3.8c0.5-1.7,2.4-2.6,4-2c1.5,0.6,2.3,2.5,1.8,4
		C92.5,259.4,90.7,260.2,89.2,259.7z"/>
	<path class="st0" d="M90.7,215.3c-1.6-0.6-2.4-2.2-1.9-3.8c0.6-1.7,2.4-2.6,4-2c1.6,0.6,2.5,2.6,1.8,4.2
		C94.1,215.1,92.3,215.8,90.7,215.3z"/>
	<path class="st0" d="M143.2,355.2c-1.6-0.7-2.3-2.2-1.7-3.9c0.6-1.7,2.5-2.5,4.1-1.8c1.5,0.6,2.3,2.5,1.8,4
		C146.8,355,144.9,355.9,143.2,355.2z"/>
	<path class="st0" d="M92.2,231.7c1.7,0.7,2.4,2.4,1.6,4.1c-0.7,1.5-2.4,2.3-3.9,1.7c-1.6-0.6-2.5-2.5-1.9-4.1
		C88.6,231.8,90.5,231.1,92.2,231.7z"/>
	<path class="st0" d="M136.6,113.3c1.6,0.6,2.3,2.3,1.7,3.9c-0.6,1.5-2.4,2.4-3.9,1.8c-1.6-0.6-2.5-2.6-1.8-4.2
		C133.3,113.3,135.1,112.7,136.6,113.3z"/>
	<path class="st0" d="M95.5,191.1c-0.5,1.6-2.2,2.5-3.8,2c-1.6-0.5-2.5-2.5-1.9-4.1c0.6-1.5,2.4-2.3,3.9-1.7
		C95.3,187.9,96.1,189.5,95.5,191.1z"/>
	<path class="st0" d="M85.7,228.3c-1.6-0.7-2.3-2.3-1.7-3.9c0.6-1.5,2.4-2.4,3.9-1.8c1.6,0.6,2.5,2.7,1.8,4.2
		C89,228.3,87.2,229,85.7,228.3z"/>
	<path class="st0" d="M103.7,161c1.6,0.6,2.3,2.3,1.6,3.9c-0.6,1.5-2.4,2.3-3.9,1.8c-1.6-0.6-2.4-2.7-1.8-4.2
		C100.4,161.1,102.1,160.4,103.7,161z"/>
	<path class="st0" d="M110.3,151.7c-0.6,1.5-2.4,2.3-3.9,1.8c-1.5-0.6-2.4-2.6-1.7-4.1c0.7-1.5,2.5-2.2,4-1.5
		C110.2,148.5,110.9,150.2,110.3,151.7z"/>
	<path class="st0" d="M161.3,95.8c-0.6,1.5-2.4,2.3-3.9,1.7c-1.5-0.6-2.3-2.5-1.7-4c0.6-1.5,2.4-2.3,4-1.6
		C161.2,92.5,162,94.2,161.3,95.8z"/>
	<path class="st0" d="M87,244.9c1.6,0.6,2.4,2.2,1.8,3.8c-0.6,1.6-2.3,2.4-3.9,1.8c-1.5-0.5-2.4-2.4-1.8-3.9
		C83.7,245.2,85.5,244.4,87,244.9z"/>
	<path class="st0" d="M130.1,350.2c-1.6-0.6-2.3-2.3-1.7-3.9c0.6-1.5,2.4-2.3,3.9-1.7c1.5,0.6,2.3,2.5,1.7,4
		C133.5,350,131.7,350.8,130.1,350.2z"/>
	<path class="st0" d="M94.4,285.2c1.5,0.5,2.4,2.4,1.9,3.9c-0.5,1.5-2.3,2.4-3.9,1.8c-1.6-0.5-2.4-2.2-1.8-3.8
		C91.1,285.5,92.9,284.7,94.4,285.2z"/>
	<path class="st0" d="M108.5,316.5c-0.7,1.5-2.5,2.2-4,1.5c-1.5-0.7-2.2-2.6-1.5-4c0.7-1.5,2.5-2.2,4-1.5
		C108.5,313.2,109.1,315,108.5,316.5z"/>
	<path class="st0" d="M100.2,298.4c-0.7,1.5-2.5,2.2-4,1.5c-1.5-0.7-2.2-2.6-1.5-4c0.7-1.5,2.5-2.2,4-1.5
		C100.3,295.1,100.9,296.8,100.2,298.4z"/>
	<path class="st0" d="M163.1,374.2c0.7-1.5,2.5-2.2,4-1.5c1.5,0.7,2.2,2.6,1.5,4c-0.7,1.5-2.5,2.2-4,1.5
		C163.1,377.4,162.4,375.7,163.1,374.2z"/>
	<path class="st0" d="M99,304.9c0.7-1.5,2.6-2.1,4-1.4c1.4,0.7,2.1,2.6,1.4,4c-0.7,1.5-2.6,2.1-4,1.3
		C98.8,308.1,98.2,306.4,99,304.9z"/>
	<path class="st0" d="M151.3,362.6c-0.6,1.5-2.4,2.3-3.9,1.7c-1.4-0.6-2.3-2.5-1.8-3.9c0.6-1.6,2.5-2.4,4.1-1.7
		C151.3,359.3,152,361,151.3,362.6z"/>
	<path class="st0" d="M166.7,93.4c-1.6-0.5-2.4-2.1-1.9-3.8c0.5-1.7,2.4-2.6,4-2c1.4,0.6,2.3,2.5,1.8,3.9
		C170,93.1,168.2,94,166.7,93.4z"/>
	<path class="st0" d="M88.7,200.5c1.6,0.6,2.4,2.2,1.8,3.8c-0.5,1.6-2.3,2.4-3.8,1.9c-1.5-0.5-2.4-2.4-1.9-3.9
		C85.3,200.8,87.1,199.9,88.7,200.5z"/>
	<path class="st0" d="M127.5,117.4c1.5,0.6,2.3,2.4,1.7,3.9c-0.6,1.5-2.4,2.2-4,1.6c-1.4-0.6-2.1-2.2-1.6-3.7
		C124.2,117.6,126,116.8,127.5,117.4z"/>
	<path class="st0" d="M92.1,280c-0.5,1.6-2.3,2.4-3.9,1.8c-1.5-0.6-2.3-2.4-1.7-3.9c0.6-1.4,2.2-2.2,3.7-1.7
		C91.8,276.7,92.6,278.4,92.1,280z"/>
	<path class="st0" d="M115.2,138.6c-0.6,1.5-2.4,2.3-3.9,1.6c-1.4-0.6-2.1-2.3-1.6-3.8c0.5-1.5,2.3-2.4,3.9-1.8
		C115.1,135.3,115.8,137,115.2,138.6z"/>
	<path class="st0" d="M150.6,96c1.5,0.6,2.3,2.5,1.6,4c-0.7,1.5-2.5,2.2-4,1.5c-1.4-0.7-2.1-2.3-1.5-3.8
		C147.3,96.2,149.1,95.4,150.6,96z"/>
	<path class="st0" d="M84.7,239.8c-0.6,1.5-2.4,2.3-3.9,1.6c-1.5-0.7-2.2-2.4-1.5-3.9c0.6-1.4,2.3-2.1,3.7-1.6
		C84.5,236.5,85.3,238.3,84.7,239.8z"/>
	<path class="st0" d="M83.7,213.7c1.6,0.5,2.4,2.2,1.8,3.8s-2.3,2.4-3.9,1.8c-1.4-0.6-2.2-2.2-1.8-3.7
		C80.4,214,82.1,213.1,83.7,213.7z"/>
	<path class="st0" d="M110.8,321.5c1.5,0.5,2.4,2.3,1.8,3.8c-0.6,1.5-2.3,2.3-3.9,1.7c-1.4-0.6-2.2-2.2-1.7-3.6
		C107.5,321.8,109.3,321,110.8,321.5z"/>
	<path class="st0" d="M143.2,104c-0.6,1.6-2.4,2.3-3.9,1.6c-1.4-0.6-2.1-2.3-1.5-3.8c0.6-1.5,2.2-2.2,3.7-1.7
		C142.9,100.6,143.8,102.4,143.2,104z"/>
	<path class="st0" d="M138.1,357.6c-0.6,1.5-2.4,2.3-4,1.6c-1.4-0.7-2.1-2.3-1.5-3.8c0.6-1.5,2.2-2.2,3.7-1.7
		C137.9,354.2,138.7,356,138.1,357.6z"/>
	<path class="st0" d="M86.1,267.2c1.5,0.5,2.3,2.1,1.8,3.6c-0.5,1.6-2.2,2.5-3.8,1.9c-1.5-0.5-2.3-2.1-1.8-3.6
		C82.8,267.5,84.6,266.7,86.1,267.2z"/>
	<path class="st0" d="M91.3,182.1c-0.6,1.6-2.3,2.4-3.9,1.7c-1.4-0.6-2.2-2.2-1.6-3.7c0.6-1.6,2.4-2.4,3.9-1.7
		C91.1,178.9,91.8,180.6,91.3,182.1z"/>
	<path class="st0" d="M116.7,334.3c-0.5,1.6-2.3,2.4-3.8,1.8c-1.5-0.6-2.2-2.2-1.7-3.7c0.5-1.5,2.1-2.3,3.6-1.9
		C116.3,331,117.3,332.7,116.7,334.3z"/>
	<path class="st0" d="M90.7,166.8c0.6-1.6,2.4-2.3,3.9-1.6c1.4,0.6,2.1,2.3,1.5,3.8c-0.6,1.5-2.2,2.2-3.7,1.7
		C91,170.2,90.1,168.4,90.7,166.8z"/>
	<path class="st0" d="M151.6,373.2c-1.5-0.6-2.3-2.4-1.7-3.9c0.6-1.4,2.3-2.1,3.7-1.6c1.5,0.5,2.2,2.2,1.8,3.7
		C154.9,372.9,153.2,373.8,151.6,373.2z"/>
	<path class="st0" d="M101.1,155.9c-0.6,1.5-2.2,2.2-3.7,1.6c-1.5-0.6-2.3-2.4-1.7-3.9c0.6-1.5,2.4-2.2,3.9-1.5
		C101.1,152.8,101.7,154.4,101.1,155.9z"/>
	<path class="st0" d="M120.7,343.5c-0.6,1.5-2.2,2.2-3.7,1.6c-1.5-0.6-2.3-2.5-1.6-3.9c0.7-1.4,2.3-2,3.8-1.4
		C120.7,340.5,121.3,342,120.7,343.5z"/>
	<path class="st0" d="M76.8,232.3c-1.5-0.5-2.2-2.1-1.7-3.6c0.5-1.5,2.1-2.3,3.5-1.9c1.5,0.5,2.4,2.3,1.8,3.8
		C79.9,232.1,78.3,232.8,76.8,232.3z"/>
	<path class="st0" d="M79.5,204.7c1.6,0.5,2.3,2,1.8,3.6c-0.5,1.5-2.1,2.3-3.6,1.8c-1.4-0.5-2.3-2.2-1.8-3.6
		C76.4,205,78,204.2,79.5,204.7z"/>
	<path class="st0" d="M171.6,80.1c-1.4-0.5-2.3-2.2-1.8-3.6"/>
	<path class="st0" d="M134,108c-0.6,1.5-2.1,2.2-3.6,1.7c-1.5-0.5-2.3-2.4-1.7-3.9c0.6-1.4,2.3-2.1,3.7-1.5
		C133.9,105,134.6,106.5,134,108z"/>
	<path class="st0" d="M153.4,88.3c-1.4-0.5-2.2-2.4-1.6-3.7c0.6-1.4,2.3-2.1,3.7-1.5c1.4,0.6,2,2,1.5,3.5
		C156.5,88.1,154.9,88.8,153.4,88.3z"/>
	<path class="st0" d="M157.8,376.8c1.4,0.6,2.1,2.3,1.6,3.7c-0.6,1.4-2.2,2.1-3.7,1.6c-1.5-0.6-2.2-2.1-1.6-3.6
		C154.7,377,156.4,376.3,157.8,376.8z"/>
	<path class="st0" d="M169,387.1c-1.5-0.5-2.3-2-1.8-3.5c0.5-1.6,2.2-2.4,3.8-1.8"/>
	<path class="st0" d="M86.2,195.3c-0.6,1.5-2.2,2.2-3.6,1.7c-1.5-0.5-2.4-2.4-1.7-3.9c0.6-1.4,2.3-2.1,3.8-1.5
		C86.1,192.2,86.8,193.8,86.2,195.3z"/>
	<path class="st0" d="M107.4,131.1c-1.4-0.5-2.3-2.2-1.8-3.6c0.5-1.4,2-2.1,3.4-1.7c1.6,0.4,2.4,1.9,1.9,3.5
		C110.5,130.7,108.9,131.6,107.4,131.1z"/>
	<path class="st0" d="M83.8,261.9c-0.5,1.5-2.1,2.2-3.6,1.8c-1.5-0.5-2.3-2-1.9-3.5c0.5-1.6,2.2-2.5,3.8-1.9
		C83.6,258.8,84.3,260.4,83.8,261.9z"/>
	<path class="st0" d="M138.5,368.2c-1.4-0.5-2.3-2.2-1.8-3.7c0.5-1.5,2.1-2.2,3.6-1.7c1.6,0.5,2.3,2,1.8,3.6
		C141.6,367.9,140,368.7,138.5,368.2z"/>
	<path class="st0" d="M124.9,352.4c-0.5,1.5-2.1,2.2-3.6,1.7c-1.5-0.5-2.1-1.9-1.7-3.4c0.5-1.5,2-2.4,3.5-2
		C124.5,349.2,125.3,351,124.9,352.4z"/>
	<path class="st0" d="M79.6,252.9c-0.6,1.5-2.2,2.2-3.6,1.6c-1.4-0.6-2.1-2.3-1.6-3.7c0.6-1.4,2.2-2.1,3.7-1.6
		C79.5,249.9,80.2,251.4,79.6,252.9z"/>
	<path class="st0" d="M106,142.6c-0.6,1.5-2.2,2.2-3.6,1.7c-1.5-0.6-2.3-2.4-1.6-3.9c0.6-1.4,2.3-2,3.7-1.4
		C105.9,139.6,106.6,141.1,106,142.6z"/>
	<path class="st0" d="M164.6,78.9c1.4,0.6,2.1,2.3,1.6,3.7c-0.6,1.4-2.2,2.1-3.7,1.5c-1.5-0.6-2.2-2.1-1.6-3.6
		C161.5,79,163.1,78.3,164.6,78.9z"/>
	<path class="st0" d="M120.1,125.3c-0.5,1.5-2.1,2.2-3.6,1.7c-1.5-0.5-2.3-2-1.9-3.6c0.5-1.6,2.2-2.5,3.8-1.9
		C119.9,122.1,120.6,123.8,120.1,125.3z"/>
	<path class="st0" d="M91.5,312.9c-1.5-0.6-2.1-2.2-1.5-3.7c0.6-1.3,2.1-2,3.5-1.5c1.4,0.5,2.2,2.3,1.7,3.7
		C94.7,312.8,93,313.5,91.5,312.9z"/>
	<path class="st0" d="M101.9,325.8c1.4,0.6,2.1,2.5,1.5,3.8c-0.6,1.3-2.2,1.9-3.6,1.3c-1.5-0.6-2.1-2.2-1.4-3.7
		C99,325.9,100.6,325.3,101.9,325.8z"/>
	<path class="st0" d="M75.5,243.7c-0.4,1.4-2,2.2-3.4,1.8c-1.6-0.4-2.4-2-1.9-3.5c0.5-1.4,2-2.2,3.4-1.8
		C75,240.5,76,242.3,75.5,243.7z"/>
	<path class="st0" d="M88.4,161.4c-1.5-0.6-2.2-2.1-1.6-3.6c0.5-1.4,2.1-2.1,3.4-1.7c1.4,0.4,2.3,2.2,1.8,3.6
		C91.6,161.2,89.9,162,88.4,161.4z"/>
	<path class="st0" d="M99.3,320.2c-0.5,1.5-2.1,2.3-3.6,1.8c-1.4-0.5-2.2-2.3-1.7-3.7c0.5-1.3,2-2.1,3.4-1.6
		C99.1,317.2,99.8,318.7,99.3,320.2z"/>
	<path class="st0" d="M76.2,221.7c-0.6,1.3-2.2,2-3.5,1.5c-1.4-0.5-2.2-2.4-1.6-3.7c0.6-1.4,2.4-2,3.8-1.4
		C76.3,218.8,76.8,220.3,76.2,221.7z"/>
	<path class="st0" d="M78.5,187.7c-1.4-0.5-2.1-2-1.6-3.4c0.5-1.5,2.2-2.3,3.6-1.8c1.4,0.5,2.2,2.4,1.6,3.8
		C81.5,187.6,79.9,188.3,78.5,187.7z"/>
	<path class="st0" d="M148,90.9c-0.6,1.4-2.4,2-3.8,1.3c-1.4-0.7-1.9-2.1-1.3-3.5c0.6-1.3,2.2-2,3.5-1.5
		C147.8,87.6,148.6,89.5,148,90.9z"/>
	<path class="st0" d="M81.3,280.6c1.4,0.6,2,2.1,1.5,3.5c-0.6,1.5-2.3,2.2-3.7,1.6c-1.3-0.6-2-2.3-1.5-3.5
		C78.1,280.7,79.9,280,81.3,280.6z"/>
	<path class="st0" d="M125,112.1c-0.5,1.4-2.2,2.1-3.7,1.6c-1.4-0.6-2.1-2-1.6-3.4c0.5-1.5,2.1-2.3,3.6-1.8
		C124.6,108.9,125.5,110.7,125,112.1z"/>
	<path class="st0" d="M85.4,289.6c1.4,0.6,2.1,2.4,1.5,3.7c-0.6,1.4-2.3,2-3.8,1.4c-1.4-0.6-2-2-1.4-3.5
		C82.3,289.8,84,289,85.4,289.6z"/>
	<path class="st0" d="M83.5,174.6c-1.5-0.5-2.2-2.1-1.6-3.6c0.5-1.4,2-2.1,3.4-1.7c1.4,0.4,2.3,2.2,1.8,3.6
		C86.6,174.4,85,175.1,83.5,174.6z"/>
	<path class="st0" d="M91.1,302.2c-0.5,1.5-2.2,2.3-3.6,1.7c-1.4-0.5-2.1-2.4-1.6-3.7c0.5-1.3,2.1-2,3.5-1.5
		C90.9,299.2,91.6,300.6,91.1,302.2z"/>
	<path class="st0" d="M128.8,361.5c-0.5,1.3-2,2.1-3.4,1.7c-1.4-0.4-2.3-2.2-1.7-3.6c0.5-1.4,2.3-2.1,3.7-1.5
		C128.8,358.6,129.4,360.1,128.8,361.5z"/>
	<path class="st0" d="M171.4,392.5"/>
	<path class="st0" d="M144.5,371.9c1.4,0.5,2.2,2.3,1.6,3.7c-0.5,1.3-2.1,2-3.5,1.5c-1.4-0.5-2.1-1.9-1.7-3.3
		C141.4,372.3,143.1,371.4,144.5,371.9z"/>
	<path class="st0" d="M93.3,148.2c-1.4-0.6-2-2-1.5-3.4c0.5-1.5,2.2-2.2,3.6-1.6c1.3,0.5,2,2.2,1.5,3.5
		C96.4,148.1,94.7,148.8,93.3,148.2z"/>
	<path class="st0" d="M74.6,265.9c-0.5,1.4-2,2.2-3.4,1.7c-1.4-0.5-2.1-2-1.7-3.4c0.5-1.4,2-2.1,3.4-1.7
		C74.3,263,75,264.5,74.6,265.9z"/>
	<path class="st0" d="M163.4,389.5c-0.5,1.4-2,2.1-3.4,1.7c-1.4-0.5-2.2-2.3-1.6-3.7c0.6-1.3,2.2-2,3.5-1.4
		C163.2,386.6,163.9,388.1,163.4,389.5z"/>
	<path class="st0" d="M75.1,276.6c-1.4-0.6-2-2-1.5-3.5c0.5-1.4,2.1-2.1,3.4-1.7c1.4,0.5,2.2,2.3,1.6,3.7
		C78.1,276.5,76.5,277.1,75.1,276.6z"/>
	<path class="st0" d="M71.3,234.6c-0.5,1.4-2,2.1-3.4,1.6c-1.4-0.5-2.1-2.1-1.6-3.4s2-2.1,3.4-1.6C71,231.7,71.8,233.3,71.3,234.6z"
		/>
	<path class="st0" d="M115.8,116.2c-0.5,1.4-2,2.1-3.4,1.7c-1.4-0.5-2.2-2.3-1.6-3.6c0.6-1.3,2.2-2,3.5-1.4
		C115.6,113.3,116.3,114.8,115.8,116.2z"/>
	<path class="st0" d="M77.1,199.4c-0.5,1.3-2.1,2-3.5,1.5c-1.5-0.6-2.2-2.2-1.5-3.7c0.6-1.3,2.2-2,3.5-1.4
		C76.9,196.4,77.6,198.1,77.1,199.4z"/>
	<path class="st0" d="M98.3,135c-1.4-0.5-2.1-2-1.6-3.4c0.5-1.5,2.2-2.2,3.6-1.6c1.3,0.6,2,2.2,1.5,3.5
		C101.3,134.8,99.7,135.5,98.3,135z"/>
	<path class="st0" d="M107.5,338.3c-0.5,1.4-2,2.2-3.4,1.8c-1.4-0.4-2.3-2.2-1.8-3.6c0.5-1.3,2.1-2,3.5-1.6
		C107.2,335.4,107.9,336.9,107.5,338.3z"/>
	<path class="st0" d="M72.1,212.4c-0.5,1.4-2,2.2-3.4,1.7c-1.4-0.5-2.1-2-1.7-3.4c0.5-1.4,2-2.2,3.4-1.7
		C71.8,209.4,72.6,211,72.1,212.4z"/>
	<path class="st0" d="M109.8,344c1.4,0.4,2.2,2,1.7,3.4c-0.4,1.4-2,2.2-3.4,1.7s-2.2-2-1.7-3.4C106.9,344.4,108.5,343.6,109.8,344z"
		/>
	<path class="st0" d="M137.4,91.3c1.4,0.6,2,2.1,1.5,3.5c-0.5,1.4-2.1,2.1-3.5,1.6c-1.4-0.5-2.2-2.4-1.6-3.7
		C134.4,91.4,136,90.8,137.4,91.3z"/>
	<path class="st0" d="M150.2,384.5c-0.5,1.4-2,2.1-3.4,1.6c-1.4-0.5-2.1-2-1.6-3.4c0.5-1.4,2-2.1,3.4-1.6
		C150,381.6,150.7,383.2,150.2,384.5z"/>
	<path class="st0" d="M126.2,100.4c-1.3-0.6-2-2.1-1.4-3.5c0.6-1.4,2.1-2,3.5-1.4c1.4,0.6,2,2.1,1.4,3.5
		C129.2,100.3,127.6,101,126.2,100.4z"/>
	<path class="st0" d="M131.4,367.2c1.4,0.6,2,2.1,1.4,3.5c-0.6,1.3-2.2,2-3.5,1.4c-1.3-0.6-2-2.2-1.4-3.5
		C128.5,367.2,130.1,366.6,131.4,367.2z"/>
	<path class="st0" d="M77.8,177.1c-0.5,1.4-2.1,2-3.5,1.5c-1.3-0.5-1.9-1.9-1.5-3.2c0.5-1.4,2-2.2,3.4-1.7
		C77.6,174.1,78.3,175.7,77.8,177.1z"/>
	<path class="st0" d="M170.9,69.3c-0.5,1.4-2.1,2.1-3.4,1.5c-1.3-0.5-2-2.2-1.4-3.5c0.5-1.2,2-1.9,3.3-1.4
		C170.7,66.4,171.4,67.9,170.9,69.3z"/>
	<path class="st0" d="M120.6,103.1c-0.5,1.4-2.1,2-3.5,1.3c-1.3-0.6-1.8-2-1.3-3.3c0.5-1.3,2-1.9,3.2-1.5
		C120.4,100.1,121.2,101.7,120.6,103.1z"/>
	<path class="st0" d="M67.1,258.5c-1.4-0.4-2.2-2-1.7-3.4c0.5-1.4,2-2.1,3.4-1.6c1.3,0.5,2,1.8,1.6,3.2
		C70,258.1,68.5,258.9,67.1,258.5z"/>
	<path class="st0" d="M76.2,293.9c1.3,0.5,2,2.2,1.4,3.5c-0.6,1.2-2,1.8-3.3,1.3c-1.4-0.5-2-2-1.4-3.4C73.5,294,75,293.4,76.2,293.9
		z"/>
	<path class="st0" d="M82.7,316.8c-1.3-0.5-2-1.8-1.6-3.1c0.4-1.4,1.9-2.2,3.3-1.7c1.3,0.5,2.1,2.1,1.5,3.4
		C85.4,316.7,84,317.3,82.7,316.8z"/>
	<path class="st0" d="M115.6,356.5c-0.5,1.3-2,2-3.4,1.5c-1.3-0.5-1.9-1.8-1.5-3.2c0.5-1.4,2-2.2,3.3-1.7
		C115.3,353.6,116.1,355.2,115.6,356.5z"/>
	<path class="st0" d="M81.8,306.2c-0.5,1.4-2,2.1-3.4,1.6c-1.2-0.5-1.9-2-1.5-3.3c0.5-1.4,2-2.1,3.4-1.5
		C81.7,303.6,82.3,304.9,81.8,306.2z"/>
	<path class="st0" d="M106.6,120.2c-0.5,1.4-2,2.1-3.4,1.6c-1.3-0.5-2-2.1-1.5-3.4c0.5-1.2,1.9-1.9,3.2-1.5
		C106.4,117.3,107.1,118.7,106.6,120.2z"/>
	<path class="st0" d="M82.8,163.8c-0.5,1.4-2,2.1-3.4,1.5c-1.3-0.5-2-1.8-1.5-3.2c0.4-1.4,1.9-2.2,3.3-1.7
		C82.5,160.9,83.3,162.5,82.8,163.8z"/>
	<path class="st0" d="M87.7,150.7c-0.5,1.4-2,2-3.4,1.5c-1.3-0.5-1.9-1.8-1.5-3.2c0.5-1.4,2-2.2,3.3-1.7
		C87.5,147.8,88.2,149.4,87.7,150.7z"/>
	<path class="st0" d="M67,225.7c-0.5,1.3-2,1.9-3.2,1.5c-1.3-0.5-2.1-2.1-1.5-3.4c0.5-1.4,2.1-2,3.5-1.3C67,223,67.5,224.3,67,225.7
		z"/>
	<path class="st0" d="M72.9,190.1c-0.5,1.4-2,2.1-3.4,1.6c-1.3-0.5-2-1.8-1.6-3.1c0.4-1.4,1.9-2.2,3.2-1.8
		C72.6,187.2,73.3,188.8,72.9,190.1z"/>
	<path class="st0" d="M161.9,73.3c-0.5,1.4-2,2.1-3.4,1.6c-1.3-0.5-2-1.8-1.6-3.1c0.4-1.4,1.9-2.3,3.3-1.8
		C161.5,70.3,162.3,71.9,161.9,73.3z"/>
	<path class="st0" d="M167.3,398.5c-0.5,1.3-1.9,2-3.1,1.6c-1.4-0.4-2.2-2-1.7-3.4c0.5-1.4,2.1-2,3.4-1.5
		C167.3,395.8,167.8,397.2,167.3,398.5z"/>
	<path class="st0" d="M151.4,74.2c1.4,0.6,1.9,2.1,1.3,3.5c-0.6,1.2-2,1.8-3.2,1.4c-1.3-0.5-2-2.1-1.5-3.4
		C148.4,74.2,150,73.6,151.4,74.2z"/>
	<path class="st0" d="M92.6,137.6c-0.6,1.3-2.1,1.9-3.5,1.2c-1.3-0.6-1.8-2-1.2-3.3c0.5-1.2,2-1.9,3.2-1.4
		C92.4,134.7,93.1,136.4,92.6,137.6z"/>
	<path class="st0" d="M140.4,83c-1.3-0.5-1.9-1.8-1.5-3.1c0.5-1.4,2-2.1,3.3-1.6c1.2,0.5,1.9,2,1.5,3.2
		C143.3,82.8,141.7,83.6,140.4,83z"/>
	<path class="st0" d="M133.7,381.1c-1.4-0.4-2-1.7-1.6-3.1c0.4-1.4,1.9-2.2,3.2-1.8c1.3,0.4,2.1,2.1,1.6,3.4
		C136.5,380.8,135,381.5,133.7,381.1z"/>
	<path class="st0" d="M66.4,200.1c1.3,0.5,2,2.2,1.4,3.5c-0.5,1.2-2,1.8-3.3,1.3c-1.4-0.5-2-2-1.4-3.4
		C63.7,200.2,65.2,199.6,66.4,200.1z"/>
	<path class="st0" d="M73.6,288.1c-0.5,1.4-2,2.1-3.4,1.6c-1.2-0.5-1.9-2-1.5-3.2c0.5-1.3,2-2,3.4-1.5
		C73.4,285.4,74,286.7,73.6,288.1z"/>
	<path class="st0" d="M66.2,247.8c-0.5,1.2-1.9,1.9-3.2,1.5c-1.5-0.5-2.1-1.9-1.6-3.3c0.5-1.3,1.9-2,3.1-1.5
		C65.9,244.9,66.7,246.5,66.2,247.8z"/>
	<path class="st0" d="M86.8,325.9c-1.3-0.4-2.1-2.1-1.6-3.4c0.5-1.2,1.9-1.9,3.2-1.5c1.3,0.5,2,1.7,1.6,3.1
		C89.6,325.6,88.2,326.4,86.8,325.9z"/>
	<path class="st0" d="M140.9,388.5c-0.5,1.3-1.9,2-3.2,1.5c-1.2-0.5-1.9-2.1-1.4-3.3c0.5-1.2,1.8-1.8,3-1.4
		C140.7,385.8,141.4,387.2,140.9,388.5z"/>
	<path class="st0" d="M67.1,177.9c1.3,0.5,2,1.8,1.5,3.1c-0.5,1.3-1.9,2-3.1,1.6c-1.2-0.4-2-2-1.6-3.2
		C64.3,178.2,65.8,177.5,67.1,177.9z"/>
	<path class="st0" d="M131.3,87.2c-1.1-0.5-1.9-2.1-1.5-3.2c0.5-1.4,2.1-2,3.4-1.4c1.3,0.6,1.8,1.9,1.2,3.2
		C134,87,132.5,87.7,131.3,87.2z"/>
	<path class="st0" d="M62,238.7c-0.5,1.3-1.9,2-3.2,1.6c-1.2-0.4-2-2-1.5-3.2c0.4-1.2,1.9-1.9,3.2-1.5C61.8,236,62.5,237.3,62,238.7
		z"/>
	<path class="st0" d="M124,86.6c1.2,0.5,1.9,2.1,1.4,3.3c-0.5,1.3-2,1.9-3.3,1.3c-1.2-0.5-1.8-1.8-1.3-3
		C121.3,86.8,122.8,86.1,124,86.6z"/>
	<path class="st0" d="M154.1,393.5c-0.5,1.3-1.8,2-3.1,1.7c-1.3-0.4-2.1-2.1-1.6-3.4c0.5-1.2,1.9-1.9,3.2-1.4
		C154,390.8,154.6,392.1,154.1,393.5z"/>
	<path class="st0" d="M111.5,107c-0.4,1.3-1.8,2-3.1,1.6c-1.3-0.4-2.1-2.1-1.6-3.4c0.5-1.2,1.9-1.9,3.2-1.4
		C111.3,104.3,112,105.6,111.5,107z"/>
	<path class="st0" d="M120.5,376c-1.3-0.5-2-1.8-1.5-3.1c0.5-1.3,1.9-2,3.1-1.5c1.2,0.4,1.9,2,1.5,3.2
		C123.3,375.8,121.8,376.5,120.5,376z"/>
	<path class="st0" d="M73.5,168c-0.5,1.3-2,1.9-3.2,1.4c-1.2-0.5-1.9-2.1-1.4-3.3c0.5-1.2,2-1.9,3.2-1.4
		C73.5,165.3,74.1,166.7,73.5,168z"/>
	<path class="st0" d="M116.4,367.1c-1.2-0.4-2-1.9-1.6-3.2c0.4-1.3,1.8-2,3.1-1.7c1.5,0.4,2.2,1.8,1.7,3.3
		C119.1,366.8,117.7,367.5,116.4,367.1z"/>
	<path class="st0" d="M97.6,124.3c-0.4,1.2-1.9,1.9-3.1,1.5c-1.4-0.4-2-1.7-1.6-3c0.4-1.4,1.9-2.2,3.3-1.7
		C97.2,121.5,98,123.1,97.6,124.3z"/>
	<path class="st0" d="M96.7,339.3c1.3,0.5,2,1.8,1.5,3.1c-0.4,1.3-1.8,2-3.1,1.6c-1.3-0.4-2.1-2.1-1.6-3.4
		C94,339.4,95.4,338.8,96.7,339.3z"/>
	<path class="st0" d="M92.5,330.1c1.2,0.4,2,1.9,1.7,3.1c-0.4,1.3-1.7,2.1-3.1,1.7c-1.5-0.4-2.3-1.8-1.8-3.2
		C89.8,330.4,91.2,329.7,92.5,330.1z"/>
	<path class="st0" d="M99.1,352.9c-1.3-0.5-1.9-1.9-1.4-3.2c0.5-1.3,2-1.9,3.2-1.4c1.2,0.5,1.9,2.1,1.4,3.2
		C101.8,352.8,100.3,353.4,99.1,352.9z"/>
	<path class="st0" d="M78.5,154.8c-0.5,1.2-2,1.9-3.2,1.4c-1.2-0.5-1.8-2.1-1.4-3.2c0.5-1.2,2-1.8,3.2-1.3
		C78.4,152.2,79,153.5,78.5,154.8z"/>
	<path class="st0" d="M62.1,271.5c-1.2-0.4-2-2-1.5-3.2c0.4-1.2,1.9-1.9,3.2-1.5c1.3,0.5,2,1.8,1.5,3.1
		C64.8,271.2,63.4,271.9,62.1,271.5z"/>
	<path class="st0" d="M62.9,216.6c-0.5,1.2-2,1.9-3.2,1.4c-1.3-0.5-1.9-1.9-1.4-3.2c0.5-1.3,2-1.9,3.2-1.4
		C62.6,213.8,63.3,215.4,62.9,216.6z"/>
	<path class="st0" d="M66.3,280.6c-1.3-0.4-2-1.7-1.6-3.1c0.4-1.4,2-2.2,3.3-1.7c1.2,0.5,1.9,2,1.5,3.2
		C69.1,280.3,67.6,281,66.3,280.6z"/>
	<path class="st0" d="M83.5,141.5c-0.4,1.3-1.8,2-3.1,1.6c-1.2-0.4-2-2-1.5-3.2c0.4-1.1,1.8-1.8,3-1.5
		C83.1,138.8,83.9,140.1,83.5,141.5z"/>
	<path class="st0" d="M63.7,194.1c-0.4,1.3-1.8,2-3.1,1.6c-1.2-0.4-2-2-1.5-3.2c0.4-1.2,1.8-1.8,3-1.5
		C63.4,191.5,64.1,192.8,63.7,194.1z"/>
	<path class="st0" d="M171.3,407.7c-0.5,1.2-2,1.8-3.3,1.2c-1.3-0.6-1.8-2-1.1-3.3c0.6-1.1,2-1.7,3.1-1.2"/>
	<path class="st0" d="M158.1,402.5c-0.5,1.3-1.9,1.9-3.2,1.4c-1.2-0.5-1.7-1.8-1.3-3c0.5-1.3,1.9-1.9,3.2-1.4
		C158,400,158.6,401.4,158.1,402.5z"/>
	<path class="st0" d="M154.3,65.7c-1.1-0.5-1.8-1.9-1.4-3c0.5-1.3,2-1.9,3.2-1.4c1.3,0.5,1.8,2,1.2,3.3
		C156.9,65.6,155.5,66.1,154.3,65.7z"/>
	<path class="st0" d="M148.4,68.4c-0.5,1.3-2,1.8-3.2,1.2c-1.1-0.5-1.6-1.9-1.2-3.1c0.5-1.3,2-1.8,3.2-1.2
		C148.4,65.9,148.9,67.3,148.4,68.4z"/>
	<path class="st0" d="M171.1,54.4"/>
	<path class="st0" d="M114.9,90.8c1.3,0.5,1.9,1.9,1.4,3.2c-0.5,1.1-1.8,1.7-3,1.3c-1.2-0.4-1.8-1.7-1.5-2.9
		C112.2,91,113.6,90.3,114.9,90.8z"/>
	<path class="st0" d="M104.8,357.4c1.3,0.4,2,1.8,1.5,3.1c-0.5,1.2-1.8,1.8-3,1.4c-1.3-0.4-2-1.8-1.5-3.1
		C102.3,357.7,103.6,357.1,104.8,357.4z"/>
	<path class="st0" d="M61.1,261c-0.5,1.3-2,1.8-3.3,1.2c-1.1-0.6-1.7-1.9-1.2-3.1c0.5-1.2,1.8-1.8,3-1.4
		C60.9,258.2,61.6,259.8,61.1,261z"/>
	<path class="st0" d="M102.3,111.2c-0.5,1.3-2,1.9-3.3,1.2c-1.2-0.5-1.7-1.9-1.2-3.1c0.5-1.2,1.8-1.8,3-1.4
		C102.1,108.4,102.8,110,102.3,111.2z"/>
	<path class="st0" d="M88.4,128.3c-0.4,1.3-1.9,2-3.1,1.5c-1.2-0.5-1.8-1.8-1.4-3c0.4-1.2,1.7-1.9,2.9-1.6
		C88,125.6,88.8,127,88.4,128.3z"/>
	<path class="st0" d="M54.7,231c-1.3-0.5-1.9-2-1.3-3.2c0.5-1.1,1.9-1.7,3-1.2c1.1,0.5,1.8,1.8,1.4,3C57.4,230.8,56,231.5,54.7,231z
		"/>
	<path class="st0" d="M166.6,60.1c-0.4,1.2-1.7,1.9-3,1.5c-1.3-0.4-2.1-1.8-1.6-3.1c0.5-1.3,2-2,3.2-1.5
		C166.4,57.5,167,59,166.6,60.1z"/>
	<path class="st0" d="M72.6,310.3c-0.4,1.2-1.8,1.8-3,1.5c-1.3-0.4-2-1.9-1.4-3.2c0.5-1.2,1.9-1.7,3-1.3
		C72.4,307.8,73,309.1,72.6,310.3z"/>
	<path class="st0" d="M75.2,316.3c1.2,0.4,1.8,1.8,1.5,2.9c-0.4,1.3-1.9,2-3.2,1.5c-1.2-0.5-1.8-1.8-1.3-3
		C72.7,316.5,74.1,315.9,75.2,316.3z"/>
	<path class="st0" d="M127.6,383.7c-0.5,1.2-1.8,1.8-3,1.3c-1.2-0.5-1.8-1.7-1.4-3c0.5-1.3,1.9-2,3.2-1.4
		C127.6,381.1,128.1,382.5,127.6,383.7z"/>
	<path class="st0" d="M58.6,207.4c-0.4,1.2-1.8,1.8-3,1.4c-1.2-0.4-1.9-1.7-1.5-2.9c0.4-1.3,1.9-2,3.1-1.5
		C58.5,204.9,59.1,206.2,58.6,207.4z"/>
	<path class="st0" d="M64.2,292.3c-0.5,1.2-1.9,1.8-3,1.2c-1.1-0.5-1.7-1.9-1.2-3.1c0.5-1.2,1.9-1.7,3.1-1.2
		C64.2,289.8,64.7,291.1,64.2,292.3z"/>
	<path class="st0" d="M64.3,171.9c-0.4,1.2-1.7,1.9-2.9,1.5c-1.1-0.4-1.8-1.8-1.5-2.9c0.4-1.2,1.7-1.8,2.9-1.4
		C64.2,169.5,64.8,170.7,64.3,171.9z"/>
	<path class="st0" d="M105.8,95c1.2,0.4,1.8,1.7,1.4,2.9c-0.4,1.2-1.8,1.8-2.9,1.4c-1.1-0.4-1.8-1.8-1.4-3
		C103.3,95.2,104.6,94.6,105.8,95z"/>
	<path class="st0" d="M110.3,369.5c-0.4,1.2-1.8,1.9-2.9,1.5c-1.2-0.4-1.8-1.8-1.4-3c0.4-1.2,1.7-1.8,3-1.4
		C110.2,367,110.8,368.3,110.3,369.5z"/>
	<path class="st0" d="M144.9,397.6c-0.5,1.2-1.8,1.8-3,1.4c-1.2-0.4-1.8-1.8-1.4-3c0.4-1.2,1.8-1.8,3-1.3
		C144.8,395.1,145.3,396.3,144.9,397.6z"/>
	<path class="st0" d="M80.7,328.4c-0.5,1.2-1.8,1.8-3,1.4s-1.8-1.8-1.3-3c0.4-1.2,1.8-1.8,3-1.3C80.6,325.9,81.2,327.2,80.7,328.4z"
		/>
	<path class="st0" d="M71.2,147c-1.1-0.4-1.8-1.8-1.3-3c0.4-1.2,1.8-1.8,3-1.3c1.2,0.5,1.8,1.7,1.3,2.9
		C73.7,146.9,72.4,147.5,71.2,147z"/>
	<path class="st0" d="M82,338.8c-1.3-0.4-1.9-1.6-1.5-2.9c0.4-1.2,1.7-1.9,2.9-1.5c1.1,0.4,1.8,1.8,1.5,2.9
		C84.5,338.6,83.2,339.2,82,338.8z"/>
	<path class="st0" d="M93.3,115.1c-0.4,1.2-1.7,1.9-2.9,1.5c-1.3-0.4-1.9-1.6-1.5-2.9c0.4-1.2,1.7-1.9,2.9-1.5
		C92.9,112.6,93.6,113.9,93.3,115.1z"/>
	<path class="st0" d="M67,298.2c1.2,0.4,1.9,1.8,1.5,2.9c-0.4,1.2-1.7,1.9-2.9,1.5c-1.3-0.4-1.9-1.6-1.5-2.9
		C64.5,298.5,65.8,297.8,67,298.2z"/>
	<path class="st0" d="M54,253.2c-1.3-0.4-1.9-1.7-1.4-2.9c0.4-1.2,1.8-1.9,2.9-1.5c1.2,0.4,1.8,1.8,1.4,3
		C56.5,253,55.2,253.6,54,253.2z"/>
	<path class="st0" d="M139.4,72.4c-0.4,1.2-1.8,1.8-3,1.3c-1.2-0.5-1.8-1.7-1.3-3c0.5-1.2,1.8-1.8,3-1.4
		C139.2,69.9,139.8,71.3,139.4,72.4z"/>
	<path class="st0" d="M69.3,158.7c-0.4,1.2-1.7,1.9-2.9,1.5c-1.1-0.4-1.8-1.8-1.5-2.9c0.4-1.2,1.7-1.8,2.9-1.4
		C69.1,156.3,69.7,157.5,69.3,158.7z"/>
	<path class="st0" d="M52.3,217.6c1.1,0.5,1.7,1.9,1.3,3c-0.5,1.1-1.9,1.7-3.1,1.1c-1.1-0.5-1.6-1.6-1.1-2.8
		C49.8,217.8,51.1,217.1,52.3,217.6z"/>
	<path class="st0" d="M77.8,129.6c1.2,0.5,1.8,1.7,1.3,2.9c-0.4,1.1-1.6,1.7-2.7,1.3c-1.1-0.3-1.9-1.8-1.5-2.9
		C75.3,129.8,76.6,129.2,77.8,129.6z"/>
	<path class="st0" d="M171.1,414.9"/>
	<path class="st0" d="M162.2,411.5c-0.4,1.2-1.7,1.8-2.9,1.3c-1.1-0.4-1.7-1.5-1.4-2.7c0.4-1.2,1.6-2,2.8-1.6
		C161.8,408.9,162.6,410.4,162.2,411.5z"/>
	<path class="st0" d="M148.9,406.7c-0.5,1.1-1.9,1.6-3,1c-1.1-0.5-1.5-1.7-1-2.8c0.5-1,1.7-1.6,2.8-1.2
		C148.7,404.1,149.4,405.7,148.9,406.7z"/>
	<path class="st0" d="M88.9,346.5c-0.5,1.2-1.8,1.8-3,1.3c-1.1-0.5-1.7-2-1.2-3.1c0.5-1,1.7-1.5,2.8-1.2
		C88.8,344.1,89.3,345.3,88.9,346.5z"/>
	<path class="st0" d="M91.6,352.6c1.1,0.4,1.8,1.9,1.3,3c-0.4,1-1.7,1.6-2.8,1.2c-1.1-0.4-1.7-1.5-1.4-2.7
		C89.1,352.9,90.5,352.2,91.6,352.6z"/>
	<path class="st0" d="M96.9,99.2c1.1,0.5,1.6,2,1.1,3c-0.5,1-1.8,1.4-2.9,1c-1.2-0.5-1.6-1.8-1-3C94.6,99.2,95.9,98.7,96.9,99.2z"/>
	<path class="st0" d="M127.3,77.9c-1.1-0.4-1.8-1.9-1.4-3c0.5-1.2,1.8-1.7,3-1.2c1.1,0.5,1.6,1.6,1.3,2.8
		C129.8,77.6,128.5,78.3,127.3,77.9z"/>
	<path class="st0" d="M113.2,375.8c1.1,0.5,1.7,2,1.2,3.1c-0.5,1-1.8,1.5-2.9,1c-1.2-0.5-1.7-1.8-1.1-3
		C110.8,375.8,112.1,375.3,113.2,375.8z"/>
	<path class="st0" d="M121.1,80.7c-0.5,1.1-1.9,1.7-3,1.1c-1.1-0.5-1.5-1.7-1-2.8c0.5-1.1,1.7-1.7,2.8-1.3
		C120.9,78.1,121.6,79.6,121.1,80.7z"/>
	<path class="st0" d="M131.6,392.7c-0.5,1.2-1.9,1.7-3,1.2c-1.1-0.5-1.6-2-1-3.1c0.5-1,1.8-1.5,2.9-1
		C131.6,390.3,132.1,391.5,131.6,392.7z"/>
	<path class="st0" d="M53.2,195.5c1.1,0.5,1.6,1.6,1.1,2.8c-0.5,1.2-1.9,1.8-3,1.3c-1-0.5-1.6-1.8-1.2-2.8
		C50.6,195.6,52,195,53.2,195.5z"/>
	<path class="st0" d="M52.7,242.7c-0.4,1.2-1.7,1.9-2.9,1.4c-1.1-0.4-1.8-1.9-1.3-3c0.4-1,1.6-1.6,2.7-1.3
		C52.5,240.2,53.1,241.4,52.7,242.7z"/>
	<path class="st0" d="M56.4,186.5c-1.1-0.4-1.8-1.9-1.3-3c0.5-1.2,1.9-1.7,3.1-1.2c1.1,0.5,1.6,1.6,1.2,2.8
		C58.9,186.3,57.6,187,56.4,186.5z"/>
	<path class="st0" d="M53.1,275.4c-1.1-0.4-1.7-1.9-1.3-3c0.5-1.1,1.9-1.7,3-1.1c1.1,0.5,1.6,1.6,1.2,2.8
		C55.5,275.2,54.2,275.8,53.1,275.4z"/>
	<path class="st0" d="M58.8,280.2c1.1,0.4,1.8,1.9,1.3,3c-0.5,1.2-1.9,1.7-3,1.2c-1.1-0.5-1.6-1.6-1.2-2.8
		C56.3,280.3,57.7,279.7,58.8,280.2z"/>
	<path class="st0" d="M150.4,56.4c-1-0.4-1.7-1.7-1.3-2.8c0.4-1.2,1.8-1.8,2.9-1.3c1.1,0.5,1.6,1.7,1.1,2.8
		C152.7,56.2,151.5,56.8,150.4,56.4z"/>
	<path class="st0" d="M162.3,51.1c-0.4,1-1.7,1.6-2.8,1.2c-1.2-0.5-1.8-1.8-1.2-3c0.5-1,1.8-1.5,2.8-1.1
		C162.1,48.7,162.7,50.1,162.3,51.1z"/>
	<path class="st0" d="M84,119.2c-0.4,1.1-1.6,1.8-2.6,1.5c-1.1-0.3-1.9-1.8-1.4-2.9c0.4-1.1,1.7-1.6,2.8-1.2
		C83.8,116.9,84.4,118,84,119.2z"/>
	<path class="st0" d="M170,44.1c1.1,0.4,1.7,1.5,1.3,2.7c-0.4,1.1-1.6,1.8-2.7,1.5c-1.1-0.3-1.9-1.8-1.4-2.9
		C167.6,44.3,168.9,43.7,170,44.1z"/>
	<path class="st0" d="M49,266.2c-1.1-0.5-1.6-1.6-1.2-2.8c0.4-1.1,1.6-1.7,2.7-1.3c1.1,0.4,1.8,1.9,1.3,3
		C51.3,266.1,50,266.6,49,266.2z"/>
	<path class="st0" d="M94.3,365.9c-1-0.3-1.7-1.7-1.4-2.7c0.3-1.1,1.5-1.7,2.7-1.4c1.3,0.3,1.9,1.6,1.5,2.8
		C96.6,365.7,95.4,366.3,94.3,365.9z"/>
	<path class="st0" d="M48.6,233.6c-0.4,1.1-1.6,1.7-2.7,1.4c-1.1-0.3-1.8-1.5-1.5-2.6c0.3-1.2,1.7-1.9,2.9-1.5
		C48.3,231.2,48.9,232.6,48.6,233.6z"/>
	<path class="st0" d="M48.1,208.7c1.1,0.4,1.7,1.5,1.3,2.7c-0.4,1.1-1.6,1.8-2.7,1.5c-1.1-0.3-1.9-1.8-1.4-2.9
		C45.7,208.8,47,208.3,48.1,208.7z"/>
	<path class="st0" d="M135.6,401.6c-0.4,1.1-1.6,1.6-2.7,1.2c-1.1-0.4-1.6-1.6-1.2-2.7c0.4-1.1,1.6-1.6,2.7-1.2
		C135.5,399.3,136.1,400.6,135.6,401.6z"/>
	<path class="st0" d="M118.3,387.8c-0.5,1.1-1.8,1.6-2.8,1.1c-1-0.5-1.5-1.9-1.1-2.9c0.5-1,1.8-1.5,2.9-1.1
		C118.3,385.4,118.8,386.7,118.3,387.8z"/>
	<path class="st0" d="M67.4,323.4c-0.4,1.1-1.6,1.7-2.7,1.2c-1.1-0.4-1.6-1.7-1.2-2.7c0.4-1.1,1.6-1.6,2.7-1.2
		C67.2,321.1,67.8,322.3,67.4,323.4z"/>
	<path class="st0" d="M61.9,311.6c1.1,0.3,1.7,1.6,1.4,2.7c-0.4,1.1-1.5,1.7-2.6,1.3c-1.1-0.3-1.7-1.5-1.4-2.7
		C59.6,311.9,60.8,311.2,61.9,311.6z"/>
	<path class="st0" d="M59.1,305.4c-0.5,1.1-1.7,1.5-2.8,1.1c-1-0.5-1.6-1.8-1.1-2.8c0.5-1,1.8-1.5,2.8-1.1
		C59.1,303.1,59.6,304.3,59.1,305.4z"/>
	<path class="st0" d="M47.7,255.8c-0.3,1.1-1.6,1.8-2.6,1.4c-1.1-0.3-1.7-1.6-1.4-2.7c0.3-1.1,1.5-1.7,2.6-1.4
		C47.4,253.5,48,254.7,47.7,255.8z"/>
	<path class="st0" d="M57.4,164.1c-1.1-0.4-1.7-1.6-1.3-2.7c0.4-1.1,1.6-1.7,2.7-1.3c1,0.4,1.7,1.7,1.3,2.8
		C59.7,163.9,58.5,164.5,57.4,164.1z"/>
	<path class="st0" d="M135,63.3c-0.4,1.1-1.6,1.7-2.7,1.3c-1.1-0.4-1.6-1.6-1.3-2.7c0.4-1.1,1.6-1.6,2.7-1.2
		C134.9,61,135.4,62.2,135,63.3z"/>
	<path class="st0" d="M65.1,149.6c-0.3,1.1-1.6,1.7-2.7,1.4c-1.1-0.4-1.8-1.5-1.4-2.7c0.3-1.1,1.6-1.8,2.7-1.5
		C64.7,147.2,65.4,148.5,65.1,149.6z"/>
	<path class="st0" d="M69.9,136.7c-0.5,1-1.8,1.5-2.8,1.1c-1-0.5-1.5-1.7-1.1-2.8c0.5-1.1,1.7-1.5,2.8-1.1
		C69.8,134.3,70.4,135.6,69.9,136.7z"/>
	<path class="st0" d="M52.3,177.2c-1.1-0.5-1.6-1.7-1.1-2.8c0.5-1.1,1.8-1.6,2.8-1.1c1,0.5,1.6,1.9,1.1,2.8
		C54.7,177.2,53.3,177.7,52.3,177.2z"/>
	<path class="st0" d="M109.3,86c-1-0.3-1.7-1.7-1.4-2.7c0.3-1.1,1.6-1.7,2.7-1.4c1.1,0.4,1.8,1.5,1.4,2.7
		C111.7,85.7,110.4,86.4,109.3,86z"/>
	<path class="st0" d="M144.1,59.3c-0.4,1.1-1.7,1.6-2.8,1.2c-1.1-0.4-1.6-1.6-1.2-2.8c0.4-1.1,1.7-1.6,2.8-1.2
		C144,56.9,144.5,58.2,144.1,59.3z"/>
	<path class="st0" d="M50.1,189.3c-0.4,1.1-1.7,1.6-2.8,1.1c-1.1-0.5-1.6-1.8-1-2.8c0.6-1.1,1.5-1.4,2.6-1
		C50,186.9,50.5,188.1,50.1,189.3z"/>
	<path class="st0" d="M75.6,341.5c-0.4,1.1-1.7,1.7-2.7,1.2c-1.1-0.5-1.5-1.4-1.2-2.5c0.3-1.2,1.5-1.8,2.6-1.4
		C75.4,339.2,76,340.4,75.6,341.5z"/>
	<path class="st0" d="M86.3,107.3c-1.1-0.4-1.7-1.6-1.3-2.7c0.4-1.1,1.3-1.6,2.5-1.3c1.1,0.2,1.8,1.5,1.5,2.6
		C88.6,107,87.4,107.7,86.3,107.3z"/>
	<path class="st0" d="M55,296.3c-0.4,1.1-1.7,1.6-2.8,1.1c-1-0.5-1.5-1.8-1-2.8c0.6-1,1.5-1.4,2.6-1C54.9,293.9,55.4,295.2,55,296.3
		z"/>
	<path class="st0" d="M164.9,417.9c1.1,0.4,1.6,1.7,1.2,2.8c-0.5,1.1-1.7,1.6-2.8,1c-1.1-0.5-1.4-1.4-1.1-2.5
		C162.5,418,163.8,417.5,164.9,417.9z"/>
	<path class="st0" d="M71.5,332.4c-0.4,1.1-1.6,1.7-2.7,1.3c-1.1-0.4-1.6-1.6-1.2-2.7c0.4-1,1.5-1.5,2.5-1.2
		C71.2,330,71.8,331.2,71.5,332.4z"/>
	<path class="st0" d="M99.9,371c1.1,0.4,1.7,1.7,1.1,2.8c-0.5,1-1.4,1.5-2.5,1.1c-1.1-0.3-1.7-1.6-1.3-2.7
		C97.5,371.1,98.8,370.5,99.9,371z"/>
	<path class="st0" d="M40.6,223.1c0.4-1,1.5-1.5,2.5-1.1c1.1,0.4,1.6,1.7,1.2,2.7c-0.4,1.1-1.7,1.5-2.8,1
		C40.5,225.1,40.1,224.1,40.6,223.1z"/>
	<path class="st0" d="M152.8,415.7c-0.5,1.1-1.8,1.5-2.8,1c-1-0.5-1.4-1.6-0.9-2.6c0.4-1,1.6-1.5,2.5-1.1
		C152.8,413.4,153.3,414.7,152.8,415.7z"/>
	<path class="st0" d="M102.8,88.8c-0.4,1-1.5,1.5-2.5,1.2c-1.1-0.3-1.7-1.6-1.3-2.7c0.4-1.1,1.6-1.6,2.8-1.1
		C102.8,86.7,103.2,87.8,102.8,88.8z"/>
	<path class="st0" d="M74.8,123.4c-0.4,1-1.5,1.5-2.5,1.1c-1.1-0.4-1.6-1.7-1.2-2.7c0.5-1.1,1.7-1.5,2.8-1
		C74.8,121.3,75.2,122.4,74.8,123.4z"/>
	<path class="st0" d="M123.4,68.6c-1.1-0.4-1.7-1.6-1.3-2.7c0.4-1,1.5-1.5,2.5-1.2c1.1,0.3,1.6,1.3,1.4,2.4
		C125.6,68.3,124.5,69,123.4,68.6z"/>
	<path class="st0" d="M50.8,287.4c-0.5,1-1.9,1.4-2.9,0.8c-0.9-0.5-1.2-1.7-0.7-2.7c0.5-1,1.6-1.4,2.6-1
		C50.8,285,51.3,286.3,50.8,287.4z"/>
	<path class="st0" d="M50.8,167.1c-0.4,1-1.6,1.4-2.6,0.9c-1-0.5-1.4-1.5-0.9-2.5c0.5-1,1.6-1.4,2.6-1
		C50.8,164.9,51.3,166.1,50.8,167.1z"/>
	<path class="st0" d="M121.2,394.1c1.1,0.4,1.5,1.4,1.2,2.5c-0.4,1-1.5,1.6-2.5,1.3c-1.1-0.3-1.7-1.7-1.3-2.7
		C119,394.2,120.2,393.7,121.2,394.1z"/>
	<path class="st0" d="M42.2,244.2c1.1,0.4,1.6,1.4,1.2,2.5c-0.3,1.1-1.4,1.7-2.4,1.4c-1.1-0.3-1.8-1.6-1.4-2.7
		C40,244.4,41.2,243.9,42.2,244.2z"/>
	<path class="st0" d="M55.9,153.7c-0.3,1-1.5,1.5-2.5,1.2c-1.1-0.4-1.6-1.4-1.2-2.5c0.4-1,1.5-1.6,2.5-1.2
		C55.6,151.5,56.2,152.8,55.9,153.7z"/>
	<path class="st0" d="M46.6,278.1c-0.4,1-1.6,1.5-2.5,1.1c-1.1-0.4-1.6-1.8-1.1-2.8c0.5-1,1.6-1.3,2.6-0.9
		C46.7,276,47.1,277.1,46.6,278.1z"/>
	<path class="st0" d="M137.1,411.8c-1.1-0.4-1.5-1.4-1.2-2.5c0.4-1,1.4-1.6,2.4-1.3c1.1,0.3,1.7,1.6,1.3,2.7
		C139.3,411.6,138.1,412.1,137.1,411.8z"/>
	<path class="st0" d="M83.7,359.6c-0.4,1-1.5,1.5-2.5,1.1c-1.1-0.3-1.6-1.4-1.2-2.4c0.4-1.1,1.6-1.7,2.6-1.3
		C83.6,357.4,84.1,358.7,83.7,359.6z"/>
	<path class="st0" d="M79.7,110.1c-0.4,1-1.5,1.6-2.5,1.2c-0.9-0.3-1.5-1.6-1.2-2.5c0.3-1,1.5-1.5,2.5-1.1
		C79.6,108,80.1,109.1,79.7,110.1z"/>
	<path class="st0" d="M93.8,92.8c-0.3,1-1.5,1.5-2.5,1.2c-1.1-0.3-1.6-1.3-1.2-2.4c0.4-1,1.4-1.6,2.4-1.3
		C93.4,90.6,94.1,91.8,93.8,92.8z"/>
	<path class="st0" d="M79.6,350.6c-0.4,1-1.5,1.5-2.5,1.2c-1.1-0.4-1.6-1.7-1.2-2.8c0.5-1,1.6-1.4,2.6-1
		C79.5,348.4,80,349.5,79.6,350.6z"/>
	<path class="st0" d="M105.1,382.6c-0.3,1-1.5,1.5-2.5,1.2c-1.1-0.3-1.6-1.3-1.3-2.4c0.3-1.2,1.5-1.8,2.6-1.4
		C104.9,380.4,105.5,381.6,105.1,382.6z"/>
	<path class="st0" d="M115.6,68.9c1,0.3,1.6,1.5,1.3,2.5c-0.3,1.1-1.5,1.7-2.6,1.3c-1-0.4-1.5-1.4-1.1-2.5
		C113.5,69.1,114.6,68.6,115.6,68.9z"/>
	<path class="st0" d="M45.1,202.3c-0.4,1-1.5,1.6-2.5,1.2c-1.1-0.4-1.7-1.7-1.2-2.8c0.4-1,1.6-1.4,2.6-1
		C45,200.2,45.5,201.3,45.1,202.3z"/>
	<path class="st0" d="M59.5,138c0.9,0.3,1.6,1.5,1.3,2.4c-0.3,1-1.4,1.5-2.4,1.2c-1.1-0.3-1.6-1.3-1.3-2.4
		C57.4,138.3,58.5,137.7,59.5,138z"/>
	<path class="st0" d="M45.9,180.2c-0.4,0.9-1.6,1.4-2.5,1c-1-0.4-1.4-1.5-1-2.5c0.4-1,1.6-1.5,2.5-1C45.7,178,46.3,179.3,45.9,180.2
		z"/>
	<path class="st0" d="M37.7,216.7c-0.9-0.3-1.6-1.5-1.3-2.5c0.3-1,1.4-1.5,2.4-1.2c1.1,0.3,1.6,1.3,1.2,2.4
		C39.8,216.4,38.7,217,37.7,216.7z"/>
	<path class="st0" d="M167,37.6c-0.3,1-1.4,1.6-2.4,1.3c-0.9-0.3-1.6-1.5-1.3-2.4c0.3-1,1.4-1.6,2.4-1.3
		C166.8,35.6,167.3,36.6,167,37.6z"/>
	<path class="st0" d="M42.5,269c-0.4,0.9-1.6,1.4-2.5,1c-1-0.4-1.5-1.5-1-2.5c0.4-0.9,1.6-1.5,2.5-1.1
		C42.4,266.9,42.9,268.1,42.5,269z"/>
	<path class="st0" d="M87.7,368.5c-0.3,1-1.4,1.6-2.4,1.3c-0.9-0.3-1.6-1.5-1.3-2.4c0.3-1,1.4-1.5,2.4-1.2
		C87.6,366.4,88.1,367.4,87.7,368.5z"/>
	<path class="st0" d="M155.6,43c-1.1-0.3-1.6-1.3-1.2-2.4c0.3-1,1.4-1.6,2.4-1.3c0.9,0.3,1.5,1.5,1.3,2.5
		C157.7,42.7,156.5,43.3,155.6,43z"/>
	<path class="st0" d="M39.3,237.7c-0.4,0.9-1.5,1.4-2.5,1.1c-1-0.4-1.5-1.4-1.1-2.5c0.4-1,1.6-1.5,2.5-1.1
		C39.1,235.6,39.6,236.8,39.3,237.7z"/>
	<path class="st0" d="M81.8,98.6c-0.3-1.3-0.8-2.2-0.6-3c0.2-1,1.2-1.4,2.2-1c1,0.3,1.6,1.6,1,2.5C83.9,97.7,83,97.9,81.8,98.6z"/>
	<path class="st0" d="M126.4,405.6c-0.3,0.9-1.6,1.5-2.5,1.1c-1-0.4-1.4-1.2-1.1-2.2c0.3-1,1.4-1.6,2.4-1.3
		C126.1,403.5,126.8,404.7,126.4,405.6z"/>
	<path class="st0" d="M107.6,75.5c-0.4,1-1.6,1.5-2.5,1.2c-0.9-0.4-1.5-1.7-1-2.5c0.5-0.9,1.3-1.3,2.3-1
		C107.5,73.4,108,74.5,107.6,75.5z"/>
	<path class="st0" d="M90.9,374.6c0.4,1.3,1,2.2,0.9,2.9c-0.1,1-1.1,1.5-2.1,1.2c-1.1-0.3-1.8-1.5-1.2-2.4
		C88.8,375.7,89.7,375.4,90.9,374.6z"/>
	<path class="st0" d="M38.5,259.4c-0.6,1.5-1.8,2-2.7,1.5c-0.9-0.5-1.3-1.3-1-2.3c0.3-1,1.7-1.6,2.5-1C38,258.1,38.3,259,38.5,259.4
		z"/>
	<path class="st0" d="M50.5,309.4c-1.3,0.5-2.1,1-2.9,0.9c-1.1-0.1-1.5-1-1.3-2.1c0.2-1,1.5-1.8,2.4-1.2
		C49.4,307.4,49.7,308.3,50.5,309.4z"/>
	<path class="st0" d="M55.3,329c-0.3-1.3-0.8-2.2-0.6-3c0.2-1,1.2-1.4,2.2-1c1,0.3,1.6,1.7,1,2.5C57.4,328.1,56.5,328.4,55.3,329z"
		/>
	<path class="st0" d="M69.8,111.3c0.3,1.3,0.8,2.2,0.6,3c-0.2,1-1.2,1.4-2.2,1c-1-0.3-1.6-1.6-1-2.5C67.7,112.2,68.6,112,69.8,111.3
		z"/>
	<path class="st0" d="M54.5,318.6c-1.3,0.4-2.1,0.8-2.9,0.8c-1.1-0.1-1.5-1.5-1-2.5c0.5-1,1.5-1.4,2.3-0.8
		C53.6,316.5,53.8,317.4,54.5,318.6z"/>
	<path class="st0" d="M64.6,125c0.9,0.4,1.4,1.7,1,2.6c-0.4,0.9-1.6,1.4-2.6,0.9c-1-0.5-1.3-1.3-0.9-2.3
		C62.5,125.1,63.7,124.6,64.6,125z"/>
	<path class="st0" d="M139.8,50c-0.4,1-1.6,1.5-2.5,1c-1-0.5-1.3-1.3-1-2.3c0.4-1,1.2-1.4,2.2-1.2C139.5,47.8,140.1,49.1,139.8,50z"
		/>
	<path class="st0" d="M37.9,194.1c-0.1-0.5-0.6-1.3-0.5-2.1c0.1-1,1.5-1.6,2.4-1.1c0.9,0.5,1.3,1.3,1,2.3
		C40.6,194.2,39.4,194.7,37.9,194.1z"/>
	<path class="st0" d="M129.7,51.1c0.5,1.3,1,2.1,1,2.9c0,1-1.4,1.7-2.4,1.2c-1-0.5-1.5-1.4-1-2.3C127.6,52.3,128.6,51.9,129.7,51.1z
		"/>
	<path class="st0" d="M62.8,336.5c-1.3,0.5-2.1,1-2.8,1c-1.1,0-1.7-1.3-1.2-2.3c0.4-1,1.4-1.5,2.3-1C61.7,334.5,62,335.4,62.8,336.5
		z"/>
	<path class="st0" d="M106.6,392.8c-0.9-0.3-1.5-1.7-1.1-2.5c0.4-0.9,1.6-1.4,2.6-0.9c1,0.5,1.3,1.3,1,2.3
		C108.8,392.6,107.6,393.2,106.6,392.8z"/>
	<path class="st0" d="M154.3,425.7c-0.9-0.4-1.4-1.7-1-2.6c0.5-0.9,1.7-1.3,2.6-0.8c1,0.5,1.2,1.3,0.9,2.3
		C156.4,425.6,155.2,426.1,154.3,425.7z"/>
	<path class="st0" d="M140.9,421.3c-0.3-1.3-0.8-2.2-0.6-3c0.2-1,1.2-1.4,2.2-1c1,0.3,1.6,1.7,1,2.5
		C143,420.4,142.1,420.6,140.9,421.3z"/>
	<path class="st0" d="M148.8,45.9c-0.4,1-1.6,1.5-2.5,1.2c-0.9-0.4-1.5-1.7-1-2.5c0.5-0.9,1.3-1.3,2.3-1
		C148.7,43.8,149.2,44.9,148.8,45.9z"/>
	<path class="st0" d="M167.5,430.7c-0.9-0.4-1.4-1.7-1-2.6c0.5-0.9,1.7-1.3,2.6-0.8c1,0.5,1.2,1.3,0.9,2.3
		C169.6,430.6,168.4,431.1,167.5,430.7z"/>
	<path class="st0" d="M63.8,347.2c-0.4-1.3-1-2.1-0.9-2.8c0.1-1,1-1.5,2.1-1.2c1,0.2,1.8,1.5,1.2,2.3
		C65.8,346.1,64.9,346.4,63.8,347.2z"/>
	<path class="st0" d="M46.3,300.5c-1.3,0.4-2.1,0.8-2.9,0.8c-1-0.1-1.5-1.5-1-2.4c0.5-1,1.4-1.3,2.3-0.8
		C45.3,298.4,45.6,299.3,46.3,300.5z"/>
	<path class="st0" d="M122.1,58.6c-1.3,0.4-2.1,0.8-2.9,0.7c-1-0.1-1.5-1.5-1-2.4c0.5-1,1.5-1.3,2.3-0.8
		C121.2,56.5,121.5,57.4,122.1,58.6z"/>
	<path class="st0" d="M97.6,76.7c0.4,1.3,0.9,2.1,0.8,2.8c-0.1,1-1,1.5-2.1,1.2c-1-0.2-1.7-1.5-1.2-2.4
		C95.6,77.8,96.5,77.5,97.6,76.7z"/>
	<path class="st0" d="M35,203.4c0.4,1.3,0.9,2.1,0.8,2.8c-0.2,1-1.1,1.5-2.1,1.2c-1-0.3-1.7-1.5-1.1-2.4
		C33,204.5,33.9,204.2,35,203.4z"/>
	<path class="st0" d="M35.7,228.8c-1.3,0.4-2.1,0.9-2.8,0.9c-1-0.1-1.5-1-1.2-2.1c0.2-1,1.5-1.8,2.3-1.2
		C34.6,226.8,34.9,227.6,35.7,228.8z"/>
	<path class="st0" d="M110.6,402.4c-0.4-1.3-0.9-2.2-0.8-2.9c0.2-1,1.1-1.4,2.2-1c1,0.4,1.5,1.2,1,2.2
		C112.6,401.3,111.7,401.6,110.6,402.4z"/>
	<path class="st0" d="M131.1,414.8c-1.3,0.4-2.1,0.9-2.8,0.8c-1-0.1-1.5-1-1.1-2.1c0.3-1,1.2-1.6,2.1-1.1
		C129.9,412.8,130.2,413.7,131.1,414.8z"/>
	<path class="st0" d="M34,251.2c-0.6,0.2-1.4,0.7-2.1,0.6c-1-0.2-1.4-1.2-1.1-2.2c0.4-1,1.2-1.4,2.2-1
		C34.1,248.9,34.4,249.8,34,251.2z"/>
	<path class="st0" d="M50.6,141.7c0.4,1.3,0.9,2.1,0.8,2.9c-0.1,1-1.1,1.4-2.1,1.1c-1-0.3-1.6-1.2-1-2.1
		C48.7,142.8,49.5,142.5,50.6,141.7z"/>
	<path class="st0" d="M42.2,291.5c-1.3,0.3-2.2,0.7-2.9,0.5c-1-0.2-1.3-1.2-0.9-2.2c0.4-1,1.3-1.5,2.2-0.9
		C41.2,289.4,41.5,290.3,42.2,291.5z"/>
	<path class="st0" d="M45.9,154.9c0.3,1.4,0.8,2.2,0.6,2.9c-0.2,1-1.2,1.3-2.2,0.9c-1-0.4-1.4-1.3-0.9-2.2
		C43.8,155.9,44.7,155.6,45.9,154.9z"/>
	<path class="st0" d="M70.2,354.9c-0.5,0.2-1.4,0.7-2.1,0.6c-1-0.2-1.4-1.1-1.1-2.1c0.3-1,1.1-1.4,2.2-1.1
		C70.2,352.6,70.6,353.4,70.2,354.9z"/>
	<path class="st0" d="M40.6,168c0.5,1.3,1.1,2.1,1,2.8c-0.1,1-1,1.5-2.1,1.2c-1.1-0.3-1.6-1.1-1.1-2.1
		C38.7,169.2,39.6,168.8,40.6,168z"/>
	<path class="st0" d="M158.4,435.3c-0.4-1.3-0.8-2.2-0.7-2.9c0.2-0.9,1.1-1.2,2-0.9c1,0.3,1.5,1.3,1,2.2
		C160.2,434.2,159.5,434.5,158.4,435.3z"/>
	<path class="st0" d="M36.8,183.8c-0.6,1.3-1.7,1.6-2.6,1.1c-0.9-0.5-1.1-1.3-0.6-2.1c0.4-0.9,1.3-1.3,2-0.8
		C36.2,182.4,36.5,183.3,36.8,183.8z"/>
	<path class="st0" d="M95.3,384.6c0.1,0.5,0.5,1.4,0.4,2.1c-0.1,0.9-1.4,1.2-2.3,0.8s-1.1-1.2-0.8-2.1C93,384.5,94,384.1,95.3,384.6
		z"/>
	<path class="st0" d="M72.1,365.1c-0.4-1.2-0.9-1.9-0.9-2.5c0-1,1.2-1.5,2.1-1.2c0.9,0.3,1.5,1.5,1,2.2
		C73.9,364.2,73.1,364.5,72.1,365.1z"/>
	<path class="st0" d="M33.8,273.3c-1.2,0.3-2,0.7-2.6,0.6c-1-0.1-1.3-1-1.1-1.9c0.3-1,1.5-1.6,2.2-1
		C32.9,271.4,33.2,272.2,33.8,273.3z"/>
	<path class="st0" d="M27.4,243.2c-0.2-1.2-0.6-2-0.4-2.7c0.2-1,1.1-1.2,2-0.9c0.9,0.3,1.5,1.6,0.9,2.3
		C29.4,242.4,28.6,242.6,27.4,243.2z"/>
	<path class="st0" d="M171.2,439.4c-0.1-0.5-0.5-1.3-0.4-2.1"/>
	<path class="st0" d="M89.5,83.4C89,84.7,87.8,85,87,84.6c-0.9-0.5-1.1-1.2-0.7-2.1c0.4-0.9,1.2-1.4,2-0.9
		C88.9,82,89.2,82.9,89.5,83.4z"/>
	<path class="st0" d="M35,283.8c-0.4-1.4-0.9-2.2-0.8-2.9c0.1-0.9,1.3-1.3,2.2-1c0.9,0.4,1.4,1.2,0.9,2
		C37,282.6,36.1,282.9,35,283.8z"/>
	<path class="st0" d="M111.5,59.4c0.5,1.4,0.9,2.1,0.9,2.9c0,0.9-1.2,1.4-2.2,1c-0.9-0.4-1.4-1.1-1-2
		C109.6,60.7,110.4,60.3,111.5,59.4z"/>
	<path class="st0" d="M71.5,99.3c1.4-0.2,2.3-0.5,3-0.4c0.9,0.2,1.1,1.1,0.8,2c-0.4,0.9-1.5,1.5-2.2,0.9
		C72.5,101.5,72.2,100.6,71.5,99.3z"/>
	<path class="st0" d="M116.4,407c0.3,1.2,0.7,2,0.7,2.7c-0.1,0.9-1.4,1.3-2.3,0.9c-0.9-0.5-1.2-1.3-0.7-2.1
		C114.6,407.9,115.4,407.6,116.4,407z"/>
	<path class="st0" d="M58.9,119.8c-0.3-1.2-0.7-2-0.6-2.6c0.1-1,1-1.3,2-1.1c0.9,0.2,1.5,1.5,1,2.2C60.8,118.9,60,119.1,58.9,119.8z
		"/>
	<path class="st0" d="M31.3,219.9c-1.2,0.3-1.9,0.7-2.6,0.6c-0.9-0.1-1.4-1.4-1-2.3c0.4-0.8,1.6-1.3,2.3-0.7
		C30.5,217.9,30.7,218.8,31.3,219.9z"/>
	<path class="st0" d="M147,426c0.2,1.2,0.6,2,0.5,2.7c-0.2,1-1.1,1.2-2,1c-0.9-0.3-1.5-1.6-0.9-2.3C145,426.8,145.8,426.6,147,426z"
		/>
	<path class="st0" d="M54.2,132.4c-1-0.3-1.4-1.3-1-2.2c0.4-0.9,1.1-1.2,2-1c0.9,0.2,1.5,1.3,1.2,2.2
		C56.2,132.3,55.2,132.7,54.2,132.4z"/>
	<path class="st0" d="M79.4,85.1c0.4,1.2,0.9,2,0.8,2.6c-0.1,1-1,1.3-1.9,1c-0.9-0.3-1.4-1.1-1-2C77.5,86.2,78.3,85.9,79.4,85.1z"/>
	<path class="st0" d="M160.3,30.1c-0.4-1.2-0.8-1.9-0.8-2.6c0-0.9,1.3-1.4,2.2-1c0.9,0.4,1.3,1.2,0.8,2
		C162.1,29.1,161.3,29.4,160.3,30.1z"/>
	<path class="st0" d="M140.9,35.4c1.2-0.3,1.9-0.7,2.6-0.6c0.9,0.1,1.3,1,1,1.9c-0.3,0.9-1.5,1.5-2.2,1
		C141.8,37.2,141.5,36.4,140.9,35.4z"/>
	<path class="st0" d="M103.9,66.6c-1.2,0.4-1.9,0.8-2.6,0.8c-0.8,0-1.4-1.5-1-2.2c0.5-0.8,1.3-1.3,2.1-0.7
		C102.9,64.8,103.2,65.6,103.9,66.6z"/>
	<path class="st0" d="M77.6,369.9c0.4,1.2,0.8,1.9,0.7,2.6c-0.1,1-1,1.3-1.9,1.1c-0.9-0.1-1.6-1.5-1.1-2.2
		C75.8,370.9,76.6,370.6,77.6,369.9z"/>
	<path class="st0" d="M32.2,197.3c-1.1,0.4-1.9,0.9-2.5,0.8c-0.9-0.1-1.4-0.9-1.2-1.8c0.2-0.9,1.3-1.7,2.1-1.2
		C31.2,195.6,31.5,196.3,32.2,197.3z"/>
	<path class="st0" d="M169.7,25.4c-0.9-0.1-1.4-0.9-1.2-1.8c0.2-0.9,1.3-1.7,2.1-1.2"/>
	<path class="st0" d="M136,41.1c-1.2,0.3-1.9,0.8-2.6,0.7c-0.9-0.1-1.3-1-1-1.9c0.3-0.9,1.2-1.4,2-0.9C135,39.2,135.3,40.1,136,41.1
		z"/>
	<path class="st0" d="M135,423.7c-1.2,0.4-2,1-2.6,0.9c-0.9-0.1-1.3-1-1-1.9c0.3-0.9,1-1.4,1.9-1C133.8,422,134.2,422.8,135,423.7z"
		/>
	<path class="st0" d="M29.7,264.2c-1.3,0.3-2,0.7-2.7,0.6c-0.9-0.2-1.2-1.1-0.9-2c0.4-0.8,1.2-1.3,2-0.8
		C28.7,262.3,28.9,263.1,29.7,264.2z"/>
	<path class="st0" d="M97.4,397.2c-0.3-1.2-0.7-1.9-0.6-2.6c0.1-0.9,1.4-1.3,2.2-0.8c0.9,0.5,1.2,1.3,0.6,2.1
		C99.3,396.3,98.4,396.6,97.4,397.2z"/>
	<path class="st0" d="M154.1,33c-1.2,0.3-1.9,0.7-2.6,0.6c-0.9-0.1-1.3-1-1-1.9c0.3-0.9,1.5-1.5,2.2-1
		C153.2,31.1,153.5,31.9,154.1,33z"/>
	<path class="st0" d="M46.7,333c-0.4-1.2-0.9-2-0.8-2.6c0.1-0.5,1.1-1,1.6-1c0.9,0,1.5,0.9,1.1,1.8C48.5,331.8,47.7,332.2,46.7,333z
		"/>
	<path class="st0" d="M162.7,444.3c-0.4-1.3-0.9-2.1-0.7-2.7c0.1-0.4,1.2-1,1.7-0.8c0.5,0.1,1.1,1.1,1,1.6
		C164.5,442.9,163.7,443.3,162.7,444.3z"/>
	<path class="st0" d="M66.7,105.4c-1.3,0.2-2.1,0.6-2.7,0.4c-0.9-0.3-1.2-1.3-0.6-2c0.4-0.5,1.4-0.8,1.8-0.6
		C65.8,103.4,66,104.3,66.7,105.4z"/>
	<path class="st0" d="M33.1,175.3c-1.4,0.3-2.2,0.7-2.7,0.4c-0.4-0.2-0.9-1.3-0.7-1.7c0.2-0.5,1.2-1,1.6-0.9
		C31.9,173.3,32.2,174.2,33.1,175.3z"/>
	<path class="st0" d="M42.2,323.9c-0.2-1.3-0.6-2.1-0.4-2.7c0.3-0.9,1.3-1.2,2-0.6c0.4,0.3,0.8,1.4,0.6,1.8
		C44.2,322.9,43.4,323.1,42.2,323.9z"/>
	<path class="st0" d="M117.8,49.2c-1.2,0.3-2,0.8-2.6,0.6c-0.4-0.1-0.9-1.2-0.8-1.7c0.1-1,1-1.3,1.9-0.9
		C116.8,47.5,117.1,48.3,117.8,49.2z"/>
	<path class="st0" d="M38.3,314.8c-0.3-1.3-0.7-2.1-0.5-2.7c0.2-0.4,1.2-0.9,1.7-0.8c0.9,0.1,1.4,1,1,1.9
		C40.2,313.8,39.3,314.1,38.3,314.8z"/>
	<path class="st0" d="M125.7,42.4c0.2,1.3,0.6,2.1,0.5,2.7c-0.3,0.9-1.2,1.2-2,0.7c-0.5-0.3-0.9-1.4-0.7-1.8
		C123.7,43.4,124.6,43.1,125.7,42.4z"/>
	<path class="st0" d="M83,381.9c-1.3,0.2-2,0.7-2.7,0.5c-0.9-0.2-1.2-1.2-0.7-2c0.3-0.5,1.4-0.9,1.8-0.7
		C82.1,380,82.3,380.9,83,381.9z"/>
	<path class="st0" d="M120.5,416c0.3,1.4,0.7,2.2,0.5,2.8c-0.2,0.4-1.3,0.9-1.7,0.7c-0.5-0.2-1-1.2-0.9-1.6
		C118.5,417.3,119.4,416.9,120.5,416z"/>
	<path class="st0" d="M47.8,135.9c-1.3,0.2-2.2,0.6-2.7,0.3c-0.4-0.2-0.8-1.2-0.7-1.8c0.2-0.9,1.1-1.4,1.9-0.9
		C46.9,133.9,47.1,134.8,47.8,135.9z"/>
	<path class="st0" d="M101.5,406.3c-0.2-1.4-0.6-2.2-0.4-2.8c0.2-0.4,1.3-0.8,1.8-0.6c0.5,0.2,1,1.2,0.8,1.7
		C103.5,405.1,102.6,405.5,101.5,406.3z"/>
	<path class="st0" d="M26.4,232.9c-1.3,0.3-2.1,0.7-2.7,0.5c-0.4-0.2-0.9-1.2-0.8-1.7c0.1-0.9,1-1.4,1.9-1
		C25.3,231,25.6,231.8,26.4,232.9z"/>
	<path class="st0" d="M37,304.5c-1.2,0.3-2.1,0.7-2.6,0.5c-0.4-0.2-0.8-1.2-0.7-1.8c0.2-1,1.1-1.3,1.9-0.8
		C36,302.7,36.3,303.5,37,304.5z"/>
	<path class="st0" d="M94.8,70.6c-1.2,0.4-2,0.8-2.6,0.7c-0.9-0.2-1.4-1.1-0.9-1.9c0.3-0.5,1.3-1,1.7-0.9
		C93.6,68.7,94,69.6,94.8,70.6z"/>
	<path class="st0" d="M56.4,346.9c0.2,1.4,0.6,2.2,0.3,2.8c-0.2,0.4-1.3,0.8-1.8,0.6c-0.4-0.2-0.9-1.3-0.8-1.7
		C54.5,348,55.3,347.7,56.4,346.9z"/>
	<path class="st0" d="M24.5,212c-0.4-1.3-0.8-2-0.7-2.7c0.2-1,1.1-1.3,1.9-0.8c0.5,0.3,1,1.3,0.8,1.7
		C26.3,210.8,25.5,211.2,24.5,212z"/>
	<path class="st0" d="M42.8,149.1c-1.3,0.2-2.2,0.5-2.7,0.3c-0.4-0.2-0.8-1.2-0.7-1.8c0.2-0.9,1.1-1.4,1.9-0.8
		C41.9,147.1,42.2,148,42.8,149.1z"/>
	<path class="st0" d="M37.9,162.2c-1.3,0.2-2.2,0.6-2.7,0.4c-0.4-0.2-0.8-1.2-0.7-1.8c0.2-0.9,1.1-1.4,1.9-0.9
		C37,160.3,37.2,161.1,37.9,162.2z"/>
	<path class="st0" d="M53.4,340.8c-1.3,0.2-2.1,0.6-2.7,0.4c-0.9-0.3-1.2-1.3-0.6-2c0.4-0.5,1.4-0.8,1.8-0.6
		C52.5,338.9,52.7,339.7,53.4,340.8z"/>
	<path class="st0" d="M20.8,221.1c0.4,1.1,0.8,1.9,0.6,2.3c-0.2,0.5-1.1,0.7-1.6,1c-0.3-0.6-0.9-1.2-0.9-1.7
		C19,222.2,19.8,221.8,20.8,221.1z"/>
	<path class="st0" d="M149.5,439.1c-0.4-1.1-0.8-1.8-0.7-2.3c0.2-1,1.1-1.3,1.9-0.8c0.5,0.3,0.8,1.2,0.7,1.7
		C151.2,438.1,150.4,438.4,149.5,439.1z"/>
	<path class="st0" d="M136.2,434.1c-0.3-1.2-0.8-1.9-0.5-2.4c0.2-0.5,1.2-0.8,1.7-0.8c0.8,0.1,1.2,1,0.8,1.7
		C137.9,433.2,137.2,433.4,136.2,434.1z"/>
	<path class="st0" d="M84.4,392.1c-0.3-1.1-0.8-1.8-0.5-2.3c0.2-0.5,1.1-1,1.6-0.9c1,0.1,1.4,1,0.9,1.9
		C86.1,391.2,85.4,391.4,84.4,392.1z"/>
	<path class="st0" d="M63,369c-0.2-1.2-0.7-2-0.4-2.4c0.3-0.5,1.1-0.6,1.7-0.8c0.3,0.6,0.8,1.3,0.7,1.8C64.9,368.1,64,368.3,63,369z
		"/>
	<path class="st0" d="M108.6,53.5c-1.2,0.2-1.8,0.5-2.4,0.4c-0.9-0.2-1.2-1.1-0.7-1.7c0.3-0.5,1.3-0.9,1.7-0.7
		C107.7,51.6,108,52.5,108.6,53.5z"/>
	<path class="st0" d="M52.6,122.5c-1.1,0.3-1.9,0.7-2.3,0.5s-0.9-1.1-0.9-1.6c0.1-0.9,1-1.4,1.9-0.9C51.8,120.8,52,121.6,52.6,122.5
		z"/>
	<path class="st0" d="M59,360c-0.4-1.1-0.8-1.8-0.7-2.3c0.2-1,1.1-1.3,1.9-0.8c0.5,0.3,0.8,1.2,0.7,1.7C60.7,359,59.9,359.3,59,360z
		"/>
	<path class="st0" d="M71.5,92.1c-1.1,0.3-1.8,0.7-2.4,0.6c-0.9-0.2-1.3-1.1-0.8-1.9c0.3-0.4,1.3-0.8,1.8-0.6
		C70.7,90.3,70.9,91.1,71.5,92.1z"/>
	<path class="st0" d="M25.4,189.6c-0.4-1.1-0.9-1.8-0.7-2.2c0.2-0.5,1-1.1,1.6-1c1,0,1.4,1,1,1.8C27.1,188.6,26.3,188.9,25.4,189.6z
		"/>
	<path class="st0" d="M84.2,72.1c0.4,1.1,0.9,1.9,0.7,2.3c-0.2,0.5-1.1,0.9-1.6,0.9c-0.8,0-1.3-0.8-0.9-1.6
		C82.7,73.2,83.3,72.8,84.2,72.1z"/>
	<path class="st0" d="M22.7,256.2c-0.3-1.1-0.7-1.8-0.6-2.4c0.2-1,1.1-1.2,2-0.8c0.8,0.4,1.1,1.1,0.6,1.8
		C24.3,255.4,23.6,255.6,22.7,256.2z"/>
	<path class="st0" d="M26.2,287.6c-0.4-1.1-0.9-1.8-0.8-2.3c0.2-0.5,1.1-0.9,1.6-0.9c0.8,0,1.3,0.8,0.9,1.6
		C27.7,286.5,27.1,286.8,26.2,287.6z"/>
	<path class="st0" d="M30.2,296.6c-0.4-1.1-0.9-1.8-0.7-2.2c0.2-0.5,1-1.1,1.6-1c1,0,1.4,1,1,1.8C32,295.6,31.2,295.9,30.2,296.6z"
		/>
	<path class="st0" d="M105.9,415.2c-0.3-1.2-0.7-1.9-0.5-2.4c0.1-0.4,1.2-1,1.4-0.8c0.5,0.3,1,1.1,1,1.6
		C107.7,414,106.8,414.4,105.9,415.2z"/>
	<path class="st0" d="M56.3,106.6c0.3,1.2,0.8,2,0.6,2.4c-0.2,0.4-1.1,0.7-1.7,0.7c-0.3,0-0.8-1.1-0.7-1.5
		C54.6,107.8,55.3,107.4,56.3,106.6z"/>
	<path class="st0" d="M21.8,198.9c0.2,1.2,0.6,1.9,0.4,2.5c-0.2,0.8-1.1,1.1-1.8,0.6c-0.4-0.3-0.8-1.2-0.6-1.5
		C20.1,199.9,20.8,199.6,21.8,198.9z"/>
	<path class="st0" d="M20,243.3c0.3,1.2,0.8,2,0.6,2.4s-1.1,0.7-1.7,0.7c-0.3,0-0.8-1.1-0.7-1.5C18.3,244.4,19,244.1,20,243.3z"/>
	<path class="st0" d="M165.4,16.5c-0.3-0.9-0.7-1.6-0.5-2c0.2-0.4,1-0.9,1.4-0.8c0.9,0.1,1.2,0.9,0.8,1.7
		C166.9,15.8,166.2,16,165.4,16.5z"/>
	<path class="st0" d="M99.3,57.4c-0.9,0.3-1.6,0.8-1.9,0.6c-0.5-0.3-1-1.1-0.9-1.7c0.1-0.8,1-1.2,1.7-0.7
		C98.6,55.9,98.8,56.6,99.3,57.4z"/>
	<path class="st0" d="M24.4,277.1c-1,0.3-1.6,0.7-2.1,0.6c-0.9-0.1-1.3-0.9-0.8-1.7c0.2-0.4,1.1-0.9,1.5-0.8
		C23.5,275.5,23.8,276.3,24.4,277.1z"/>
	<path class="st0" d="M62.3,95.9c-0.9,0.3-1.5,0.8-1.9,0.7c-0.4-0.1-1-0.9-1-1.4c0-0.9,0.8-1.3,1.6-1C61.4,94.5,61.7,95.2,62.3,95.9
		z"/>
	<path class="st0" d="M37.2,137.4c0.3,0.9,0.8,1.4,0.7,1.9c-0.1,0.9-0.9,1.3-1.6,0.9c-0.4-0.2-0.8-1.1-0.7-1.5
		C35.6,138.2,36.4,138,37.2,137.4z"/>
	<path class="st0" d="M33.4,152.8c-0.9,0.3-1.6,0.8-1.9,0.6c-0.5-0.3-1-1.1-0.9-1.7c0.1-0.8,1-1.2,1.7-0.7
		C32.7,151.4,32.9,152.1,33.4,152.8z"/>
	<path class="st0" d="M90.9,399.8c-0.9,0.3-1.6,0.8-1.9,0.6c-0.5-0.3-1-1.2-0.9-1.7c0.1-0.8,1-1.2,1.7-0.7
		C90.2,398.4,90.4,399,90.9,399.8z"/>
	<path class="st0" d="M67.1,377.9c-0.2-1.1-0.5-1.8-0.3-2.3c0.1-0.4,1.1-0.7,1.6-0.6c0.8,0.2,1.1,1,0.6,1.7
		C68.6,377.2,68,377.4,67.1,377.9z"/>
	<path class="st0" d="M123,429c-0.2-1.1-0.5-1.8-0.3-2.3c0.1-0.4,1.1-0.7,1.6-0.6c0.8,0.2,1.1,1,0.6,1.7
		C124.6,428.2,123.9,428.4,123,429z"/>
	<path class="st0" d="M42.2,124.2c0.3,0.9,0.7,1.5,0.6,2c-0.2,0.4-0.9,0.9-1.4,0.9c-0.9-0.1-1.2-0.9-0.9-1.6
		C40.7,125,41.4,124.8,42.2,124.2z"/>
	<path class="st0" d="M27.6,163.8c0.2,0.9,0.6,1.6,0.3,2c-0.2,0.4-1.1,0.8-1.5,0.7c-0.8-0.2-1.2-1-0.7-1.7
		C26,164.4,26.7,164.3,27.6,163.8z"/>
	<path class="st0" d="M149.5,23.7c-0.9,0.3-1.5,0.7-2,0.5s-0.9-1-0.8-1.4c0.1-0.9,0.9-1.2,1.6-0.9C148.8,22.2,149,22.9,149.5,23.7z"
		/>
	<path class="st0" d="M140.5,27.7c-0.9,0.3-1.5,0.8-2,0.7c-0.9-0.1-1.2-0.9-0.8-1.7c0.2-0.4,1.1-0.8,1.5-0.6
		C139.7,26.2,139.9,26.9,140.5,27.7z"/>
	<path class="st0" d="M158.5,19.6c-0.9,0.2-1.5,0.6-2,0.5c-0.8-0.2-1.2-1.1-0.6-1.8c0.3-0.4,1.2-0.6,1.6-0.5
		C157.9,18.1,158.1,18.8,158.5,19.6z"/>
	<path class="st0" d="M76.2,78.8c-0.9,0.2-1.5,0.6-2,0.5c-0.8-0.2-1.2-1-0.7-1.7c0.3-0.4,1.1-0.6,1.6-0.5
		C75.5,77.3,75.7,78,76.2,78.8z"/>
	<path class="st0" d="M73.5,385.9c-1,0.2-1.7,0.6-2,0.4c-0.4-0.2-0.5-1-0.7-1.5c0.5-0.2,1.1-0.7,1.6-0.6
		C72.8,384.3,73,385.1,73.5,385.9z"/>
	<path class="st0" d="M130.3,29.6c0.3,1,0.7,1.6,0.5,2c-0.2,0.4-1,0.6-1.5,0.8c-0.3-0.5-0.8-1.1-0.7-1.5
		C128.8,30.5,129.5,30.2,130.3,29.6z"/>
	<path class="st0" d="M15.6,215.6c-0.3-0.9-0.8-1.6-0.6-2c0.2-0.4,1-0.9,1.4-0.8s0.8,1,0.8,1.4C17.1,214.7,16.3,215,15.6,215.6z"/>
	<path class="st0" d="M15.9,234.6c0.2,1,0.6,1.7,0.4,2c-0.2,0.4-1,0.5-1.5,0.7c-0.2-0.5-0.7-1.1-0.6-1.6
		C14.3,235.3,15.1,235.1,15.9,234.6z"/>
	<path class="st0" d="M167.9,449.5c0.3,1,0.7,1.6,0.5,2c-0.2,0.4-1,0.6-1.5,0.8c-0.3-0.5-0.8-1.1-0.7-1.5
		C166.4,450.4,167.1,450.1,167.9,449.5z"/>
	<path class="st0" d="M155.9,446.7c-1,0.3-1.6,0.7-2,0.5c-0.4-0.2-0.9-1-0.7-1.5c0.1-0.4,1-0.8,1.4-0.7
		C155,445.2,155.3,445.9,155.9,446.7z"/>
	<path class="st0" d="M23.4,179.4c-1,0.1-1.7,0.5-2,0.2c-0.4-0.2-0.7-1.2-0.5-1.5c0.2-0.4,1.1-0.7,1.5-0.5
		C22.8,177.7,22.9,178.5,23.4,179.4z"/>
	<path class="st0" d="M19.2,265.9c0.2,1,0.6,1.7,0.4,2c-0.2,0.4-1,0.5-1.5,0.7c-0.2-0.5-0.7-1.1-0.6-1.6
		C17.6,266.6,18.4,266.4,19.2,265.9z"/>
	<path class="st0" d="M41.9,345.7c-0.3-1-0.6-1.6-0.6-2.1c0.1-0.3,0.9-0.7,1.3-0.6c0.4,0.1,0.9,0.8,0.8,1.2
		C43.2,344.7,42.6,345,41.9,345.7z"/>
	<path class="st0" d="M142.3,441.8c-0.7,0.2-1.4,0.6-1.6,0.5c-0.4-0.3-0.5-1-0.7-1.5c0.5-0.2,1.1-0.5,1.6-0.4
		C141.9,440.4,142.1,441.2,142.3,441.8z"/>
	<path class="st0" d="M48,113.7c-0.5,0-1.2,0.3-1.6,0.1c-0.4-0.2-0.8-0.9-0.8-1.4c0-0.2,0.9-0.9,1.2-0.8c0.5,0.2,0.8,0.8,1.1,1.2
		C48,113.1,48,113.4,48,113.7z"/>
	<path class="st0" d="M25.1,308.9c-0.1-0.6-0.3-1.2-0.1-1.7c0.1-0.3,1.2-0.5,1.4-0.4c0.4,0.4,0.6,1.1,0.5,1.6
		c-0.1,0.4-0.7,0.8-1.1,1.2C25.5,309.3,25.3,309.1,25.1,308.9z"/>
	<path class="st0" d="M38.8,333.3c0.3,1,0.6,1.7,0.4,2.1c-0.1,0.3-0.9,0.7-1.3,0.5c-0.4-0.1-0.8-0.9-0.7-1.2
		C37.4,334.3,38,334,38.8,333.3z"/>
	<path class="st0" d="M93.9,406.8c0.2,0.9,0.6,1.6,0.4,1.8c-0.3,0.4-1,0.5-1.5,0.7c-0.2-0.5-0.6-1.1-0.5-1.4
		C92.5,407.5,93.2,407.3,93.9,406.8z"/>
	<path class="st0" d="M121.4,34c0.2,0.9,0.5,1.5,0.3,2c-0.1,0.3-1.1,0.6-1.3,0.5c-0.4-0.3-0.6-1-0.5-1.5
		C119.9,34.6,120.6,34.4,121.4,34z"/>
	<path class="st0" d="M89.9,61.5c-0.7,0.2-1.4,0.6-1.6,0.4c-0.4-0.3-0.5-1-0.7-1.5c0.6-0.1,1.1-0.5,1.6-0.4
		C89.5,60.1,89.6,60.9,89.9,61.5z"/>
	<path class="st0" d="M111.3,420.8c0.2,0.9,0.5,1.5,0.3,2c-0.1,0.3-1.1,0.6-1.3,0.5c-0.4-0.3-0.6-1-0.5-1.5
		C109.8,421.4,110.5,421.3,111.3,420.8z"/>
	<path class="st0" d="M35.4,326.6c-0.7,0.2-1.4,0.6-1.6,0.4c-0.4-0.3-0.5-1-0.7-1.5c0.6-0.2,1.1-0.5,1.6-0.4
		C35,325.1,35.1,325.9,35.4,326.6z"/>
	<path class="st0" d="M18.5,192.1c-0.8,0.3-1.4,0.8-1.7,0.6c-0.4-0.2-0.8-0.9-0.8-1.4c0-0.2,0.9-0.8,1.2-0.7
		C17.6,190.8,17.9,191.4,18.5,192.1z"/>
	<path class="st0" d="M30.7,315.4c0.2,0.9,0.4,1.5,0.3,2c-0.1,0.3-1.1,0.6-1.3,0.5c-0.4-0.3-0.6-1-0.6-1.5
		C29.2,316,29.9,315.8,30.7,315.4z"/>
	<path class="st0" d="M80.8,65.6c-0.8,0.1-1.3,0.5-1.7,0.3c-0.3-0.2-0.6-1-0.5-1.3c0.2-0.3,0.9-0.6,1.3-0.5
		C80.3,64.2,80.5,64.9,80.8,65.6z"/>
	<path class="st0" d="M75.4,395.5c-0.1-0.7-0.4-1.3-0.2-1.6c0.2-0.3,0.9-0.4,1.3-0.6c0.2,0.5,0.5,1.1,0.5,1.6
		C77,395.1,76.1,395.2,75.4,395.5z"/>
	<path class="st0" d="M66.8,82.9c-0.7,0.2-1.5,0.6-1.6,0.4c-0.4-0.4-0.4-1-0.6-1.6c0.5-0.1,1.1-0.5,1.5-0.3
		C66.3,81.5,66.5,82.2,66.8,82.9z"/>
	<path class="st0" d="M13.2,205.5c-0.8,0.1-1.3,0.4-1.7,0.2c-0.2-0.1-0.6-0.9-0.4-1.1c0.3-0.3,0.9-0.7,1.2-0.6
		C12.6,204.1,12.8,204.8,13.2,205.5z"/>
	<path class="st0" d="M28.9,143.7c-0.8,0.2-1.4,0.5-1.7,0.4c-0.3-0.2-0.4-0.9-0.6-1.3c0.5-0.2,1-0.6,1.4-0.4
		C28.4,142.4,28.5,143.1,28.9,143.7z"/>
	<path class="st0" d="M10.6,248c0.3,0.7,0.7,1.3,0.6,1.6c-0.1,0.3-0.8,0.6-1.2,0.6c-0.2,0-0.7-0.8-0.6-1
		C9.5,248.8,10,248.5,10.6,248z"/>
	<path class="st0" d="M47.8,353.5c-0.7,0.3-1.2,0.7-1.6,0.6s-0.6-0.7-0.9-1.2c0.5-0.3,0.9-0.8,1.5-0.8
		C47.1,352.1,47.4,352.9,47.8,353.5z"/>
	<path class="st0" d="M51,100.8c-0.2-0.8-0.5-1.3-0.3-1.6c0.2-0.3,0.9-0.4,1.3-0.6c0.2,0.5,0.6,1,0.5,1.4
		C52.3,100.3,51.7,100.5,51,100.8z"/>
	<path class="st0" d="M102,44.9c-0.2-0.8-0.5-1.3-0.3-1.6c0.2-0.3,0.9-0.4,1.3-0.6c0.2,0.5,0.6,1,0.5,1.4
		C103.4,44.4,102.7,44.5,102,44.9z"/>
	<path class="st0" d="M19,169.9c-0.8,0.2-1.4,0.6-1.6,0.5c-0.3-0.2-0.5-0.9-0.5-1.3c0-0.2,0.8-0.6,1.1-0.4
		C18.3,168.8,18.6,169.3,19,169.9z"/>
	<path class="st0" d="M112.1,38.2c0.2,0.7,0.6,1.2,0.5,1.6c-0.1,0.4-0.8,0.6-1.2,0.9c-0.3-0.5-0.7-1-0.7-1.5
		C110.7,38.9,111.5,38.6,112.1,38.2z"/>
	<path class="st0" d="M18.9,290.3c-0.8,0.2-1.4,0.5-1.7,0.3c-0.3-0.2-0.4-0.9-0.6-1.3c0.5-0.2,1-0.5,1.4-0.4
		C18.4,288.9,18.6,289.6,18.9,290.3z"/>
	<path class="st0" d="M97.8,416c0.3,0.7,0.7,1.3,0.5,1.6c-0.1,0.3-0.8,0.5-1.3,0.5c-0.2,0-0.6-0.8-0.5-1
		C96.7,416.8,97.2,416.5,97.8,416z"/>
	<path class="st0" d="M33.9,130.4c-0.8,0.2-1.4,0.6-1.6,0.5c-0.3-0.2-0.5-0.9-0.5-1.3c0-0.2,0.8-0.6,1.1-0.4
		C33.2,129.3,33.4,129.8,33.9,130.4z"/>
	<path class="st0" d="M12.4,227.7c-0.8,0.2-1.4,0.5-1.7,0.3c-0.3-0.2-0.4-0.9-0.6-1.3c0.5-0.2,1-0.5,1.4-0.4
		C11.9,226.4,12,227,12.4,227.7z"/>
	<path class="st0" d="M21.3,300c-0.2-0.7-0.6-1.3-0.4-1.6c0.2-0.4,0.8-0.5,1.2-0.8c0.2,0.5,0.6,1,0.6,1.6
		C22.7,299.4,21.9,299.7,21.3,300z"/>
	<path class="st0" d="M22.2,157.6c-0.2-0.8-0.6-1.4-0.4-1.7c0.2-0.3,0.9-0.5,1.3-0.4c0.2,0,0.6,0.8,0.4,1.1
		C23.4,157,22.9,157.2,22.2,157.6z"/>
	<path class="st0" d="M55.9,371.8c-0.8,0.1-1.3,0.4-1.7,0.2c-0.2-0.1-0.6-0.9-0.4-1.1c0.3-0.3,0.9-0.7,1.2-0.6
		C55.4,370.4,55.5,371.1,55.9,371.8z"/>
	<path class="st0" d="M127.3,437.6c-0.2-0.7-0.6-1.5-0.5-1.6c0.3-0.4,1-0.5,1.5-0.7c0.1,0.5,0.5,1,0.4,1.4
		C128.6,437.1,128,437.3,127.3,437.6z"/>
	<path class="st0" d="M115.4,430.1c0.1,0.8,0.3,1.3,0.1,1.7c-0.1,0.3-1,0.5-1.1,0.4c-0.3-0.3-0.6-1-0.5-1.3
		C114,430.6,114.7,430.5,115.4,430.1z"/>
	<path class="st0" d="M51.9,362.6c-0.7,0.3-1.3,0.7-1.6,0.6c-0.4-0.2-0.5-0.8-0.7-1.3c0.4-0.2,0.9-0.7,1.3-0.6
		C51.2,361.3,51.4,361.9,51.9,362.6z"/>
	<path class="st0" d="M15.7,258.7c-0.7,0.3-1.4,0.9-1.5,0.8c-0.4-0.3-0.6-1-0.9-1.5c0.4-0.2,0.9-0.6,1.3-0.6
		C15,257.5,15.3,258.2,15.7,258.7z"/>
	<path class="st0" d="M59.9,380.8c-0.7,0.2-1.3,0.5-1.4,0.3c-0.3-0.3-0.4-0.8-0.6-1.3c0.4-0.1,0.9-0.5,1.1-0.4
		C59.4,379.6,59.6,380.2,59.9,380.8z"/>
	<path class="st0" d="M81.4,403.7c-0.6,0.2-1.2,0.6-1.4,0.5c-0.4-0.3-0.6-0.8-0.7-1.2c0-0.1,0.8-0.6,1-0.5
		C80.7,402.6,80.9,403.1,81.4,403.7z"/>
	<path class="st0" d="M159.5,455.6c-0.6,0.3-1.1,0.7-1.3,0.5c-0.4-0.2-0.6-0.8-0.7-1.2c0-0.2,0.8-0.7,1-0.6
		C158.9,454.5,159.1,455,159.5,455.6z"/>
	<path class="st0" d="M144.6,451.2c-0.1-0.5-0.3-1-0.1-1.4c0.1-0.2,1-0.5,1.1-0.3c0.3,0.3,0.5,0.9,0.4,1.3c-0.1,0.4-0.5,0.7-0.8,1
		C144.9,451.6,144.7,451.4,144.6,451.2z"/>
	<path class="st0" d="M171.1,461.4c-0.2-0.7-0.5-1.2-0.5-1.6c0-0.2,0.7-0.4,1-0.6"/>
	<path class="st0" d="M13.9,279.4c0.2,0.7,0.5,1.2,0.4,1.6c0,0.2-0.9,0.6-1,0.5c-0.3-0.3-0.6-0.8-0.6-1.2
		C12.8,280,13.4,279.8,13.9,279.4z"/>
	<path class="st0" d="M38.2,115.7c0.1,0.7,0.2,1.2,0.1,1.6c-0.1,0.2-1,0.4-1.1,0.3c-0.2-0.4-0.4-0.9-0.3-1.3
		C36.9,116.1,37.5,116,38.2,115.7z"/>
	<path class="st0" d="M94,46.5c0.2,0.7,0.5,1.2,0.4,1.6c-0.1,0.2-0.7,0.3-1,0.5c-0.2-0.4-0.5-0.9-0.5-1.3
		C92.8,47.1,93.4,46.9,94,46.5z"/>
	<path class="st0" d="M13.2,181.5c0.2,0.7,0.5,1.2,0.4,1.6c-0.1,0.2-0.7,0.4-1,0.5c-0.2-0.4-0.5-0.9-0.5-1.3
		C12,182.1,12.6,181.8,13.2,181.5z"/>
	<path class="st0" d="M56.9,85.2c0.2,0.7,0.4,1.2,0.4,1.6c0,0.2-0.9,0.5-1,0.4c-0.3-0.3-0.6-0.8-0.5-1.2
		C55.7,85.8,56.3,85.6,56.9,85.2z"/>
	<path class="st0" d="M171.7,1.9c-0.1,0.3-0.7,0.5-1.1,0.5c-0.1,0-0.5-0.6-0.5-0.8c0.1-0.4,0.5-0.6,1-1.2"/>
	<path class="st0" d="M125.2,23.3c-0.1-0.6-0.3-1.1-0.2-1.4c0-0.2,0.6-0.2,0.9-0.3c0.1,0.4,0.4,0.8,0.3,1.1
		C126.2,22.8,125.7,23,125.2,23.3z"/>
	<path class="st0" d="M162.9,6.3c-0.7,0.1-1.2,0.3-1.4,0.2c-0.2-0.2-0.3-0.8-0.3-1.2c0-0.1,0.7-0.4,0.9-0.3
		C162.5,5.2,162.6,5.7,162.9,6.3z"/>
	<path class="st0" d="M134.4,19.2c-0.2-0.7-0.4-1.1-0.4-1.4c0-0.2,0.7-0.6,0.8-0.5c0.3,0.2,0.7,0.7,0.7,1
		C135.5,18.6,134.9,18.8,134.4,19.2z"/>
	<path class="st0" d="M8.9,196.2c-0.6,0.2-1,0.5-1.2,0.3c-0.3-0.2-0.4-0.6-0.6-1c0.3-0.2,0.7-0.5,0.9-0.5
		C8.3,195.3,8.5,195.7,8.9,196.2z"/>
	<path class="st0" d="M143.4,15.2c-0.2-0.7-0.5-1.2-0.4-1.5c0.1-0.3,0.7-0.4,1.1-0.4c0.1,0,0.5,0.6,0.4,0.8
		C144.4,14.5,144,14.7,143.4,15.2z"/>
	<path class="st0" d="M154,10.2c-0.7,0.2-1.1,0.5-1.4,0.4c-0.2,0-0.6-0.6-0.5-0.8c0.2-0.3,0.6-0.8,0.9-0.7
		C153.3,9.1,153.6,9.7,154,10.2z"/>
	<path class="st0" d="M63.4,388.4c0.1,0.6,0.3,1,0.2,1.2c-0.3,0.2-0.7,0.4-1.1,0.4c-0.1,0-0.4-0.7-0.3-0.9
		C62.4,388.8,62.8,388.7,63.4,388.4z"/>
	<path class="st0" d="M132.5,444.3c0.1,0.7,0.2,1.1,0.1,1.4c-0.1,0.2-0.8,0.5-0.9,0.4c-0.3-0.3-0.6-0.8-0.5-1.1
		C131.3,444.8,131.9,444.6,132.5,444.3z"/>
	<path class="st0" d="M118.1,441.4c0-0.4-0.1-0.8,0.1-1.1c0.2-0.3,0.6-0.4,0.9-0.6c0.1,0.3,0.4,0.6,0.4,0.8c0,0.2-0.4,0.4-0.7,0.6
		C118.5,441.3,118.3,441.3,118.1,441.4z"/>
	<path class="st0" d="M71.5,69.9c-0.7-0.1-1.3,0-1.5-0.2c-0.2-0.2-0.1-0.8,0.1-1.2c0.1-0.1,0.8-0.2,0.9,0
		C71.2,68.7,71.2,69.2,71.5,69.9z"/>
	<path class="st0" d="M63,73.5c-1.3,0.3-1.8,0.5-1.8,0.4c-0.2-0.3-0.2-0.7-0.3-1.1c0.3,0,0.7-0.2,0.9-0.1
		C62.1,72.8,62.4,73.1,63,73.5z"/>
	<path class="st0" d="M85.4,52.2c-0.5,0.2-0.9,0.5-1.1,0.4c-0.3-0.2-0.4-0.7-0.6-1c0.4-0.1,0.8-0.4,1.1-0.3
		C85,51.2,85.2,51.7,85.4,52.2z"/>
	<path class="st0" d="M102.5,427.1c-0.8-0.1-1.2-0.1-1.5-0.3c-0.1-0.1-0.1-0.7,0.1-0.9c0.1-0.2,0.8-0.3,0.9-0.2
		C102.2,426,102.2,426.4,102.5,427.1z"/>
	<path class="st0" d="M85.3,412.6c-0.6,0.2-1,0.5-1.3,0.5c-0.2,0-0.5-0.7-0.4-0.8c0.2-0.3,0.6-0.5,1-0.6
		C84.7,411.7,84.9,412.2,85.3,412.6z"/>
	<path class="st0" d="M42.9,102.6c0.1,0.6,0.3,1.1,0.2,1.4c0,0.2-0.6,0.2-0.9,0.3c-0.1-0.4-0.4-0.8-0.3-1.1
		C41.9,103.1,42.4,102.9,42.9,102.6z"/>
	<path class="st0" d="M117.7,26.7c-0.5,0.2-1,0.5-1.2,0.3c-0.3-0.2-0.4-0.6-0.6-1c0.3-0.2,0.7-0.5,0.9-0.5
		C117.1,25.8,117.3,26.2,117.7,26.7z"/>
	<path class="st0" d="M24.4,134.4c-0.5,0.2-1,0.5-1.1,0.4c-0.2-0.3-0.3-0.7-0.5-1c0.3-0.1,0.7-0.3,0.9-0.2
		C24,133.6,24.2,134,24.4,134.4z"/>
	<path class="st0" d="M19.5,147.5c-0.5,0.2-0.9,0.6-1,0.5c-0.3-0.2-0.4-0.6-0.6-1c0.3-0.1,0.6-0.4,0.9-0.4
		C19,146.7,19.2,147.1,19.5,147.5z"/>
	<path class="st0" d="M10.6,271.9c-0.7,0.2-1.1,0.4-1.4,0.3c-0.2,0-0.6-0.7-0.5-0.8c0.2-0.3,0.7-0.7,0.9-0.7
		C10,270.9,10.2,271.4,10.6,271.9z"/>
	<path class="st0" d="M17.2,311c0.2,0.5,0.4,0.8,0.3,1c-0.1,0.2-0.5,0.4-0.8,0.6c-0.2-0.3-0.4-0.7-0.5-1
		C16.2,311.5,16.7,311.3,17.2,311z"/>
	<path class="st0" d="M22.5,321.3c-1.1,0.2-1.5,0.4-1.8,0.2c-0.2-0.1-0.3-0.5-0.4-0.8c0.4-0.1,0.7-0.4,1.1-0.3
		C21.6,320.4,21.9,320.8,22.5,321.3z"/>
	<path class="st0" d="M36.6,358.2c0-0.3,0-0.7,0.1-1c0.1-0.3,0.5-0.4,0.7-0.6c0.2,0.3,0.5,0.6,0.6,1c0,0.1-0.4,0.4-0.7,0.6
		C37.1,358.1,36.8,358.1,36.6,358.2z"/>
	<path class="st0" d="M25.6,329.1c0.1,0.6,0.3,1.1,0.1,1.2c-0.3,0.2-0.7,0.4-1.1,0.4c-0.1,0-0.4-0.7-0.3-0.9
		C24.5,329.5,25,329.4,25.6,329.1z"/>
	<path class="st0" d="M30,339.6c-0.5,0.1-0.9,0.2-1.1,0.1c-0.2-0.1-0.3-0.5-0.4-0.8c0.4-0.1,0.7-0.3,1.1-0.3
		C29.7,338.6,29.8,339.1,30,339.6z"/>
	<path class="st0" d="M34.2,348.3c-0.5,0.3-0.9,0.6-1,0.5c-0.3-0.2-0.4-0.6-0.7-0.9c0.3-0.1,0.6-0.4,0.9-0.4
		C33.7,347.6,33.9,347.9,34.2,348.3z"/>
	<path class="st0" d="M7.9,218.8c-0.7-0.1-1.2,0-1.5-0.2c-0.2-0.1-0.3-0.9-0.2-0.9c0.3-0.2,0.9-0.4,1.1-0.2
		C7.7,217.6,7.7,218.1,7.9,218.8z"/>
	<path class="st0" d="M6.3,262.7c-0.5,0.3-0.9,0.6-1,0.5c-0.3-0.2-0.4-0.6-0.7-0.9c0.3-0.1,0.6-0.4,0.9-0.4
		C5.7,261.9,6,262.3,6.3,262.7z"/>
	<path class="st0" d="M7.2,240.6c-0.6,0.2-1,0.5-1.2,0.3c-0.3-0.2-0.4-0.6-0.6-1c0.3-0.2,0.7-0.5,0.9-0.5
		C6.7,239.7,6.8,240.1,7.2,240.6z"/>
	<path class="st0" d="M13.6,303.3c-0.6,0-0.9,0.1-1.2,0c-0.1,0-0.3-0.5-0.2-0.6c0.2-0.2,0.6-0.5,0.8-0.4
		C13.1,302.4,13.2,302.8,13.6,303.3z"/>
	<path class="st0" d="M74.9,56.8c0-0.6-0.1-0.9,0-1.2c0.1-0.2,0.6-0.3,0.6-0.2c0.2,0.2,0.5,0.6,0.4,0.8
		C75.9,56.4,75.5,56.5,74.9,56.8z"/>
	<path class="st0" d="M3,231.5c-0.6,0.2-1,0.4-1.2,0.3c-0.2-0.1-0.3-0.5-0.3-0.8c0-0.1,0.4-0.3,0.6-0.3C2.4,230.8,2.6,231,3,231.5z"
		/>
	<path class="st0" d="M3.8,209.2c-0.6,0.2-0.9,0.5-1.1,0.4c-0.2-0.1-0.4-0.5-0.4-0.8c0-0.1,0.4-0.4,0.6-0.3
		C3.2,208.5,3.4,208.8,3.8,209.2z"/>
	<path class="st0" d="M163.3,464.8c-0.6,0-0.9,0.1-1.2,0c-0.1,0-0.3-0.5-0.2-0.6c0.2-0.2,0.6-0.5,0.8-0.4
		C162.9,463.8,163,464.2,163.3,464.8z"/>
	<path class="st0" d="M67.9,398.7c-0.6,0.1-0.9,0.2-1.2,0.2c-0.1,0-0.4-0.5-0.3-0.6c0.2-0.2,0.5-0.5,0.7-0.5
		C67.3,397.9,67.5,398.3,67.9,398.7z"/>
	<path class="st0" d="M41.8,365.3c0.2,0.6,0.4,1,0.3,1.2c-0.1,0.2-0.5,0.3-0.8,0.3c-0.1,0-0.4-0.5-0.3-0.6
		C41,365.9,41.3,365.7,41.8,365.3z"/>
	<path class="st0" d="M14.6,160.6c-0.6,0.2-0.9,0.5-1.1,0.4c-0.2-0.1-0.4-0.5-0.4-0.8c0-0.1,0.4-0.4,0.6-0.4
		C13.9,159.9,14.2,160.2,14.6,160.6z"/>
	<path class="st0" d="M29.5,121.2c-0.6,0.2-1,0.4-1.2,0.3c-0.2-0.1-0.3-0.5-0.3-0.8c0-0.1,0.4-0.4,0.6-0.3
		C28.8,120.5,29,120.7,29.5,121.2z"/>
	<path class="st0" d="M108.4,30.9c-0.6,0-0.9,0.1-1.2,0c-0.1-0.1-0.3-0.6-0.3-0.6c0.2-0.2,0.6-0.5,0.8-0.4
		C108,29.9,108.1,30.4,108.4,30.9z"/>
	<path class="st0" d="M9.6,174c-0.6,0.1-1,0.3-1.2,0.2c-0.2-0.1-0.2-0.6-0.2-0.8c0-0.1,0.5-0.3,0.6-0.2C9.1,173.2,9.2,173.5,9.6,174
		z"/>
	<path class="st0" d="M47.6,89.6c0.2,0.6,0.4,1,0.3,1.1c-0.1,0.2-0.5,0.3-0.8,0.3c-0.1,0-0.4-0.5-0.3-0.6
		C46.9,90.2,47.2,90,47.6,89.6z"/>
</g>
</svg>
