<?xml version="1.0" encoding="utf-8"?>
<!-- Generator: Adobe Illustrator 25.0.0, SVG Export Plug-In . SVG Version: 6.00 Build 0)  -->
<svg version="1.1" id="PRINT" xmlns="http://www.w3.org/2000/svg" xmlns:xlink="http://www.w3.org/1999/xlink" x="0px" y="0px"
	 viewBox="0 0 171.3 465.1" style="enable-background:new 0 0 171.3 465.1;" xml:space="preserve">
<style type="text/css">
	.st0{fill:#034BB8;}
</style>
<g>
	<path class="st0" d="M1.8,227.2"/>
	<path class="st0" d="M5.8,218.2c0.9,2.3-0.1,4.8-2.5,5.7"/>
	<path class="st0" d="M6.7,240.5c0.8,2.2-0.4,4.9-2.6,5.8"/>
	<path class="st0" d="M2.6,249.7"/>
	<path class="st0" d="M2.4,234.6c-0.9-2.2,0.4-4.9,2.6-5.8c2.2-0.9,4.8,0.3,5.7,2.6c0.9,2.3-0.2,4.8-2.5,5.7
		C5.9,238,3.3,236.8,2.4,234.6z"/>
	<path class="st0" d="M4.9,195.9c0.9,2.2-0.3,4.9-2.5,5.8"/>
	<path class="st0" d="M4.2,206.7c2.3-0.9,4.9,0.3,5.7,2.5c0.8,2.2-0.3,4.7-2.4,5.6c-2.2,1-4.9-0.1-5.8-2.4"/>
	<path class="st0" d="M6.7,225.6c-0.9-2.3,0.2-4.9,2.5-5.7c2.3-0.9,4.9,0.3,5.7,2.7c0.8,2.2-0.4,4.7-2.6,5.5
		C10,228.8,7.5,227.8,6.7,225.6z"/>
	<path class="st0" d="M9.1,259.2c-2.3,1-4.9-0.1-5.8-2.4c-0.9-2.3,0.3-4.9,2.6-5.7c2.2-0.8,4.7,0.3,5.5,2.5
		C12.3,255.8,11.3,258.3,9.1,259.2z"/>
	<path class="st0" d="M1.8,260.1c2.3-0.8,4.9,0.4,5.6,2.7c0.8,2.3-0.4,4.8-2.8,5.6"/>
	<path class="st0" d="M3.3,271.8"/>
	<path class="st0" d="M10,242.1c2.2-0.8,4.7,0.3,5.5,2.5c0.9,2.3-0.4,4.9-2.7,5.7c-2.2,0.8-4.6-0.5-5.4-2.7
		C6.7,245.3,7.8,242.9,10,242.1z"/>
	<path class="st0" d="M3.5,184.5c2.2-0.8,4.7,0.4,5.5,2.6c0.8,2.2-0.4,4.7-2.6,5.5"/>
	<path class="st0" d="M14.1,233.1c2.2-0.9,4.7,0.2,5.5,2.5c0.9,2.3-0.2,4.6-2.4,5.5c-2.2,0.9-4.7-0.2-5.5-2.4
		C10.8,236.5,11.9,233.9,14.1,233.1z"/>
	<path class="st0" d="M13.3,210.9c2.2-0.8,4.7,0.2,5.5,2.4c0.8,2.2-0.3,4.7-2.4,5.5c-2.2,0.9-4.7-0.3-5.5-2.5
		C10,214.1,11,211.8,13.3,210.9z"/>
	<path class="st0" d="M13.9,200.1c0.9,2.2-0.2,4.9-2.5,5.7c-2.2,0.8-4.6-0.3-5.5-2.6c-0.9-2.3,0.2-4.6,2.4-5.5
		C10.5,196.9,13,197.9,13.9,200.1z"/>
	<path class="st0" d="M4,173.9"/>
	<path class="st0" d="M10.8,264.4c2.1-0.8,4.5,0.2,5.4,2.2c1,2.2,0.1,4.6-2.1,5.6c-2.2,0.9-4.7-0.1-5.6-2.2
		C7.5,267.9,8.6,265.3,10.8,264.4z"/>
	<path class="st0" d="M10,281.3c-2,0.9-4.5,0-5.5-2c-1.1-2.2-0.3-4.7,1.9-5.7c2.2-1,4.7-0.2,5.7,2C13.1,277.7,12.1,280.4,10,281.3z"
		/>
	<path class="st0" d="M18.2,224.2c2.2-0.9,4.7,0.2,5.5,2.4c0.7,2-0.3,4.5-2.3,5.4c-2.1,0.9-4.7-0.2-5.5-2.3
		C15,227.4,16,225,18.2,224.2z"/>
	<path class="st0" d="M20.4,257.8c0.8,2.1-0.4,4.7-2.5,5.5c-2.1,0.8-4.5-0.3-5.3-2.4c-0.9-2.2,0.1-4.6,2.3-5.5
		C17.1,254.6,19.6,255.6,20.4,257.8z"/>
	<path class="st0" d="M2.5,282.6c2.1-0.9,4.5,0.1,5.4,2.2c1,2.2,0,4.7-2.2,5.6"/>
	<path class="st0" d="M12.7,188.6c2.1-0.7,4.4,0.5,5.2,2.7c0.8,2.3-0.4,4.6-2.7,5.3c-2.1,0.7-4.5-0.5-5.2-2.6
		C9.2,191.9,10.5,189.3,12.7,188.6z"/>
	<path class="st0" d="M16.7,251.9c-0.9-2,0.1-4.5,2.1-5.5c2.1-1,4.7,0,5.6,2.2c0.9,2.1,0,4.5-2,5.4C20.2,255,17.6,254.1,16.7,251.9z
		"/>
	<path class="st0" d="M3.9,294"/>
	<path class="st0" d="M22.7,204.2c1,2.2-0.1,4.6-2.3,5.5c-2.1,0.8-4.5-0.2-5.4-2.2c-0.9-2.1,0.2-4.7,2.3-5.6
		C19.4,201.1,21.8,202.1,22.7,204.2z"/>
	<path class="st0" d="M7.6,175.5c2.2-0.8,4.7,0.4,5.4,2.7c0.7,2.2-0.5,4.4-2.7,5.2c-2.1,0.7-4.5-0.5-5.3-2.5
		C4.3,178.8,5.5,176.3,7.6,175.5z"/>
	<path class="st0" d="M20.9,242.7c-0.9-2.2,0.3-4.7,2.6-5.4c2.1-0.7,4.5,0.5,5.2,2.6c0.7,2.1-0.5,4.5-2.5,5.3
		C24,245.9,21.6,244.8,20.9,242.7z"/>
	<path class="st0" d="M22.2,215.1c2-0.9,4.5,0.1,5.4,2.1c1,2.2,0,4.7-2.3,5.5c-2.1,0.8-4.5-0.2-5.4-2.3
		C19.2,218.6,20.2,216,22.2,215.1z"/>
	<path class="st0" d="M27.4,228.3c2.1-0.8,4.5,0.3,5.2,2.5c0.8,2.1-0.3,4.5-2.5,5.2c-2.1,0.8-4.5-0.3-5.2-2.5S25.3,229.1,27.4,228.3
		z"/>
	<path class="st0" d="M2.7,162.4c2.1-0.7,4.5,0.4,5.2,2.5c0.8,2.1-0.4,4.5-2.5,5.2"/>
	<path class="st0" d="M21.6,192.9c2.1-0.8,4.5,0.4,5.2,2.5c0.7,2-0.3,4.3-2.4,5.1c-2.1,0.8-4.5-0.2-5.3-2.3
		C18.4,196.1,19.5,193.7,21.6,192.9z"/>
	<path class="st0" d="M20.2,268.6c2.2-0.7,4.5,0.5,5.1,2.7c0.6,2.1-0.5,4.3-2.5,5c-2.1,0.8-4.5-0.4-5.2-2.5
		C16.8,271.6,18,269.3,20.2,268.6z"/>
	<path class="st0" d="M21.1,280.2c0.7,2.1-0.4,4.5-2.6,5.2c-2,0.7-4.3-0.4-5.1-2.4c-0.8-2.1,0.2-4.5,2.4-5.3
		C18,276.9,20.4,278.1,21.1,280.2z"/>
	<path class="st0" d="M16.6,179.8c2.1-0.8,4.5,0.3,5.3,2.4c0.7,2-0.3,4.3-2.3,5.1c-2.1,0.9-4.5-0.2-5.3-2.3
		C13.5,183,14.5,180.6,16.6,179.8z"/>
	<path class="st0" d="M24.2,211.3c-0.8-2.1,0.4-4.5,2.5-5.2c2-0.7,4.2,0.3,5.1,2.3c0.9,2.1-0.1,4.5-2.3,5.3
		C27.3,214.5,24.9,213.4,24.2,211.3z"/>
	<path class="st0" d="M2.9,151.8"/>
	<path class="st0" d="M12.8,298.1c0.9,2.1-0.2,4.5-2.3,5.3c-2.1,0.8-4.5-0.3-5.2-2.5c-0.7-2.1,0.3-4.2,2.4-5
		C9.7,295.2,12,296.1,12.8,298.1z"/>
	<path class="st0" d="M11.7,166.6c2-0.8,4.3,0.2,5.1,2.3c0.9,2.1,0,4.2-2,5.2c-2.1,0.9-4.5,0-5.4-2.1
		C8.5,169.9,9.6,167.4,11.7,166.6z"/>
	<path class="st0" d="M11.9,286.8c2.1-0.7,4.4,0.5,5.1,2.7c0.7,2.1-0.4,4.2-2.5,5c-2.1,0.8-4.5-0.3-5.2-2.5
		C8.6,289.8,9.8,287.4,11.9,286.8z"/>
	<path class="st0" d="M31.7,219.3c2.1-0.6,4.2,0.5,5,2.5c0.8,2.2-0.3,4.4-2.6,5.1c-2.1,0.7-4.3-0.4-5-2.5
		C28.4,222.3,29.6,219.9,31.7,219.3z"/>
	<path class="st0" d="M28.4,250.5c2.1-0.6,4.2,0.5,5,2.5c0.8,2.2-0.3,4.4-2.6,5.1c-2.1,0.7-4.3-0.4-5-2.5
		C25.1,253.6,26.3,251.2,28.4,250.5z"/>
	<path class="st0" d="M21.8,264.9c-0.8-2,0.1-4.2,2.1-5.1c2.1-0.9,4.5,0,5.4,2.1c0.9,2.1-0.1,4.5-2.2,5.3
		C25,268,22.6,267,21.8,264.9z"/>
	<path class="st0" d="M3.4,305c2-0.8,4.3,0.1,5.1,2.1c0.9,2.2,0,4.4-2.2,5.3"/>
	<path class="st0" d="M37.5,243.8c0.8,2-0.3,4.5-2.4,5.2c-2.1,0.8-4.4-0.4-5.1-2.6c-0.7-2.1,0.4-4.2,2.5-4.9
		C34.5,240.9,36.7,241.9,37.5,243.8z"/>
	<path class="st0" d="M6.8,153.5c2.1-0.8,4.4,0.4,5.1,2.5c0.7,2.1-0.4,4.2-2.5,4.9c-2.1,0.7-4.3-0.4-5-2.4
		C3.7,156.6,4.8,154.3,6.8,153.5z"/>
	<path class="st0" d="M30.8,186.1c0.9,2-0.2,4.5-2.2,5.3c-2,0.8-4.2-0.3-5-2.3c-0.8-2.1,0.1-4.2,2.1-5.1
		C27.6,183.3,29.9,184.1,30.8,186.1z"/>
	<path class="st0" d="M30.5,197.2c2.1-0.9,4.5,0.2,5.3,2.3c0.7,2-0.4,4.3-2.3,5.1c-2,0.8-4.2-0.2-5.1-2.2
		C27.6,200.3,28.5,198.1,30.5,197.2z"/>
	<path class="st0" d="M30,284.2c0.8,2.1-0.1,4.2-2.1,5.1c-2,0.8-4.3-0.2-5.1-2.1c-0.8-1.9,0.3-4.4,2.2-5.1
		C26.8,281.2,29.2,282.2,30,284.2z"/>
	<path class="st0" d="M36.5,232.5c2-0.7,4.3,0.4,5,2.4c0.8,2.1-0.2,4.2-2.4,5c-2,0.7-4.3-0.3-5-2.3
		C33.4,235.6,34.6,233.2,36.5,232.5z"/>
	<path class="st0" d="M29.2,272.9c2-0.7,4.3,0.4,5,2.4c0.7,2-0.5,4.4-2.4,5c-2,0.7-4.3-0.4-5-2.5C26.1,275.8,27.1,273.7,29.2,272.9z
		"/>
	<path class="st0" d="M25.9,173.1c0.8,1.9-0.3,4.4-2.2,5.1c-2,0.8-4.3-0.2-5.1-2.2c-0.8-2.1,0.1-4.2,2.2-5.1
		C22.8,170.1,25.1,171.1,25.9,173.1z"/>
	<path class="st0" d="M4.6,316.4c0.7,1.9-0.3,4.3-2.3,5.1"/>
	<path class="st0" d="M38.2,266.2c0.8,2.1-0.2,4.2-2.2,5c-2,0.8-4.3-0.3-5-2.2c-0.7-1.9,0.4-4.3,2.3-5.1
		C35.1,263.1,37.4,264.2,38.2,266.2z"/>
	<path class="st0" d="M18.6,296.1c-0.8-2.1,0.2-4.2,2.3-5c2-0.7,4.3,0.3,5,2.3c0.7,1.9-0.4,4.3-2.3,5
		C21.6,299.1,19.4,298.1,18.6,296.1z"/>
	<path class="st0" d="M35.7,210.4c2-0.8,4.3,0.3,5.1,2.3c0.7,2-0.4,4.4-2.4,5.1c-2,0.7-4.3-0.3-5-2.4
		C32.6,213.3,33.6,211.2,35.7,210.4z"/>
	<path class="st0" d="M16.1,157.7c1.9-0.6,4.1,0.4,4.8,2.3c0.7,2-0.4,4.4-2.4,5.1c-2,0.7-4.3-0.4-5-2.5
		C12.9,160.5,14,158.4,16.1,157.7z"/>
	<path class="st0" d="M41.6,245.8c1.9-0.7,4.1,0.4,4.8,2.3c0.8,2-0.3,4.3-2.3,5c-1.9,0.7-4.1-0.3-4.8-2.2
		C38.4,248.8,39.6,246.4,41.6,245.8z"/>
	<path class="st0" d="M40.6,223.6c2-0.8,4.3,0.3,5,2.3c0.7,1.9-0.3,4.1-2.2,4.9c-1.9,0.8-4.3-0.2-5.1-2.2
		C37.6,226.6,38.6,224.4,40.6,223.6z"/>
	<path class="st0" d="M37.5,254.8c1.9-0.6,4.1,0.4,4.8,2.3c0.7,2-0.4,4.4-2.3,5.1c-2,0.7-4.3-0.4-5-2.4
		C34.3,257.6,35.4,255.5,37.5,254.8z"/>
	<path class="st0" d="M2,140.4c2-0.7,4.2,0.5,4.9,2.5c0.6,2-0.3,4-2.3,4.8"/>
	<path class="st0" d="M16.9,300.1c2-0.6,4.2,0.5,4.9,2.6c0.6,2-0.4,4-2.3,4.7c-2,0.7-4.3-0.3-5-2.3
		C13.8,303.1,14.9,300.7,16.9,300.1z"/>
	<path class="st0" d="M34.8,188.2c1.9-0.7,4.1,0.2,4.9,2c0.9,2,0,4.2-2,5.1c-2,0.8-4.3-0.1-5.1-2.1
		C31.8,191.3,32.8,188.9,34.8,188.2z"/>
	<path class="st0" d="M27.7,180.1c-0.8-2,0.3-4.4,2.2-5.1c1.9-0.7,4.1,0.3,4.9,2.2c0.8,2-0.2,4.3-2.2,5
		C30.6,182.9,28.4,182,27.7,180.1z"/>
	<path class="st0" d="M10.4,313.9c-0.6-2,0.5-4,2.4-4.7c2-0.7,4.3,0.5,4.9,2.5c0.6,1.9-0.5,4.1-2.4,4.7
		C13.2,317.1,11,316,10.4,313.9z"/>
	<path class="st0" d="M39.6,201.5c2-0.9,4.3,0.1,5.1,2.1c0.8,1.9-0.1,4.1-2,4.9c-2,0.9-4.3-0.1-5.1-2.1
		C36.8,204.5,37.7,202.3,39.6,201.5z"/>
	<path class="st0" d="M15.9,146.9c0.7,1.9-0.3,4.1-2.2,4.9c-2,0.8-4.3-0.3-5-2.4c-0.6-2,0.4-4.1,2.4-4.8
		C13,143.9,15.2,145,15.9,146.9z"/>
	<path class="st0" d="M22.7,166.8c-0.7-1.9,0.2-4.1,2.2-4.8c2-0.8,4.3,0.3,5,2.3c0.6,2-0.4,4.1-2.4,4.8
		C25.6,169.7,23.5,168.7,22.7,166.8z"/>
	<path class="st0" d="M44.6,214.7c1.9-0.8,4.1,0,4.9,1.9c0.9,2-0.1,4.3-2.1,5.1c-1.9,0.7-4.1-0.2-4.9-2.1
		C41.8,217.7,42.7,215.5,44.6,214.7z"/>
	<path class="st0" d="M8.6,318.4c1.9-0.7,4.1,0.2,4.8,2.1c0.7,1.9-0.3,4.1-2.2,4.8c-1.9,0.7-4.1-0.2-4.8-2.2
		C5.7,321.3,6.6,319.1,8.6,318.4z"/>
	<path class="st0" d="M45.5,236.9c2-0.8,4.2,0.2,5,2.2c0.7,2-0.3,4-2.2,4.8c-1.9,0.7-4.1-0.2-4.8-2.1
		C42.7,239.9,43.6,237.7,45.5,236.9z"/>
	<path class="st0" d="M1.8,129.5"/>
	<path class="st0" d="M24.8,150.9c0.8,1.9-0.2,4.1-2,4.9c-1.9,0.8-4.1-0.1-4.9-2c-0.8-1.9,0-4,2-4.8C21.9,148.1,24,149,24.8,150.9z"
		/>
	<path class="st0" d="M42.2,268.2c1.8-0.7,3.9,0.1,4.7,1.9c0.9,2,0.1,4.1-1.9,4.9c-1.9,0.9-4.1,0-4.9-1.9
		C39.4,271.2,40.4,268.9,42.2,268.2z"/>
	<path class="st0" d="M48.7,194.8c0.6,1.9-0.3,3.8-2.1,4.6c-2,0.8-4.1-0.2-4.8-2.1c-0.7-1.9,0.4-4.1,2.3-4.8
		C46,191.7,48,192.8,48.7,194.8z"/>
	<path class="st0" d="M34,286.3c1.9-0.8,4.1,0.2,4.8,2.1c0.8,2-0.1,4-2.1,4.8c-1.9,0.8-4.1-0.2-4.8-2.1
		C31.2,289.3,32.2,287,34,286.3z"/>
	<path class="st0" d="M30,295.4c1.9-0.7,3.9,0.1,4.7,1.9c0.8,1.8,0,4.1-1.9,5c-1.9,0.8-4.1-0.1-4.9-2C27.1,298.3,28,296.2,30,295.4z
		"/>
	<path class="st0" d="M39,179.2c2-0.7,4.1,0.4,4.7,2.4c0.6,1.9-0.3,3.9-2.1,4.6c-2,0.8-4.1-0.2-4.8-2.1
		C36.1,182.1,37.1,179.9,39,179.2z"/>
	<path class="st0" d="M36.1,282.1c-0.8-2,0.1-4,2.1-4.8c1.9-0.8,4.1,0.2,4.8,2.1c0.7,1.9-0.2,4.1-2.1,4.9
		C39,284.9,36.9,284,36.1,282.1z"/>
	<path class="st0" d="M46.5,259.2c1.9-0.7,3.9,0.2,4.7,2c0.8,1.8-0.1,4.1-2,4.9c-1.9,0.8-4.1-0.1-4.8-2.1
		C43.6,262,44.5,259.9,46.5,259.2z"/>
	<path class="st0" d="M36.7,173c-1.9,0.7-3.9-0.1-4.7-1.9c-0.8-1.8,0.1-4.1,1.9-5c1.9-0.8,4.1,0.1,4.9,2
		C39.5,170.2,38.6,172.2,36.7,173z"/>
	<path class="st0" d="M49.9,227.8c1.9-0.6,3.9,0.3,4.6,2.1c0.7,1.9-0.2,4.1-2.1,4.9c-1.9,0.7-4-0.2-4.8-2.2
		C46.9,230.6,47.8,228.5,49.9,227.8z"/>
	<path class="st0" d="M6.1,131.5c1.9-0.7,4,0.3,4.7,2.3c0.6,1.9-0.2,3.8-2.1,4.5c-1.9,0.8-4.1-0.2-4.8-2.1
		C3.2,134.5,4.2,132.2,6.1,131.5z"/>
	<path class="st0" d="M4.6,327.4c2-0.7,4,0.4,4.7,2.4c0.6,1.9-0.3,3.8-2.2,4.5c-1.9,0.7-4.1-0.2-4.8-2.1
		C1.6,330.3,2.7,328.1,4.6,327.4z"/>
	<path class="st0" d="M26,304.4c1.9-0.7,4,0.4,4.7,2.4c0.6,1.9-0.2,3.8-2.1,4.5c-1.9,0.8-4.1-0.2-4.8-2.1
		C23,307.3,24.1,305,26,304.4z"/>
	<path class="st0" d="M53.6,207.8c0.7,1.9-0.1,3.8-1.9,4.6c-1.9,0.8-4.1,0-4.9-1.9c-0.8-1.8,0.2-4.1,2-4.9
		C50.7,204.9,52.9,205.8,53.6,207.8z"/>
	<path class="st0" d="M19.8,318.3c-0.8-2,0.1-4,2.1-4.8c1.9-0.7,3.9,0.2,4.7,2c0.8,1.8-0.2,4.2-2.1,4.9
		C22.6,321.1,20.5,320.2,19.8,318.3z"/>
	<path class="st0" d="M19.8,137.8c0.7,1.8-0.3,4.1-2.2,4.8c-1.9,0.7-4-0.4-4.7-2.4c-0.6-1.9,0.3-3.8,2.2-4.5
		C17,135.1,19.1,136,19.8,137.8z"/>
	<path class="st0" d="M50.7,250c1.9-0.6,3.9,0.4,4.6,2.2c0.7,1.9-0.1,3.8-2,4.6c-1.9,0.8-4.1-0.1-4.9-2
		C47.7,253,48.8,250.7,50.7,250z"/>
	<path class="st0" d="M51.7,223.5c-0.6-1.8,0.4-3.9,2.1-4.7c1.8-0.8,4.1,0.2,4.8,2.2c0.7,1.9-0.2,3.8-2,4.6
		C54.6,226.3,52.3,225.4,51.7,223.5z"/>
	<path class="st0" d="M26.9,157.6c-0.6-1.8,0.4-3.9,2.1-4.6c1.9-0.8,4.1,0.3,4.8,2.2c0.7,1.9-0.2,3.8-2.1,4.6
		C29.8,160.5,27.6,159.6,26.9,157.6z"/>
	<path class="st0" d="M15.6,327.3c-0.7-1.8,0.3-4,2-4.7c1.9-0.8,4.1,0.3,4.8,2.2c0.7,1.9-0.3,3.8-2.1,4.5
		C18.4,330,16.3,329.1,15.6,327.3z"/>
	<path class="st0" d="M47.8,172.2c0.8,1.8-0.2,4.2-2.1,4.9c-1.8,0.7-3.9-0.3-4.6-2.1c-0.7-1.9,0.1-3.8,2-4.6
		C44.9,169.6,47,170.5,47.8,172.2z"/>
	<path class="st0" d="M48,183.5c1.8-0.7,3.9,0.1,4.7,1.9c0.8,1.8-0.2,4.2-2.1,4.8c-1.8,0.6-3.9-0.3-4.6-2.2
		C45.3,186.3,46.2,184.3,48,183.5z"/>
	<path class="st0" d="M5.1,338.6c0.8,1.8-0.2,4.2-2.1,4.9"/>
	<path class="st0" d="M54.7,241.1c1.8-0.7,3.9,0.2,4.7,2c0.8,1.8-0.3,4.2-2.2,4.8c-1.8,0.6-3.9-0.4-4.6-2.2
		C51.9,243.8,52.8,241.9,54.7,241.1z"/>
	<path class="st0" d="M42.8,159.3c0.6,1.8-0.4,4-2.2,4.6c-1.8,0.6-3.9-0.3-4.5-2.2c-0.7-1.9,0.3-3.9,2.1-4.5
		C40.1,156.5,42.2,157.5,42.8,159.3z"/>
	<path class="st0" d="M47.9,292.6c0.7,1.8-0.4,4-2.1,4.6c-1.8,0.7-3.9-0.3-4.6-2.1c-0.7-1.9,0.2-3.9,2.1-4.6
		C45.1,289.9,47.2,290.8,47.9,292.6z"/>
	<path class="st0" d="M5.7,120.6c0.7,1.9-0.2,3.9-2,4.6"/>
	<path class="st0" d="M22,144.5c-0.6-1.8,0.4-3.9,2.1-4.6c1.9-0.7,4.1,0.4,4.7,2.3c0.6,1.9-0.4,3.8-2.3,4.5
		C24.8,147.2,22.7,146.3,22,144.5z"/>
	<path class="st0" d="M45.2,286c-0.6-1.8,0.5-4,2.2-4.6c1.8-0.6,3.9,0.4,4.5,2.3c0.6,1.9-0.3,3.9-2.2,4.5
		C47.9,288.8,45.8,287.8,45.2,286z"/>
	<path class="st0" d="M57.6,198.6c0.8,1.8-0.2,4.2-2.1,4.8c-1.8,0.7-3.9-0.3-4.6-2.1c-0.7-1.9,0.1-3.8,2-4.6
		C54.8,196,56.8,196.8,57.6,198.6z"/>
	<path class="st0" d="M51.4,272.5c1.8-0.7,3.9,0.2,4.6,2c0.7,1.8-0.2,3.9-2,4.6c-1.8,0.7-3.9-0.2-4.6-2
		C48.7,275.2,49.6,273.2,51.4,272.5z"/>
	<path class="st0" d="M8.1,127.1c-0.6-1.9,0.4-3.9,2.2-4.5c1.8-0.6,3.7,0.4,4.4,2.1c0.7,1.8-0.2,3.9-2.1,4.6
		C10.8,130,8.8,129,8.1,127.1z"/>
	<path class="st0" d="M18.2,333.8c0.7,1.8-0.3,3.9-2.1,4.6c-1.7,0.6-3.7-0.2-4.4-2c-0.8-1.8,0.1-3.9,1.9-4.7
		C15.4,331.1,17.5,332,18.2,333.8z"/>
	<path class="st0" d="M39,299.6c1.8-0.7,3.9,0.2,4.6,2c0.7,1.8-0.1,3.9-2,4.6c-1.8,0.7-3.9-0.1-4.6-1.9
		C36.3,302.5,37.2,300.3,39,299.6z"/>
	<path class="st0" d="M33,313.3c-0.7-1.8,0.1-3.7,1.8-4.5c1.8-0.8,3.9,0,4.7,1.8c0.8,1.8-0.1,4-1.9,4.7
		C35.8,316,33.7,315.1,33,313.3z"/>
	<path class="st0" d="M58.8,232.1c1.8-0.7,3.9,0.2,4.6,2c0.7,1.8-0.1,3.9-2,4.6c-1.8,0.7-3.9-0.1-4.6-1.9
		C56.1,235,57,232.8,58.8,232.1z"/>
	<path class="st0" d="M55.6,263.4c1.7-0.6,3.7,0.2,4.5,1.9c0.8,1.8,0,3.9-1.9,4.7c-1.8,0.8-3.9-0.1-4.6-2S53.7,264.1,55.6,263.4z"/>
	<path class="st0" d="M62.5,211.6c0.9,1.7,0.1,3.9-1.6,4.8c-1.7,0.9-3.9,0.1-4.7-1.7c-0.9-1.8-0.1-3.9,1.6-4.7
		C59.4,209.2,61.6,209.9,62.5,211.6z"/>
	<path class="st0" d="M37.8,146.1c0.7,1.8-0.1,3.7-1.9,4.4c-1.8,0.8-3.9-0.1-4.6-1.9c-0.7-1.8,0.2-3.9,2-4.6
		C35,143.4,37.1,144.3,37.8,146.1z"/>
	<path class="st0" d="M59.7,254.4c1.8-0.7,3.9,0.3,4.5,2.1c0.6,1.8-0.2,3.7-1.9,4.4c-1.8,0.8-3.9-0.1-4.6-1.9
		C56.9,257.1,57.9,255.1,59.7,254.4z"/>
	<path class="st0" d="M60.9,227.5c-0.6-1.7,0.3-3.7,2-4.4c1.8-0.7,3.9,0.2,4.5,2.1c0.6,1.8-0.2,3.7-2,4.4
		C63.6,230.3,61.6,229.4,60.9,227.5z"/>
	<path class="st0" d="M30.7,317.9c1.8-0.8,3.9,0,4.7,1.8c0.7,1.8-0.2,3.9-2,4.6c-1.7,0.6-3.7-0.2-4.4-2
		C28.2,320.6,29,318.7,30.7,317.9z"/>
	<path class="st0" d="M24.8,331.4c-0.7-1.8,0.3-4,2.1-4.6c1.8-0.6,3.7,0.4,4.3,2.2c0.7,1.8-0.2,3.7-2,4.3
		C27.5,333.9,25.5,333.1,24.8,331.4z"/>
	<path class="st0" d="M47.2,161.4c1.8-0.7,3.9,0.2,4.5,2c0.6,1.7-0.3,3.7-2,4.4c-1.8,0.7-3.9-0.2-4.5-2
		C44.6,164,45.5,162.2,47.2,161.4z"/>
	<path class="st0" d="M23.8,128.9c0.6,1.7-0.3,3.7-2,4.4c-1.8,0.7-3.9-0.2-4.5-2.1c-0.6-1.8,0.2-3.7,2-4.4
		C21.1,126.1,23.2,127.1,23.8,128.9z"/>
	<path class="st0" d="M50.3,179.2c-0.8-1.8,0-3.9,1.9-4.6c1.7-0.7,3.7,0.1,4.5,1.8c0.8,1.8-0.1,3.9-1.9,4.6
		C53,181.7,51.1,180.9,50.3,179.2z"/>
	<path class="st0" d="M14,343c0.6,1.7-0.3,3.7-2,4.4c-1.8,0.7-3.9-0.2-4.5-2.1c-0.6-1.8,0.2-3.6,2-4.3C11.3,340.2,13.4,341.1,14,343
		z"/>
	<path class="st0" d="M63.9,245.4c1.8-0.6,3.7,0.2,4.4,2c0.7,1.8-0.4,4-2.2,4.5c-1.8,0.5-3.7-0.4-4.3-2.2
		C61.2,247.9,62.1,246,63.9,245.4z"/>
	<path class="st0" d="M60.2,205.3c-0.7-1.8,0.1-3.7,1.9-4.4c1.9-0.7,3.9,0.2,4.5,2.1c0.6,1.7-0.4,3.7-2.1,4.3
		C62.8,208,60.8,207.1,60.2,205.3z"/>
	<path class="st0" d="M55.1,192c-0.6-1.8,0.4-3.6,2.2-4.3c1.8-0.6,3.7,0.2,4.4,2c0.7,1.8-0.2,3.9-2.1,4.6
		C57.7,194.9,55.7,193.9,55.1,192z"/>
	<path class="st0" d="M3.3,114c-0.6-1.7,0.3-3.8,2-4.4c1.7-0.7,3.7,0.2,4.4,2c0.7,1.8-0.1,3.6-1.9,4.3C5.9,116.6,4,115.7,3.3,114z"
		/>
	<path class="st0" d="M54.4,290.1c-0.6-1.7,0.3-3.8,2-4.4c1.7-0.6,3.7,0.3,4.3,2c0.7,1.8-0.1,3.6-2,4.3
		C57,292.7,55.1,291.9,54.4,290.1z"/>
	<path class="st0" d="M42.2,148.4c1.8-0.8,3.9,0,4.6,1.9c0.6,1.7-0.3,3.7-1.9,4.4c-1.7,0.7-3.6-0.1-4.4-1.9
		C39.7,151,40.5,149.2,42.2,148.4z"/>
	<path class="st0" d="M71.5,216.1c0.6,1.7-0.3,3.8-2,4.4c-1.7,0.6-3.7-0.3-4.3-2c-0.7-1.8,0.1-3.6,2-4.3
		C68.9,213.5,70.9,214.4,71.5,216.1z"/>
	<path class="st0" d="M56.7,296.7c0.7,1.6-0.2,3.8-1.8,4.5c-1.7,0.7-3.7-0.1-4.4-1.8c-0.8-1.8,0-3.7,1.8-4.4
		C54,294.2,56,295,56.7,296.7z"/>
	<path class="st0" d="M26.4,135.5c-0.8-1.7,0.2-3.9,2-4.6c1.7-0.6,3.6,0.3,4.3,2c0.7,1.8-0.1,3.6-1.9,4.3
		C29.1,138,27.1,137.2,26.4,135.5z"/>
	<path class="st0" d="M65.9,240.6c-0.6-1.7,0.4-3.8,2.1-4.3c1.8-0.6,3.7,0.4,4.3,2.1c0.6,1.8-0.2,3.6-2.1,4.3
		C68.4,243.3,66.5,242.4,65.9,240.6z"/>
	<path class="st0" d="M62.7,272c-0.6-1.7,0.4-3.8,2-4.4c1.6-0.6,3.5,0.3,4.2,1.9c0.8,1.8,0,3.7-1.8,4.4
		C65.3,274.6,63.3,273.7,62.7,272z"/>
	<path class="st0" d="M59.4,183.2c-0.6-1.6,0.3-3.8,2-4.4c1.6-0.6,3.5,0.2,4.2,1.8c0.8,1.8,0,3.7-1.7,4.4
		C62.1,185.7,60,184.9,59.4,183.2z"/>
	<path class="st0" d="M60.7,276.7c1.8-0.6,3.7,0.3,4.3,2c0.6,1.7-0.4,3.8-2.1,4.3c-1.7,0.6-3.6-0.4-4.3-2.1
		C58,279.2,58.9,277.4,60.7,276.7z"/>
	<path class="st0" d="M3.5,354.3c-0.6-1.7,0.4-3.8,2-4.4c1.7-0.6,3.6,0.3,4.3,2c0.7,1.8-0.2,3.6-2,4.3C6,356.9,4.1,356.1,3.5,354.3z
		"/>
	<path class="st0" d="M14.4,113.8c1.8-0.7,3.8,0.2,4.4,2c0.6,1.6-0.3,3.6-1.8,4.2c-1.7,0.7-3.7-0.1-4.4-1.9
		C11.8,116.4,12.6,114.5,14.4,113.8z"/>
	<path class="st0" d="M48.5,314.9c0.6,1.7-0.4,3.8-2.1,4.4c-1.7,0.6-3.5-0.3-4.2-1.9c-0.7-1.8,0.1-3.7,1.9-4.4
		C45.9,312.3,47.9,313.2,48.5,314.9z"/>
	<path class="st0" d="M46.2,308.2c-0.6-1.7,0.4-3.8,2-4.4c1.7-0.6,3.6,0.3,4.3,2c0.7,1.8-0.2,3.6-2,4.3
		C48.8,310.8,46.9,309.9,46.2,308.2z"/>
	<path class="st0" d="M22.7,336.1c1.7-0.7,3.7,0.1,4.4,1.8c0.7,1.6-0.2,3.8-1.9,4.4c-1.7,0.7-3.7-0.2-4.4-1.9
		C20.1,338.6,20.9,336.8,22.7,336.1z"/>
	<path class="st0" d="M37.6,135.2c1.6-0.6,3.5,0.2,4.2,1.8c0.7,1.6-0.2,3.8-1.9,4.4c-1.7,0.7-3.7-0.2-4.3-2
		C34.9,137.7,35.7,135.8,37.6,135.2z"/>
	<path class="st0" d="M54.4,169.8c-0.5-1.6,0.4-3.5,2-4.2c1.7-0.7,3.7,0.2,4.3,2c0.7,1.8-0.2,3.6-2,4.3
		C56.9,172.5,54.9,171.5,54.4,169.8z"/>
	<path class="st0" d="M64.2,196.1c-0.5-1.6,0.5-3.6,2-4.2c1.7-0.6,3.7,0.3,4.3,2c0.6,1.8-0.2,3.7-2.1,4.3
		C66.7,198.8,64.8,197.8,64.2,196.1z"/>
	<path class="st0" d="M72.1,227.4c1.7-0.7,3.7,0.2,4.3,1.9c0.6,1.6-0.3,3.5-1.8,4.2c-1.6,0.7-3.7-0.1-4.4-1.8
		C69.5,230,70.3,228.1,72.1,227.4z"/>
	<path class="st0" d="M68.7,258.7c1.7-0.7,3.7,0.2,4.4,1.9c0.6,1.5-0.2,3.5-1.8,4.2c-1.6,0.8-3.7,0-4.4-1.8
		C66.2,261.3,67,259.4,68.7,258.7z"/>
	<path class="st0" d="M38.1,326.4c-0.7-1.7,0.3-3.8,2-4.4c1.8-0.6,3.7,0.4,4.2,2.2c0.5,1.7-0.4,3.5-2.1,4
		C40.6,328.8,38.7,328,38.1,326.4z"/>
	<path class="st0" d="M16.7,349.3c-0.5-1.6,0.4-3.6,1.9-4.2c1.7-0.7,3.7,0.3,4.3,2c0.6,1.7-0.2,3.5-1.9,4.1
		C19.3,351.9,17.2,351,16.7,349.3z"/>
	<path class="st0" d="M21.5,122.3c-0.7-1.6,0.2-3.8,1.9-4.4c1.7-0.6,3.7,0.3,4.3,2.1c0.6,1.7-0.3,3.5-2,4.1
		C24.1,124.7,22.2,123.9,21.5,122.3z"/>
	<path class="st0" d="M69.3,209.4c-0.6-1.6,0.2-3.5,1.8-4.2c1.7-0.7,3.7,0.1,4.4,1.9c0.6,1.7-0.1,3.5-1.8,4.2
		C72,212,69.9,211.1,69.3,209.4z"/>
	<path class="st0" d="M49.5,156.7c-0.6-1.6,0.2-3.6,1.8-4.2c1.7-0.7,3.7,0.2,4.4,1.9c0.6,1.7-0.1,3.5-1.8,4.2
		C52.2,159.3,50.2,158.5,49.5,156.7z"/>
	<path class="st0" d="M4.6,98.7c0.5,1.7-0.4,3.5-2.1,4"/>
	<path class="st0" d="M36.7,123.9c0.7,1.6,0,3.5-1.6,4.2c-1.7,0.8-3.7-0.1-4.4-1.8c-0.6-1.6,0.2-3.5,1.8-4.1
		C34.1,121.5,36,122.2,36.7,123.9z"/>
	<path class="st0" d="M44.7,143.7c-0.7-1.6,0.1-3.5,1.7-4.2c1.7-0.7,3.7,0.1,4.3,1.9c0.6,1.6-0.2,3.5-1.9,4.1
		C47.2,146.1,45.3,145.3,44.7,143.7z"/>
	<path class="st0" d="M36,331.2c1.7-0.6,3.5,0.2,4.2,1.8c0.7,1.7-0.3,3.8-2.1,4.3c-1.7,0.5-3.5-0.4-4.1-2.1
		C33.4,333.6,34.3,331.8,36,331.2z"/>
	<path class="st0" d="M71,253.8c-0.6-1.6,0.3-3.5,1.9-4.2c1.7-0.7,3.7,0.3,4.3,2.1c0.5,1.7-0.4,3.5-2.1,4
		C73.5,256.3,71.6,255.5,71,253.8z"/>
	<path class="st0" d="M5.6,361c0.7,1.7-0.2,3.8-2,4.4"/>
	<path class="st0" d="M80.4,220.4c0.5,1.7-0.4,3.5-2,4.1c-1.7,0.6-3.5-0.3-4.1-2c-0.6-1.7,0.3-3.5,2-4.1
		C78,217.8,79.9,218.7,80.4,220.4z"/>
	<path class="st0" d="M55.5,312.2c-0.6-1.7,0.4-3.5,2-4.1c1.6-0.5,3.3,0.3,3.9,1.9c0.7,1.7-0.1,3.5-1.9,4.1
		C57.9,314.7,56,313.9,55.5,312.2z"/>
	<path class="st0" d="M65.6,301.1c0.6,1.7-0.4,3.5-2,4.1c-1.7,0.6-3.5-0.3-4-2c-0.6-1.7,0.3-3.5,2-4
		C63.3,298.5,65.1,299.4,65.6,301.1z"/>
	<path class="st0" d="M63.6,174c-0.6-1.6,0.2-3.5,1.8-4.1c1.6-0.6,3.5,0.2,4.1,1.8c0.6,1.7-0.1,3.5-1.8,4.1
		C66.1,176.5,64.3,175.6,63.6,174z"/>
	<path class="st0" d="M36,342.3c0.5,1.7-0.4,3.5-2.1,4c-1.6,0.5-3.3-0.4-3.9-2c-0.6-1.7,0.2-3.5,1.9-4.1
		C33.7,339.7,35.5,340.6,36,342.3z"/>
	<path class="st0" d="M12.7,358.3c-0.6-1.6,0.3-3.5,2-4.1c1.7-0.6,3.5,0.3,4,2c0.6,1.7-0.2,3.5-2,4.1
		C15.1,360.9,13.2,360,12.7,358.3z"/>
	<path class="st0" d="M58.7,160.8c-0.6-1.6,0.3-3.5,2-4.1c1.6-0.5,3.3,0.2,3.9,1.8c0.7,1.7-0.1,3.5-1.8,4.1
		C61.1,163.3,59.3,162.4,58.7,160.8z"/>
	<path class="st0" d="M63.7,294.3c-0.7-1.6,0.1-3.5,1.7-4.2c1.6-0.7,3.5,0.1,4.2,1.7c0.7,1.6,0,3.5-1.7,4.2
		C66.3,296.6,64.4,295.9,63.7,294.3z"/>
	<path class="st0" d="M73.9,283c0.5,1.7-0.5,3.5-2.2,4c-1.6,0.5-3.3-0.4-3.9-2c-0.6-1.7,0.2-3.5,2-4.1
		C71.5,280.4,73.4,281.4,73.9,283z"/>
	<path class="st0" d="M73.5,200.2c-0.5-1.7,0.4-3.5,2.1-4c1.6-0.5,3.3,0.4,3.9,1.9c0.6,1.7-0.2,3.5-1.9,4.1
		C75.9,202.8,74,201.9,73.5,200.2z"/>
	<path class="st0" d="M7.6,104.8c-0.5-1.7,0.4-3.5,2-4.1c1.7-0.6,3.5,0.3,4,2c0.6,1.7-0.3,3.5-2,4C9.9,107.3,8.1,106.4,7.6,104.8z"
		/>
	<path class="st0" d="M75.2,244.7c-0.6-1.7,0.4-3.5,2-4.1c1.7-0.6,3.5,0.3,4,2c0.6,1.7-0.3,3.5-2,4
		C77.5,247.2,75.7,246.3,75.2,244.7z"/>
	<path class="st0" d="M68.6,187.2c-0.6-1.6,0.2-3.5,1.8-4.2c1.6-0.7,3.5,0.2,4.1,1.8c0.7,1.7-0.1,3.5-1.8,4.1
		C71.1,189.6,69.2,188.8,68.6,187.2z"/>
	<path class="st0" d="M45.7,128.2c0.6,1.6-0.4,3.5-2,4.1c-1.6,0.5-3.3-0.3-3.9-1.9c-0.7-1.7,0.1-3.5,1.8-4.1
		C43.3,125.7,45.2,126.6,45.7,128.2z"/>
	<path class="st0" d="M71.9,276c-0.6-1.6,0.3-3.5,2-4.1c1.6-0.5,3.3,0.3,3.9,1.8c0.7,1.7-0.1,3.5-1.8,4.1
		C74.4,278.5,72.5,277.6,71.9,276z"/>
	<path class="st0" d="M18.7,104.9c1.6-0.5,3.3,0.2,4,1.7c0.7,1.6-0.1,3.5-1.7,4.2c-1.6,0.7-3.5-0.2-4.1-1.9
		C16.1,107.2,16.9,105.5,18.7,104.9z"/>
	<path class="st0" d="M53.4,317.3c1.6-0.6,3.3,0.2,4,1.7c0.7,1.6-0.1,3.5-1.7,4.2c-1.6,0.7-3.5-0.2-4.1-1.8
		C50.8,319.6,51.6,317.9,53.4,317.3z"/>
	<path class="st0" d="M78.4,175.5c0.8,1.5,0.1,3.6-1.4,4.3c-1.5,0.7-3.3,0-4-1.5c-0.8-1.6-0.2-3.3,1.3-4.1
		C75.8,173.5,77.6,174,78.4,175.5z"/>
	<path class="st0" d="M48.9,134.6c-0.7-1.6,0.3-3.6,1.9-4.1c1.5-0.5,3.3,0.3,3.9,1.9c0.6,1.6-0.1,3.3-1.8,3.9
		C51.3,136.8,49.5,136.1,48.9,134.6z"/>
	<path class="st0" d="M47.3,330.5c-0.6-1.6,0.2-3.6,1.8-4.2c1.6-0.6,3.5,0.3,4,2c0.5,1.7-0.2,3.2-1.9,3.8
		C49.7,332.7,48,332,47.3,330.5z"/>
	<path class="st0" d="M53.7,147.5c-0.5-1.6,0.4-3.5,2-4c1.6-0.5,3.2,0.3,3.9,1.9c0.7,1.7-0.1,3.4-1.8,4.1
		C56.1,150,54.3,149.2,53.7,147.5z"/>
	<path class="st0" d="M49.1,337.2c0.6,1.6-0.4,3.6-2,4.1c-1.6,0.5-3.3-0.4-3.8-2c-0.6-1.6,0.2-3.2,1.8-3.8
		C46.7,334.9,48.5,335.7,49.1,337.2z"/>
	<path class="st0" d="M10.3,363.6c1.6-0.7,3.5,0,4.2,1.6c0.6,1.5-0.2,3.6-1.8,4.1c-1.5,0.5-3.3-0.2-3.9-1.8
		C8.1,365.9,8.7,364.3,10.3,363.6z"/>
	<path class="st0" d="M25.8,113.1c-0.6-1.6,0.3-3.6,1.9-4.1c1.7-0.6,3.5,0.3,4,2.1c0.5,1.6-0.3,3.2-1.9,3.8
		C28.2,115.4,26.4,114.7,25.8,113.1z"/>
	<path class="st0" d="M77.9,263c1.7-0.7,3.6,0.2,4.1,1.9c0.5,1.5-0.3,3.3-1.8,3.9c-1.6,0.6-3.5-0.2-4.1-1.9
		C75.5,265.2,76.3,263.6,77.9,263z"/>
	<path class="st0" d="M80.2,257.9c-0.5-1.5,0.4-3.4,1.8-4c1.6-0.6,3.5,0.3,4,2c0.5,1.6-0.3,3.3-1.9,3.8
		C82.5,260.2,80.7,259.4,80.2,257.9z"/>
	<path class="st0" d="M78.6,213.6c-0.7-1.6,0.2-3.6,1.8-4.2c1.6-0.6,3.5,0.3,4,2c0.6,1.7-0.2,3.2-1.9,3.8
		C81,215.8,79.2,215.1,78.6,213.6z"/>
	<path class="st0" d="M25.9,353.4c-0.5-1.5,0.3-3.4,1.8-4c1.6-0.7,3.5,0.2,4.1,1.8c0.6,1.7-0.1,3.2-1.7,3.9
		C28.4,355.9,26.5,355,25.9,353.4z"/>
	<path class="st0" d="M85.3,233.4c0.6,1.6-0.2,3.5-1.9,4.1c-1.5,0.6-3.3-0.2-3.9-1.7c-0.7-1.7,0-3.4,1.6-4.1
		C82.8,231.1,84.6,231.8,85.3,233.4z"/>
	<path class="st0" d="M40.6,114.8c0.7,1.5-0.2,3.6-1.8,4.2c-1.5,0.5-3.3-0.3-3.9-1.8c-0.6-1.6,0.1-3.2,1.7-3.9
		C38.2,112.7,40,113.3,40.6,114.8z"/>
	<path class="st0" d="M79.6,187.3c1.5-0.6,3.3,0.2,3.9,1.7c0.6,1.6-0.4,3.6-1.9,4.1c-1.6,0.5-3.3-0.4-3.8-2
		C77.2,189.5,78,187.9,79.6,187.3z"/>
	<path class="st0" d="M83.6,226.8c-0.7-1.5,0.2-3.6,1.8-4.2c1.5-0.6,3.3,0.3,3.9,1.8c0.6,1.6-0.1,3.2-1.7,3.9
		C86,229,84.3,228.3,83.6,226.8z"/>
	<path class="st0" d="M73.6,162.5c0.7,1.5-0.2,3.6-1.8,4.2c-1.5,0.6-3.3-0.2-3.9-1.8c-0.6-1.6,0.1-3.3,1.6-3.9
		C71.1,160.4,72.9,161.1,73.6,162.5z"/>
	<path class="st0" d="M64.6,147.8c1.5-0.6,3.3,0,4,1.5c0.7,1.5-0.2,3.6-1.7,4.1c-1.5,0.6-3.3-0.2-3.9-1.8
		C62.4,150.2,63.1,148.5,64.6,147.8z"/>
	<path class="st0" d="M13.6,91.9c1.6-0.6,3.3,0.1,4,1.6c0.6,1.5-0.2,3.4-1.7,4c-1.5,0.6-3.3-0.2-3.9-1.7
		C11.3,94.2,12,92.5,13.6,91.9z"/>
	<path class="st0" d="M90.1,246.7c0.5,1.5-0.4,3.4-1.8,3.9c-1.5,0.6-3.3-0.3-3.9-1.8c-0.6-1.6,0.2-3.3,1.8-3.8
		C87.8,244.4,89.6,245.2,90.1,246.7z"/>
	<path class="st0" d="M39.2,348.5c-0.6-1.5,0.2-3.4,1.7-4c1.5-0.6,3.3,0.2,3.9,1.7c0.6,1.6-0.1,3.3-1.7,3.9
		C41.6,350.8,39.8,350,39.2,348.5z"/>
	<path class="st0" d="M82.7,287.1c0.6,1.6-0.2,3.3-1.8,3.8c-1.6,0.5-3.3-0.3-3.9-1.8c-0.5-1.5,0.4-3.3,1.9-3.9
		C80.4,284.7,82.1,285.5,82.7,287.1z"/>
	<path class="st0" d="M66.3,312.6c1.5-0.7,3.3,0,4,1.5c0.7,1.4-0.1,3.3-1.5,4c-1.5,0.7-3.3,0-4-1.5C64.1,315,64.8,313.2,66.3,312.6z
		"/>
	<path class="st0" d="M74.5,294.4c1.5-0.7,3.3,0,4,1.5c0.6,1.4-0.1,3.3-1.5,4c-1.5,0.7-3.3,0-4-1.5C72.4,296.8,73,295.1,74.5,294.4z
		"/>
	<path class="st0" d="M8.7,378.1c-1.5,0.7-3.3,0-4-1.5c-0.6-1.4,0.1-3.3,1.5-4c1.5-0.7,3.3,0,4,1.5C10.9,375.7,10.2,377.4,8.7,378.1
		z"/>
	<path class="st0" d="M73,308.9c-1.5,0.7-3.3,0.1-4-1.3c-0.7-1.4-0.1-3.3,1.4-4c1.4-0.7,3.3-0.1,4,1.4
		C75.1,306.4,74.5,308.1,73,308.9z"/>
	<path class="st0" d="M23.5,358.6c1.6-0.7,3.5,0.1,4.1,1.7c0.5,1.5-0.3,3.3-1.8,3.9c-1.5,0.6-3.3-0.2-3.9-1.7
		C21.3,361,22,359.3,23.5,358.6z"/>
	<path class="st0" d="M2.8,91.6c-0.5-1.5,0.4-3.4,1.8-3.9c1.6-0.6,3.5,0.3,4,2c0.5,1.6-0.3,3.2-1.9,3.8C5.1,94,3.3,93.1,2.8,91.6z"
		/>
	<path class="st0" d="M88.5,202.3c0.5,1.5-0.4,3.4-1.9,3.9c-1.5,0.5-3.3-0.3-3.8-1.9c-0.6-1.6,0.2-3.3,1.8-3.8
		C86.2,199.9,88,200.8,88.5,202.3z"/>
	<path class="st0" d="M49.6,119.2c0.5,1.5-0.2,3.1-1.6,3.7c-1.5,0.7-3.3,0-4-1.6c-0.6-1.5,0.2-3.4,1.7-3.9
		C47.3,116.8,49.1,117.6,49.6,119.2z"/>
	<path class="st0" d="M83.1,276.2c1.5-0.5,3.1,0.3,3.7,1.7c0.6,1.5-0.2,3.3-1.7,3.9c-1.6,0.6-3.3-0.3-3.9-1.8
		C80.6,278.4,81.5,276.7,83.1,276.2z"/>
	<path class="st0" d="M59.8,134.7c1.6-0.6,3.3,0.2,3.9,1.8c0.5,1.4-0.3,3.1-1.6,3.8c-1.5,0.7-3.3-0.1-3.9-1.6
		C57.5,137,58.2,135.3,59.8,134.7z"/>
	<path class="st0" d="M26.6,97.7c0.6,1.5-0.1,3.1-1.5,3.8c-1.5,0.7-3.3,0-4-1.5c-0.7-1.5,0.1-3.4,1.6-4C24.2,95.4,26,96.2,26.6,97.7
		z"/>
	<path class="st0" d="M90.3,235.9c1.4-0.5,3.1,0.2,3.7,1.6c0.7,1.5,0,3.3-1.5,3.9c-1.5,0.7-3.3-0.1-3.9-1.6
		C88,238.3,88.8,236.5,90.3,235.9z"/>
	<path class="st0" d="M93.4,215.6c0.4,1.5-0.3,3.1-1.8,3.7c-1.5,0.6-3.3-0.2-3.9-1.8s0.3-3.3,1.8-3.8
		C91.2,213.1,92.9,214,93.4,215.6z"/>
	<path class="st0" d="M66.2,323.4c0.5,1.5-0.3,3.1-1.7,3.6c-1.5,0.6-3.3-0.2-3.9-1.7c-0.6-1.5,0.3-3.3,1.8-3.8
		C64,321,65.7,321.8,66.2,323.4z"/>
	<path class="st0" d="M31.9,100.1c1.5-0.5,3.1,0.3,3.7,1.7c0.6,1.5-0.1,3.1-1.5,3.8c-1.5,0.7-3.3-0.1-3.9-1.6
		C29.5,102.4,30.3,100.6,31.9,100.1z"/>
	<path class="st0" d="M37,353.7c1.5-0.5,3.1,0.2,3.7,1.7c0.6,1.5-0.1,3.1-1.5,3.8c-1.5,0.7-3.3,0-4-1.6
		C34.6,356,35.4,354.2,37,353.7z"/>
	<path class="st0" d="M90.9,269.1c0.4,1.5-0.4,3.1-1.8,3.6c-1.6,0.6-3.3-0.3-3.8-1.9c-0.5-1.5,0.4-3.1,1.8-3.6
		C88.7,266.7,90.4,267.5,90.9,269.1z"/>
	<path class="st0" d="M83.6,178.4c1.5-0.6,3.3,0.1,3.9,1.7c0.5,1.5-0.2,3.1-1.6,3.7c-1.6,0.6-3.3-0.1-3.9-1.7
		C81.5,180.6,82.2,178.9,83.6,178.4z"/>
	<path class="st0" d="M58.5,330.6c1.5-0.4,3.1,0.4,3.6,1.9c0.5,1.5-0.3,3.1-1.7,3.7c-1.6,0.6-3.3-0.2-3.8-1.8
		C56,332.7,56.9,331,58.5,330.6z"/>
	<path class="st0" d="M80.7,170.7c-1.5,0.5-3.1-0.3-3.7-1.7c-0.6-1.5,0.1-3.1,1.5-3.8c1.5-0.7,3.3,0.1,3.9,1.6
		C83.1,168.4,82.3,170.2,80.7,170.7z"/>
	<path class="st0" d="M17.9,371.3c-0.5-1.5,0.3-3.1,1.8-3.7c1.5-0.5,3.1,0.2,3.7,1.6c0.6,1.5-0.1,3.3-1.7,3.9
		C20.1,373.8,18.4,372.9,17.9,371.3z"/>
	<path class="st0" d="M73.6,152.1c1.5-0.7,3.3,0,3.9,1.5c0.6,1.5-0.2,3.3-1.7,3.9c-1.5,0.5-3.1-0.2-3.7-1.6
		C71.6,154.4,72.2,152.8,73.6,152.1z"/>
	<path class="st0" d="M54.1,339.8c1.5-0.6,3.1,0,3.8,1.4c0.7,1.5-0.1,3.3-1.6,3.9c-1.5,0.6-3.1-0.1-3.7-1.6
		C52,342,52.6,340.5,54.1,339.8z"/>
	<path class="st0" d="M92.8,230.7c-0.6-1.5,0.3-3.3,1.8-3.8c1.5-0.5,3,0.4,3.5,1.9c0.5,1.5-0.2,3-1.7,3.6
		C94.9,232.8,93.3,232.1,92.8,230.7z"/>
	<path class="st0" d="M97.4,206.5c0.5,1.4-0.4,3.2-1.8,3.6c-1.5,0.5-3.1-0.3-3.6-1.8c-0.5-1.5,0.2-3,1.8-3.6
		C95.3,204.2,96.9,205,97.4,206.5z"/>
	<path class="st0" d="M3.5,76.5c0.5,1.4-0.4,3.2-1.8,3.6"/>
	<path class="st0" d="M40.8,104.4c1.5-0.6,3.1,0.1,3.7,1.5c0.6,1.5-0.2,3.4-1.7,3.9c-1.5,0.5-3-0.2-3.6-1.7
		C38.7,106.5,39.3,105,40.8,104.4z"/>
	<path class="st0" d="M16.2,86.6c-0.5-1.4,0.1-2.9,1.5-3.5c1.5-0.6,3.2,0.1,3.7,1.5c0.5,1.4-0.3,3.2-1.6,3.7
		C18.4,88.8,16.8,88.1,16.2,86.6z"/>
	<path class="st0" d="M19.1,378.5c0.6,1.5,0,3-1.6,3.6c-1.5,0.6-3.1-0.1-3.7-1.6c-0.5-1.4,0.2-3.1,1.6-3.7
		C16.9,376.3,18.5,377,19.1,378.5z"/>
	<path class="st0" d="M2.3,381.8c1.5-0.6,3.3,0.2,3.8,1.8c0.5,1.5-0.3,3-1.8,3.5"/>
	<path class="st0" d="M88.6,191.6c1.5-0.6,3.1,0.1,3.8,1.5c0.6,1.5-0.2,3.4-1.7,3.9c-1.5,0.5-3.1-0.2-3.6-1.7
		C86.4,193.8,87.1,192.2,88.6,191.6z"/>
	<path class="st0" d="M62.3,129.2c-0.5-1.6,0.4-3,1.9-3.5c1.4-0.4,2.9,0.4,3.4,1.7c0.5,1.4-0.4,3.2-1.8,3.6
		C64.4,131.6,62.8,130.7,62.3,129.2z"/>
	<path class="st0" d="M91.2,258.2c1.6-0.6,3.3,0.3,3.8,1.9c0.5,1.5-0.3,3-1.9,3.5c-1.5,0.5-3.1-0.3-3.6-1.8
		C88.9,260.4,89.7,258.8,91.2,258.2z"/>
	<path class="st0" d="M31.2,366.4c-0.5-1.5,0.2-3,1.7-3.6c1.5-0.5,3.1,0.2,3.6,1.7c0.5,1.4-0.3,3.2-1.8,3.7
		C33.3,368.7,31.7,367.9,31.2,366.4z"/>
	<path class="st0" d="M50.2,348.8c1.5-0.5,3.1,0.4,3.5,2c0.4,1.5-0.3,2.8-1.7,3.4c-1.5,0.5-3.2-0.2-3.6-1.7
		C47.9,351,48.8,349.2,50.2,348.8z"/>
	<path class="st0" d="M95.3,249.3c1.5-0.6,3.1,0.1,3.7,1.6c0.5,1.4-0.2,3.1-1.6,3.7c-1.4,0.6-3.1-0.2-3.6-1.6
		C93.1,251.4,93.8,249.9,95.3,249.3z"/>
	<path class="st0" d="M68.8,139c1.4-0.6,3.1,0,3.7,1.4c0.7,1.5-0.1,3.3-1.6,3.9c-1.5,0.5-3.1-0.2-3.6-1.7
		C66.7,141.1,67.3,139.6,68.8,139z"/>
	<path class="st0" d="M12.4,80.5c0.6,1.5,0,3-1.6,3.6c-1.5,0.6-3.1-0.1-3.7-1.5c-0.5-1.4,0.2-3.1,1.6-3.7
		C10.1,78.3,11.8,79,12.4,80.5z"/>
	<path class="st0" d="M54.8,121.6c1.5-0.6,3.3,0.2,3.8,1.9c0.5,1.5-0.3,3-1.9,3.6c-1.5,0.5-3.1-0.3-3.6-1.7
		C52.6,123.8,53.4,122.1,54.8,121.6z"/>
	<path class="st0" d="M78.1,311.3c-0.5-1.4,0.3-3.2,1.7-3.7c1.3-0.5,2.9,0.2,3.5,1.5c0.7,1.5,0.1,3.1-1.5,3.7
		C80.3,313.5,78.6,312.8,78.1,311.3z"/>
	<path class="st0" d="M75,327.2c0.7,1.5,0.1,3.1-1.4,3.7c-1.4,0.5-2.9,0-3.6-1.3c-0.6-1.3,0.1-3.2,1.5-3.8
		C72.7,325.3,74.3,325.9,75,327.2z"/>
	<path class="st0" d="M99.7,240.1c1.4-0.4,2.9,0.5,3.4,1.8c0.5,1.5-0.3,3.1-1.9,3.5c-1.4,0.4-3-0.4-3.4-1.8
		C97.3,242.3,98.2,240.5,99.7,240.1z"/>
	<path class="st0" d="M81.2,159.8c-0.5-1.4,0.4-3.2,1.8-3.6c1.4-0.4,2.9,0.3,3.4,1.7c0.6,1.5-0.1,3-1.6,3.6
		C83.4,162,81.7,161.2,81.2,159.8z"/>
	<path class="st0" d="M75.8,316.7c1.4-0.4,2.9,0.3,3.4,1.6c0.5,1.4-0.3,3.2-1.7,3.7c-1.4,0.5-3.1-0.3-3.6-1.8
		C73.5,318.7,74.2,317.2,75.8,316.7z"/>
	<path class="st0" d="M98.4,218.1c1.4-0.7,3.2,0,3.8,1.4c0.6,1.3-0.2,3.2-1.6,3.7c-1.3,0.5-2.9-0.2-3.5-1.5
		C96.5,220.3,97,218.8,98.4,218.1z"/>
	<path class="st0" d="M91.2,186.3c-0.6-1.3,0.2-3.2,1.6-3.8c1.4-0.5,3.1,0.3,3.6,1.8c0.5,1.4-0.2,2.9-1.6,3.4
		C93.4,188.3,91.8,187.6,91.2,186.3z"/>
	<path class="st0" d="M26.9,87.1c1.3-0.5,2.9,0.2,3.5,1.5c0.6,1.4,0.1,2.9-1.3,3.5c-1.4,0.7-3.2,0.1-3.8-1.3
		C24.7,89.5,25.5,87.6,26.9,87.1z"/>
	<path class="st0" d="M95.7,282.2c0.5,1.3-0.2,3-1.5,3.5c-1.4,0.6-3.1-0.1-3.7-1.6c-0.5-1.4,0.1-2.9,1.5-3.5
		C93.4,280,95.1,280.7,95.7,282.2z"/>
	<path class="st0" d="M50,108.5c1.4-0.5,3.1,0.3,3.6,1.8c0.5,1.4-0.2,2.8-1.6,3.4c-1.5,0.6-3.1-0.1-3.7-1.6
		C47.8,110.7,48.6,108.9,50,108.5z"/>
	<path class="st0" d="M91.5,291.2c0.5,1.4,0,2.8-1.4,3.5c-1.4,0.7-3.1,0-3.8-1.4c-0.6-1.3,0.2-3.2,1.5-3.7
		C89.3,289,90.9,289.8,91.5,291.2z"/>
	<path class="st0" d="M86.2,172.9c-0.5-1.4,0.4-3.2,1.8-3.6c1.4-0.4,2.9,0.3,3.4,1.7c0.6,1.5-0.1,3-1.6,3.6
		C88.3,175.1,86.6,174.4,86.2,172.9z"/>
	<path class="st0" d="M84,298.6c1.4-0.5,2.9,0.2,3.5,1.5c0.5,1.3-0.2,3.2-1.6,3.7c-1.4,0.6-3.1-0.2-3.6-1.7
		C81.7,300.6,82.4,299.2,84,298.6z"/>
	<path class="st0" d="M45.9,358.1c1.4-0.6,3.2,0.1,3.7,1.5c0.5,1.4-0.3,3.2-1.7,3.6c-1.4,0.4-2.9-0.3-3.4-1.7
		C43.9,360.1,44.5,358.6,45.9,358.1z"/>
	<path class="st0" d="M1.9,392.5"/>
	<path class="st0" d="M32.3,373.8c0.4,1.4-0.3,2.8-1.7,3.3c-1.4,0.5-2.9-0.2-3.5-1.5c-0.6-1.3,0.3-3.2,1.6-3.7
		C30.2,371.4,31.9,372.3,32.3,373.8z"/>
	<path class="st0" d="M76.3,146.6c-0.5-1.3,0.3-3,1.5-3.5c1.4-0.6,3.1,0.2,3.6,1.6c0.5,1.4-0.1,2.9-1.5,3.4
		C78.6,148.8,76.9,148.1,76.3,146.6z"/>
	<path class="st0" d="M100.4,262.5c1.4-0.5,2.9,0.3,3.4,1.7c0.5,1.4-0.3,3-1.7,3.4c-1.4,0.5-2.9-0.3-3.4-1.7
		C98.3,264.5,99,263,100.4,262.5z"/>
	<path class="st0" d="M11.5,386.1c1.3-0.5,2.9,0.1,3.5,1.4c0.6,1.4-0.2,3.2-1.6,3.7c-1.4,0.5-2.9-0.3-3.4-1.7
		C9.4,388.1,10.1,386.6,11.5,386.1z"/>
	<path class="st0" d="M94.6,275.2c-0.6-1.4,0.2-3.2,1.6-3.7c1.4-0.5,2.9,0.3,3.4,1.7c0.5,1.4-0.1,2.9-1.5,3.5
		C96.8,277.1,95.2,276.5,94.6,275.2z"/>
	<path class="st0" d="M103.6,231.2c1.4-0.5,2.9,0.2,3.4,1.6s-0.3,3-1.6,3.4c-1.4,0.5-2.9-0.3-3.4-1.6
		C101.5,233.3,102.2,231.7,103.6,231.2z"/>
	<path class="st0" d="M59,112.7c1.3-0.5,2.9,0.1,3.5,1.4c0.6,1.4-0.2,3.2-1.6,3.6c-1.4,0.4-2.9-0.3-3.4-1.7
		C57,114.8,57.7,113.3,59,112.7z"/>
	<path class="st0" d="M97.6,195.8c1.3-0.6,2.9,0,3.5,1.4c0.7,1.5,0,3.1-1.5,3.7c-1.4,0.5-3-0.2-3.5-1.5
		C95.7,198.1,96.4,196.4,97.6,195.8z"/>
	<path class="st0" d="M71.5,133.5c-0.5-1.3,0.2-2.9,1.5-3.5c1.4-0.6,3.1,0.2,3.6,1.6c0.5,1.4-0.2,2.9-1.6,3.4
		C73.6,135.5,72,134.8,71.5,133.5z"/>
	<path class="st0" d="M67.5,334.9c1.4-0.5,3,0.2,3.5,1.6c0.5,1.4-0.4,3.2-1.8,3.6c-1.4,0.4-2.9-0.4-3.4-1.8
		C65.3,336.9,66.1,335.4,67.5,334.9z"/>
	<path class="st0" d="M102.8,209c1.4-0.4,2.9,0.3,3.4,1.7c0.5,1.4-0.3,2.9-1.7,3.4c-1.4,0.5-2.9-0.3-3.4-1.7
		C100.7,211,101.5,209.4,102.8,209z"/>
	<path class="st0" d="M66.8,345.7c0.4,1.4-0.3,2.9-1.7,3.4s-2.9-0.3-3.4-1.7c-0.4-1.4,0.4-3,1.7-3.4
		C64.8,343.6,66.4,344.4,66.8,345.7z"/>
	<path class="st0" d="M39.5,92.7c0.6,1.4-0.2,3.2-1.6,3.7c-1.4,0.5-2.9-0.3-3.5-1.6c-0.5-1.4,0.1-2.9,1.5-3.5
		C37.3,90.8,38.9,91.4,39.5,92.7z"/>
	<path class="st0" d="M24.7,381.1c1.4-0.5,2.9,0.2,3.4,1.6c0.5,1.4-0.2,2.9-1.6,3.4c-1.4,0.5-2.9-0.2-3.4-1.6
		C22.6,383.2,23.3,381.6,24.7,381.1z"/>
	<path class="st0" d="M43.6,99c-0.6-1.4,0.1-2.9,1.4-3.5c1.4-0.6,2.9,0.1,3.5,1.4c0.6,1.3-0.1,2.9-1.4,3.5
		C45.7,101,44.1,100.3,43.6,99z"/>
	<path class="st0" d="M45.3,368.6c0.6,1.3-0.1,2.9-1.4,3.5c-1.3,0.6-2.9-0.1-3.5-1.4c-0.6-1.3,0-2.9,1.4-3.5
		C43.2,366.6,44.7,367.2,45.3,368.6z"/>
	<path class="st0" d="M97,173.6c1.4-0.5,2.9,0.3,3.4,1.7c0.4,1.3-0.2,2.7-1.5,3.2c-1.4,0.6-2.9-0.1-3.5-1.5
		C94.9,175.7,95.7,174.1,97,173.6z"/>
	<path class="st0" d="M4,65.9c1.3-0.4,2.7,0.2,3.3,1.4c0.6,1.3-0.1,2.9-1.4,3.5c-1.3,0.6-2.9-0.1-3.4-1.5C1.9,67.9,2.6,66.4,4,65.9z
		"/>
	<path class="st0" d="M54.2,99.6c1.3-0.4,2.7,0.2,3.2,1.5c0.5,1.3,0,2.7-1.3,3.3c-1.4,0.6-2.9,0-3.5-1.3
		C52.1,101.7,52.9,100.1,54.2,99.6z"/>
	<path class="st0" d="M102.9,256.7c-0.4-1.3,0.3-2.7,1.6-3.2c1.4-0.5,2.9,0.2,3.4,1.6c0.5,1.4-0.3,2.9-1.7,3.4
		C104.8,258.9,103.3,258.1,102.9,256.7z"/>
	<path class="st0" d="M100.3,295.3c0.6,1.4,0,2.9-1.4,3.4c-1.3,0.5-2.7-0.1-3.3-1.3c-0.6-1.3,0.1-3,1.4-3.5
		C98.3,293.4,99.7,294,100.3,295.3z"/>
	<path class="st0" d="M87.4,315.4c-0.5-1.3,0.2-3,1.5-3.4c1.4-0.5,2.9,0.3,3.3,1.7c0.4,1.4-0.2,2.7-1.6,3.1
		C89.3,317.3,87.9,316.7,87.4,315.4z"/>
	<path class="st0" d="M59.3,353.1c1.4-0.5,2.9,0.3,3.3,1.7c0.4,1.3-0.2,2.6-1.5,3.2c-1.4,0.5-2.9-0.1-3.4-1.5
		C57.2,355.2,57.9,353.6,59.3,353.1z"/>
	<path class="st0" d="M92.9,303c1.4-0.5,3,0.1,3.4,1.5c0.4,1.2-0.3,2.8-1.5,3.3c-1.3,0.6-2.9-0.2-3.4-1.6
		C91,304.9,91.6,303.6,92.9,303z"/>
	<path class="st0" d="M68.3,116.9c1.3-0.4,2.7,0.2,3.2,1.5c0.5,1.3-0.2,2.9-1.5,3.4c-1.4,0.5-2.9-0.2-3.4-1.6
		C66.1,118.7,66.9,117.3,68.3,116.9z"/>
	<path class="st0" d="M92.1,160.5c1.4-0.5,2.9,0.3,3.3,1.7c0.4,1.3-0.2,2.7-1.5,3.2c-1.4,0.5-2.9-0.2-3.4-1.5
		C90,162.5,90.8,160.9,92.1,160.5z"/>
	<path class="st0" d="M87.1,147.3c1.4-0.5,2.9,0.3,3.3,1.7c0.4,1.3-0.2,2.6-1.5,3.2c-1.4,0.6-2.9-0.1-3.4-1.5
		C85.1,149.4,85.8,147.8,87.1,147.3z"/>
	<path class="st0" d="M107.6,222.4c1.4-0.6,2.9,0,3.5,1.3c0.5,1.3-0.2,3-1.5,3.4c-1.3,0.4-2.7-0.2-3.2-1.5
		C105.8,224.3,106.3,223,107.6,222.4z"/>
	<path class="st0" d="M102.1,186.8c1.4-0.4,2.8,0.4,3.2,1.8c0.4,1.3-0.3,2.6-1.6,3.1c-1.4,0.5-2.9-0.2-3.4-1.6
		C99.9,188.8,100.7,187.2,102.1,186.8z"/>
	<path class="st0" d="M13.1,69.9c1.4-0.4,2.9,0.4,3.3,1.8c0.4,1.4-0.3,2.7-1.6,3.1c-1.4,0.5-2.9-0.3-3.4-1.6
		C10.9,71.9,11.7,70.3,13.1,69.9z"/>
	<path class="st0" d="M7.3,395.3c1.4-0.6,3,0.1,3.4,1.5c0.5,1.3-0.3,3-1.7,3.4c-1.3,0.4-2.7-0.3-3.1-1.6
		C5.4,397.2,6,395.8,7.3,395.3z"/>
	<path class="st0" d="M25.4,75.6c0.5,1.3-0.2,2.9-1.5,3.4c-1.2,0.5-2.7-0.1-3.2-1.4c-0.6-1.4-0.1-2.9,1.3-3.5
		C23.3,73.6,24.8,74.2,25.4,75.6z"/>
	<path class="st0" d="M82.2,134.2c1.2-0.5,2.7,0.2,3.2,1.4c0.6,1.3,0.1,2.7-1.2,3.3c-1.3,0.6-2.9,0.1-3.5-1.2
		C80.1,136.4,80.9,134.7,82.2,134.2z"/>
	<path class="st0" d="M29.6,81.5c-0.4-1.2,0.3-2.7,1.5-3.2c1.3-0.5,2.9,0.2,3.3,1.6c0.4,1.3-0.2,2.6-1.5,3.1
		C31.5,83.6,30,82.8,29.6,81.5z"/>
	<path class="st0" d="M36.3,379.6c-0.5-1.3,0.3-3,1.6-3.4c1.4-0.5,2.8,0.4,3.2,1.8c0.4,1.3-0.3,2.6-1.6,3.1
		C38.2,381.5,36.8,380.8,36.3,379.6z"/>
	<path class="st0" d="M110.1,201.4c0.6,1.4,0,2.9-1.4,3.4c-1.3,0.5-2.7-0.1-3.3-1.3c-0.6-1.3,0.1-3,1.4-3.5
		C108.1,199.6,109.5,200.2,110.1,201.4z"/>
	<path class="st0" d="M101.2,284.9c1.4-0.5,2.9,0.2,3.4,1.5c0.4,1.2-0.3,2.8-1.5,3.2c-1.3,0.5-2.9-0.2-3.4-1.6
		C99.3,286.7,99.8,285.4,101.2,284.9z"/>
	<path class="st0" d="M108.7,244.5c1.3-0.4,2.6,0.3,3.1,1.5c0.6,1.4-0.1,2.9-1.6,3.3c-1.3,0.4-2.7-0.2-3.2-1.5
		C106.6,246.5,107.3,244.9,108.7,244.5z"/>
	<path class="st0" d="M83.2,324.2c-0.4-1.3,0.3-2.6,1.6-3.1c1.3-0.4,2.7,0.2,3.2,1.5c0.5,1.3-0.3,3-1.6,3.4
		C85.1,326.4,83.6,325.6,83.2,324.2z"/>
	<path class="st0" d="M33.9,385.4c1.2-0.4,2.6,0.2,3,1.4c0.5,1.2-0.2,2.8-1.4,3.3c-1.3,0.5-2.7-0.2-3.2-1.5
		C31.9,387.2,32.6,385.8,33.9,385.4z"/>
	<path class="st0" d="M109.3,179.4c0.4,1.2-0.4,2.8-1.6,3.2c-1.3,0.4-2.7-0.3-3.1-1.6c-0.5-1.3,0.2-2.6,1.5-3.1
		C107.5,177.5,108.9,178.2,109.3,179.4z"/>
	<path class="st0" d="M38.8,85.8c-0.6-1.3,0-2.7,1.2-3.2c1.4-0.6,2.9,0,3.4,1.4c0.4,1.2-0.3,2.8-1.5,3.2
		C40.8,87.7,39.3,87,38.8,85.8z"/>
	<path class="st0" d="M112.8,235.6c1.3-0.5,2.8,0.2,3.2,1.5c0.4,1.2-0.4,2.8-1.5,3.2c-1.3,0.4-2.7-0.3-3.2-1.6
		C110.8,237.3,111.4,236,112.8,235.6z"/>
	<path class="st0" d="M52.4,88.1c0.4,1.2-0.1,2.5-1.3,3c-1.3,0.6-2.8,0-3.3-1.3c-0.5-1.2,0.2-2.8,1.4-3.3
		C50.5,86.1,52,86.8,52.4,88.1z"/>
	<path class="st0" d="M20.7,390.3c1.3-0.5,2.7,0.2,3.2,1.4c0.5,1.3-0.3,3-1.6,3.4c-1.3,0.4-2.7-0.3-3.1-1.7
		C18.7,392.1,19.3,390.8,20.7,390.3z"/>
	<path class="st0" d="M63.3,103.9c1.3-0.5,2.7,0.2,3.2,1.4c0.5,1.3-0.3,3-1.6,3.4c-1.3,0.4-2.6-0.4-3.1-1.6
		C61.3,105.6,62,104.3,63.3,103.9z"/>
	<path class="st0" d="M49.6,374.5c-0.4-1.2,0.3-2.8,1.5-3.2c1.2-0.4,2.7,0.2,3.1,1.5c0.5,1.3-0.2,2.7-1.5,3.1
		C51.5,376.5,50,375.8,49.6,374.5z"/>
	<path class="st0" d="M101.1,164.8c1.3-0.5,2.8,0.1,3.2,1.4c0.5,1.2-0.2,2.8-1.4,3.3c-1.2,0.5-2.7-0.2-3.2-1.4
		C99.2,166.7,99.8,165.3,101.1,164.8z"/>
	<path class="st0" d="M53.7,365.5c-0.5-1.5,0.2-2.9,1.7-3.3c1.3-0.4,2.7,0.4,3.1,1.7c0.4,1.2-0.4,2.8-1.6,3.2
		C55.6,367.5,54.2,366.8,53.7,365.5z"/>
	<path class="st0" d="M77.2,121.1c1.3-0.5,2.9,0.3,3.3,1.7c0.4,1.3-0.3,2.6-1.6,3c-1.3,0.4-2.7-0.3-3.1-1.5
		C75.3,123.1,76,121.5,77.2,121.1z"/>
	<path class="st0" d="M79.8,340.7c0.5,1.3-0.3,3-1.6,3.4c-1.3,0.4-2.6-0.3-3.1-1.6c-0.4-1.3,0.2-2.6,1.5-3.1
		C77.9,338.8,79.3,339.4,79.8,340.7z"/>
	<path class="st0" d="M83.9,331.7c0.5,1.5-0.2,2.8-1.8,3.2c-1.3,0.4-2.7-0.4-3.1-1.7c-0.3-1.3,0.5-2.8,1.7-3.1
		C82.1,329.7,83.4,330.4,83.9,331.7z"/>
	<path class="st0" d="M71,351.6c-0.5-1.2,0.2-2.8,1.4-3.2c1.2-0.5,2.7,0.2,3.2,1.4c0.5,1.3-0.1,2.7-1.4,3.2
		C72.9,353.4,71.5,352.8,71,351.6z"/>
	<path class="st0" d="M96.2,151.7c1.3-0.5,2.7,0.1,3.2,1.3c0.5,1.2-0.2,2.8-1.4,3.2c-1.2,0.5-2.7-0.1-3.2-1.4
		C94.3,153.5,94.9,152.2,96.2,151.7z"/>
	<path class="st0" d="M108,270c-0.5-1.3,0.2-2.7,1.5-3.1c1.3-0.4,2.7,0.2,3.2,1.5c0.4,1.2-0.4,2.8-1.5,3.2
		C109.9,271.9,108.5,271.2,108,270z"/>
	<path class="st0" d="M111.8,213.3c1.2-0.5,2.7,0.2,3.2,1.4c0.5,1.3-0.1,2.7-1.4,3.2c-1.3,0.5-2.8-0.1-3.2-1.4
		C109.9,215.4,110.6,213.8,111.8,213.3z"/>
	<path class="st0" d="M103.8,279.1c-0.4-1.2,0.3-2.8,1.5-3.2c1.3-0.5,2.9,0.2,3.3,1.7c0.4,1.3-0.3,2.6-1.6,3.1
		C105.7,281,104.2,280.3,103.8,279.1z"/>
	<path class="st0" d="M91.5,138.4c1.2-0.3,2.5,0.3,3,1.5c0.5,1.2-0.3,2.8-1.5,3.2c-1.3,0.4-2.7-0.3-3.1-1.6
		C89.4,140.1,90.1,138.8,91.5,138.4z"/>
	<path class="st0" d="M111.3,191.1c1.2-0.3,2.5,0.3,3,1.5c0.5,1.2-0.3,2.8-1.5,3.2c-1.3,0.4-2.7-0.3-3.1-1.6
		C109.2,192.8,109.9,191.5,111.3,191.1z"/>
	<path class="st0" d="M3.3,404.4c1.1-0.5,2.5,0.1,3.1,1.2c0.6,1.3,0.2,2.7-1.1,3.3c-1.2,0.6-2.7,0-3.3-1.2"/>
	<path class="st0" d="M16.5,399.5c1.2-0.5,2.7,0.1,3.2,1.4c0.4,1.2-0.2,2.5-1.3,3c-1.2,0.5-2.7-0.1-3.2-1.4
		C14.7,401.4,15.3,400,16.5,399.5z"/>
	<path class="st0" d="M15.8,64.5c-0.6-1.3-0.1-2.7,1.2-3.3c1.3-0.5,2.8,0.1,3.2,1.4c0.4,1.1-0.2,2.6-1.4,3
		C17.8,66.1,16.4,65.6,15.8,64.5z"/>
	<path class="st0" d="M26,65.4c1.2-0.6,2.7,0,3.2,1.2c0.5,1.2,0,2.5-1.2,3.1c-1.2,0.6-2.7,0-3.2-1.2C24.4,67.3,24.9,65.9,26,65.4z"
		/>
	<path class="st0" d="M2.2,54.4"/>
	<path class="st0" d="M61.5,92.3c0.4,1.2-0.3,2.5-1.5,2.9c-1.2,0.4-2.5-0.1-3-1.3c-0.5-1.2,0.1-2.7,1.4-3.2
		C59.6,90.3,61.1,91,61.5,92.3z"/>
	<path class="st0" d="M71.4,358.9c0.5,1.3-0.2,2.7-1.5,3.1c-1.2,0.4-2.5-0.2-3-1.4c-0.5-1.3,0.2-2.7,1.5-3.1
		C69.7,357.1,71,357.7,71.4,358.9z"/>
	<path class="st0" d="M113.6,257.8c1.2-0.4,2.5,0.2,3,1.4c0.5,1.2,0,2.5-1.2,3.1c-1.2,0.6-2.8,0-3.3-1.2
		C111.7,259.8,112.4,258.2,113.6,257.8z"/>
	<path class="st0" d="M72.4,108c1.2-0.4,2.5,0.2,3,1.4c0.5,1.2,0,2.5-1.2,3.1c-1.2,0.6-2.8,0-3.3-1.2C70.4,110,71.1,108.4,72.4,108z
		"/>
	<path class="st0" d="M86.6,125.3c1.2-0.3,2.5,0.4,2.9,1.6c0.4,1.2-0.2,2.5-1.4,3c-1.3,0.5-2.7-0.2-3.1-1.5
		C84.5,127,85.3,125.6,86.6,125.3z"/>
	<path class="st0" d="M115.4,229.6c-0.4-1.2,0.2-2.5,1.4-3c1.1-0.5,2.5,0.1,3,1.2c0.6,1.2,0,2.7-1.3,3.2
		C117.3,231.5,115.9,230.8,115.4,229.6z"/>
	<path class="st0" d="M8,57c1.2-0.5,2.7,0.2,3.2,1.5c0.5,1.3-0.3,2.7-1.6,3.1c-1.2,0.4-2.5-0.3-3-1.5C6.2,59,6.9,57.5,8,57z"/>
	<path class="st0" d="M102.1,307.3c1.2-0.5,2.5,0.1,3,1.3c0.5,1.2-0.1,2.8-1.4,3.2c-1.2,0.4-2.5-0.2-3-1.5
		C100.3,309.1,100.9,307.8,102.1,307.3z"/>
	<path class="st0" d="M101,317.7c0.5,1.2-0.1,2.5-1.3,3c-1.3,0.5-2.8-0.1-3.2-1.5c-0.4-1.2,0.3-2.5,1.5-2.9
		C99.2,315.9,100.5,316.5,101,317.7z"/>
	<path class="st0" d="M46.8,380.6c1.2-0.6,2.7,0.1,3.2,1.4c0.4,1.2-0.2,2.5-1.4,3c-1.2,0.5-2.5-0.1-3-1.3
		C45.2,382.5,45.7,381.1,46.8,380.6z"/>
	<path class="st0" d="M116,204.4c1.3-0.5,2.7,0.2,3.1,1.5c0.4,1.2-0.3,2.5-1.5,2.9c-1.2,0.4-2.5-0.2-3-1.4
		C114.2,206.2,114.8,204.9,116,204.4z"/>
	<path class="st0" d="M110.3,289.3c1.2-0.5,2.6,0,3.1,1.2c0.5,1.1-0.1,2.6-1.2,3.1c-1.2,0.5-2.5,0-3-1.2
		C108.5,291.1,109,289.8,110.3,289.3z"/>
	<path class="st0" d="M110.4,169c1.2-0.4,2.5,0.2,2.9,1.4c0.4,1.2-0.3,2.5-1.5,2.9c-1.2,0.4-2.5-0.3-2.9-1.5
		C108.5,170.7,109.1,169.5,110.4,169z"/>
	<path class="st0" d="M70.4,96.4c0.4,1.2-0.3,2.5-1.4,3c-1.2,0.4-2.5-0.2-2.9-1.4c-0.4-1.2,0.1-2.5,1.4-2.9
		C68.7,94.6,70,95.2,70.4,96.4z"/>
	<path class="st0" d="M64.4,366.6c1.2-0.4,2.5,0.2,3,1.4c0.4,1.2-0.3,2.6-1.4,3c-1.2,0.4-2.5-0.2-2.9-1.5
		C62.5,368.3,63.1,367,64.4,366.6z"/>
	<path class="st0" d="M29.8,394.6c1.2-0.4,2.6,0.2,3,1.3c0.4,1.2-0.2,2.5-1.4,3c-1.2,0.4-2.5-0.2-3-1.4
		C27.9,396.3,28.5,395.1,29.8,394.6z"/>
	<path class="st0" d="M93.9,325.4c1.2-0.5,2.6,0.1,3,1.3c0.5,1.2-0.2,2.6-1.3,3s-2.5-0.1-3-1.4C92.1,327.2,92.7,325.9,93.9,325.4z"
		/>
	<path class="st0" d="M99.1,145.7c-0.5-1.2,0.1-2.5,1.3-2.9c1.2-0.5,2.5,0.1,3,1.3c0.4,1.1-0.2,2.5-1.3,3
		C100.9,147.5,99.5,146.9,99.1,145.7z"/>
	<path class="st0" d="M88.4,337.4c-0.4-1.1,0.3-2.5,1.5-2.9c1.2-0.4,2.5,0.3,2.9,1.5c0.4,1.2-0.2,2.4-1.5,2.9
		C90.1,339.2,88.8,338.6,88.4,337.4z"/>
	<path class="st0" d="M81.5,112.2c1.2-0.4,2.5,0.3,2.9,1.5c0.4,1.2-0.2,2.5-1.5,2.9c-1.2,0.4-2.5-0.3-2.9-1.5
		C79.7,113.9,80.4,112.6,81.5,112.2z"/>
	<path class="st0" d="M109.2,299.7c0.4,1.2-0.2,2.5-1.5,2.9c-1.2,0.4-2.5-0.3-2.9-1.5c-0.4-1.2,0.3-2.6,1.5-2.9
		C107.5,297.8,108.8,298.5,109.2,299.7z"/>
	<path class="st0" d="M116.3,251.8c-0.4-1.2,0.3-2.6,1.4-3c1.2-0.4,2.5,0.2,2.9,1.5c0.4,1.2-0.2,2.5-1.4,2.9
		C118,253.6,116.7,253,116.3,251.8z"/>
	<path class="st0" d="M35.3,69.4c1.2-0.4,2.5,0.2,3,1.4c0.5,1.2-0.1,2.5-1.3,3c-1.2,0.4-2.5-0.2-3-1.3
		C33.5,71.3,34.1,69.9,35.3,69.4z"/>
	<path class="st0" d="M105.5,155.9c1.2-0.4,2.5,0.2,2.9,1.4c0.4,1.2-0.3,2.5-1.5,2.9c-1.2,0.4-2.5-0.3-2.9-1.5
		C103.6,157.5,104.2,156.3,105.5,155.9z"/>
	<path class="st0" d="M123.9,219c0.4,1.2,0,2.3-1.1,2.8c-1.2,0.5-2.6,0-3.1-1.1c-0.5-1.1,0.2-2.6,1.3-3
		C122.1,217.1,123.5,217.8,123.9,219z"/>
	<path class="st0" d="M98.4,130.9c0.4,1.1-0.4,2.6-1.5,2.9c-1.1,0.3-2.3-0.3-2.7-1.3c-0.5-1.2,0-2.5,1.3-2.9
		C96.7,129.2,98,129.8,98.4,130.9z"/>
	<path class="st0" d="M2.2,414.9"/>
	<path class="st0" d="M12.6,408.6c1.2-0.4,2.5,0.4,2.8,1.6c0.3,1.1-0.2,2.2-1.4,2.7c-1.2,0.4-2.5-0.2-2.9-1.3
		C10.7,410.4,11.5,408.9,12.6,408.6z"/>
	<path class="st0" d="M25.7,403.7c1-0.4,2.3,0.2,2.8,1.2c0.5,1.1,0.1,2.3-1,2.8c-1.1,0.6-2.6,0.1-3-1
		C23.9,405.7,24.6,404.1,25.7,403.7z"/>
	<path class="st0" d="M85.7,343.6c1.1-0.4,2.4,0.1,2.8,1.2c0.5,1.1-0.1,2.6-1.2,3.1c-1.1,0.5-2.5-0.1-3-1.3
		C83.9,345.3,84.5,344.1,85.7,343.6z"/>
	<path class="st0" d="M84.5,354.2c0.3,1.1-0.2,2.3-1.4,2.7c-1.1,0.4-2.4-0.2-2.8-1.2c-0.5-1.1,0.2-2.6,1.3-3
		C82.8,352.2,84.1,352.9,84.5,354.2z"/>
	<path class="st0" d="M79.2,100.2c0.6,1.2,0.1,2.5-1,3c-1,0.4-2.3,0-2.9-1c-0.5-1,0-2.6,1.1-3C77.4,98.7,78.7,99.2,79.2,100.2z"/>
	<path class="st0" d="M43,76.4c-0.4-1.2,0.1-2.3,1.3-2.8c1.2-0.5,2.6,0.1,3,1.2c0.4,1.1-0.2,2.6-1.4,3C44.8,78.3,43.4,77.6,43,76.4z
		"/>
	<path class="st0" d="M62.9,376.9c0.6,1.2,0.1,2.5-1.1,3c-1.1,0.4-2.4,0-2.9-1c-0.5-1,0.1-2.6,1.2-3.1
		C61.1,375.3,62.4,375.8,62.9,376.9z"/>
	<path class="st0" d="M53.5,77.7c1.1-0.4,2.3,0.2,2.8,1.3c0.5,1.1,0,2.3-1,2.8c-1.1,0.6-2.6,0-3-1.1C51.7,79.6,52.4,78.1,53.5,77.7z
		"/>
	<path class="st0" d="M42.9,389.8c1.1-0.4,2.3,0,2.9,1c0.6,1,0,2.5-1,3.1c-1.1,0.5-2.5,0-3-1.2C41.2,391.5,41.7,390.3,42.9,389.8z"
		/>
	<path class="st0" d="M123.1,196.7c0.4,1-0.2,2.4-1.2,2.8c-1.1,0.5-2.5-0.1-3-1.3c-0.4-1.1,0-2.3,1.1-2.8
		C121.2,195,122.7,195.6,123.1,196.7z"/>
	<path class="st0" d="M122,239.9c1.1-0.3,2.3,0.2,2.7,1.3c0.4,1.1-0.2,2.6-1.3,3c-1.2,0.4-2.5-0.2-2.9-1.4
		C120.1,241.4,120.8,240.2,122,239.9z"/>
	<path class="st0" d="M113.9,185.1c-0.4-1.2,0.1-2.3,1.2-2.8c1.2-0.5,2.6,0,3.1,1.2c0.5,1.1-0.2,2.6-1.3,3
		C115.7,187,114.4,186.3,113.9,185.1z"/>
	<path class="st0" d="M117.3,274c-0.4-1.2,0.1-2.3,1.2-2.8c1.1-0.5,2.6,0,3,1.1c0.4,1.1-0.2,2.6-1.3,3
		C119.1,275.8,117.7,275.2,117.3,274z"/>
	<path class="st0" d="M117.4,281.6c0.4,1.2-0.1,2.3-1.2,2.8c-1.2,0.5-2.6,0-3-1.2c-0.5-1.1,0.2-2.6,1.3-3
		C115.6,279.7,116.9,280.3,117.4,281.6z"/>
	<path class="st0" d="M20.1,55.1c-0.4-1.1,0-2.3,1.1-2.8c1.1-0.5,2.6,0.1,2.9,1.3c0.3,1-0.3,2.4-1.3,2.8
		C21.8,56.8,20.6,56.2,20.1,55.1z"/>
	<path class="st0" d="M12.2,48.2c1-0.5,2.3,0,2.8,1.1c0.6,1.2,0,2.5-1.2,3c-1.1,0.4-2.4-0.1-2.8-1.2C10.6,50.1,11.2,48.7,12.2,48.2z
		"/>
	<path class="st0" d="M90.6,116.5c1.1-0.4,2.4,0.2,2.8,1.2c0.4,1.1-0.3,2.6-1.4,2.9c-1.1,0.3-2.3-0.4-2.6-1.5
		C88.9,118,89.5,116.9,90.6,116.5z"/>
	<path class="st0" d="M6,45.3c0.4,1.1-0.3,2.6-1.4,2.9c-1.1,0.3-2.3-0.4-2.7-1.5c-0.4-1.1,0.2-2.3,1.3-2.7C4.4,43.7,5.6,44.3,6,45.3
		z"/>
	<path class="st0" d="M121.5,265.1c-0.5-1.1,0.2-2.6,1.3-3c1.1-0.4,2.3,0.2,2.7,1.3c0.4,1.1-0.1,2.3-1.2,2.8
		C123.2,266.6,121.9,266.1,121.5,265.1z"/>
	<path class="st0" d="M76.3,364.6c-0.5-1.2,0.2-2.5,1.5-2.8c1.1-0.3,2.3,0.4,2.7,1.4c0.3,1-0.4,2.4-1.4,2.7
		C77.9,366.3,76.7,365.7,76.3,364.6z"/>
	<path class="st0" d="M126,230.9c1.2-0.4,2.5,0.3,2.9,1.5c0.3,1.1-0.3,2.3-1.5,2.6c-1.1,0.3-2.3-0.3-2.7-1.4
		C124.3,232.6,125,231.2,126,230.9z"/>
	<path class="st0" d="M128,209.9c0.4,1.1-0.3,2.6-1.4,2.9c-1.1,0.3-2.3-0.4-2.7-1.5c-0.4-1.1,0.2-2.3,1.3-2.7
		C126.3,208.3,127.6,208.8,128,209.9z"/>
	<path class="st0" d="M38.8,398.9c1.1-0.4,2.3,0.1,2.7,1.2c0.4,1.1-0.1,2.3-1.2,2.7c-1.1,0.4-2.3-0.1-2.7-1.2
		C37.2,400.6,37.8,399.3,38.8,398.9z"/>
	<path class="st0" d="M56,384.9c1.1-0.5,2.4,0,2.9,1.1c0.4,1-0.1,2.4-1.1,2.9c-1.1,0.5-2.3,0-2.8-1.1
		C54.5,386.7,54.9,385.4,56,384.9z"/>
	<path class="st0" d="M107.1,320.7c1.1-0.4,2.3,0.1,2.7,1.2c0.4,1.1-0.2,2.3-1.2,2.7c-1.1,0.4-2.3-0.2-2.7-1.2
		C105.5,322.3,106,321.1,107.1,320.7z"/>
	<path class="st0" d="M114,312.9c0.4,1.1-0.3,2.3-1.4,2.7c-1.1,0.4-2.3-0.2-2.6-1.3c-0.3-1.1,0.3-2.3,1.4-2.7
		C112.4,311.2,113.6,311.9,114,312.9z"/>
	<path class="st0" d="M115.2,302.6c1-0.5,2.3,0,2.8,1.1c0.4,1-0.1,2.3-1.1,2.8c-1.1,0.5-2.3,0-2.8-1.1
		C113.7,304.3,114.2,303.1,115.2,302.6z"/>
	<path class="st0" d="M127,253.1c1.1-0.3,2.3,0.3,2.6,1.4c0.3,1.1-0.3,2.3-1.4,2.7c-1.1,0.3-2.3-0.3-2.6-1.4
		C125.2,254.7,125.9,253.5,127,253.1z"/>
	<path class="st0" d="M113.2,162.8c-0.4-1.1,0.2-2.4,1.3-2.8c1.1-0.4,2.3,0.2,2.7,1.3c0.4,1.1-0.1,2.3-1.3,2.7
		C114.8,164.5,113.6,163.9,113.2,162.8z"/>
	<path class="st0" d="M39.5,60.6c1.1-0.4,2.3,0.2,2.7,1.2c0.4,1.1-0.2,2.3-1.3,2.7c-1.1,0.4-2.3-0.2-2.7-1.3
		C37.9,62.2,38.4,61,39.5,60.6z"/>
	<path class="st0" d="M109.6,146.9c1.1-0.3,2.3,0.4,2.7,1.5c0.4,1.1-0.3,2.3-1.4,2.7c-1.1,0.3-2.4-0.3-2.7-1.4
		C107.9,148.5,108.6,147.2,109.6,146.9z"/>
	<path class="st0" d="M104.5,133.9c1-0.5,2.3,0,2.8,1.1c0.5,1,0,2.3-1.1,2.8c-1,0.5-2.3,0-2.8-1.1
		C102.9,135.6,103.4,134.3,104.5,133.9z"/>
	<path class="st0" d="M118.2,176.2c-0.4-1,0.1-2.4,1.1-2.8c1.1-0.5,2.3,0,2.8,1.1c0.5,1.1,0,2.3-1.1,2.8
		C120,177.7,118.6,177.2,118.2,176.2z"/>
	<path class="st0" d="M61.3,84.6c-0.4-1.1,0.3-2.3,1.4-2.7c1.1-0.4,2.4,0.3,2.7,1.4c0.3,1.1-0.4,2.4-1.4,2.7
		C62.8,86.4,61.6,85.7,61.3,84.6z"/>
	<path class="st0" d="M30.4,56.5c1.1-0.4,2.3,0.1,2.8,1.2c0.4,1.1-0.1,2.3-1.2,2.8c-1.1,0.4-2.4-0.1-2.8-1.2
		C28.7,58.2,29.3,56.9,30.4,56.5z"/>
	<path class="st0" d="M124.4,186.5c1.1-0.4,2,0,2.6,1c0.5,1,0,2.3-1,2.8c-1.1,0.5-2.3,0-2.8-1.1
		C122.7,188.1,123.3,186.9,124.4,186.5z"/>
	<path class="st0" d="M99,338.8c1.1-0.4,2.3,0.2,2.6,1.4c0.3,1.2-0.1,2-1.2,2.5c-1.1,0.5-2.3-0.1-2.7-1.2
		C97.3,340.4,97.9,339.2,99,338.8z"/>
	<path class="st0" d="M84.3,105.9c-0.3-1.1,0.4-2.4,1.5-2.6c1.2-0.3,2,0.2,2.5,1.3c0.4,1.1-0.2,2.3-1.3,2.7
		C85.9,107.7,84.7,107,84.3,105.9z"/>
	<path class="st0" d="M119.5,293.5c1.1-0.4,2,0,2.6,1c0.5,1,0,2.3-1,2.8c-1.1,0.5-2.3,0-2.8-1.1
		C117.8,295.2,118.4,293.9,119.5,293.5z"/>
	<path class="st0" d="M11.1,419.1c0.4,1.1,0,2-1.1,2.5c-1.1,0.5-2.3,0-2.8-1c-0.4-1.1,0.1-2.3,1.2-2.8
		C9.5,417.5,10.7,418,11.1,419.1z"/>
	<path class="st0" d="M103.2,329.7c1-0.3,2.1,0.2,2.5,1.2c0.4,1.1-0.1,2.3-1.2,2.7c-1.1,0.4-2.3-0.2-2.7-1.3
		C101.4,331.2,102.1,330,103.2,329.7z"/>
	<path class="st0" d="M76.1,372.2c0.4,1.1-0.2,2.3-1.3,2.7c-1.1,0.3-2-0.1-2.5-1.1c-0.5-1.1,0-2.3,1.1-2.8
		C74.5,370.5,75.7,371.1,76.1,372.2z"/>
	<path class="st0" d="M131.8,225.6c-1.1,0.5-2.4,0.1-2.8-1c-0.4-1.1,0.1-2.3,1.2-2.7c1-0.4,2.1,0.1,2.5,1.1
		C133.2,224.1,132.8,225.1,131.8,225.6z"/>
	<path class="st0" d="M21.6,413c1-0.4,2.1,0.1,2.5,1.1c0.5,1,0.1,2.1-0.9,2.6c-1.1,0.5-2.4,0.1-2.8-1C20,414.7,20.5,413.4,21.6,413z
		"/>
	<path class="st0" d="M71.5,86.2c1.1-0.5,2.4,0,2.8,1.1c0.4,1.1-0.2,2.4-1.3,2.7c-1,0.3-2.1-0.2-2.5-1.2
		C70.1,87.8,70.5,86.7,71.5,86.2z"/>
	<path class="st0" d="M99.5,120.8c1.1-0.5,2.3-0.1,2.8,1c0.4,1.1-0.1,2.3-1.2,2.7c-1,0.4-2.1-0.1-2.5-1.1
		C98.1,122.4,98.5,121.3,99.5,120.8z"/>
	<path class="st0" d="M47.3,67.1c-0.3-1.1,0.3-2.1,1.4-2.4c1-0.3,2.1,0.2,2.5,1.2c0.4,1.1-0.2,2.3-1.3,2.7
		C48.8,69,47.6,68.3,47.3,67.1z"/>
	<path class="st0" d="M123.5,284.5c1-0.4,2.1,0,2.6,1c0.5,1,0.2,2.1-0.7,2.7c-1,0.6-2.3,0.2-2.9-0.8S122.4,285,123.5,284.5z"/>
	<path class="st0" d="M123.4,164.4c0.9-0.4,2.1,0,2.6,1c0.5,1,0.1,2.1-0.9,2.5c-1,0.4-2.2,0-2.6-0.9
		C122,166.1,122.5,164.9,123.4,164.4z"/>
	<path class="st0" d="M54.7,395.2c0.4,1.1-0.2,2.4-1.3,2.7c-1,0.3-2.1-0.3-2.5-1.3c-0.4-1.1,0.1-2.1,1.2-2.5
		C53.1,393.7,54.2,394.2,54.7,395.2z"/>
	<path class="st0" d="M133.6,245.4c0.4,1.1-0.3,2.4-1.4,2.7c-1,0.3-2.1-0.3-2.4-1.4c-0.3-1.1,0.2-2.1,1.2-2.5
		C132.1,243.9,133.3,244.4,133.6,245.4z"/>
	<path class="st0" d="M118.6,151.2c1-0.3,2.1,0.2,2.5,1.2c0.4,1.1-0.1,2.1-1.2,2.5c-1,0.3-2.2-0.2-2.5-1.2
		C117.1,152.8,117.7,151.5,118.6,151.2z"/>
	<path class="st0" d="M127.6,275.6c1-0.4,2.1,0,2.6,0.9c0.5,1-0.1,2.4-1.1,2.8c-0.9,0.4-2.1-0.2-2.5-1.1
		C126.2,277.1,126.6,276,127.6,275.6z"/>
	<path class="st0" d="M33.6,410.7c-0.4-1,0.2-2.4,1.3-2.7c1-0.3,2.1,0.3,2.4,1.3c0.4,1.1-0.1,2.1-1.2,2.5
		C35.1,412.1,34,411.6,33.6,410.7z"/>
	<path class="st0" d="M90.6,357c1-0.5,2.3,0.2,2.6,1.3c0.3,1.1-0.2,2.1-1.2,2.4c-1,0.3-2.2-0.2-2.5-1.1
		C89.2,358.7,89.7,357.4,90.6,357z"/>
	<path class="st0" d="M94.8,107.6c1-0.3,2.2,0.2,2.5,1.1c0.3,0.9-0.3,2.2-1.2,2.5c-1,0.4-2.1-0.2-2.5-1.2
		C93.2,109.1,93.7,108,94.8,107.6z"/>
	<path class="st0" d="M80.8,90.3c1-0.3,2.1,0.3,2.4,1.3c0.4,1.1-0.2,2.1-1.2,2.4c-1,0.3-2.2-0.2-2.5-1.2
		C79.2,91.8,79.8,90.6,80.8,90.3z"/>
	<path class="st0" d="M94.8,348c1-0.4,2.2,0,2.6,1c0.5,1-0.1,2.4-1.2,2.8c-1,0.3-2.1-0.2-2.5-1.2C93.3,349.5,93.7,348.4,94.8,348z"
		/>
	<path class="st0" d="M69.3,380.1c1.1-0.4,2.3,0.2,2.6,1.4c0.3,1.1-0.2,2-1.3,2.4c-1,0.3-2.1-0.3-2.5-1.2
		C67.8,381.6,68.4,380.4,69.3,380.1z"/>
	<path class="st0" d="M60.2,70.1c0.4,1-0.1,2.1-1.1,2.5c-1.1,0.4-2.4-0.2-2.6-1.3c-0.3-1,0.4-2.1,1.3-2.5
		C58.7,68.6,59.8,69.1,60.2,70.1z"/>
	<path class="st0" d="M129.3,199.8c1-0.4,2.2,0,2.6,1c0.5,1-0.1,2.4-1.2,2.8c-1,0.3-2.1-0.2-2.5-1.2
		C127.8,201.3,128.2,200.2,129.3,199.8z"/>
	<path class="st0" d="M116.2,139.3c0.3,1.1-0.2,2-1.3,2.4c-1,0.3-2.1-0.3-2.4-1.2c-0.3-1,0.4-2.2,1.3-2.4
		C114.7,137.7,115.8,138.3,116.2,139.3z"/>
	<path class="st0" d="M128.4,177.6c0.9-0.4,2.1,0.1,2.5,1c0.4,1,0,2.1-1,2.5c-1,0.4-2.1,0-2.5-1C127,179.3,127.5,178,128.4,177.6z"
		/>
	<path class="st0" d="M133.2,215.4c-0.3-1,0.2-2,1.2-2.4c1-0.3,2.2,0.3,2.4,1.2c0.3,0.9-0.4,2.2-1.3,2.5
		C134.6,217,133.5,216.4,133.2,215.4z"/>
	<path class="st0" d="M7.6,35.2c1-0.3,2.1,0.3,2.4,1.3c0.3,1-0.4,2.2-1.3,2.4c-1,0.3-2.1-0.3-2.4-1.3C6,36.6,6.5,35.6,7.6,35.2z"/>
	<path class="st0" d="M131.8,266.5c0.9-0.4,2.1,0.2,2.5,1.1c0.4,1,0,2.1-1,2.5c-1,0.4-2.1-0.1-2.5-1
		C130.4,268.1,130.9,266.9,131.8,266.5z"/>
	<path class="st0" d="M86.8,366.1c1-0.3,2.1,0.3,2.4,1.2c0.3,1-0.4,2.2-1.3,2.4c-1,0.3-2.1-0.3-2.4-1.3
		C85.2,367.4,85.7,366.4,86.8,366.1z"/>
	<path class="st0" d="M15.3,41.8c-0.3-0.9,0.3-2.2,1.3-2.5c1-0.3,2.1,0.3,2.4,1.3c0.3,1.1-0.2,2.1-1.2,2.4
		C16.7,43.3,15.6,42.7,15.3,41.8z"/>
	<path class="st0" d="M135.1,235.2c0.9-0.4,2.1,0.2,2.5,1.1c0.4,1-0.1,2.1-1.1,2.5c-1,0.4-2.1-0.1-2.5-1.1
		C133.6,236.8,134.2,235.6,135.1,235.2z"/>
	<path class="st0" d="M88.9,97.1c-0.7-0.8-0.1-2.1,1-2.5c1.1-0.4,2,0.1,2.2,1c0.2,0.7-0.3,1.6-0.6,3C90.3,97.9,89.4,97.7,88.9,97.1z
		"/>
	<path class="st0" d="M48.1,403.2c1-0.3,2.1,0.3,2.4,1.3c0.3,1-0.1,1.8-1.1,2.2c-1,0.4-2.2-0.2-2.5-1.1
		C46.5,404.7,47.1,403.5,48.1,403.2z"/>
	<path class="st0" d="M66.8,73.1c1-0.3,1.8,0.1,2.3,1c0.5,0.9-0.1,2.2-1,2.5c-0.9,0.4-2.1-0.2-2.5-1.2
		C65.3,74.5,65.8,73.4,66.8,73.1z"/>
	<path class="st0" d="M84.9,376.4c0.6,0.9-0.1,2.1-1.2,2.4c-1.1,0.3-2-0.2-2.1-1.2c-0.1-0.7,0.4-1.6,0.9-2.9
		C83.5,375.4,84.4,375.7,84.9,376.4z"/>
	<path class="st0" d="M135.9,257.6c0.8-0.6,2.2,0,2.5,1c0.3,1,0,1.8-1,2.3c-0.9,0.5-2.1-0.1-2.7-1.5
		C135,259,135.3,258.1,135.9,257.6z"/>
	<path class="st0" d="M124.6,307c0.9-0.6,2.1,0.2,2.4,1.2c0.2,1.1-0.2,2-1.3,2.1c-0.7,0.1-1.6-0.5-2.9-0.9
		C123.6,308.3,123.9,307.4,124.6,307z"/>
	<path class="st0" d="M115.4,327.5c-0.7-0.8-0.1-2.1,1-2.5c1.1-0.4,2,0.1,2.2,1c0.2,0.7-0.3,1.6-0.6,3
		C116.8,328.4,115.8,328.1,115.4,327.5z"/>
	<path class="st0" d="M106,112.8c0.7,0.8,0.1,2.1-1,2.5c-1.1,0.3-2-0.1-2.2-1c-0.2-0.7,0.3-1.6,0.6-3
		C104.6,112,105.6,112.2,106,112.8z"/>
	<path class="st0" d="M120.3,316.1c0.9-0.5,1.8-0.2,2.3,0.8c0.5,1,0,2.3-1,2.5c-0.8,0.1-1.6-0.4-2.9-0.8
		C119.4,317.4,119.7,316.5,120.3,316.1z"/>
	<path class="st0" d="M111.2,126.1c0.4,1,0.1,1.8-0.9,2.3c-0.9,0.5-2.1,0.1-2.6-0.9c-0.4-0.9,0.1-2.2,1-2.6
		C109.6,124.6,110.8,125.1,111.2,126.1z"/>
	<path class="st0" d="M34.8,47.6c1-0.2,1.9,0.1,2.2,1.2c0.4,1,0,1.8-1,2.3c-1,0.5-2.2-0.1-2.5-1C33.2,49.1,33.8,47.8,34.8,47.6z"/>
	<path class="st0" d="M132.4,193.2c-0.3-1,0.1-1.9,1-2.3c0.9-0.5,2.3,0.1,2.4,1.1c0.1,0.8-0.3,1.6-0.5,2.1
		C133.9,194.7,132.6,194.2,132.4,193.2z"/>
	<path class="st0" d="M46,52.9c0.5,0.9,0,1.8-1,2.3c-1,0.4-2.3-0.2-2.4-1.2c0-0.8,0.5-1.6,1-2.9C44.7,51.9,45.7,52.3,46,52.9z"/>
	<path class="st0" d="M112.3,334.1c0.9-0.5,1.8,0,2.3,1c0.4,1-0.2,2.3-1.2,2.3c-0.8,0-1.6-0.5-2.8-1
		C111.2,335.4,111.6,334.5,112.3,334.1z"/>
	<path class="st0" d="M64.2,391.6c-0.3-1,0-1.8,1-2.3c1-0.5,2.2,0,2.6,0.9c0.4,0.9-0.2,2.2-1.1,2.5
		C65.7,393.2,64.5,392.6,64.2,391.6z"/>
	<path class="st0" d="M16.5,424.6c-0.4-1-0.1-1.8,0.9-2.3c0.9-0.5,2.1-0.1,2.6,0.8c0.4,0.9,0,2.2-1,2.6
		C18.1,426.1,16.8,425.6,16.5,424.6z"/>
	<path class="st0" d="M29.8,419.8c-0.7-0.8-0.1-2.1,1-2.5c1.1-0.4,2,0.1,2.2,1c0.2,0.7-0.3,1.6-0.6,3
		C31.2,420.6,30.3,420.4,29.8,419.8z"/>
	<path class="st0" d="M25.7,43.5c1-0.3,1.8,0.1,2.3,1c0.5,0.9-0.1,2.2-1,2.5c-0.9,0.4-2.1-0.2-2.5-1.2
		C24.1,44.9,24.6,43.8,25.7,43.5z"/>
	<path class="st0" d="M3.3,429.6c-0.4-1-0.1-1.8,0.9-2.3c0.9-0.5,2.1-0.1,2.6,0.8c0.4,0.9,0,2.2-1,2.6
		C4.9,431.1,3.7,430.6,3.3,429.6z"/>
	<path class="st0" d="M107.1,345.5c-0.6-0.9,0.2-2.1,1.2-2.3c1.1-0.2,1.9,0.2,2.1,1.2c0.1,0.7-0.4,1.5-0.9,2.8
		C108.4,346.4,107.5,346.1,107.1,345.5z"/>
	<path class="st0" d="M128.6,298c0.9-0.5,1.8-0.2,2.3,0.8c0.5,0.9,0,2.3-1,2.4c-0.8,0.1-1.6-0.4-2.9-0.8
		C127.7,299.3,128,298.4,128.6,298z"/>
	<path class="st0" d="M52.7,56.1c0.8-0.6,1.8-0.2,2.3,0.8c0.5,0.9,0,2.3-1,2.4c-0.8,0.1-1.6-0.4-2.9-0.7
		C51.8,57.4,52.1,56.5,52.7,56.1z"/>
	<path class="st0" d="M78.1,78.4c0.6,0.9-0.1,2.1-1.2,2.4c-1.1,0.2-2-0.2-2.1-1.2c-0.1-0.7,0.4-1.5,0.8-2.8
		C76.8,77.5,77.7,77.8,78.1,78.4z"/>
	<path class="st0" d="M140.7,205.1c0.6,0.8-0.1,2.1-1.1,2.4c-1.1,0.3-2-0.2-2.1-1.2c-0.1-0.7,0.4-1.6,0.8-2.8
		C139.4,204.2,140.3,204.5,140.7,205.1z"/>
	<path class="st0" d="M139.3,226.3c0.8-0.6,2.1,0.2,2.3,1.2c0.2,1.1-0.2,2-1.2,2.1c-0.7,0.1-1.5-0.4-2.8-0.9
		C138.4,227.6,138.7,226.8,139.3,226.3z"/>
	<path class="st0" d="M60.3,400.6c-0.5-0.9,0-1.8,1-2.2c1-0.3,2,0,2.2,1c0.1,0.7-0.4,1.6-0.8,2.9C61.5,401.6,60.7,401.3,60.3,400.6z
		"/>
	<path class="st0" d="M44,412.4c0.9-0.5,1.8,0.1,2.1,1.1c0.3,1-0.1,2-1.1,2.1c-0.7,0.1-1.5-0.4-2.8-0.8
		C43,413.7,43.4,412.8,44,412.4z"/>
	<path class="st0" d="M140.2,248.6c1-0.3,1.8,0,2.2,1c0.3,1,0,2-1.1,2.2c-0.7,0.1-1.5-0.4-2.1-0.6
		C138.9,249.8,139.2,248.9,140.2,248.6z"/>
	<path class="st0" d="M125,143.5c0.5,0.9,0,1.8-1,2.1c-1,0.3-2,0-2.1-1.1c-0.1-0.7,0.4-1.6,0.8-2.9
		C123.7,142.5,124.6,142.8,125,143.5z"/>
	<path class="st0" d="M132.7,289c0.9-0.6,1.8-0.1,2.2,0.9c0.4,1,0.1,2-0.9,2.2c-0.7,0.2-1.6-0.3-2.9-0.5
		C131.8,290.3,132.1,289.4,132.7,289z"/>
	<path class="st0" d="M129.9,156.5c0.6,0.9,0.1,1.8-0.9,2.2c-1,0.4-2,0.1-2.2-0.9c-0.2-0.7,0.3-1.6,0.6-2.9
		C128.6,155.6,129.5,155.9,129.9,156.5z"/>
	<path class="st0" d="M104.1,352.3c1-0.3,1.9,0.1,2.2,1.1c0.3,1-0.1,2-1.1,2.1c-0.7,0.1-1.5-0.4-2.1-0.6
		C102.7,353.4,103,352.6,104.1,352.3z"/>
	<path class="st0" d="M134.9,169.9c0.5,1-0.1,1.8-1.1,2.1c-1,0.3-2-0.1-2.1-1.2c-0.1-0.7,0.5-1.5,1-2.8
		C133.7,168.8,134.6,169.2,134.9,169.9z"/>
	<path class="st0" d="M12.6,433.6c-0.6-0.8,0-1.9,1-2.2c0.9-0.3,1.8,0,2,0.9c0.1,0.7-0.4,1.6-0.7,2.9
		C13.8,434.5,13,434.2,12.6,433.6z"/>
	<path class="st0" d="M137.7,182c0.8-0.5,1.6-0.1,2,0.8c0.4,0.9,0.2,1.6-0.6,2.1c-0.9,0.5-2,0.1-2.6-1.1
		C136.8,183.3,137.1,182.4,137.7,182z"/>
	<path class="st0" d="M80.7,385.5c0.3,0.9,0.1,1.6-0.8,2.1s-2.2,0.1-2.3-0.8c-0.1-0.8,0.3-1.6,0.4-2.1
		C79.3,384.1,80.3,384.5,80.7,385.5z"/>
	<path class="st0" d="M99,363.6c-0.5-0.7,0.1-2,1-2.2c0.9-0.3,2.1,0.3,2.1,1.2c0,0.7-0.4,1.4-0.9,2.5
		C100.2,364.5,99.4,364.2,99,363.6z"/>
	<path class="st0" d="M140.9,270.9c0.7-0.6,1.9,0.1,2.2,1c0.3,1-0.1,1.8-1.1,1.9c-0.7,0.1-1.4-0.3-2.6-0.6
		C140.1,272.2,140.4,271.4,140.9,270.9z"/>
	<path class="st0" d="M143.4,241.9c-0.6-0.6,0-2,0.9-2.3c0.9-0.3,1.8,0,2,0.9c0.1,0.7-0.2,1.4-0.4,2.7
		C144.7,242.6,143.9,242.4,143.4,241.9z"/>
	<path class="st0" d="M2.5,437.3c0.1,0.8-0.3,1.6-0.4,2.1"/>
	<path class="st0" d="M85,81.6c0.8-0.5,1.6,0,2,0.9c0.4,0.9,0.2,1.6-0.7,2.1c-0.8,0.5-2,0.1-2.5-1.2C84,82.9,84.3,82,85,81.6z"/>
	<path class="st0" d="M135.9,281.9c-0.5-0.8,0-1.6,0.9-2c0.9-0.4,2.1,0,2.2,1c0,0.8-0.4,1.6-0.8,2.9
		C137.1,282.9,136.3,282.6,135.9,281.9z"/>
	<path class="st0" d="M64,61.3c0.4,0.8-0.1,1.6-1,2c-0.9,0.4-2.1-0.1-2.2-1c0-0.8,0.4-1.6,0.9-2.9C62.8,60.3,63.7,60.7,64,61.3z"/>
	<path class="st0" d="M100.2,101.9c-0.7,0.6-1.9,0-2.2-0.9c-0.3-0.9-0.1-1.8,0.8-2c0.7-0.2,1.6,0.2,3,0.4
		C101,100.6,100.8,101.5,100.2,101.9z"/>
	<path class="st0" d="M59.1,408.4c0.6,0.8,0.2,1.6-0.7,2.1c-0.9,0.5-2.2,0-2.3-0.9c-0.1-0.7,0.3-1.5,0.7-2.7
		C57.9,407.6,58.7,407.9,59.1,408.4z"/>
	<path class="st0" d="M112,118.3c-0.5-0.7,0.1-2,1-2.2c0.9-0.2,1.8,0.1,2,1.1c0.1,0.7-0.3,1.4-0.6,2.6
		C113.3,119.1,112.5,118.9,112,118.3z"/>
	<path class="st0" d="M143.3,217.5c0.7-0.6,1.9-0.1,2.3,0.7c0.4,0.8-0.1,2.2-1,2.3c-0.7,0.1-1.4-0.3-2.6-0.6
		C142.6,218.8,142.8,217.9,143.3,217.5z"/>
	<path class="st0" d="M28.7,427.4c0.6,0.7,0,2-0.9,2.3c-0.9,0.3-1.8,0-2-1c-0.1-0.7,0.2-1.4,0.5-2.7
		C27.5,426.6,28.3,426.8,28.7,427.4z"/>
	<path class="st0" d="M116.8,131.4c-0.3-0.9,0.3-2,1.2-2.2c0.9-0.2,1.6,0.1,2,1c0.4,0.9,0,1.9-1,2.2
		C118.1,132.7,117.1,132.3,116.8,131.4z"/>
	<path class="st0" d="M96,86.8c0.4,0.8-0.1,1.7-1,2c-0.9,0.3-1.8-0.1-1.9-1c-0.1-0.6,0.4-1.4,0.8-2.6C94.9,85.9,95.7,86.2,96,86.8z"
		/>
	<path class="st0" d="M10.8,28.6c-0.5-0.8-0.1-1.6,0.8-2c0.9-0.4,2.1,0.1,2.2,1c0,0.7-0.4,1.4-0.8,2.6C12,29.4,11.2,29.1,10.8,28.6z
		"/>
	<path class="st0" d="M31,37.7c-0.7,0.6-1.9-0.1-2.2-1c-0.3-0.9,0.1-1.8,1-1.9c0.7-0.1,1.4,0.3,2.6,0.6C31.8,36.4,31.5,37.2,31,37.7
		z"/>
	<path class="st0" d="M70.9,64.4c0.8-0.5,1.6-0.1,2.1,0.7c0.4,0.7-0.1,2.2-1,2.2c-0.7,0-1.4-0.4-2.6-0.8
		C70.1,65.6,70.4,64.8,70.9,64.4z"/>
	<path class="st0" d="M97.9,371.5c0.5,0.7-0.2,2-1.1,2.2c-0.9,0.2-1.8-0.2-1.9-1.1c-0.1-0.7,0.4-1.4,0.7-2.6
		C96.7,370.6,97.5,370.9,97.9,371.5z"/>
	<path class="st0" d="M142.7,195.2c0.7-0.5,1.9,0.2,2.1,1.2c0.2,1-0.2,1.8-1.2,1.8c-0.7,0-1.4-0.4-2.5-0.8
		C141.8,196.3,142.1,195.6,142.7,195.2z"/>
	<path class="st0" d="M2.6,22.4c0.7-0.5,1.9,0.2,2.1,1.2c0.2,1-0.2,1.8-1.2,1.8"/>
	<path class="st0" d="M38.9,38.9c0.8-0.4,1.6,0,2,0.9c0.3,0.9,0,1.8-1,1.9c-0.7,0.1-1.4-0.3-2.6-0.7C38,40.1,38.3,39.2,38.9,38.9z"
		/>
	<path class="st0" d="M40,421.7c0.9-0.4,1.6,0.1,1.9,1c0.3,0.9-0.1,1.8-1,1.9c-0.6,0.1-1.4-0.4-2.6-0.9
		C39.1,422.8,39.4,422,40,421.7z"/>
	<path class="st0" d="M145.1,262c0.8-0.5,1.6,0,2,0.8c0.4,0.9,0,1.8-0.9,2c-0.6,0.2-1.4-0.3-2.7-0.6
		C144.3,263.1,144.6,262.3,145.1,262z"/>
	<path class="st0" d="M73.6,395.8c-0.6-0.8-0.2-1.6,0.6-2.1c0.8-0.5,2.1-0.1,2.2,0.8c0.1,0.7-0.3,1.5-0.6,2.6
		C74.8,396.6,74,396.3,73.6,395.8z"/>
	<path class="st0" d="M20.6,30.7c0.7-0.6,1.9,0.1,2.2,1c0.3,0.9-0.1,1.8-1,1.9c-0.7,0.1-1.4-0.3-2.6-0.6
		C19.8,31.9,20.1,31.1,20.6,30.7z"/>
	<path class="st0" d="M124.6,331.2c-0.4-0.9,0.2-1.7,1.1-1.8c0.6,0,1.5,0.5,1.6,1c0.1,0.6-0.4,1.4-0.8,2.6
		C125.6,332.2,124.8,331.8,124.6,331.2z"/>
	<path class="st0" d="M8.6,442.3c-0.1-0.4,0.5-1.5,1-1.6c0.5-0.1,1.5,0.4,1.7,0.8c0.2,0.6-0.3,1.4-0.7,2.7
		C9.6,443.3,8.8,442.9,8.6,442.3z"/>
	<path class="st0" d="M108.1,103.2c0.4-0.2,1.5,0.2,1.8,0.6c0.6,0.8,0.3,1.7-0.6,2c-0.6,0.2-1.4-0.2-2.7-0.4
		C107.2,104.3,107.5,103.4,108.1,103.2z"/>
	<path class="st0" d="M142,173.1c0.4-0.2,1.5,0.4,1.6,0.9c0.2,0.4-0.3,1.5-0.7,1.7c-0.6,0.2-1.4-0.2-2.8-0.4
		C141.1,174.2,141.4,173.3,142,173.1z"/>
	<path class="st0" d="M128.8,322.3c-0.2-0.4,0.2-1.5,0.6-1.8c0.7-0.6,1.7-0.3,2,0.6c0.2,0.6-0.2,1.4-0.4,2.7
		C129.9,323.1,129,322.9,128.8,322.3z"/>
	<path class="st0" d="M57,47.2c0.9-0.4,1.8-0.1,1.9,0.9c0.1,0.6-0.4,1.6-0.8,1.7c-0.6,0.2-1.4-0.3-2.6-0.6
		C56.2,48.3,56.5,47.5,57,47.2z"/>
	<path class="st0" d="M132.8,313.2c-0.4-0.8,0-1.7,1-1.9c0.6-0.1,1.6,0.4,1.7,0.8c0.2,0.6-0.2,1.4-0.5,2.7
		C134,314.1,133.1,313.8,132.8,313.2z"/>
	<path class="st0" d="M49.8,44c0.2,0.4-0.2,1.5-0.7,1.8c-0.8,0.5-1.7,0.2-2-0.7c-0.2-0.6,0.2-1.4,0.5-2.7
		C48.7,43.1,49.6,43.4,49.8,44z"/>
	<path class="st0" d="M91.8,379.7c0.4-0.2,1.5,0.2,1.8,0.7c0.6,0.8,0.2,1.8-0.7,2c-0.6,0.2-1.4-0.2-2.7-0.5
		C90.9,380.9,91.2,380,91.8,379.7z"/>
	<path class="st0" d="M54.9,417.8c0.1,0.4-0.4,1.5-0.9,1.6c-0.5,0.2-1.6-0.3-1.7-0.7c-0.2-0.6,0.2-1.4,0.5-2.8
		C53.9,416.9,54.7,417.3,54.9,417.8z"/>
	<path class="st0" d="M127,133.6c0.8-0.5,1.8,0,1.9,0.9c0.1,0.5-0.3,1.6-0.7,1.8c-0.6,0.2-1.4-0.1-2.7-0.3
		C126.2,134.8,126.4,133.9,127,133.6z"/>
	<path class="st0" d="M69.6,404.6c-0.2-0.4,0.3-1.5,0.8-1.7c0.5-0.2,1.6,0.2,1.8,0.6c0.2,0.6-0.1,1.4-0.4,2.8
		C70.6,405.5,69.8,405.1,69.6,404.6z"/>
	<path class="st0" d="M148.5,230.7c0.8-0.5,1.7,0,1.9,1c0.1,0.6-0.4,1.6-0.8,1.7c-0.6,0.2-1.4-0.2-2.7-0.5
		C147.6,231.8,147.9,231,148.5,230.7z"/>
	<path class="st0" d="M137.7,302.4c0.8-0.5,1.8-0.2,1.9,0.8c0.1,0.5-0.3,1.6-0.7,1.8c-0.6,0.2-1.4-0.2-2.6-0.5
		C137,303.5,137.2,302.7,137.7,302.4z"/>
	<path class="st0" d="M80.2,68.5c0.4-0.1,1.4,0.4,1.7,0.9c0.5,0.8,0.1,1.8-0.9,1.9c-0.6,0.1-1.4-0.4-2.6-0.7
		C79.3,69.6,79.6,68.7,80.2,68.5z"/>
	<path class="st0" d="M119.1,348.6c0.2,0.4-0.3,1.5-0.8,1.7c-0.5,0.2-1.6-0.2-1.8-0.6c-0.3-0.6,0.1-1.4,0.3-2.8
		C118,347.7,118.8,348,119.1,348.6z"/>
	<path class="st0" d="M146.8,210.2c-0.2-0.5,0.3-1.4,0.8-1.7c0.8-0.5,1.8-0.1,1.9,0.8c0.1,0.6-0.3,1.4-0.7,2.7
		C147.8,211.2,146.9,210.8,146.8,210.2z"/>
	<path class="st0" d="M131.9,146.8c0.8-0.5,1.8-0.1,1.9,0.8c0.1,0.6-0.2,1.6-0.7,1.8c-0.6,0.2-1.4-0.1-2.7-0.3
		C131.1,148,131.4,147.1,131.9,146.8z"/>
	<path class="st0" d="M136.9,159.9c0.8-0.5,1.8,0,1.9,0.9c0.1,0.5-0.3,1.6-0.7,1.8c-0.6,0.2-1.4-0.1-2.7-0.4
		C136.1,161.1,136.3,160.3,136.9,159.9z"/>
	<path class="st0" d="M121.4,338.6c0.4-0.2,1.5,0.2,1.8,0.6c0.6,0.8,0.3,1.7-0.6,2c-0.6,0.2-1.4-0.2-2.7-0.4
		C120.5,339.7,120.8,338.9,121.4,338.6z"/>
	<path class="st0" d="M154.4,222.7c0.1,0.5-0.5,1.1-0.9,1.7c-0.6-0.3-1.4-0.5-1.6-1c-0.2-0.4,0.3-1.2,0.6-2.3
		C153.5,221.8,154.3,222.2,154.4,222.7z"/>
	<path class="st0" d="M21.9,437.6c-0.1-0.5,0.2-1.4,0.7-1.7c0.8-0.5,1.7-0.1,1.9,0.8c0.1,0.6-0.3,1.2-0.7,2.3
		C22.9,438.4,22.1,438.1,21.9,437.6z"/>
	<path class="st0" d="M35.1,432.6c-0.4-0.7-0.1-1.6,0.8-1.7c0.6-0.1,1.5,0.3,1.7,0.8c0.2,0.5-0.2,1.2-0.5,2.4
		C36.1,433.4,35.4,433.2,35.1,432.6z"/>
	<path class="st0" d="M86.9,390.7c-0.4-0.8,0-1.8,0.9-1.9c0.5-0.1,1.4,0.5,1.6,0.9c0.2,0.4-0.2,1.2-0.5,2.3
		C87.9,391.4,87.1,391.2,86.9,390.7z"/>
	<path class="st0" d="M108.3,367.6c-0.1-0.5,0.4-1.2,0.7-1.8c0.6,0.3,1.5,0.4,1.7,0.8c0.2,0.4-0.2,1.2-0.4,2.4
		C109.3,368.3,108.4,368.1,108.3,367.6z"/>
	<path class="st0" d="M66,51.4c0.5-0.1,1.4,0.2,1.7,0.7c0.5,0.7,0.2,1.5-0.7,1.7c-0.6,0.1-1.3-0.2-2.4-0.4
		C65.3,52.5,65.5,51.6,66,51.4z"/>
	<path class="st0" d="M122,120.5c0.9-0.5,1.7,0,1.9,0.9c0.1,0.5-0.4,1.4-0.9,1.6s-1.2-0.2-2.3-0.5
		C121.3,121.6,121.5,120.8,122,120.5z"/>
	<path class="st0" d="M112.4,358.5c-0.1-0.5,0.2-1.4,0.7-1.7c0.8-0.5,1.7-0.1,1.9,0.8c0.1,0.6-0.3,1.2-0.7,2.3
		C113.4,359.3,112.6,359,112.4,358.5z"/>
	<path class="st0" d="M103.1,90.1c0.5-0.1,1.5,0.2,1.8,0.6c0.5,0.8,0.1,1.7-0.8,1.9c-0.5,0.1-1.2-0.3-2.4-0.6
		C102.4,91.1,102.6,90.3,103.1,90.1z"/>
	<path class="st0" d="M146,188.1c-0.4-0.8,0.1-1.8,1-1.8c0.5,0,1.4,0.5,1.6,1c0.2,0.5-0.3,1.2-0.7,2.2
		C147,188.9,146.2,188.6,146,188.1z"/>
	<path class="st0" d="M90.9,73.7c0.4,0.8-0.1,1.6-0.9,1.6c-0.6,0-1.5-0.5-1.6-0.9c-0.2-0.5,0.3-1.2,0.7-2.3
		C89.9,72.8,90.6,73.2,90.9,73.7z"/>
	<path class="st0" d="M148.6,254.9c-0.5-0.7-0.2-1.4,0.6-1.8c0.9-0.4,1.7-0.2,2,0.8c0.1,0.6-0.3,1.3-0.6,2.4
		C149.6,255.6,148.9,255.4,148.6,254.9z"/>
	<path class="st0" d="M145.3,285.9c-0.4-0.8,0.1-1.6,0.9-1.6c0.6,0,1.4,0.5,1.6,0.9c0.2,0.5-0.4,1.2-0.8,2.3
		C146.2,286.8,145.5,286.5,145.3,285.9z"/>
	<path class="st0" d="M141.1,295.1c-0.4-0.8,0.1-1.8,1-1.8c0.5,0,1.4,0.5,1.6,1c0.2,0.5-0.3,1.2-0.7,2.2
		C142.1,295.9,141.3,295.6,141.1,295.1z"/>
	<path class="st0" d="M65.5,413.6c-0.1-0.5,0.5-1.3,1-1.6c0.2-0.1,1.3,0.4,1.4,0.8c0.2,0.5-0.2,1.2-0.5,2.4
		C66.4,414.4,65.6,414,65.5,413.6z"/>
	<path class="st0" d="M118.8,108.3c0.1,0.4-0.4,1.4-0.7,1.5c-0.6,0-1.5-0.3-1.7-0.7c-0.2-0.4,0.3-1.2,0.6-2.4
		C117.9,107.4,118.6,107.8,118.8,108.3z"/>
	<path class="st0" d="M153.4,200.4c0.2,0.4-0.2,1.2-0.6,1.5c-0.7,0.5-1.5,0.2-1.8-0.6c-0.2-0.6,0.2-1.3,0.4-2.5
		C152.5,199.6,153.2,199.9,153.4,200.4z"/>
	<path class="st0" d="M155.1,244.9c0.1,0.4-0.4,1.4-0.7,1.5c-0.6,0-1.5-0.3-1.7-0.7s0.3-1.2,0.6-2.4
		C154.2,244.1,154.9,244.4,155.1,244.9z"/>
	<path class="st0" d="M6.1,15.3c-0.4-0.7,0-1.6,0.8-1.7c0.5-0.1,1.3,0.4,1.4,0.8c0.2,0.4-0.2,1.1-0.5,2C7.1,16,6.4,15.8,6.1,15.3z"
		/>
	<path class="st0" d="M75.1,55.7c0.8-0.5,1.6-0.1,1.7,0.7c0.1,0.5-0.4,1.3-0.9,1.7c-0.3,0.2-1-0.3-1.9-0.6
		C74.5,56.6,74.6,55.9,75.1,55.7z"/>
	<path class="st0" d="M150.3,275.3c0.4-0.1,1.2,0.3,1.5,0.8c0.4,0.8,0,1.5-0.8,1.7c-0.5,0.1-1.1-0.3-2.1-0.6
		C149.5,276.3,149.8,275.5,150.3,275.3z"/>
	<path class="st0" d="M112.3,94.3c0.8-0.3,1.6,0.1,1.6,1c0,0.5-0.5,1.2-1,1.4c-0.4,0.1-1-0.4-1.9-0.7
		C111.6,95.2,111.8,94.5,112.3,94.3z"/>
	<path class="st0" d="M137.7,138.7c0.1,0.5-0.3,1.3-0.7,1.5c-0.7,0.4-1.5,0-1.6-0.9c-0.1-0.5,0.4-1.1,0.7-1.9
		C136.9,138,137.6,138.2,137.7,138.7z"/>
	<path class="st0" d="M141,151.1c0.8-0.5,1.6-0.1,1.7,0.7c0.1,0.5-0.4,1.3-0.9,1.7c-0.3,0.2-1-0.3-1.9-0.6
		C140.4,152.1,140.6,151.4,141,151.1z"/>
	<path class="st0" d="M83.5,398.1c0.8-0.5,1.6-0.1,1.7,0.7c0.1,0.5-0.4,1.3-0.9,1.7c-0.3,0.2-1-0.3-1.9-0.6
		C82.9,399,83.1,398.4,83.5,398.1z"/>
	<path class="st0" d="M104.3,376.7c-0.5-0.7-0.2-1.5,0.6-1.7c0.5-0.1,1.4,0.2,1.6,0.6c0.2,0.5-0.1,1.3-0.3,2.3
		C105.3,377.4,104.6,377.2,104.3,376.7z"/>
	<path class="st0" d="M48.4,427.8c-0.5-0.7-0.2-1.5,0.6-1.7c0.5-0.1,1.4,0.2,1.6,0.6c0.2,0.5-0.1,1.3-0.3,2.3
		C49.4,428.4,48.7,428.2,48.4,427.8z"/>
	<path class="st0" d="M132.8,125.4c0.4,0.8,0,1.6-0.9,1.6c-0.5,0-1.2-0.5-1.4-0.9c-0.2-0.4,0.3-1.1,0.6-2
		C131.9,124.8,132.6,125,132.8,125.4z"/>
	<path class="st0" d="M147.5,164.8c0.5,0.7,0.1,1.5-0.7,1.7c-0.4,0.1-1.3-0.3-1.5-0.7c-0.2-0.4,0.1-1.1,0.3-2
		C146.6,164.3,147.3,164.4,147.5,164.8z"/>
	<path class="st0" d="M24.9,21.9c0.7-0.4,1.6,0,1.6,0.9c0,0.5-0.4,1.2-0.8,1.4s-1.1-0.3-2-0.5C24.3,22.9,24.5,22.2,24.9,21.9z"/>
	<path class="st0" d="M34,26.1c0.5-0.1,1.3,0.2,1.5,0.6c0.4,0.7,0,1.5-0.8,1.7c-0.5,0.1-1.1-0.4-2-0.7C33.3,26.9,33.6,26.2,34,26.1z
		"/>
	<path class="st0" d="M15.8,17.9c0.4-0.2,1.3,0.1,1.6,0.5c0.5,0.7,0.2,1.5-0.6,1.8c-0.5,0.1-1.1-0.2-2-0.5
		C15.2,18.8,15.4,18.1,15.8,17.9z"/>
	<path class="st0" d="M98.2,77.1c0.4-0.2,1.3,0.1,1.6,0.5c0.5,0.7,0.1,1.5-0.7,1.7c-0.5,0.1-1.1-0.3-2-0.5
		C97.6,78,97.7,77.3,98.2,77.1z"/>
	<path class="st0" d="M100.9,384.2c0.4-0.1,1,0.4,1.6,0.6c-0.2,0.5-0.3,1.3-0.7,1.5c-0.4,0.2-1.1-0.2-2-0.4
		C100.3,385.1,100.5,384.3,100.9,384.2z"/>
	<path class="st0" d="M44.6,30.9c0.1,0.4-0.4,1-0.7,1.5c-0.5-0.3-1.3-0.4-1.5-0.8c-0.2-0.4,0.3-1,0.5-2
		C43.8,30.2,44.5,30.5,44.6,30.9z"/>
	<path class="st0" d="M156.1,214.3c-0.1-0.4,0.4-1.3,0.8-1.4s1.2,0.3,1.4,0.8c0.2,0.4-0.3,1-0.6,2
		C156.9,215,156.2,214.7,156.1,214.3z"/>
	<path class="st0" d="M159.1,235.7c0.1,0.4-0.4,1-0.6,1.6c-0.5-0.2-1.3-0.3-1.5-0.7c-0.2-0.4,0.2-1.1,0.4-2
		C158.2,235.1,159,235.3,159.1,235.7z"/>
	<path class="st0" d="M7,450.8c0.1,0.4-0.4,1-0.7,1.5c-0.5-0.3-1.3-0.4-1.5-0.8c-0.2-0.4,0.3-1,0.5-2C6.2,450.1,6.9,450.4,7,450.8z"
		/>
	<path class="st0" d="M18.7,445.1c0.4-0.1,1.3,0.3,1.4,0.7c0.1,0.4-0.3,1.3-0.7,1.5c-0.4,0.2-1.1-0.3-2-0.5
		C18,445.9,18.3,445.2,18.7,445.1z"/>
	<path class="st0" d="M150.9,177.6c0.4-0.2,1.3,0.1,1.5,0.5c0.2,0.4-0.1,1.3-0.5,1.5c-0.3,0.2-1.1-0.1-2-0.2
		C150.3,178.5,150.5,177.7,150.9,177.6z"/>
	<path class="st0" d="M155.8,267c0.1,0.4-0.4,1-0.6,1.6c-0.5-0.2-1.3-0.3-1.5-0.7c-0.2-0.4,0.2-1.1,0.4-2
		C154.9,266.4,155.7,266.6,155.8,267z"/>
	<path class="st0" d="M129.9,344.2c-0.1-0.3,0.4-1.1,0.8-1.2c0.4-0.1,1.2,0.3,1.3,0.6c0.1,0.5-0.2,1.1-0.6,2.1
		C130.6,345,130,344.7,129.9,344.2z"/>
	<path class="st0" d="M31.6,440.3c0.5-0.1,1.1,0.3,1.6,0.4c-0.2,0.5-0.3,1.2-0.7,1.5c-0.2,0.2-0.9-0.2-1.6-0.5
		C31.2,441.2,31.4,440.4,31.6,440.3z"/>
	<path class="st0" d="M125.3,112.9c0.4-0.4,0.7-1,1.1-1.2c0.3-0.1,1.2,0.5,1.2,0.8c0,0.5-0.4,1.2-0.8,1.4c-0.4,0.2-1,0-1.6-0.1
		C125.3,113.4,125.3,113.1,125.3,112.9z"/>
	<path class="st0" d="M147.6,309.6c-0.4-0.4-1-0.7-1.1-1.2c-0.1-0.5,0.1-1.2,0.5-1.6c0.2-0.2,1.2,0.1,1.4,0.4
		c0.2,0.5-0.1,1.1-0.1,1.7C148,309.1,147.8,309.3,147.6,309.6z"/>
	<path class="st0" d="M136.1,334.8c0.1,0.3-0.4,1.1-0.7,1.2c-0.4,0.1-1.2-0.2-1.3-0.5c-0.1-0.5,0.2-1.1,0.4-2.1
		C135.3,334,135.9,334.3,136.1,334.8z"/>
	<path class="st0" d="M81,407.9c0.1,0.3-0.3,0.9-0.5,1.4c-0.5-0.2-1.2-0.3-1.5-0.7c-0.2-0.2,0.2-0.9,0.4-1.8
		C80.1,407.3,80.8,407.5,81,407.9z"/>
	<path class="st0" d="M53.4,34.9c0.1,0.5-0.2,1.2-0.5,1.5c-0.2,0.2-1.2-0.2-1.3-0.5c-0.2-0.5,0.1-1.1,0.3-2
		C52.6,34.4,53.4,34.6,53.4,34.9z"/>
	<path class="st0" d="M84.1,60c0.5-0.1,1.1,0.2,1.6,0.4c-0.2,0.5-0.3,1.2-0.7,1.5c-0.2,0.2-0.9-0.2-1.6-0.4
		C83.7,60.9,83.8,60.1,84.1,60z"/>
	<path class="st0" d="M63.5,421.7c0.1,0.5-0.2,1.2-0.5,1.5c-0.2,0.2-1.2-0.2-1.3-0.5c-0.2-0.5,0.1-1.1,0.3-2
		C62.8,421.3,63.5,421.4,63.5,421.7z"/>
	<path class="st0" d="M138.6,325.1c0.5-0.1,1.1,0.2,1.6,0.4c-0.2,0.5-0.3,1.2-0.7,1.5c-0.2,0.2-0.9-0.2-1.6-0.4
		C138.2,325.9,138.3,325.1,138.6,325.1z"/>
	<path class="st0" d="M156.1,190.6c0.3-0.1,1.2,0.5,1.2,0.7c0,0.5-0.4,1.2-0.8,1.4c-0.3,0.1-0.9-0.3-1.7-0.6
		C155.4,191.4,155.7,190.8,156.1,190.6z"/>
	<path class="st0" d="M144.2,316.3c0.1,0.5-0.2,1.2-0.6,1.5c-0.2,0.2-1.2-0.2-1.3-0.5c-0.2-0.5,0.1-1.1,0.3-2
		C143.4,315.8,144.1,316,144.2,316.3z"/>
	<path class="st0" d="M93.3,64.1c0.3-0.1,1.1,0.2,1.3,0.5c0.1,0.3-0.1,1.1-0.5,1.3c-0.3,0.2-0.9-0.1-1.7-0.3
		C92.8,64.9,93,64.2,93.3,64.1z"/>
	<path class="st0" d="M96.3,394.9c0-0.5,0.3-1.1,0.5-1.6c0.5,0.2,1.1,0.3,1.3,0.6c0.2,0.3-0.1,0.9-0.2,1.6
		C97.2,395.2,96.3,395.1,96.3,394.9z"/>
	<path class="st0" d="M107.3,81.4c0.4-0.2,1,0.2,1.5,0.3c-0.2,0.5-0.3,1.2-0.6,1.6c-0.2,0.2-0.9-0.2-1.6-0.4
		C106.8,82.2,106.9,81.5,107.3,81.4z"/>
	<path class="st0" d="M161,204c0.3-0.1,0.9,0.3,1.2,0.6c0.1,0.2-0.2,1-0.4,1.1c-0.4,0.1-0.9-0.1-1.7-0.2
		C160.5,204.8,160.6,204.1,161,204z"/>
	<path class="st0" d="M145.2,142.3c0.4-0.1,0.9,0.3,1.4,0.4c-0.2,0.5-0.2,1.1-0.6,1.3c-0.3,0.2-0.9-0.2-1.7-0.4
		C144.8,143.1,144.9,142.4,145.2,142.3z"/>
	<path class="st0" d="M163.9,249.2c0.1,0.2-0.4,1-0.6,1c-0.4,0-1.1-0.2-1.2-0.6c-0.1-0.3,0.3-0.9,0.6-1.6
		C163.2,248.5,163.8,248.8,163.9,249.2z"/>
	<path class="st0" d="M126.4,352.1c0.5,0,1,0.5,1.5,0.8c-0.3,0.4-0.5,1-0.9,1.2s-0.9-0.3-1.6-0.6
		C125.9,352.9,126.2,352.1,126.4,352.1z"/>
	<path class="st0" d="M120.8,100c-0.1-0.4,0.3-0.9,0.5-1.4c0.5,0.2,1.1,0.2,1.3,0.6c0.2,0.3-0.1,0.9-0.3,1.6
		C121.6,100.5,120.9,100.3,120.8,100z"/>
	<path class="st0" d="M69.7,44c-0.1-0.4,0.3-0.9,0.5-1.4c0.5,0.2,1.1,0.2,1.3,0.6c0.2,0.3-0.1,0.9-0.3,1.6
		C70.6,44.5,69.9,44.4,69.7,44z"/>
	<path class="st0" d="M155.3,168.6c0.3-0.1,1.1,0.3,1.1,0.4c0,0.5-0.2,1.1-0.5,1.3c-0.3,0.2-0.9-0.2-1.6-0.5
		C154.7,169.3,154.9,168.8,155.3,168.6z"/>
	<path class="st0" d="M62.6,39.1c0,0.5-0.5,1-0.7,1.5c-0.4-0.3-1.1-0.5-1.2-0.9c-0.1-0.3,0.3-0.9,0.5-1.6
		C61.8,38.6,62.6,38.9,62.6,39.1z"/>
	<path class="st0" d="M155.2,288.8c0.4-0.1,0.9,0.3,1.4,0.4c-0.2,0.5-0.2,1.1-0.6,1.3c-0.3,0.2-0.9-0.2-1.7-0.3
		C154.7,289.6,154.9,288.9,155.2,288.8z"/>
	<path class="st0" d="M76.8,417.2c0.1,0.2-0.3,1-0.5,1c-0.4,0-1.1-0.2-1.3-0.5c-0.1-0.3,0.3-0.9,0.5-1.6
		C76.1,416.5,76.6,416.8,76.8,417.2z"/>
	<path class="st0" d="M140.5,129.1c0.3-0.1,1.1,0.3,1.1,0.4c0,0.5-0.2,1.1-0.5,1.3c-0.3,0.2-0.9-0.2-1.6-0.5
		C139.9,129.8,140.1,129.3,140.5,129.1z"/>
	<path class="st0" d="M161.8,226.3c0.4-0.1,0.9,0.3,1.4,0.4c-0.2,0.5-0.2,1.1-0.6,1.3c-0.3,0.2-0.9-0.2-1.7-0.3
		C161.3,227,161.4,226.4,161.8,226.3z"/>
	<path class="st0" d="M150.5,299.2c0-0.5,0.4-1,0.6-1.6c0.4,0.2,1.1,0.4,1.2,0.8c0.2,0.3-0.2,0.9-0.4,1.6
		C151.3,299.7,150.5,299.4,150.5,299.2z"/>
	<path class="st0" d="M149.7,156.6c-0.1-0.2,0.2-1.1,0.4-1.1c0.4,0,1.2,0.1,1.3,0.4c0.2,0.3-0.2,0.9-0.4,1.7
		C150.4,157.2,149.9,157,149.7,156.6z"/>
	<path class="st0" d="M118.3,370.3c0.3-0.1,0.9,0.3,1.2,0.6c0.1,0.2-0.2,1-0.4,1.1c-0.4,0.1-0.9-0.1-1.7-0.2
		C117.7,371.1,117.9,370.4,118.3,370.3z"/>
	<path class="st0" d="M44.5,436.7c-0.1-0.4,0.2-0.9,0.4-1.4c0.5,0.2,1.2,0.3,1.5,0.7c0.2,0.2-0.2,0.9-0.5,1.6
		C45.3,437.3,44.6,437.1,44.5,436.7z"/>
	<path class="st0" d="M59.4,430.9c0.1,0.4-0.2,1-0.5,1.3c-0.1,0.1-1-0.1-1.1-0.4c-0.2-0.4,0-0.9,0.1-1.7
		C58.6,430.5,59.3,430.6,59.4,430.9z"/>
	<path class="st0" d="M122.4,361.2c0.4-0.1,0.9,0.4,1.3,0.6c-0.2,0.5-0.4,1.1-0.7,1.3c-0.3,0.1-0.9-0.3-1.6-0.6
		C121.9,361.9,122.1,361.3,122.4,361.2z"/>
	<path class="st0" d="M158.6,257.5c0.4-0.1,0.9,0.3,1.3,0.6c-0.3,0.5-0.5,1.1-0.9,1.5c-0.2,0.1-0.9-0.4-1.5-0.8
		C158,258.2,158.2,257.5,158.6,257.5z"/>
	<path class="st0" d="M114.2,379.4c0.2-0.1,0.7,0.2,1.1,0.4c-0.2,0.4-0.2,1-0.6,1.3c-0.2,0.2-0.7-0.1-1.4-0.3
		C113.7,380.2,113.9,379.6,114.2,379.4z"/>
	<path class="st0" d="M92.9,402.5c0.2-0.1,1,0.4,1,0.5c-0.1,0.4-0.3,1-0.7,1.2c-0.2,0.1-0.7-0.3-1.4-0.5
		C92.3,403.1,92.6,402.6,92.9,402.5z"/>
	<path class="st0" d="M14.8,454.3c0.2-0.1,1,0.4,1,0.6c-0.1,0.4-0.4,0.9-0.7,1.2c-0.2,0.1-0.7-0.3-1.3-0.5
		C14.2,455,14.4,454.5,14.8,454.3z"/>
	<path class="st0" d="M28.2,451.8c-0.3-0.3-0.8-0.7-0.8-1c-0.1-0.4,0.2-1,0.4-1.3c0.1-0.1,1,0.1,1.1,0.3c0.1,0.4-0.1,0.9-0.1,1.4
		C28.5,451.4,28.4,451.6,28.2,451.8z"/>
	<path class="st0" d="M1.6,459.3c0.4,0.2,1,0.3,1,0.6c0.1,0.4-0.2,0.9-0.5,1.6"/>
	<path class="st0" d="M160.5,280.3c0,0.4-0.3,0.9-0.6,1.2c-0.1,0.1-1-0.3-1-0.5c-0.1-0.4,0.2-0.9,0.4-1.6
		C159.9,279.8,160.5,280,160.5,280.3z"/>
	<path class="st0" d="M136.4,116.3c0.1,0.4-0.1,1-0.3,1.3c-0.1,0.1-1,0-1.1-0.3c-0.2-0.4,0-0.9,0.1-1.6
		C135.8,116,136.4,116.1,136.4,116.3z"/>
	<path class="st0" d="M80.5,47.3c0,0.4-0.3,0.9-0.5,1.3c-0.4-0.2-1-0.3-1-0.5c-0.1-0.4,0.2-0.9,0.4-1.6
		C79.9,46.9,80.5,47.1,80.5,47.3z"/>
	<path class="st0" d="M161.3,182.3c0,0.4-0.3,0.9-0.5,1.3c-0.4-0.2-1-0.3-1-0.5c-0.1-0.4,0.2-0.9,0.4-1.6
		C160.6,181.8,161.3,182.1,161.3,182.3z"/>
	<path class="st0" d="M117.6,86c0,0.4-0.2,0.9-0.5,1.2c-0.1,0.1-1-0.2-1-0.4c-0.1-0.4,0.2-0.9,0.4-1.6C117,85.6,117.6,85.8,117.6,86
		z"/>
	<path class="st0" d="M2.1,0.4C2.6,1,3,1.2,3.1,1.6c0.1,0.2-0.3,0.8-0.5,0.8c-0.4,0-1-0.2-1.1-0.5"/>
	<path class="st0" d="M47,22.6c0-0.4,0.2-0.7,0.3-1.1c0.3,0.1,0.9,0.2,0.9,0.3c0.1,0.4-0.1,0.8-0.2,1.4C47.5,23,47.1,22.8,47,22.6z"
		/>
	<path class="st0" d="M11.1,5.1C11.3,4.9,12,5.2,12,5.3c0.1,0.4,0,1-0.3,1.2c-0.2,0.2-0.8-0.1-1.4-0.2C10.7,5.7,10.8,5.2,11.1,5.1z"
		/>
	<path class="st0" d="M37.8,18.3c0-0.3,0.3-0.8,0.7-1c0.1-0.1,0.8,0.3,0.8,0.5c0.1,0.3-0.2,0.8-0.4,1.4
		C38.3,18.8,37.8,18.6,37.8,18.3z"/>
	<path class="st0" d="M165.3,195.1c0.2-0.1,0.6,0.3,0.9,0.5c-0.2,0.3-0.3,0.8-0.6,1c-0.2,0.1-0.6-0.2-1.2-0.3
		C164.8,195.7,165,195.3,165.3,195.1z"/>
	<path class="st0" d="M28.7,14.2c-0.1-0.2,0.2-0.8,0.4-0.8c0.4,0,1,0.1,1.1,0.4c0.1,0.3-0.2,0.8-0.4,1.5
		C29.3,14.7,28.9,14.5,28.7,14.2z"/>
	<path class="st0" d="M20.3,9.1c0.3,0,0.7,0.4,0.9,0.7c0.1,0.1-0.3,0.8-0.5,0.8c-0.4,0-0.8-0.2-1.4-0.4C19.7,9.7,20,9.1,20.3,9.1z"
		/>
	<path class="st0" d="M111.1,389.1c0.1,0.2-0.2,0.9-0.3,0.9c-0.4,0-0.8-0.1-1.1-0.4c-0.1-0.1,0.1-0.6,0.2-1.2
		C110.5,388.7,110.9,388.8,111.1,389.1z"/>
	<path class="st0" d="M42,445.1c0.1,0.3-0.3,0.8-0.5,1.1c-0.1,0.1-0.8-0.2-0.9-0.4c-0.1-0.3,0-0.8,0.1-1.4
		C41.4,444.6,42,444.8,42,445.1z"/>
	<path class="st0" d="M54.5,441.2c-0.2-0.2-0.6-0.4-0.7-0.6c-0.1-0.2,0.2-0.6,0.4-0.8c0.3,0.2,0.8,0.3,0.9,0.6
		c0.2,0.3,0.1,0.7,0.1,1.1C55,441.3,54.7,441.3,54.5,441.2z"/>
	<path class="st0" d="M102.3,68.5c0.2-0.2,0.9-0.1,0.9,0c0.1,0.4,0.2,1,0.1,1.2c-0.2,0.2-0.8,0.1-1.5,0.2
		C102,69.2,102.1,68.7,102.3,68.5z"/>
	<path class="st0" d="M111.5,72.7c0.3-0.1,0.6,0.1,0.9,0.1c-0.1,0.4-0.1,0.8-0.3,1.1c0,0.1-0.6-0.1-1.8-0.4
		C110.9,73.1,111.1,72.8,111.5,72.7z"/>
	<path class="st0" d="M88.4,51.3c0.4,0,0.8,0.2,1.1,0.3c-0.2,0.3-0.3,0.8-0.6,1c-0.1,0.1-0.6-0.2-1.1-0.4
		C88.1,51.7,88.2,51.2,88.4,51.3z"/>
	<path class="st0" d="M71.3,425.8c0.1-0.1,0.7,0,0.9,0.2c0.2,0.2,0.2,0.8,0.1,0.9c-0.3,0.2-0.8,0.2-1.5,0.3
		C71,426.4,71.1,426,71.3,425.8z"/>
	<path class="st0" d="M88.7,411.7c0.4,0,0.8,0.3,1,0.6c0.1,0.1-0.3,0.8-0.4,0.8c-0.4,0-0.7-0.2-1.3-0.5
		C88.3,412.2,88.6,411.7,88.7,411.7z"/>
	<path class="st0" d="M131.4,103.3c0,0.3-0.2,0.7-0.3,1.1c-0.3-0.1-0.9-0.2-0.9-0.3c-0.1-0.4,0.1-0.8,0.2-1.4
		C130.9,102.9,131.3,103.1,131.4,103.3z"/>
	<path class="st0" d="M56.5,25.6c0.2-0.1,0.6,0.3,0.9,0.5c-0.2,0.3-0.3,0.8-0.6,1c-0.2,0.1-0.6-0.1-1.2-0.3
		C56,26.2,56.2,25.8,56.5,25.6z"/>
	<path class="st0" d="M149.5,133.5c0.2-0.1,0.6,0.1,0.9,0.2c-0.1,0.4-0.2,0.8-0.5,1c-0.1,0.1-0.6-0.2-1.1-0.4
		C149.1,134,149.2,133.6,149.5,133.5z"/>
	<path class="st0" d="M154.5,146.7c0.3,0,0.6,0.2,0.9,0.4c-0.2,0.3-0.3,0.7-0.6,1c-0.1,0.1-0.5-0.2-1-0.5
		C154.1,147.1,154.3,146.7,154.5,146.7z"/>
	<path class="st0" d="M163.6,270.8c0.3,0,0.7,0.4,0.9,0.7c0.1,0.1-0.3,0.8-0.5,0.8c-0.4,0.1-0.8-0.2-1.4-0.3
		C163.1,271.4,163.3,270.9,163.6,270.8z"/>
	<path class="st0" d="M157.1,311.6c-0.1,0.4-0.3,0.7-0.5,1c-0.3-0.2-0.7-0.3-0.8-0.6c-0.1-0.2,0.1-0.6,0.3-1
		C156.6,311.3,157.1,311.5,157.1,311.6z"/>
	<path class="st0" d="M151.9,320.4c0.3,0,0.7,0.2,1.1,0.3c-0.1,0.3-0.2,0.7-0.4,0.8c-0.2,0.1-0.6-0.1-1.8-0.2
		C151.4,320.8,151.7,320.4,151.9,320.4z"/>
	<path class="st0" d="M135.9,358c-0.2-0.2-0.7-0.5-0.7-0.6c0.1-0.3,0.4-0.6,0.6-1c0.2,0.2,0.6,0.4,0.7,0.6c0.1,0.3,0.1,0.7,0.1,1
		C136.4,358.1,136.2,358.1,135.9,358z"/>
	<path class="st0" d="M149,329.8c0.1,0.1-0.2,0.9-0.3,0.9c-0.4,0-0.8-0.1-1.1-0.4c-0.1-0.1,0.1-0.6,0.1-1.2
		C148.3,329.4,148.7,329.5,149,329.8z"/>
	<path class="st0" d="M143.7,338.6c0.3,0,0.7,0.2,1.1,0.3c-0.1,0.3-0.2,0.7-0.4,0.8c-0.2,0.1-0.6,0-1.1-0.1
		C143.5,339.1,143.5,338.6,143.7,338.6z"/>
	<path class="st0" d="M139.8,347.5c0.3,0,0.6,0.2,0.9,0.4c-0.2,0.3-0.4,0.7-0.7,0.9c-0.1,0.1-0.5-0.3-1-0.5
		C139.4,347.9,139.6,347.6,139.8,347.5z"/>
	<path class="st0" d="M165.9,217.4c0.3-0.1,0.8,0,1.1,0.2c0.1,0.1,0,0.8-0.2,0.9c-0.3,0.2-0.8,0.1-1.5,0.2
		C165.6,218.1,165.6,217.6,165.9,217.4z"/>
	<path class="st0" d="M167.8,261.9c0.3,0,0.6,0.2,0.9,0.4c-0.2,0.3-0.4,0.7-0.7,0.9c-0.1,0.1-0.5-0.3-1-0.5
		C167.3,262.3,167.5,261.9,167.8,261.9z"/>
	<path class="st0" d="M167,239.6c0.2-0.1,0.6,0.3,0.9,0.5c-0.2,0.3-0.3,0.8-0.6,1c-0.2,0.1-0.6-0.2-1.2-0.3
		C166.4,240.1,166.6,239.7,167,239.6z"/>
	<path class="st0" d="M160.4,302.3c0.2,0,0.6,0.2,0.8,0.4c0.1,0.1-0.1,0.6-0.2,0.6c-0.3,0.1-0.6,0-1.2,0
		C160,302.8,160.1,302.4,160.4,302.3z"/>
	<path class="st0" d="M97.3,56.2c-0.1-0.2,0.2-0.6,0.4-0.8c0.1-0.1,0.6,0.1,0.6,0.2c0.1,0.2,0,0.6,0,1.2
		C97.8,56.5,97.4,56.4,97.3,56.2z"/>
	<path class="st0" d="M171.1,230.6c0.2,0,0.6,0.2,0.6,0.3c0,0.3-0.1,0.7-0.3,0.8c-0.2,0.1-0.6-0.1-1.2-0.3
		C170.7,231,170.8,230.8,171.1,230.6z"/>
	<path class="st0" d="M170.4,208.4c0.2-0.1,0.6,0.3,0.6,0.3c-0.1,0.3-0.2,0.7-0.4,0.8c-0.2,0.1-0.5-0.2-1.1-0.4
		C169.9,208.8,170.1,208.5,170.4,208.4z"/>
	<path class="st0" d="M10.6,463.7c0.2,0,0.6,0.2,0.8,0.4c0.1,0.1-0.1,0.6-0.2,0.6c-0.3,0.1-0.6,0-1.2,0
		C10.3,464.2,10.4,463.8,10.6,463.7z"/>
	<path class="st0" d="M106.1,397.8c0.2,0,0.6,0.3,0.7,0.5c0.1,0.1-0.2,0.6-0.3,0.6c-0.3,0-0.6-0.1-1.2-0.2
		C105.8,398.3,105.9,397.9,106.1,397.8z"/>
	<path class="st0" d="M132.3,366.2c0.1,0.1-0.2,0.6-0.3,0.6c-0.3,0-0.7-0.1-0.8-0.3c-0.1-0.2,0.1-0.6,0.3-1.2
		C131.9,365.7,132.2,365.9,132.3,366.2z"/>
	<path class="st0" d="M159.6,159.9c0.2,0,0.6,0.3,0.6,0.4c-0.1,0.3-0.2,0.7-0.4,0.8c-0.2,0.1-0.5-0.2-1.1-0.4
		C159.1,160.2,159.3,159.9,159.6,159.9z"/>
	<path class="st0" d="M144.7,120.4c0.2-0.1,0.6,0.2,0.6,0.3c0,0.3-0.1,0.7-0.3,0.8c-0.2,0.1-0.6-0.1-1.2-0.3
		C144.3,120.7,144.4,120.5,144.7,120.4z"/>
	<path class="st0" d="M65.5,29.9c0.2,0,0.6,0.2,0.8,0.4c0.1,0.1-0.1,0.6-0.3,0.6c-0.2,0.1-0.6,0-1.2,0
		C65.2,30.4,65.3,29.9,65.5,29.9z"/>
	<path class="st0" d="M164.4,173.1c0.1-0.1,0.6,0.1,0.6,0.2c0,0.3,0,0.7-0.2,0.8c-0.2,0.1-0.6-0.1-1.2-0.2
		C164,173.5,164.2,173.2,164.4,173.1z"/>
	<path class="st0" d="M126.4,90.4c0.1,0.1-0.2,0.6-0.3,0.6c-0.3,0-0.7-0.1-0.8-0.3c-0.1-0.2,0.2-0.6,0.3-1.1
		C126.1,90,126.3,90.2,126.4,90.4z"/>
</g>
</svg>
