<?xml version="1.0" encoding="utf-8"?>
<!-- Generator: Adobe Illustrator 25.0.0, SVG Export Plug-In . SVG Version: 6.00 Build 0)  -->
<svg version="1.1" id="Capa_1" xmlns="http://www.w3.org/2000/svg" xmlns:xlink="http://www.w3.org/1999/xlink" x="0px" y="0px"
	 viewBox="0 0 425.6 187" style="enable-background:new 0 0 425.6 187;" xml:space="preserve">
<style type="text/css">
	.st0{fill:#034BB8;}
</style>
<g>
	<path class="st0" d="M364.1-0.1h12.8c-1.2,2.2-2.7,4.4-5.3,4.9C367.9,5.5,365.4,3.9,364.1-0.1z"/>
	<path class="st0" d="M388.6-0.1h9.4c0.1,0.6,0.4,1.9,1,3.8c1.9,6.4-6.9,10.7-10.9,5C386.6,6.4,386.8,3.5,388.6-0.1z"/>
	<path class="st0" d="M403.2-0.1h10.7c-1.5,1.8-3.1,2.9-4.7,3C405.7,3.3,403.6,2.3,403.2-0.1z"/>
	<path class="st0" d="M22.2,0.2c0.5,0.4,1.2,0.5,2,0.5c0.4,0,0.7,0.2,0.8,0.6c0.2,0.9-0.4,1.7-1.8,2.5c-1.6,0.4-2.8-0.3-3.7-2
		c-0.2-0.4,0-0.9,0.4-1.1c0.1,0,0.1,0,0.2-0.1L22.2,0.2z"/>
	<path class="st0" d="M218.1,0.3c1-0.2,2.1-0.2,3.3,0c0.6,0.7,1.3,1.5,1.9,2.2c6.3,7-4.2,14.2-8.8,7.5
		C212.3,6.6,213.5,3.3,218.1,0.3z"/>
	<circle class="st0" cx="355.6" cy="7.2" r="6.1"/>
	<circle class="st0" cx="83.2" cy="6.2" r="4.2"/>
	<path class="st0" d="M317.4,15.3c-3.8-0.8-5.9-3.1-6.1-6.8c0.8-2.8,2.3-4.5,4.4-5.3C324.4,0,327.9,15,317.4,15.3z"/>
	<circle class="st0" cx="181.6" cy="8.6" r="5.5"/>
	<circle class="st0" cx="45.5" cy="8.1" r="3.4"/>
	<circle class="st0" cx="280" cy="11.1" r="6.1"/>
	<circle class="st0" cx="143.9" cy="10.6" r="5.1"/>
	<circle class="st0" cx="416.2" cy="11.6" r="5.9"/>
	<path class="st0" d="M243.7,18.8c-5.3,1.1-8.6-3.5-6.8-8.3c1.1-2,2.5-3,4.2-3.2C249,6.4,251,16.3,243.7,18.8z"/>
	<circle class="st0" cx="378.5" cy="13.5" r="6"/>
	<circle class="st0" cx="106.2" cy="12.5" r="4.5"/>
	<path class="st0" d="M6.6,11.5C6,11.3,5.7,10.6,5.9,10l0,0c0.3-0.8,0.8-1.4,1.6-1.7C8.1,8,8.7,8.2,9,8.8c0.1,0.1,0.1,0.3,0.1,0.4
		C9.3,11.4,8.5,12.1,6.6,11.5z"/>
	<circle class="st0" cx="204.6" cy="14.9" r="5.6"/>
	<path class="st0" d="M339.8,21.5c-5.7-1.1-6.8-8-2.3-11.3C348.7,6.7,350.2,21.5,339.8,21.5z"/>
	<circle class="st0" cx="68.4" cy="14.5" r="3.8"/>
	<circle class="st0" cx="303.1" cy="17.4" r="6.1"/>
	<path class="st0" d="M168.3,22c-5.5,1.2-9.1-4.9-4.9-9C171.3,8.4,175.5,19,168.3,22z"/>
	<circle class="st0" cx="265.4" cy="19.4" r="5.9"/>
	<path class="st0" d="M32.3,14.1c1.6,1.1,1.8,2.4,0.6,4.1c-0.9,1.3-2.1,1.5-3.4,0.7c-1.1-0.7-1.7-1.5-1.9-2.4
		c-0.1-0.4,0-0.8,0.3-1.1C29.2,14.1,30.6,13.7,32.3,14.1z"/>
	<circle class="st0" cx="401.5" cy="19.8" r="5.8"/>
	<circle class="st0" cx="129.2" cy="18.9" r="4.7"/>
	<circle class="st0" cx="227.6" cy="21.3" r="5.7"/>
	<circle class="st0" cx="363.8" cy="21.9" r="5.9"/>
	<circle class="st0" cx="91.4" cy="20.8" r="4.1"/>
	<circle class="st0" cx="190" cy="23.3" r="5.3"/>
	<circle class="st0" cx="326.1" cy="23.7" r="5.9"/>
	<circle class="st0" cx="53.8" cy="22.8" r="3.3"/>
	<path class="st0" d="M425.6,19.7v12.5c-1.3-0.1-2.6-0.6-3.9-1.3c-1.2-0.7-2-1.7-2.3-3C418.4,24.1,420.5,21.4,425.6,19.7z"/>
	<circle class="st0" cx="152.2" cy="25.3" r="4.9"/>
	<circle class="st0" cx="288.4" cy="25.8" r="5.9"/>
	<path class="st0" d="M248,32.9c-3.4-2.5-4-5.5-1.9-9c4.4-2.8,7.4-2.5,9.1,0.9C258.2,30.3,254,34.3,248,32.9z"/>
	<circle class="st0" cx="114.5" cy="27.2" r="4.4"/>
	<circle class="st0" cx="386.9" cy="28.3" r="5.7"/>
	<path class="st0" d="M14.7,25.5c-0.5-0.3-0.6-0.8-0.4-1.3c0.1-0.1,0.1-0.2,0.2-0.3c0.8-0.7,1.6-0.9,2.4-0.8
		c0.5,0.1,0.9,0.6,0.8,1.1c0,0.1,0,0.1,0,0.2C17.3,26.1,16.3,26.4,14.7,25.5z"/>
	<circle class="st0" cx="213" cy="29.7" r="5.4"/>
	<path class="st0" d="M347.9,35.6c-3.4-0.9-4.9-3.1-4.4-6.6c2.5-7.9,13.5-4.8,11,3.3C353.5,35.2,351.3,36.3,347.9,35.6z"/>
	<circle class="st0" cx="76.7" cy="29.1" r="3.7"/>
	<path class="st0" d="M314.5,27.1c3.7,3.7,3.5,7.2-0.6,10.4C302.5,41.2,303.7,22.1,314.5,27.1z"/>
	<path class="st0" d="M171.8,35.6c-1.6-1.7-2-3.7-1.2-6.1c5.3-8.2,14.6,2.9,6.5,6.8C175.3,37.2,173.5,36.9,171.8,35.6z"/>
	<path class="st0" d="M40.4,27.8c0.7,1.3,1,2.8,0.8,4.4c0,0.4-0.2,0.8-0.6,1c-1.4,1-2.9,0.6-4.4-1.3C36.5,30.1,37.9,28.7,40.4,27.8z
		"/>
	<circle class="st0" cx="273.7" cy="34.1" r="5.6"/>
	<circle class="st0" cx="137.6" cy="33.6" r="4.6"/>
	<circle class="st0" cx="409.8" cy="34.6" r="5.4"/>
	<circle class="st0" cx="236" cy="36" r="5.5"/>
	<circle class="st0" cx="372.1" cy="36.5" r="5.6"/>
	<circle class="st0" cx="99.8" cy="35.5" r="4"/>
	<path class="st0" d="M0.6,31.9c0.4-0.2,0.7-0.2,1.1-0.2c0.6,0.2,0.9,0.7,0.7,1.3l0,0c-0.3,1-0.9,1.2-1.8,0.8
		c-0.6-0.3-0.8-1-0.5-1.5C0.2,32.2,0.4,32,0.6,31.9z"/>
	<circle class="st0" cx="198.3" cy="38" r="5.1"/>
	<circle class="st0" cx="334.4" cy="38.5" r="5.6"/>
	<circle class="st0" cx="62.1" cy="37.5" r="3.3"/>
	<circle class="st0" cx="296.7" cy="40.4" r="5.6"/>
	<circle class="st0" cx="160.5" cy="40" r="4.8"/>
	<circle class="st0" cx="259" cy="42.4" r="5.4"/>
	<ellipse transform="matrix(0.4756 -0.8796 0.8796 0.4756 -21.839 42.0538)" class="st0" cx="24.4" cy="39.3" rx="1.9" ry="1.4"/>
	<path class="st0" d="M127.2,41.3c0,1.2-0.4,2.3-1.1,3.4c-3.6,3.6-8.8,0.2-7.4-3.8C120.4,36,125.4,37.1,127.2,41.3z"/>
	<circle class="st0" cx="395.2" cy="43" r="5.4"/>
	
		<ellipse transform="matrix(0.2298 -0.9732 0.9732 0.2298 127.2726 249.6158)" class="st0" cx="221.3" cy="44.4" rx="5.2" ry="5.2"/>
	<circle class="st0" cx="357.5" cy="44.8" r="5.4"/>
	<circle class="st0" cx="85.2" cy="43.9" r="3.5"/>
	<path class="st0" d="M321.5,52.2c-5.5,0.4-7.9-2-7-7.4C319.2,35.9,331.4,46.1,321.5,52.2z"/>
	<circle class="st0" cx="183.6" cy="46.4" r="4.9"/>
	<path class="st0" d="M48.5,43.1c0.3-0.1,0.7,0,0.8,0.3l0.1,0.2c0.8,1.9,0.4,3.8-0.8,4.4l0,0h-0.1c-1.3,0.5-2.9-0.5-3.7-2.4
		l-0.1-0.2c-0.1-0.3,0-0.7,0.3-0.8L48.5,43.1z"/>
	<circle class="st0" cx="282" cy="48.8" r="5.4"/>
	<circle class="st0" cx="145.9" cy="48.3" r="4.4"/>
	<circle class="st0" cx="418.1" cy="49.3" r="5.1"/>
	<circle class="st0" cx="244.3" cy="50.8" r="5.3"/>
	<circle class="st0" cx="380.5" cy="51.2" r="5.2"/>
	<circle class="st0" cx="108.1" cy="50.3" r="3.9"/>
	<ellipse transform="matrix(0.9842 -0.1771 0.1771 0.9842 -8.3171 2.4287)" class="st0" cx="9.4" cy="47.8" rx="1.3" ry="1.1"/>
	<circle class="st0" cx="206.6" cy="52.7" r="4.9"/>
	<circle class="st0" cx="342.8" cy="53.2" r="5.3"/>
	<circle class="st0" cx="70.5" cy="52.2" r="3.1"/>
	<circle class="st0" cx="305.1" cy="55.1" r="5.3"/>
	<path class="st0" d="M173.2,52l0.4,4c-1.7,2.9-3.8,4-6.2,3.1C161.1,56.9,165.5,45.7,173.2,52z"/>
	<path class="st0" d="M32.6,55.5c-0.4-0.2-0.7-0.6-0.8-1.1c-0.2-1,0.2-1.8,1-2.3c0.5-0.3,0.9-0.2,1,0.4c0.1,0.8,0.1,1.5,0,2.2
		C33.7,55.6,33.3,55.8,32.6,55.5z"/>
	<circle class="st0" cx="267.4" cy="57.2" r="5.2"/>
	<path class="st0" d="M133.5,53.1c2.2,2.3,2.2,4.6,0.1,7C125.2,63.4,124.5,50.2,133.5,53.1z"/>
	<circle class="st0" cx="403.5" cy="57.6" r="5.1"/>
	<circle class="st0" cx="229.6" cy="59.1" r="5"/>
	<circle class="st0" cx="365.9" cy="59.6" r="5.1"/>
	<circle class="st0" cx="93.4" cy="58.6" r="3.4"/>
	<circle class="st0" cx="191.9" cy="61" r="4.6"/>
	<path class="st0" d="M324,65c-1.3-1.8-1.5-3.8-0.6-5.9c3.2-3.8,8.4-3.7,9.8,1.3c0.6,2.2,0,4.1-2,5.4C328.9,67.4,326.5,67.1,324,65z
		"/>
	<path class="st0" d="M53.7,61.6c-0.2-1.6,0.5-2.8,2-3.5c0.6-0.3,1.3,0,1.5,0.5c0,0.1,0.1,0.1,0.1,0.2c0.3,0.9,0.3,1.9,0.2,2.8
		c-0.1,0.7-0.5,1-1.1,1h-1.6C54.2,62.6,53.7,62.1,53.7,61.6z"/>
	<circle class="st0" cx="154.2" cy="63" r="4.3"/>
	<circle class="st0" cx="290.3" cy="63.5" r="5.2"/>
	<path class="st0" d="M425.6,58.9v9.6l-0.4,0.3c-0.3,0.2-0.6,0.2-0.9-0.1C420.5,64.8,420.9,61.5,425.6,58.9z"/>
	<path class="st0" d="M254.6,60.7c2.8,1.6,3.6,3.9,2.6,7.1c-1.2,1.9-2.9,2.8-4.8,2.7C245.1,70,246.3,58.7,254.6,60.7z"/>
	<circle class="st0" cx="388.9" cy="65.9" r="4.9"/>
	<circle class="st0" cx="116.4" cy="64.9" r="3.7"/>
	
		<ellipse transform="matrix(0.1735 -0.9848 0.9848 0.1735 111.2677 267.3839)" class="st0" cx="214.9" cy="67.4" rx="4.7" ry="4.7"/>
	<path class="st0" d="M351.5,62.9c3.9,1.1,5.2,3.7,4,7.7c-3,3.7-8,3.1-9.2-1.4C345.5,66.2,347.9,62.3,351.5,62.9z"/>
	<path class="st0" d="M75.7,66.7c-0.3-0.6,0.1-1.4,0.7-1.6c0,0,0,0,0.1,0l2.6-0.8c0.4-0.1,0.8-0.1,1.2,0.1c1.2,0.7,1.6,1.8,1.3,3.3
		c-0.3,1.4-1.8,2.3-3.2,2c-0.1,0-0.1,0-0.1,0C77.2,69.3,76.4,68.4,75.7,66.7z"/>
	<path class="st0" d="M178.9,65.2c3.1,2.2,3.4,4.8,0.9,7.8C170.7,76.3,170.7,63.3,178.9,65.2z"/>
	<circle class="st0" cx="313.4" cy="69.9" r="5.1"/>
	<circle class="st0" cx="275.7" cy="71.9" r="4.9"/>
	<ellipse transform="matrix(0.6626 -0.749 0.749 0.6626 -37.657 53.8385)" class="st0" cx="40.9" cy="68.7" rx="1.5" ry="1.1"/>
	<path class="st0" d="M140.2,67.2c3.5,2,4,4.4,1.7,7.3c-0.8,1-2.4,1-5,0.2C134.3,70.7,135.4,68.2,140.2,67.2z"/>
	<circle class="st0" cx="411.9" cy="72.3" r="4.7"/>
	<circle class="st0" cx="237.9" cy="73.7" r="4.8"/>
	<circle class="st0" cx="374.2" cy="74.3" r="4.8"/>
	<circle class="st0" cx="101.7" cy="73.3" r="3.3"/>
	<circle class="st0" cx="200.2" cy="75.7" r="4.4"/>
	<circle class="st0" cx="336.4" cy="76.2" r="4.8"/>
	<path class="st0" d="M65.7,75.3c0.4,1,0.1,1.6-0.9,2c-0.7,0.2-1.4-0.1-1.7-0.7c-0.8-1.7-0.5-3,1.2-3.9c0.3-0.2,0.7-0.1,0.9,0.2l0,0
		c0.2,0.5,0.4,1,0.4,1.5C65.5,74.8,65.6,75,65.7,75.3z"/>
	<circle class="st0" cx="298.7" cy="78.2" r="4.9"/>
	<circle class="st0" cx="162.5" cy="77.7" r="4.1"/>
	<path class="st0" d="M260.1,75c3,0.3,4.7,1.5,5.2,3.8c0.8,3.6-0.8,5.7-4.8,6.4C254.6,82.2,254.4,78.8,260.1,75z"/>
	<circle class="st0" cx="397.1" cy="80.7" r="4.6"/>
	<circle class="st0" cx="124.8" cy="79.7" r="3.6"/>
	<circle class="st0" cx="223.2" cy="82.1" r="4.5"/>
	<path class="st0" d="M356.9,86.6c-3.3-3.3-3-6.1,0.9-8.5c4-0.4,5.9,1,6,4.2C363.9,86.6,360.8,88.1,356.9,86.6z"/>
	<ellipse transform="matrix(0.6414 -0.7672 0.7672 0.6414 -31.3622 96.1153)" class="st0" cx="87.1" cy="81.6" rx="2.5" ry="2.2"/>
	<circle class="st0" cx="321.7" cy="84.6" r="4.8"/>
	<path class="st0" d="M184.7,79.7c5.9,1.6,6.7,4.4,2.4,8.5C180.6,88.8,179.3,82.6,184.7,79.7z"/>
	<circle class="st0" cx="284" cy="86.5" r="4.6"/>
	<circle class="st0" cx="147.8" cy="86.1" r="3.6"/>
	<circle class="st0" cx="420.2" cy="87" r="4.3"/>
	<circle class="st0" cx="246.3" cy="88.5" r="4.5"/>
	<circle class="st0" cx="382.4" cy="89" r="4.5"/>
	<path class="st0" d="M112.4,89.9c-3.4,1.2-5.1,0.6-5.2-2c0-0.8,0.3-1.6,0.9-2.1c1.5-1.3,2.8-1.2,3.9,0.2c0.5,0.6,0.9,1.3,1.2,2
		C113.6,88.9,113.3,89.6,112.4,89.9z"/>
	<circle class="st0" cx="208.6" cy="90.5" r="4.2"/>
	<circle class="st0" cx="344.7" cy="90.9" r="4.5"/>
	<ellipse transform="matrix(0.6441 -0.7649 0.7649 0.6441 -43.082 87.2363)" class="st0" cx="72.2" cy="89.9" rx="1.5" ry="1.8"/>
	<circle class="st0" cx="307" cy="92.9" r="4.6"/>
	<circle class="st0" cx="170.8" cy="92.4" r="3.8"/>
	<path class="st0" d="M266.4,98.3c-0.7-0.9-1.3-1.9-1.8-3.2c0.8-3.5,2.5-5.1,5.2-4.6C277.1,91.8,273,102.6,266.4,98.3z"/>
	<circle class="st0" cx="133.2" cy="94.4" r="3.3"/>
	<circle class="st0" cx="405.5" cy="95.4" r="4.2"/>
	<circle class="st0" cx="231.6" cy="96.9" r="4.3"/>
	<circle class="st0" cx="367.8" cy="97.3" r="4.3"/>
	<path class="st0" d="M95.3,98.1c-0.8-0.2-1.5-0.6-2-1.3c-0.4-0.5-0.3-0.9,0.2-1.3c0.8-0.7,1.9-1,3.1-0.9c0.5,0,0.7,0.3,0.8,0.8
		c0.1,0.7,0,1.4-0.3,1.9C96.7,97.9,96,98.2,95.3,98.1z"/>
	<path class="st0" d="M191.1,101.9c-1.5-2.7-1.3-4.8,0.6-6.5c3.6-1.4,8.3,2,5.4,5.6C195.5,102.9,193.5,103.2,191.1,101.9z"/>
	<path class="st0" d="M331.5,95.1c2.4,1.3,3.3,3.3,2.7,5.9c-2.4,6.1-12,0.9-7.5-4.5C327.9,95.1,329.5,94.6,331.5,95.1z"/>
	<circle class="st0" cx="292.3" cy="101.2" r="4.4"/>
	<circle class="st0" cx="156.1" cy="100.7" r="3.5"/>
	
		<ellipse transform="matrix(0.1602 -0.9871 0.9871 0.1602 111.9434 338.0225)" class="st0" cx="254.6" cy="103.2" rx="4.3" ry="4.3"/>
	<circle class="st0" cx="390.7" cy="103.7" r="4.1"/>
	<path class="st0" d="M117.6,100.2l1.2-0.2c0.7-0.1,1.3,0.2,1.6,0.8l0.6,1.2c0.3,0.6,0.2,1.4-0.4,1.8l-1.6,1.4
		c-0.6,0.6-1.6,0.5-2.2-0.2c-0.2-0.3-0.4-0.6-0.4-0.9l-0.1-2.4C116.3,101,116.8,100.3,117.6,100.2z"/>
	<circle class="st0" cx="216.9" cy="105.2" r="3.9"/>
	<circle class="st0" cx="353.1" cy="105.7" r="4.2"/>
	<ellipse transform="matrix(0.2622 -0.965 0.965 0.2622 -41.2579 155.045)" class="st0" cx="80.8" cy="104.5" rx="1.4" ry="1.2"/>
	<circle class="st0" cx="315.3" cy="107.6" r="4.3"/>
	<circle class="st0" cx="179.1" cy="107.1" r="3.6"/>
	<circle class="st0" cx="277.6" cy="109.6" r="4.1"/>
	<circle class="st0" cx="413.8" cy="110.1" r="3.9"/>
	<circle class="st0" cx="420.2" cy="126.2" r="3.9"/>
	<path class="st0" d="M142.9,106.5c0.6-0.1,1.1,0.3,1.2,0.9v0.1c0.3,2.3-0.7,4.3-2.1,4.4l0,0h-0.3c-1.5,0.2-2.9-1.5-3.2-3.8V108
		c-0.1-0.6,0.3-1.1,0.9-1.2L142.9,106.5z"/>
	<circle class="st0" cx="239.9" cy="111.6" r="3.9"/>
	<circle class="st0" cx="376" cy="112" r="4"/>
	<path class="st0" d="M105.2,112.5c0,0.3-0.3,0.5-0.6,0.5h-0.4c-1.1,0-2-0.9-2-1.9v-0.5c0-1,0.9-1.9,2-1.9l0,0h0.4
		c0.3,0,0.6,0.2,0.6,0.6l0,0V112.5z"/>
	<circle class="st0" cx="202.2" cy="113.5" r="3.6"/>
	<path class="st0" d="M336.7,110.2c0.1,0,0.3-0.1,0.4-0.1c2.6-0.6,4.3,0.3,5,2.6c1.7,5.7-7.7,7.4-7.7,1.3
		C334.4,112.3,335.1,111,336.7,110.2z"/>
	<circle class="st0" cx="300.6" cy="115.9" r="4"/>
	<circle class="st0" cx="164.4" cy="115.4" r="3.1"/>
	<circle class="st0" cx="262.9" cy="117.9" r="3.9"/>
	<path class="st0" d="M126.3,115.2c0.5-0.5,1.3-0.5,1.8,0c0.1,0.1,0.2,0.3,0.3,0.4c0.4,1,0.4,1.9,0,2.9c-0.3,0.9-1.3,1.3-2.1,1
		c-0.2-0.1-0.3-0.1-0.4-0.2C124.4,118.2,124.5,116.8,126.3,115.2z"/>
	<circle class="st0" cx="399.1" cy="118.4" r="3.7"/>
	<circle class="st0" cx="225.2" cy="119.9" r="3.6"/>
	<circle class="st0" cx="361.4" cy="120.4" r="3.8"/>
	<circle class="st0" cx="323.7" cy="122.3" r="3.9"/>
	<circle class="st0" cx="187.5" cy="121.8" r="3.3"/>
	<circle class="st0" cx="286" cy="124.3" r="3.8"/>
	<path class="st0" d="M151.2,125.8l-1.4,0.2c-1.7,0.2-2.5-0.6-2.4-2.3c0.1-1.6,0.9-2.4,2.4-2.3c1.3,0.1,2.1,1.1,2.7,2.2
		C153.1,124.9,152.7,125.6,151.2,125.8z"/>
	<circle class="st0" cx="248.2" cy="126.2" r="3.7"/>
	<circle class="st0" cx="384.5" cy="126.7" r="3.6"/>
	
		<ellipse transform="matrix(0.3616 -0.9323 0.9323 0.3616 -45.6971 184.5787)" class="st0" cx="111.9" cy="125.7" rx="1.7" ry="1.2"/>
	<circle class="st0" cx="210.5" cy="128.1" r="3.2"/>
	<circle class="st0" cx="346.7" cy="128.6" r="3.6"/>
	<circle class="st0" cx="309" cy="130.7" r="3.7"/>
	<circle class="st0" cx="172.8" cy="130.1" r="2.6"/>
	<path class="st0" d="M273.9,130.2c0.8,1,1,2.3,0.6,3.8c-1,1.9-2.3,2.6-3.9,2.2C264.7,134.7,268.4,125.9,273.9,130.2z"/>
	<circle class="st0" cx="407.3" cy="133.1" r="3.1"/>
	<circle class="st0" cx="413" cy="147.2" r="3.1"/>
	<ellipse transform="matrix(0.1374 -0.9905 0.9905 0.1374 -14.457 247.4873)" class="st0" cx="134.9" cy="132" rx="1.5" ry="1.9"/>
	<circle class="st0" cx="233.5" cy="134.5" r="3.3"/>
	<circle class="st0" cx="369.8" cy="135" r="3.5"/>
	<circle class="st0" cx="331.9" cy="137" r="3.6"/>
	<path class="st0" d="M192.7,135.4c1.8-1.3,3.3-1.7,4.5-1.4s1.7,1.1,1.5,2.4c-0.3,1.8-1.1,2.7-2.4,2.7c-1.6,0.1-2.8-1.4-3.8-2.7
		C192.2,136,192.3,135.7,192.7,135.4z"/>
	<circle class="st0" cx="294.3" cy="139" r="3.4"/>
	<ellipse transform="matrix(0.4431 -0.8965 0.8965 0.4431 -35.8606 218.6482)" class="st0" cx="158.1" cy="138.2" rx="2" ry="1.6"/>
	<circle class="st0" cx="256.6" cy="140.9" r="3.2"/>
	<ellipse transform="matrix(0.1959 -0.9806 0.9806 0.1959 177.2394 499.1396)" class="st0" cx="393" cy="141.5" rx="2.9" ry="2.6"/>
	
		<ellipse transform="matrix(0.9932 -0.1167 0.1167 0.9932 -14.2949 42.4241)" class="st0" cx="355.2" cy="143.3" rx="2.8" ry="3.1"/>
	<path class="st0" d="M220.8,144.9c-0.6,0.9-1.9,1.1-2.8,0.6c-0.9-0.6-1.8-1.4-2.5-2.4c-0.4-0.5-0.2-1.2,0.3-1.5c0,0,0.1,0,0.1-0.1
		c1.5-0.9,3.1-1.2,4.7-0.9c0.5,0.1,0.8,0.4,1,0.8C221.9,142.5,221.7,143.7,220.8,144.9z"/>
	<path class="st0" d="M182.9,143.2c0.2,3-0.8,4.1-3,3.3c-0.9-0.3-1.2-0.9-0.8-1.8c0.4-1,1.1-1.8,2.1-2.4c0.6-0.3,1.3-0.1,1.6,0.5
		C182.9,142.9,182.9,143,182.9,143.2z"/>
	<ellipse transform="matrix(0.9707 -0.2402 0.2402 0.9707 -25.616 80.4545)" class="st0" cx="317.2" cy="145.3" rx="3" ry="3.2"/>
	<path class="st0" d="M278.6,144.1c4-0.3,5.3,4.6,2,5.9C276.1,151.3,275.2,146.2,278.6,144.1z"/>
	<ellipse transform="matrix(0.5548 -0.832 0.832 0.5548 -57.7866 184.6368)" class="st0" cx="143.6" cy="146.3" rx="1.5" ry="1.1"/>
	<path class="st0" d="M244.4,147.6c0.5,1.2,0.4,2.3-0.3,3.4c-1.5,2.2-4.1,0.3-5.2-1.2c-0.4-0.6-0.3-1.4,0.3-1.9
		c1.1-0.8,2.3-1.2,3.8-1.2C243.7,146.6,244.2,147,244.4,147.6z"/>
	<path class="st0" d="M375.9,151c-0.3-1.4,0-2.5,0.9-3.5c1.1-0.5,2-0.3,2.7,0.6c0.9,1.2,0.7,2.9-0.5,3.8c-0.1,0.1-0.2,0.1-0.3,0.2
		C377.6,152.7,376.7,152.3,375.9,151z"/>
	<path class="st0" d="M342.1,148.8l0.2,5.3c-1.1,0.4-2.2,0.3-3.1-0.1c-1.1-0.5-1.6-1.9-1.1-3c0,0,0-0.1,0.1-0.1
		C339.5,148.3,340.9,147.6,342.1,148.8z"/>
	<path class="st0" d="M204.9,148.1c0.8,0.9,1,2.1,0.8,3.6c-0.2,1.2-0.9,1.6-2,1.5c-1.1-0.2-1.7-0.7-1.7-1.7
		C202.3,150.2,203.3,149.1,204.9,148.1z"/>
	<path class="st0" d="M300.4,151.9c1.5-0.9,4-1.4,4.8,0.7c0.3,0.8,0.3,1.6-0.1,2.5c-0.4,1-1.5,1.4-2.5,1c-1.7-0.7-2.6-1.5-2.9-2.3
		C299.4,153,299.7,152.4,300.4,151.9z"/>
	<path class="st0" d="M164.7,153.3c-0.2-0.3-0.1-0.6,0.1-0.8c0.4-0.4,0.8-0.6,1.4-0.6c0.6,0,1.1,0.2,1.4,0.6
		c0.5,0.6,0.5,1.2,0.1,1.9c-0.3,0.5-0.7,0.7-1.3,0.5C165.7,154.6,165.1,154.1,164.7,153.3z"/>
	
		<ellipse transform="matrix(0.6807 -0.7325 0.7325 0.6807 -29.5138 243.7313)" class="st0" cx="264.9" cy="155.7" rx="2.6" ry="2.2"/>
	<path class="st0" d="M401.1,153.7c0.3-0.3,0.9-0.3,1.2,0c0.1,0.1,0.2,0.2,0.2,0.4c0.2,0.9,0.3,2,0.1,3.1c-0.1,0.7-0.5,1.1-1.2,1.2
		c-0.6,0.1-1.1,0-1.6-0.4c-0.4-0.3-0.5-0.6-0.5-1.1C399.4,155.7,400,154.7,401.1,153.7z"/>
	<path class="st0" d="M417.8,158.3c0.3-0.3,0.9-0.3,1.2,0c0.1,0.1,0.2,0.2,0.2,0.4c0.2,0.9,0.3,2,0.1,3.1c-0.1,0.7-0.5,1.1-1.2,1.2
		c-0.6,0.1-1.1,0-1.6-0.4c-0.4-0.3-0.5-0.6-0.5-1.1C416.1,160.4,416.7,159.3,417.8,158.3z"/>
	<path class="st0" d="M228.6,154.9c0.6,1.1,0.7,2.2,0.4,3.3c-0.4,1.5-2.2,1.5-3.4,1c-0.6-0.3-0.9-1-0.6-1.6c0,0,0-0.1,0.1-0.1
		c0.6-1.1,1.4-2,2.5-2.9c0.3-0.2,0.7-0.2,0.9,0.1C228.5,154.8,228.6,154.9,228.6,154.9z"/>
	<path class="st0" d="M362.8,160.1c-1.2-0.2-2-1.2-1.9-2.4c0.1-0.7,0.5-1.3,1.1-1.6c1.4-0.8,2.6-0.3,3.5,1.5
		c0.4,0.8,0.1,1.9-0.7,2.3c-0.1,0.1-0.2,0.1-0.3,0.1C363.9,160.2,363.4,160.2,362.8,160.1z"/>
	<path class="st0" d="M326.6,157.1c0.6-0.2,0.9,0,0.9,0.6v2.8c0,1.3-0.6,1.9-1.9,1.9c-0.4,0-0.8-0.1-1.2-0.2c-1-0.4-1.3-1.1-1-2.1
		C324,158.6,325,157.6,326.6,157.1z"/>
	<path class="st0" d="M285.9,163.4c-0.5-1.3-0.1-2.6,1.2-3.7l0.9-0.3c0.7-0.2,1.4,0.1,1.6,0.8v0.1c0.3,1.2,0.3,2.3,0,3.3
		c-0.1,0.4-0.4,0.7-0.9,0.7C287.9,164.5,286.9,164.2,285.9,163.4z"/>
	<path class="st0" d="M248.4,164c0.2-1.2,0.8-2,1.7-2.5c0.6-0.3,1.4-0.1,1.7,0.5c0.1,0.2,0.1,0.3,0.1,0.5c0.1,2.5-0.7,3.6-2.4,3.1
		C248.7,165.4,248.2,164.7,248.4,164z"/>
	<circle class="st0" cx="386.5" cy="164.5" r="1.8"/>
	<circle class="st0" cx="409.1" cy="168.6" r="1.8"/>
	<circle class="st0" cx="420.6" cy="174.3" r="1.8"/>
	<circle class="st0" cx="413.1" cy="182.3" r="1.4"/>
	<circle class="st0" cx="401" cy="176.7" r="1.4"/>
	<path class="st0" d="M349.6,168.2c-1.6,0.4-2.5,0-2.5-1.2c-0.1-1.1,0.4-2.3,1.3-3.4C350.3,163.2,350.7,164.7,349.6,168.2z"/>
	<path class="st0" d="M373.6,174.1c-1.6,0.4-2.5,0-2.5-1.2c-0.1-1.1,0.4-2.3,1.3-3.4C374.3,169.2,374.7,170.7,373.6,174.1z"/>
	<path class="st0" d="M393.4,186c-1.6,0.4-2.5,0-2.5-1.2c-0.1-1.1,0.4-2.3,1.3-3.4C394.1,181,394.5,182.5,393.4,186z"/>
	<path class="st0" d="M210.8,165.9c0.1-0.7,0.6-1.4,1.5-1.8c0.5-0.2,0.9-0.2,1.2,0.3c0.5,0.7,0.5,1.4-0.1,2.3
		c-0.4,0.7-1.3,0.9-2,0.5C211.1,167,210.8,166.5,210.8,165.9z"/>
	
		<ellipse transform="matrix(4.885007e-02 -0.9988 0.9988 4.885007e-02 127.6243 471.0779)" class="st0" cx="311.2" cy="168.5" rx="1.6" ry="2.1"/>
	<ellipse transform="matrix(0.3355 -0.942 0.942 0.3355 21.4377 370.8492)" class="st0" cx="273.6" cy="170.2" rx="1.6" ry="2"/>
	
		<ellipse transform="matrix(0.7096 -0.7046 0.7046 0.7096 -53.0354 216.0108)" class="st0" cx="235.5" cy="172.3" rx="1.3" ry="1.6"/>
	
		<ellipse transform="matrix(0.5105 -0.8599 0.8599 0.5105 13.2551 372.5338)" class="st0" cx="333.8" cy="174.6" rx="1.4" ry="1.6"/>
	<path class="st0" d="M288.5-0.1h12.6c0.3,3.1,0,5.3-1.1,6.6c-2.5,3-5.4,3.5-8.7,1.6C288.7,6.5,287.8,3.8,288.5-0.1z"/>
	<path class="st0" d="M58-0.1h4.2c2.7,1.2,2.1,2.3-1.7,3.3c-0.4,0.1-0.8,0.1-1.2,0C55.6,1.9,55.2,0.8,58-0.1z"/>
	<path class="st0" d="M93.8-0.1h8.3C98.8,3.3,96,3.3,93.8-0.1z"/>
	<path class="st0" d="M117.9-0.1h5.7c0.8,0.4,1.5,1.3,2,2.7c1.4,4.1-2,6.6-5.9,6.6C115.4,6.8,114.8,3.7,117.9-0.1z"/>
	<path class="st0" d="M153.3-0.1h10.5c0.5,2.7-0.2,4.8-1.9,6.5C156.5,9.8,152.1,5.4,153.3-0.1z"/>
	<path class="st0" d="M189.8-0.1h13.4C198.1,8.6,193.6,8.6,189.8-0.1z"/>
	<path class="st0" d="M227.9-0.1h12.3c-1.2,2.5-3,4-5.5,4.5C231.3,4.7,229.1,3.2,227.9-0.1z"/>
	<path class="st0" d="M251.9-0.1h10.2c1.3,3.9,1.3,6.8-0.2,8.6c-2.5,3-7.6,3.2-9.9-0.3C250.7,6.1,250.6,3.3,251.9-0.1z"/>
	<path class="st0" d="M325.9-0.1h13.5c-0.7,2.5-1.8,4.6-3.4,6.3C330.3,8.5,326.9,6.4,325.9-0.1z"/>
</g>
</svg>
