<?xml version="1.0" encoding="utf-8"?>
<!-- Generator: Adobe Illustrator 25.0.0, SVG Export Plug-In . SVG Version: 6.00 Build 0)  -->
<svg version="1.1" id="PRINT" xmlns="http://www.w3.org/2000/svg" xmlns:xlink="http://www.w3.org/1999/xlink" x="0px" y="0px"
	 viewBox="0 0 176.4 505.1" style="enable-background:new 0 0 176.4 505.1;" xml:space="preserve">
<style type="text/css">
	.st0{fill:#034BB8;}
</style>
<g>
	<path class="st0" d="M176.5,248"/>
	<path class="st0" d="M175,244.7c-2.3-0.9-3.4-3.4-2.5-5.7"/>
	<path class="st0" d="M174.3,267c-2.2-0.8-3.5-3.5-2.6-5.8"/>
	<path class="st0" d="M175.7,270.5"/>
	<path class="st0" d="M170.2,257.9c-2.3-0.9-3.4-3.4-2.5-5.7c0.9-2.3,3.5-3.5,5.7-2.6c2.2,0.9,3.4,3.5,2.6,5.8
		C175,257.6,172.4,258.7,170.2,257.9z"/>
	<path class="st0" d="M175.9,222.5c-2.2-0.9-3.4-3.5-2.5-5.8"/>
	<path class="st0" d="M176.6,233.2c-0.9,2.3-3.6,3.4-5.8,2.4c-2.1-0.9-3.2-3.4-2.4-5.6c0.8-2.3,3.5-3.4,5.7-2.5"/>
	<path class="st0" d="M166.1,248.8c-2.2-0.8-3.4-3.3-2.6-5.5c0.8-2.3,3.4-3.5,5.7-2.7c2.3,0.9,3.4,3.5,2.5,5.7
		C170.8,248.5,168.3,249.6,166.1,248.8z"/>
	<path class="st0" d="M166.8,274.4c0.9-2.2,3.3-3.3,5.5-2.5c2.3,0.8,3.5,3.4,2.6,5.7c-0.9,2.3-3.5,3.4-5.8,2.4
		C167,279,166,276.6,166.8,274.4z"/>
	<path class="st0" d="M173.6,289.2c-2.3-0.8-3.6-3.3-2.8-5.6c0.8-2.3,3.4-3.5,5.6-2.7"/>
	<path class="st0" d="M175,292.5"/>
	<path class="st0" d="M170.8,268.3c-0.8,2.2-3.2,3.4-5.4,2.7c-2.3-0.8-3.6-3.4-2.7-5.7c0.8-2.2,3.3-3.3,5.5-2.5
		C170.5,263.7,171.7,266.1,170.8,268.3z"/>
	<path class="st0" d="M172,213.3c-2.2-0.8-3.4-3.3-2.6-5.5c0.8-2.2,3.2-3.4,5.5-2.6"/>
	<path class="st0" d="M166.7,259.4c-0.8,2.2-3.3,3.3-5.5,2.4c-2.3-0.9-3.3-3.2-2.4-5.5c0.9-2.2,3.3-3.3,5.5-2.5
		C166.4,254.7,167.5,257.2,166.7,259.4z"/>
	<path class="st0" d="M167.5,237.2c-0.9,2.2-3.3,3.3-5.5,2.5c-2.2-0.8-3.3-3.4-2.4-5.5c0.8-2.2,3.3-3.2,5.5-2.4
		C167.3,232.6,168.3,234.9,167.5,237.2z"/>
	<path class="st0" d="M170,218.5c2.2,0.9,3.3,3.2,2.4,5.5c-0.8,2.2-3.2,3.3-5.5,2.6c-2.3-0.8-3.5-3.5-2.5-5.7
		C165.4,218.7,167.8,217.6,170,218.5z"/>
	<path class="st0" d="M174.3,194.7"/>
	<path class="st0" d="M169.9,290.8c-0.9,2.2-3.4,3.2-5.6,2.2c-2.2-1-3.1-3.3-2.1-5.6c0.9-2,3.3-3,5.4-2.2
		C169.7,286,170.8,288.7,169.9,290.8z"/>
	<path class="st0" d="M166.2,296.4c1-2.1,3.5-3,5.7-2c2.2,1,3,3.5,1.9,5.7c-1,2-3.5,2.9-5.5,2C166.2,301.1,165.2,298.4,166.2,296.4z
		"/>
	<path class="st0" d="M162.4,250.4c-0.9,2.2-3.4,3.2-5.5,2.3c-2-0.9-3.1-3.3-2.3-5.4c0.8-2.2,3.3-3.3,5.5-2.4
		C162.3,245.8,163.3,248.1,162.4,250.4z"/>
	<path class="st0" d="M163.4,276.2c2.2,0.9,3.2,3.2,2.3,5.5c-0.9,2.1-3.2,3.1-5.3,2.4c-2.1-0.8-3.3-3.4-2.5-5.5
		C158.7,276.4,161.2,275.3,163.4,276.2z"/>
	<path class="st0" d="M172.6,311.1c-2.2-0.9-3.2-3.3-2.2-5.6c0.9-2.1,3.4-3.1,5.4-2.2"/>
	<path class="st0" d="M168.4,214.8c-0.7,2.1-3.1,3.2-5.2,2.6c-2.3-0.7-3.5-3.1-2.7-5.3c0.8-2.1,3-3.3,5.2-2.7
		C167.8,210,169.1,212.6,168.4,214.8z"/>
	<path class="st0" d="M156,274.8c-2.1-1-2.9-3.3-2-5.4c0.9-2.2,3.5-3.2,5.6-2.2c2,1,3,3.5,2.1,5.5
		C160.7,274.8,158.1,275.8,156,274.8z"/>
	<path class="st0" d="M174.4,314.7"/>
	<path class="st0" d="M160.9,222.6c2.1,0.8,3.2,3.5,2.3,5.6c-0.9,2-3.3,3-5.4,2.2c-2.2-0.9-3.2-3.3-2.3-5.5
		C156.5,222.9,158.9,221.8,160.9,222.6z"/>
	<path class="st0" d="M173.3,201.6c-0.7,2.1-3.1,3.3-5.2,2.5c-2.2-0.7-3.4-3-2.7-5.2c0.7-2.3,3.2-3.5,5.4-2.7
		C172.8,197,174,199.5,173.3,201.6z"/>
	<path class="st0" d="M152.2,265.9c-2-0.7-3.2-3.2-2.5-5.3c0.7-2.1,3.1-3.3,5.2-2.6c2.3,0.7,3.4,3.2,2.6,5.4
		C156.7,265.5,154.3,266.6,152.2,265.9z"/>
	<path class="st0" d="M158.3,241.3c-0.9,2.1-3.2,3.1-5.4,2.3c-2.2-0.9-3.2-3.3-2.3-5.5c0.9-2,3.4-3,5.4-2.1
		C158.1,236.8,159.2,239.3,158.3,241.3z"/>
	<path class="st0" d="M153.4,254.3c-0.8,2.1-3.1,3.2-5.2,2.4c-2.1-0.8-3.2-3.1-2.5-5.2c0.8-2.1,3.1-3.2,5.2-2.5
		C153,249.8,154.1,252.2,153.4,254.3z"/>
	<path class="st0" d="M172.9,190.9c-2.1-0.8-3.3-3.1-2.5-5.2c0.8-2.1,3.1-3.3,5.2-2.5"/>
	<path class="st0" d="M159.1,218.9c-0.8,2.1-3.2,3.2-5.3,2.3c-2-0.8-3.1-3-2.4-5.1c0.7-2.2,3.1-3.3,5.2-2.5
		C158.8,214.4,159.9,216.8,159.1,218.9z"/>
	<path class="st0" d="M160.7,294.5c-0.7,2.2-3.1,3.3-5.2,2.5c-2-0.7-3.1-2.9-2.5-5c0.7-2.2,3-3.4,5.1-2.7S161.5,292.4,160.7,294.5z"
		/>
	<path class="st0" d="M162.4,298.5c2.1,0.8,3.2,3.2,2.4,5.3c-0.8,2-3,3.1-5.1,2.4c-2.1-0.7-3.3-3.1-2.6-5.2
		C157.9,298.8,160.3,297.7,162.4,298.5z"/>
	<path class="st0" d="M164,205.8c-0.8,2.1-3.2,3.1-5.3,2.3c-2-0.8-3-3.1-2.3-5.1c0.8-2.1,3.1-3.2,5.3-2.4
		C163.8,201.3,164.9,203.8,164,205.8z"/>
	<path class="st0" d="M148.9,234.4c-2.1-0.8-3.1-3.2-2.3-5.3c0.8-2,3-3,5.1-2.3c2.1,0.7,3.2,3.1,2.5,5.2
		C153.4,234.2,151,235.3,148.9,234.4z"/>
	<path class="st0" d="M175.4,172.6"/>
	<path class="st0" d="M170.6,316.7c2.1,0.8,3.1,2.9,2.4,5c-0.8,2.2-3.1,3.3-5.2,2.5c-2.1-0.8-3.1-3.3-2.3-5.3
		C166.3,316.9,168.6,315.9,170.6,316.7z"/>
	<path class="st0" d="M168.9,192.7c-0.9,2.1-3.3,3-5.4,2.1c-2-0.9-2.9-3.1-2-5.2c0.8-2,3.1-3,5.1-2.3
		C168.7,188.2,169.8,190.6,168.9,192.7z"/>
	<path class="st0" d="M168.9,312.7c-0.8,2.1-3.1,3.2-5.2,2.5c-2-0.8-3.1-2.9-2.5-5c0.7-2.2,3-3.4,5.1-2.7
		C168.5,308.2,169.7,310.6,168.9,312.7z"/>
	<path class="st0" d="M149.2,245.2c-0.7,2-2.9,3.1-5,2.5c-2.2-0.7-3.4-2.9-2.6-5.1c0.7-2.1,2.9-3.2,5-2.5
		C148.7,240.7,149.9,243.1,149.2,245.2z"/>
	<path class="st0" d="M152.5,276.5c-0.7,2-2.9,3.1-5,2.5c-2.2-0.7-3.4-3-2.6-5.1c0.7-2.1,2.9-3.2,5-2.5
		C152,272,153.2,274.3,152.5,276.5z"/>
	<path class="st0" d="M151.3,288c-2.1-0.8-3.1-3.3-2.2-5.3c0.9-2.1,3.3-3,5.4-2.1c2,0.9,2.9,3.1,2.1,5.1
		C155.7,287.8,153.4,288.8,151.3,288z"/>
	<path class="st0" d="M172,333.2c-2.2-0.8-3.2-3.1-2.2-5.3c0.9-2,3.2-3,5.1-2.1"/>
	<path class="st0" d="M145.9,262.3c2.1,0.7,3.1,2.8,2.5,4.9c-0.7,2.2-3,3.3-5.1,2.6c-2.1-0.7-3.2-3.2-2.4-5.2
		C141.6,262.6,143.8,261.6,145.9,262.3z"/>
	<path class="st0" d="M173.9,179.3c-0.7,2-3,3.1-5,2.4c-2.1-0.7-3.2-2.8-2.5-4.9c0.7-2.2,3.1-3.3,5.1-2.5
		C173.5,175,174.6,177.4,173.9,179.3z"/>
	<path class="st0" d="M152.7,204.8c2,0.8,3,3,2.1,5.1c-0.8,2-3.1,3-5,2.3c-2.1-0.8-3.1-3.3-2.2-5.3
		C148.4,204.9,150.7,204,152.7,204.8z"/>
	<path class="st0" d="M149.9,223.1c-0.8,2-3.1,3-5.1,2.2c-2-0.8-3-3.1-2.3-5.1c0.8-2.1,3.2-3.1,5.3-2.3
		C149.8,218.9,150.7,221,149.9,223.1z"/>
	<path class="st0" d="M153.4,302.8c1.9,0.8,3,3.2,2.2,5.1c-0.8,2-3.1,2.9-5.1,2.1c-2-0.8-3-3-2.1-5.1
		C149.2,303,151.5,302,153.4,302.8z"/>
	<path class="st0" d="M144.2,258.3c-0.7,2-3,3.1-5,2.3c-2.1-0.8-3.1-2.9-2.4-5c0.7-2,3-3.1,5-2.4C143.8,254,144.9,256.4,144.2,258.3
		z"/>
	<path class="st0" d="M151.5,298.6c-0.7,2-3,3.2-5,2.5c-2-0.7-3.1-3.1-2.4-5c0.7-2,3-3.1,5-2.4C151.2,294.4,152.2,296.5,151.5,298.6
		z"/>
	<path class="st0" d="M157.6,191.7c2.1,0.8,3,3,2.2,5.1c-0.8,2-3.1,3-5.1,2.2c-2-0.8-3-3.2-2.2-5.1
		C153.2,191.8,155.5,190.9,157.6,191.7z"/>
	<path class="st0" d="M176,342.2c-1.9-0.8-3-3.2-2.3-5.1"/>
	<path class="st0" d="M145.1,284.6c1.9,0.7,3,3.1,2.3,5.1c-0.7,2-3,3-5,2.2c-2.1-0.8-3-2.9-2.2-5
		C140.9,284.9,143.2,283.9,145.1,284.6z"/>
	<path class="st0" d="M154.7,319.2c-1.9-0.7-3-3.1-2.3-5c0.7-2,3-3,5-2.3c2.1,0.8,3.1,2.9,2.3,5
		C158.9,318.8,156.7,319.9,154.7,319.2z"/>
	<path class="st0" d="M144.9,236.1c-0.8,2-3,3.1-5,2.4c-2-0.7-3.1-3.1-2.4-5.1c0.7-2,3-3,5.1-2.3C144.7,231.9,145.7,234,144.9,236.1
		z"/>
	<path class="st0" d="M164.7,183.4c-0.7,2-3,3.2-5,2.5c-2-0.7-3.1-3.1-2.4-5.1c0.7-1.9,2.9-2.9,4.8-2.3
		C164.4,179.1,165.4,181.3,164.7,183.4z"/>
	<path class="st0" d="M139.1,271.6c-0.7,1.9-2.9,2.9-4.8,2.2c-2.1-0.7-3.1-2.9-2.3-5c0.7-1.9,2.9-3,4.8-2.3
		C138.8,267.2,139.9,269.6,139.1,271.6z"/>
	<path class="st0" d="M139.9,249.4c-0.8,2-3.1,3-5.1,2.2c-1.8-0.8-2.8-3-2.2-4.9c0.7-2,3-3,5-2.3
		C139.8,245.1,140.7,247.3,139.9,249.4z"/>
	<path class="st0" d="M143.3,280.5c-0.7,2-3,3.2-5,2.4c-2-0.7-3.1-3.1-2.3-5.1c0.7-1.9,2.9-2.9,4.8-2.3
		C142.9,276.3,144,278.4,143.3,280.5z"/>
	<path class="st0" d="M173.7,168.4c-1.9-0.7-2.9-2.8-2.3-4.8c0.7-2,2.9-3.2,4.9-2.5"/>
	<path class="st0" d="M163.8,325.8c-0.7,2-3,3.1-5,2.3c-2-0.7-3-2.8-2.3-4.7c0.6-2.1,2.9-3.2,4.9-2.6
		C163.4,321.5,164.5,323.8,163.8,325.8z"/>
	<path class="st0" d="M145.7,214c-0.8,2-3.1,2.9-5.1,2.1c-2-0.8-2.9-3.1-2-5.1c0.8-1.8,3-2.8,4.9-2
		C145.5,209.7,146.5,212.1,145.7,214z"/>
	<path class="st0" d="M145.8,203c-2.1-0.8-3-3-2.2-5c0.8-1.9,3-2.9,4.9-2.2c2,0.7,3,3.1,2.2,5.1C149.9,202.7,147.7,203.7,145.8,203z
		"/>
	<path class="st0" d="M163.1,337.2c-1.9-0.6-3-2.8-2.4-4.7c0.6-2,2.9-3.2,4.9-2.5c2,0.7,3,2.7,2.4,4.7
		C167.3,336.7,165.1,337.9,163.1,337.2z"/>
	<path class="st0" d="M140.8,227.1c-0.8,2-3.1,3-5.1,2.1c-1.9-0.8-2.8-3-2-4.9c0.8-2,3.1-3,5.1-2.1
		C140.6,223,141.5,225.3,140.8,227.1z"/>
	<path class="st0" d="M167.2,165.4c2,0.7,3,2.8,2.4,4.8c-0.7,2.1-2.9,3.2-5,2.4c-1.9-0.7-2.9-2.9-2.2-4.9
		C163.2,165.7,165.3,164.7,167.2,165.4z"/>
	<path class="st0" d="M150.8,189.8c-1.9-0.7-3-2.8-2.4-4.8c0.7-2.1,2.9-3.1,5-2.3c1.9,0.8,2.9,2.9,2.2,4.8
		C154.8,189.5,152.7,190.5,150.8,189.8z"/>
	<path class="st0" d="M135.7,240.3c-0.8,1.9-3,2.8-4.9,2.1c-2-0.8-3-3.1-2.1-5.1c0.8-1.9,3-2.7,4.9-1.9
		C135.6,236.3,136.5,238.4,135.7,240.3z"/>
	<path class="st0" d="M171.9,344c-0.8,2-2.9,2.9-4.8,2.2c-1.9-0.7-2.9-2.9-2.2-4.8c0.7-1.9,2.9-2.9,4.8-2.1
		C171.7,339.9,172.6,342,171.9,344z"/>
	<path class="st0" d="M134.9,262.5c-0.8,1.9-2.9,2.8-4.8,2.1c-1.9-0.7-2.9-2.8-2.2-4.8c0.7-2,3-3.1,5-2.2
		C134.7,258.4,135.7,260.6,134.9,262.5z"/>
	<path class="st0" d="M176.6,150.3"/>
	<path class="st0" d="M158.4,169.7c2,0.8,2.8,2.9,2,4.8c-0.8,1.9-3,2.8-4.9,2c-1.9-0.8-2.8-3-2-4.9
		C154.3,169.7,156.4,168.9,158.4,169.7z"/>
	<path class="st0" d="M138.1,293.8c-0.8,1.9-3,2.8-4.9,1.9c-2-0.8-2.7-3-1.9-4.9c0.8-1.8,2.9-2.6,4.7-1.9
		C137.9,289.7,138.9,292,138.1,293.8z"/>
	<path class="st0" d="M134.3,213.1c1.9,0.7,3,2.9,2.3,4.8c-0.7,2-2.9,2.9-4.8,2.1c-1.9-0.7-2.8-2.7-2.1-4.6
		C130.3,213.5,132.4,212.5,134.3,213.1z"/>
	<path class="st0" d="M146.4,311.9c-0.8,1.9-2.9,2.8-4.8,2.1c-2-0.8-2.9-2.8-2.1-4.8c0.8-1.9,2.9-2.9,4.8-2.1
		C146.2,307.8,147.1,310,146.4,311.9z"/>
	<path class="st0" d="M150.4,321c-0.8,1.9-3,2.8-4.9,2c-1.9-0.8-2.7-3.2-1.9-5c0.8-1.8,2.9-2.6,4.7-1.9
		C150.3,316.9,151.2,319,150.4,321z"/>
	<path class="st0" d="M141.5,204.8c-0.7,2-2.9,2.9-4.8,2.1c-1.9-0.7-2.8-2.7-2.1-4.6c0.7-2,2.8-3.1,4.7-2.4
		C141.2,200.7,142.2,202.9,141.5,204.8z"/>
	<path class="st0" d="M137.4,305c-1.9-0.8-2.8-3-2.1-4.9c0.8-1.9,2.9-2.8,4.8-2.1c2,0.8,2.9,2.8,2.1,4.8
		C141.5,304.8,139.3,305.7,137.4,305z"/>
	<path class="st0" d="M134,284.7c-0.8,2-3,2.9-4.8,2.1c-1.9-0.8-2.8-3.1-2-4.9c0.8-1.8,2.8-2.6,4.7-2
		C133.8,280.7,134.7,282.7,134,284.7z"/>
	<path class="st0" d="M139.6,189c0.8-1.9,3-2.9,4.9-2c1.9,0.8,2.8,3.1,1.9,5c-0.8,1.8-2.8,2.6-4.7,1.9
		C139.7,193,138.8,190.9,139.6,189z"/>
	<path class="st0" d="M130.7,253.3c-0.7,2-2.8,3-4.8,2.2c-1.9-0.7-2.9-3-2.1-4.9c0.7-1.8,2.8-2.7,4.6-2.1
		C130.5,249.3,131.4,251.3,130.7,253.3z"/>
	<path class="st0" d="M174.4,157.1c-0.7,1.9-2.9,2.8-4.8,2.1c-1.9-0.7-2.8-2.6-2.1-4.5c0.7-2,2.8-3,4.7-2.3
		C174.1,153,175.2,155.2,174.4,157.1z"/>
	<path class="st0" d="M176,353c-0.7,1.9-2.9,2.9-4.8,2.1c-1.9-0.7-2.8-2.6-2.2-4.5c0.7-2,2.7-3.1,4.7-2.4
		C175.6,348.8,176.7,351.1,176,353z"/>
	<path class="st0" d="M154.6,329.9c-0.7,1.9-2.9,2.9-4.8,2.1c-1.9-0.7-2.8-2.6-2.1-4.5c0.7-2,2.7-3,4.7-2.4
		C154.2,325.8,155.3,328,154.6,329.9z"/>
	<path class="st0" d="M129.5,226.4c1.8,0.8,2.8,3.1,2,4.9c-0.8,1.9-3,2.7-4.9,1.9c-1.8-0.8-2.6-2.8-1.9-4.6
		C125.5,226.6,127.7,225.6,129.5,226.4z"/>
	<path class="st0" d="M153.9,341.1c-1.9-0.7-2.9-3-2.1-4.9c0.8-1.8,2.8-2.7,4.7-2c2,0.8,2.9,2.8,2.1,4.8
		C157.8,340.9,155.7,341.8,153.9,341.1z"/>
	<path class="st0" d="M163.1,156.5c1.9,0.7,2.9,2.6,2.2,4.5c-0.6,2-2.7,3.1-4.7,2.4c-1.9-0.7-2.9-3-2.2-4.8
		C159.2,156.8,161.3,155.8,163.1,156.5z"/>
	<path class="st0" d="M129.9,275.6c-0.7,1.9-2.9,2.8-4.9,2c-1.9-0.8-2.7-2.7-2-4.6c0.7-1.9,2.7-2.8,4.6-2.2
		C129.5,271.4,130.6,273.7,129.9,275.6z"/>
	<path class="st0" d="M121.8,246.3c-1.9-0.7-2.7-2.7-2-4.6c0.7-1.9,2.9-3,4.8-2.2c1.7,0.7,2.7,2.9,2.1,4.7
		C126,246.1,123.8,247.1,121.8,246.3z"/>
	<path class="st0" d="M146.6,180.5c-1.9-0.7-2.8-2.7-2.1-4.6c0.7-2,2.9-3,4.8-2.2c1.7,0.7,2.7,2.9,2.1,4.6
		C150.7,180.3,148.5,181.3,146.6,180.5z"/>
	<path class="st0" d="M158.1,350.1c-1.9-0.7-2.8-2.6-2.1-4.5c0.7-2,2.9-3,4.8-2.2c1.7,0.7,2.7,2.9,2,4.7
		C162,349.9,159.9,350.8,158.1,350.1z"/>
	<path class="st0" d="M135.3,191.1c1.9,0.8,2.7,2.7,2,4.6c-0.7,1.8-2.8,2.8-4.6,2.1c-1.9-0.7-2.9-3-2.1-4.9
		C131.3,191.2,133.4,190.4,135.3,191.1z"/>
	<path class="st0" d="M132.3,208.9c-0.7,1.8-2.8,2.8-4.6,2.2c-1.9-0.7-2.9-3-2.1-4.8c0.8-1.8,2.9-2.6,4.7-1.9
		C132.2,205.1,133,207,132.3,208.9z"/>
	<path class="st0" d="M175.4,364.2c-1.9-0.7-2.9-3.1-2.1-4.9"/>
	<path class="st0" d="M125.7,266.5c-0.7,1.9-2.7,2.8-4.6,2.2c-1.9-0.7-3-3-2.2-4.8c0.8-1.8,2.8-2.7,4.7-2
		C125.5,262.6,126.4,264.6,125.7,266.5z"/>
	<path class="st0" d="M140.1,177.9c1.9,0.7,2.8,2.7,2.1,4.5c-0.7,1.9-2.7,2.8-4.5,2.2c-1.8-0.6-2.8-2.8-2.2-4.6
		C136.1,178.3,138.2,177.3,140.1,177.9z"/>
	<path class="st0" d="M135.1,311.3c1.9,0.7,2.8,2.7,2.1,4.6c-0.7,1.8-2.8,2.8-4.6,2.1c-1.8-0.7-2.8-2.8-2.1-4.6
		C131.1,311.6,133.2,310.6,135.1,311.3z"/>
	<path class="st0" d="M174.6,145.9c-1.9-0.7-2.8-2.7-2-4.6"/>
	<path class="st0" d="M151.7,167.4c-1.9-0.6-2.9-2.6-2.3-4.5c0.6-2,2.8-3,4.7-2.3c1.8,0.7,2.8,2.8,2.1,4.6
		C155.6,167,153.6,168,151.7,167.4z"/>
	<path class="st0" d="M128.6,308.9c-1.9-0.7-2.9-2.6-2.2-4.5c0.6-1.9,2.7-2.9,4.5-2.3c1.8,0.6,2.9,2.8,2.2,4.6
		C132.5,308.5,130.4,309.6,128.6,308.9z"/>
	<path class="st0" d="M125.4,217.5c1.8,0.7,2.7,2.7,2,4.6c-0.7,1.8-2.8,2.8-4.6,2.1c-1.9-0.7-2.9-3-2.1-4.8
		C121.5,217.6,123.6,216.8,125.4,217.5z"/>
	<path class="st0" d="M128.9,297.8c-0.7,1.8-2.8,2.7-4.6,2c-1.8-0.7-2.7-2.8-2-4.6c0.7-1.8,2.8-2.7,4.6-2
		C128.7,294,129.6,296,128.9,297.8z"/>
	<path class="st0" d="M165.7,150.1c-1.8-0.7-2.8-2.8-2.1-4.6c0.7-1.7,2.6-2.6,4.4-2.1c1.9,0.6,2.9,2.6,2.2,4.5
		C169.6,149.7,167.5,150.7,165.7,150.1z"/>
	<path class="st0" d="M164.8,352.5c1.8,0.7,2.7,2.8,1.9,4.7c-0.7,1.7-2.7,2.6-4.4,2c-1.8-0.7-2.8-2.8-2.1-4.6
		C160.8,352.7,162.9,351.8,164.8,352.5z"/>
	<path class="st0" d="M141.3,325c-0.7,1.8-2.8,2.7-4.6,1.9c-1.8-0.7-2.7-2.8-2-4.6c0.7-1.8,2.9-2.7,4.6-2
		C141.1,321.1,142,323.3,141.3,325z"/>
	<path class="st0" d="M140.7,336c-1.8-0.7-2.7-2.9-1.9-4.7c0.8-1.8,2.9-2.6,4.7-1.8c1.7,0.8,2.5,2.7,1.8,4.5
		C144.6,335.8,142.5,336.8,140.7,336z"/>
	<path class="st0" d="M121.5,257.5c-0.7,1.8-2.8,2.7-4.6,1.9c-1.8-0.7-2.7-2.8-2-4.6c0.7-1.8,2.9-2.7,4.6-2
		C121.3,253.6,122.3,255.8,121.5,257.5z"/>
	<path class="st0" d="M124.8,288.8c-0.7,1.8-2.8,2.7-4.6,2c-1.8-0.8-2.7-2.8-1.9-4.7c0.7-1.7,2.7-2.5,4.5-1.9
		C124.6,284.8,125.5,286.9,124.8,288.8z"/>
	<path class="st0" d="M120.6,230.8c1.8,0.8,2.5,3,1.6,4.7c-0.8,1.8-3,2.5-4.7,1.7c-1.8-0.9-2.5-3-1.6-4.8
		C116.7,230.6,118.9,229.9,120.6,230.8z"/>
	<path class="st0" d="M145.1,164.9c1.8,0.7,2.7,2.8,2,4.6c-0.8,1.8-2.9,2.6-4.6,1.9c-1.7-0.8-2.5-2.6-1.9-4.4
		C141.2,165.1,143.3,164.2,145.1,164.9z"/>
	<path class="st0" d="M120.7,279.7c-0.7,1.8-2.8,2.7-4.6,1.9c-1.7-0.7-2.5-2.6-1.9-4.4c0.7-1.8,2.7-2.8,4.5-2.1
		C120.5,275.8,121.4,277.9,120.7,279.7z"/>
	<path class="st0" d="M112.8,250.3c-1.8-0.7-2.6-2.6-2-4.4c0.7-1.9,2.7-2.8,4.5-2.1c1.7,0.7,2.6,2.7,2,4.4
		C116.8,250.1,114.7,251.1,112.8,250.3z"/>
	<path class="st0" d="M149.3,343.1c-0.7,1.7-2.6,2.6-4.4,2c-1.8-0.7-2.8-2.8-2-4.6c0.7-1.8,2.9-2.6,4.7-1.8
		C149.3,339.5,150.1,341.4,149.3,343.1z"/>
	<path class="st0" d="M149.1,354c-1.8-0.7-2.7-2.5-2-4.3c0.6-1.8,2.5-2.7,4.3-2.2c1.8,0.6,2.8,2.8,2.1,4.6
		C152.8,353.9,150.9,354.7,149.1,354z"/>
	<path class="st0" d="M133,186.6c-0.7,1.9-2.7,2.8-4.5,2c-1.7-0.7-2.6-2.7-2-4.4c0.6-1.8,2.7-2.8,4.5-2
		C132.8,182.9,133.7,184.8,133,186.6z"/>
	<path class="st0" d="M159.1,147.6c1.8,0.7,2.6,2.6,2,4.4c-0.7,1.9-2.7,2.8-4.5,2.1c-1.7-0.7-2.6-2.6-2-4.4
		C155.2,147.8,157.2,146.9,159.1,147.6z"/>
	<path class="st0" d="M123.6,201.8c-1.8-0.7-2.7-2.9-1.9-4.6c0.8-1.7,2.7-2.5,4.5-1.8c1.9,0.7,2.7,2.8,1.9,4.6
		C127.2,201.7,125.3,202.5,123.6,201.8z"/>
	<path class="st0" d="M168.8,361.7c1.8,0.7,2.6,2.5,2,4.3c-0.7,1.9-2.7,2.8-4.5,2.1c-1.7-0.7-2.6-2.7-2-4.4
		C164.9,361.9,167,361,168.8,361.7z"/>
	<path class="st0" d="M116.5,270.4c-0.6,1.8-2.5,2.8-4.3,2.2c-1.8-0.6-2.9-2.7-2.2-4.5c0.7-1.7,2.6-2.6,4.4-2
		C116.2,266.8,117.1,268.6,116.5,270.4z"/>
	<path class="st0" d="M113.8,228.2c-1.7-0.6-2.7-2.6-2.1-4.3c0.6-1.9,2.7-2.8,4.5-2.1c1.8,0.7,2.6,2.6,1.9,4.4
		C117.5,227.9,115.6,228.8,113.8,228.2z"/>
	<path class="st0" d="M118.7,215c-1.8-0.7-2.8-2.8-2.1-4.6c0.7-1.7,2.6-2.6,4.4-2c1.8,0.6,2.7,2.5,2.2,4.3
		C122.6,214.6,120.6,215.7,118.7,215z"/>
	<path class="st0" d="M170.6,136.7c-1.8-0.7-2.6-2.5-1.9-4.3c0.7-1.8,2.6-2.6,4.4-2c1.7,0.6,2.6,2.7,2,4.4
		C174.3,136.5,172.4,137.4,170.6,136.7z"/>
	<path class="st0" d="M119.5,312.8c-1.8-0.7-2.6-2.5-2-4.3c0.7-1.8,2.6-2.7,4.3-2c1.7,0.6,2.6,2.7,2,4.4
		C123.2,312.6,121.3,313.5,119.5,312.8z"/>
	<path class="st0" d="M137.8,173.6c-0.7,1.7-2.7,2.5-4.4,1.9c-1.7-0.7-2.6-2.7-1.9-4.4c0.7-1.8,2.8-2.7,4.6-1.9
		C137.9,169.9,138.6,171.8,137.8,173.6z"/>
	<path class="st0" d="M111.2,234.9c1.8,0.7,2.6,2.5,2,4.3c-0.7,1.8-2.6,2.7-4.3,2c-1.7-0.6-2.6-2.7-2-4.4
		C107.4,235.1,109.4,234.3,111.2,234.9z"/>
	<path class="st0" d="M126.1,315.7c1.8,0.7,2.5,2.6,1.8,4.4c-0.7,1.7-2.7,2.6-4.4,1.8c-1.6-0.7-2.5-2.8-1.8-4.5
		C122.3,315.7,124.3,314.9,126.1,315.7z"/>
	<path class="st0" d="M147.5,158.1c-1.8-0.7-2.6-2.5-1.9-4.3c0.7-1.7,2.6-2.6,4.3-2c1.8,0.6,2.7,2.9,2,4.6
		C151.2,158,149.2,158.8,147.5,158.1z"/>
	<path class="st0" d="M108.1,263.5c-1.8-0.6-2.7-2.4-2.1-4.3c0.6-1.8,2.5-2.7,4.3-2.1c1.7,0.6,2.7,2.7,2.1,4.3
		C111.8,263.1,109.9,264.1,108.1,263.5z"/>
	<path class="st0" d="M111.2,294.6c-1.8-0.7-2.6-2.6-1.8-4.4c0.7-1.6,2.5-2.5,4.2-1.9c1.7,0.6,2.7,2.7,2,4.4
		C115,294.5,113,295.3,111.2,294.6z"/>
	<path class="st0" d="M114.5,205.7c-1.8-0.7-2.5-2.7-1.7-4.4c0.7-1.6,2.6-2.4,4.2-1.8c1.6,0.6,2.6,2.8,2,4.4
		C118.3,205.6,116.2,206.5,114.5,205.7z"/>
	<path class="st0" d="M119.7,301.7c-0.6,1.8-2.5,2.7-4.3,2.1c-1.7-0.6-2.7-2.6-2.1-4.3c0.6-1.7,2.5-2.7,4.3-2
		C119.5,298.1,120.3,299.9,119.7,301.7z"/>
	<path class="st0" d="M170.5,377c-1.8-0.7-2.6-2.5-2-4.3c0.6-1.8,2.6-2.7,4.3-2c1.6,0.6,2.6,2.7,2,4.4
		C174.2,376.8,172.3,377.7,170.5,377z"/>
	<path class="st0" d="M165.8,138.9c-0.7,1.7-2.8,2.6-4.4,1.9c-1.5-0.7-2.4-2.7-1.8-4.2c0.6-1.7,2.6-2.6,4.4-2
		C165.7,135.3,166.5,137.1,165.8,138.9z"/>
	<path class="st0" d="M134.2,333.8c1.8,0.7,2.6,2.6,1.9,4.4c-0.7,1.6-2.5,2.5-4.2,1.9c-1.7-0.6-2.7-2.7-2.1-4.4
		C130.4,334,132.4,333.1,134.2,333.8z"/>
	<path class="st0" d="M127.7,330.9c-1.8-0.7-2.6-2.5-2-4.3c0.7-1.8,2.6-2.7,4.3-2c1.6,0.6,2.6,2.7,2,4.4
		C131.5,330.7,129.5,331.6,127.7,330.9z"/>
	<path class="st0" d="M157.5,361.2c-0.7,1.7-2.7,2.6-4.4,1.9c-1.6-0.7-2.5-2.8-1.9-4.4c0.7-1.7,2.7-2.5,4.4-1.8
		C157.4,357.5,158.2,359.4,157.5,361.2z"/>
	<path class="st0" d="M142.8,160.2c-0.6,1.8-2.6,2.7-4.3,2c-1.6-0.6-2.6-2.8-1.9-4.4c0.7-1.6,2.5-2.4,4.2-1.8
		C142.6,156.6,143.4,158.4,142.8,160.2z"/>
	<path class="st0" d="M119.7,192.6c-1.8-0.6-2.7-2.5-2-4.3c0.6-1.8,2.6-2.7,4.3-2c1.5,0.6,2.5,2.6,2,4.2
		C123.4,192.3,121.4,193.2,119.7,192.6z"/>
	<path class="st0" d="M109.8,219c-1.8-0.6-2.7-2.5-2.1-4.3c0.6-1.8,2.6-2.7,4.3-2c1.5,0.6,2.5,2.5,2,4.2
		C113.6,218.6,111.6,219.6,109.8,219z"/>
	<path class="st0" d="M108.1,252.5c-0.7,1.7-2.7,2.6-4.4,1.8c-1.5-0.7-2.4-2.6-1.8-4.2c0.6-1.7,2.6-2.6,4.3-1.9
		C108,248.8,108.8,250.7,108.1,252.5z"/>
	<path class="st0" d="M111.4,283.8c-0.7,1.7-2.8,2.5-4.4,1.8c-1.5-0.7-2.3-2.7-1.8-4.2c0.6-1.7,2.6-2.5,4.4-1.9
		C111.3,280.2,112.1,282.1,111.4,283.8z"/>
	<path class="st0" d="M136.1,349c-1.7-0.6-2.6-2.3-2.1-4c0.5-1.8,2.5-2.8,4.2-2.2c1.7,0.6,2.7,2.7,2,4.4
		C139.6,348.7,137.7,349.6,136.1,349z"/>
	<path class="st0" d="M157.3,372c-1.7-0.7-2.5-2.4-1.9-4.1c0.6-1.8,2.6-2.7,4.3-2c1.6,0.6,2.5,2.6,1.9,4.2
		C161.1,371.8,159.1,372.7,157.3,372z"/>
	<path class="st0" d="M152.6,144.8c-1.7-0.6-2.5-2.4-2-4.1c0.6-1.8,2.6-2.8,4.3-2.1c1.7,0.6,2.6,2.8,1.9,4.4
		C156.1,144.7,154.2,145.5,152.6,144.8z"/>
	<path class="st0" d="M104.6,232c-1.6-0.7-2.4-2.5-1.8-4.2c0.7-1.8,2.7-2.6,4.4-1.9c1.6,0.7,2.4,2.7,1.8,4.2
		C108.4,231.9,106.3,232.8,104.6,232z"/>
	<path class="st0" d="M124.4,179.4c-1.6-0.7-2.4-2.5-1.8-4.2c0.7-1.8,2.7-2.6,4.4-1.9c1.6,0.7,2.4,2.6,1.8,4.2
		C128.2,179.2,126.1,180.1,124.4,179.4z"/>
	<path class="st0" d="M175.7,123.5c-1.7-0.6-2.6-2.4-2.1-4"/>
	<path class="st0" d="M145.8,142.9c1.6,0.7,2.4,2.5,1.8,4.1c-0.7,1.7-2.7,2.6-4.4,1.8c-1.6-0.7-2.3-2.6-1.6-4.2
		C142.3,143,144.2,142.2,145.8,142.9z"/>
	<path class="st0" d="M129.5,166.2c-1.6-0.6-2.5-2.5-1.9-4.1c0.6-1.8,2.6-2.6,4.3-1.9c1.6,0.7,2.4,2.6,1.7,4.2
		C133,166,131.1,166.8,129.5,166.2z"/>
	<path class="st0" d="M144.3,356c-0.6,1.7-2.4,2.6-4.1,2.1c-1.8-0.5-2.7-2.6-2.1-4.3c0.6-1.6,2.5-2.5,4.2-1.8
		C144,352.5,144.9,354.3,144.3,356z"/>
	<path class="st0" d="M103.2,276.5c-1.7-0.6-2.6-2.4-2.1-4c0.6-1.8,2.5-2.8,4.3-2.1c1.6,0.6,2.5,2.5,1.9,4.2
		C106.7,276.2,104.9,277.1,103.2,276.5z"/>
	<path class="st0" d="M174.7,386.1c-1.7-0.6-2.7-2.7-2-4.4"/>
	<path class="st0" d="M102,239.1c1.7,0.6,2.6,2.4,2,4.1c-0.6,1.7-2.4,2.6-4.1,2c-1.7-0.6-2.6-2.4-2-4.1
		C98.4,239.5,100.3,238.6,102,239.1z"/>
	<path class="st0" d="M118.8,334.9c-1.7-0.6-2.5-2.4-1.9-4.1c0.6-1.6,2.3-2.4,3.9-1.9c1.7,0.5,2.6,2.4,2,4.1
		C122.3,334.6,120.4,335.5,118.8,334.9z"/>
	<path class="st0" d="M116.7,319.8c1.7,0.6,2.6,2.3,2,4c-0.6,1.7-2.4,2.6-4,2c-1.6-0.6-2.6-2.4-2-4.1
		C113.2,320.2,115.1,319.3,116.7,319.8z"/>
	<path class="st0" d="M110.5,196.6c-1.7-0.7-2.5-2.4-1.8-4.1c0.6-1.7,2.5-2.5,4.1-1.8c1.6,0.6,2.5,2.5,1.8,4.1
		C114.1,196.4,112.2,197.2,110.5,196.6z"/>
	<path class="st0" d="M146.4,361c1.7,0.6,2.6,2.4,1.9,4.1c-0.6,1.6-2.3,2.4-3.9,2c-1.7-0.5-2.6-2.4-2.1-4
		C142.8,361.4,144.7,360.5,146.4,361z"/>
	<path class="st0" d="M161.6,381c-1.7-0.6-2.5-2.4-2-4.1c0.6-1.7,2.4-2.6,4-2c1.6,0.6,2.5,2.4,2,4.1
		C165.1,380.7,163.2,381.6,161.6,381z"/>
	<path class="st0" d="M115.5,183.4c-1.7-0.7-2.5-2.5-1.8-4.1c0.6-1.6,2.4-2.3,3.9-1.8c1.7,0.6,2.6,2.5,2,4.1
		C119,183.2,117.2,184,115.5,183.4z"/>
	<path class="st0" d="M110.4,316.7c-1.6-0.7-2.4-2.5-1.7-4.2c0.7-1.6,2.6-2.4,4.2-1.7c1.6,0.7,2.4,2.6,1.7,4.2
		C113.9,316.7,112,317.4,110.4,316.7z"/>
	<path class="st0" d="M108.5,301.8c1.7,0.6,2.6,2.3,2,4.1c-0.6,1.6-2.2,2.5-3.9,2c-1.7-0.5-2.7-2.3-2.2-4
		C105,302.1,106.8,301.2,108.5,301.8z"/>
	<path class="st0" d="M100.7,222.9c-1.7-0.6-2.5-2.4-1.9-4.1c0.6-1.6,2.3-2.4,3.9-1.9c1.7,0.5,2.6,2.4,2.1,4
		C104.3,222.6,102.4,223.5,100.7,222.9z"/>
	<path class="st0" d="M166.7,127.5c-1.7-0.6-2.6-2.3-2-4c0.6-1.7,2.4-2.6,4-2c1.6,0.6,2.6,2.4,2,4.1
		C170.2,127.2,168.4,128.1,166.7,127.5z"/>
	<path class="st0" d="M99.1,267.4c-1.7-0.6-2.6-2.3-2-4c0.6-1.7,2.4-2.6,4-2c1.6,0.6,2.6,2.4,2,4.1
		C102.6,267.1,100.8,268,99.1,267.4z"/>
	<path class="st0" d="M105.6,209.7c-1.7-0.7-2.5-2.5-1.8-4.1c0.7-1.6,2.5-2.5,4.1-1.8c1.6,0.7,2.4,2.5,1.8,4.2
		C109.1,209.6,107.2,210.4,105.6,209.7z"/>
	<path class="st0" d="M136.7,147.1c1.7,0.6,2.5,2.4,1.8,4.1c-0.6,1.5-2.3,2.4-3.9,1.9c-1.6-0.5-2.6-2.4-2-4.1
		C133.1,147.3,135,146.4,136.7,147.1z"/>
	<path class="st0" d="M102.3,298.6c-1.7-0.7-2.5-2.4-1.8-4.1c0.6-1.5,2.4-2.3,3.9-1.8c1.6,0.5,2.6,2.4,2,4.1
		C105.8,298.4,103.9,299.2,102.3,298.6z"/>
	<path class="st0" d="M161.6,129.7c-0.6,1.7-2.5,2.5-4.1,1.9c-1.6-0.6-2.4-2.6-1.7-4.2c0.6-1.5,2.4-2.3,4-1.7
		C161.4,126.3,162.2,128,161.6,129.7z"/>
	<path class="st0" d="M126.9,342.1c-0.6,1.7-2.5,2.5-4.1,1.8c-1.6-0.7-2.4-2.6-1.7-4.2c0.6-1.5,2.4-2.3,4-1.7
		C126.7,338.6,127.5,340.4,126.9,342.1z"/>
	<path class="st0" d="M104,195c1.5,0.8,2.1,2.5,1.3,4.1c-0.7,1.5-2.6,2.2-4,1.5c-1.5-0.8-2.2-2.9-1.4-4.3
		C100.7,194.8,102.5,194.3,104,195z"/>
	<path class="st0" d="M125.4,156.9c-1.6-0.6-2.4-2.2-1.8-3.9c0.6-1.6,2.3-2.4,3.9-1.9c1.6,0.5,2.5,2.6,1.9,4.1
		C128.8,156.8,127,157.6,125.4,156.9z"/>
	<path class="st0" d="M127,352.9c-1.6-0.6-2.4-2.2-1.9-3.8c0.6-1.7,2.4-2.6,4-2c1.6,0.6,2.5,2.6,1.8,4.2
		C130.3,352.8,128.6,353.5,127,352.9z"/>
	<path class="st0" d="M120.5,170.2c-1.7-0.6-2.5-2.4-1.8-4.1c0.6-1.5,2.3-2.4,3.9-1.9c1.6,0.5,2.6,2.4,2,4
		C124,169.9,122.2,170.8,120.5,170.2z"/>
	<path class="st0" d="M133.2,356.2c1.6,0.6,2.4,2.2,1.8,3.8c-0.5,1.6-2.2,2.5-3.8,2c-1.6-0.5-2.6-2.5-2-4.1
		C129.8,356.4,131.6,355.6,133.2,356.2z"/>
	<path class="st0" d="M169.6,388.3c-0.6,1.5-2.4,2.3-3.9,1.8c-1.6-0.6-2.5-2.6-1.8-4.1c0.7-1.6,2.6-2.3,4.2-1.6
		C169.6,385,170.2,386.7,169.6,388.3z"/>
	<path class="st0" d="M148.6,135.6c-1.6-0.6-2.4-2.2-1.9-3.8c0.5-1.7,2.4-2.6,4-2.1c1.6,0.6,2.5,2.6,1.9,4.1
		C151.9,135.4,150.1,136.2,148.6,135.6z"/>
	<path class="st0" d="M102.2,287.6c-0.6,1.7-2.5,2.6-4.1,1.9c-1.5-0.6-2.3-2.4-1.8-3.9c0.5-1.7,2.4-2.5,4.1-1.9
		C102,284.4,102.8,286,102.2,287.6z"/>
	<path class="st0" d="M94.2,280.5c-1.6-0.5-2.5-2.2-1.9-3.8c0.5-1.7,2.4-2.6,4-2c1.5,0.6,2.3,2.5,1.8,4
		C97.6,280.1,95.8,281,94.2,280.5z"/>
	<path class="st0" d="M95.8,236c-1.6-0.6-2.4-2.2-1.9-3.8c0.6-1.7,2.4-2.6,4-2c1.6,0.6,2.5,2.6,1.8,4.2
		C99.1,235.8,97.4,236.6,95.8,236z"/>
	<path class="st0" d="M148.3,375.9c-1.6-0.7-2.3-2.2-1.7-3.9c0.6-1.7,2.5-2.5,4.1-1.8c1.5,0.6,2.3,2.5,1.8,4
		C151.8,375.8,149.9,376.6,148.3,375.9z"/>
	<path class="st0" d="M97.2,252.5c1.7,0.7,2.4,2.4,1.6,4.1c-0.7,1.5-2.4,2.3-3.9,1.7c-1.6-0.6-2.5-2.5-1.9-4.1
		C93.7,252.6,95.6,251.8,97.2,252.5z"/>
	<path class="st0" d="M141.7,134c1.6,0.6,2.3,2.3,1.7,3.9c-0.6,1.5-2.4,2.4-3.9,1.8c-1.6-0.6-2.5-2.6-1.8-4.2
		C138.3,134.1,140.1,133.4,141.7,134z"/>
	<path class="st0" d="M100.5,211.9c-0.5,1.6-2.2,2.5-3.8,2c-1.6-0.5-2.5-2.5-1.9-4.1c0.6-1.5,2.4-2.3,3.9-1.7
		C100.3,208.6,101.1,210.3,100.5,211.9z"/>
	<path class="st0" d="M90.7,249.1c-1.6-0.7-2.3-2.3-1.7-3.9c0.6-1.5,2.4-2.4,3.9-1.8c1.6,0.6,2.5,2.7,1.8,4.2
		C94.1,249,92.3,249.7,90.7,249.1z"/>
	<path class="st0" d="M108.7,181.8c1.6,0.6,2.3,2.3,1.6,3.9c-0.6,1.5-2.4,2.3-3.9,1.8c-1.6-0.6-2.4-2.7-1.8-4.2
		C105.4,181.8,107.2,181.1,108.7,181.8z"/>
	<path class="st0" d="M115.3,172.5c-0.6,1.5-2.4,2.3-3.9,1.8c-1.5-0.6-2.4-2.6-1.7-4.1c0.7-1.5,2.5-2.2,4-1.5
		C115.2,169.3,115.9,170.9,115.3,172.5z"/>
	<path class="st0" d="M166.4,116.6c-0.6,1.5-2.4,2.3-3.9,1.7c-1.5-0.6-2.3-2.5-1.7-4c0.6-1.5,2.4-2.3,4-1.6
		C166.3,113.3,167,115,166.4,116.6z"/>
	<path class="st0" d="M92.1,265.7c1.6,0.6,2.4,2.2,1.8,3.8c-0.6,1.6-2.3,2.4-3.9,1.8c-1.5-0.5-2.4-2.4-1.8-3.9
		C88.7,266,90.5,265.1,92.1,265.7z"/>
	<path class="st0" d="M135.2,370.9c-1.6-0.6-2.3-2.3-1.7-3.9c0.6-1.5,2.4-2.3,3.9-1.7c1.5,0.6,2.3,2.5,1.7,4
		C138.5,370.8,136.7,371.5,135.2,370.9z"/>
	<path class="st0" d="M99.4,306c1.5,0.5,2.4,2.4,1.9,3.9c-0.5,1.5-2.3,2.4-3.9,1.8c-1.6-0.5-2.4-2.2-1.8-3.8
		C96.2,306.3,97.9,305.5,99.4,306z"/>
	<path class="st0" d="M113.5,337.2c-0.7,1.5-2.5,2.2-4,1.5c-1.5-0.7-2.2-2.6-1.5-4c0.7-1.5,2.5-2.2,4-1.5
		C113.5,334,114.2,335.7,113.5,337.2z"/>
	<path class="st0" d="M105.3,319.1c-0.7,1.5-2.5,2.2-4,1.5c-1.5-0.7-2.2-2.6-1.5-4c0.7-1.5,2.5-2.2,4-1.5
		C105.3,315.9,106,317.6,105.3,319.1z"/>
	<path class="st0" d="M168.1,394.9c0.7-1.5,2.5-2.2,4-1.5c1.5,0.7,2.2,2.6,1.5,4c-0.7,1.5-2.5,2.2-4,1.5
		C168.1,398.2,167.4,396.5,168.1,394.9z"/>
	<path class="st0" d="M104,325.6c0.7-1.5,2.6-2.1,4-1.4c1.4,0.7,2.1,2.6,1.4,4c-0.7,1.5-2.6,2.1-4,1.3
		C103.8,328.9,103.2,327.2,104,325.6z"/>
	<path class="st0" d="M156.3,383.3c-0.6,1.5-2.4,2.3-3.9,1.7c-1.4-0.6-2.3-2.5-1.8-3.9c0.6-1.6,2.5-2.4,4.1-1.7
		C156.3,380.1,157,381.8,156.3,383.3z"/>
	<path class="st0" d="M171.7,114.2c-1.6-0.5-2.4-2.1-1.9-3.8c0.5-1.7,2.4-2.6,4-2c1.4,0.6,2.3,2.5,1.8,3.9
		C175,113.9,173.2,114.7,171.7,114.2z"/>
	<path class="st0" d="M93.7,221.2c1.6,0.6,2.4,2.2,1.8,3.8c-0.5,1.6-2.3,2.4-3.8,1.9c-1.5-0.5-2.4-2.4-1.9-3.9
		C90.4,221.5,92.2,220.7,93.7,221.2z"/>
	<path class="st0" d="M132.6,138.1c1.5,0.6,2.3,2.4,1.7,3.9c-0.6,1.5-2.4,2.2-4,1.6c-1.4-0.6-2.1-2.2-1.6-3.7
		C129.2,138.4,131,137.6,132.6,138.1z"/>
	<path class="st0" d="M97.1,300.8c-0.5,1.6-2.3,2.4-3.9,1.8c-1.5-0.6-2.3-2.4-1.7-3.9c0.6-1.4,2.2-2.2,3.7-1.7
		C96.8,297.5,97.7,299.2,97.1,300.8z"/>
	<path class="st0" d="M120.2,159.3c-0.6,1.5-2.4,2.3-3.9,1.6c-1.4-0.6-2.1-2.3-1.6-3.8c0.5-1.5,2.3-2.4,3.9-1.8
		C120.1,156,120.8,157.8,120.2,159.3z"/>
	<path class="st0" d="M155.7,116.8c1.5,0.6,2.3,2.5,1.6,4c-0.7,1.5-2.5,2.2-4,1.5c-1.4-0.7-2.1-2.3-1.5-3.8
		C152.3,116.9,154.2,116.2,155.7,116.8z"/>
	<path class="st0" d="M89.7,260.6c-0.6,1.5-2.4,2.3-3.9,1.6c-1.5-0.7-2.2-2.4-1.5-3.9c0.6-1.4,2.3-2.1,3.7-1.6
		C89.5,257.2,90.3,259,89.7,260.6z"/>
	<path class="st0" d="M88.7,234.4c1.6,0.5,2.4,2.2,1.8,3.8s-2.3,2.4-3.9,1.8c-1.4-0.6-2.2-2.2-1.8-3.7
		C85.4,234.8,87.2,233.9,88.7,234.4z"/>
	<path class="st0" d="M115.9,342.3c1.5,0.5,2.4,2.3,1.8,3.8c-0.6,1.5-2.3,2.3-3.9,1.7c-1.4-0.6-2.2-2.2-1.7-3.6
		C112.6,342.6,114.3,341.7,115.9,342.3z"/>
	<path class="st0" d="M148.2,124.7c-0.6,1.6-2.4,2.3-3.9,1.6c-1.4-0.6-2.1-2.3-1.5-3.8c0.6-1.5,2.2-2.2,3.7-1.7
		C148,121.4,148.8,123.2,148.2,124.7z"/>
	<path class="st0" d="M143.1,378.3c-0.6,1.5-2.4,2.3-4,1.6c-1.4-0.7-2.1-2.3-1.5-3.8c0.6-1.5,2.2-2.2,3.7-1.7
		C142.9,375,143.7,376.8,143.1,378.3z"/>
	<path class="st0" d="M91.2,288c1.5,0.5,2.3,2.1,1.8,3.6c-0.5,1.6-2.2,2.5-3.8,1.9c-1.5-0.5-2.3-2.1-1.8-3.6
		C87.9,288.3,89.6,287.4,91.2,288z"/>
	<path class="st0" d="M96.3,202.8c-0.6,1.6-2.3,2.4-3.9,1.7c-1.4-0.6-2.2-2.2-1.6-3.7c0.6-1.6,2.4-2.4,3.9-1.7
		C96.1,199.7,96.9,201.4,96.3,202.8z"/>
	<path class="st0" d="M121.8,355.1c-0.5,1.6-2.3,2.4-3.8,1.8c-1.5-0.6-2.2-2.2-1.7-3.7c0.5-1.5,2.1-2.3,3.6-1.9
		C121.4,351.8,122.3,353.5,121.8,355.1z"/>
	<path class="st0" d="M95.8,187.6c0.6-1.6,2.4-2.3,3.9-1.6c1.4,0.6,2.1,2.3,1.5,3.8c-0.6,1.5-2.2,2.2-3.7,1.7
		C96,190.9,95.2,189.1,95.8,187.6z"/>
	<path class="st0" d="M156.6,394c-1.5-0.6-2.3-2.4-1.7-3.9c0.6-1.4,2.3-2.1,3.7-1.6c1.5,0.5,2.2,2.2,1.8,3.7
		C159.9,393.7,158.2,394.5,156.6,394z"/>
	<path class="st0" d="M106.1,176.6c-0.6,1.5-2.2,2.2-3.7,1.6c-1.5-0.6-2.3-2.4-1.7-3.9c0.6-1.5,2.4-2.2,3.9-1.5
		C106.1,173.6,106.7,175.2,106.1,176.6z"/>
	<path class="st0" d="M125.7,364.3c-0.6,1.5-2.2,2.2-3.7,1.6c-1.5-0.6-2.3-2.5-1.6-3.9c0.7-1.4,2.3-2,3.8-1.4
		C125.7,361.2,126.3,362.8,125.7,364.3z"/>
	<path class="st0" d="M81.9,253.1c-1.5-0.5-2.2-2.1-1.7-3.6c0.5-1.5,2.1-2.3,3.5-1.9c1.5,0.5,2.4,2.3,1.8,3.8
		C85,252.9,83.4,253.6,81.9,253.1z"/>
	<path class="st0" d="M84.6,225.5c1.6,0.5,2.3,2,1.8,3.6c-0.5,1.5-2.1,2.3-3.6,1.8c-1.4-0.5-2.3-2.2-1.8-3.6
		C81.4,225.8,83,225,84.6,225.5z"/>
	<path class="st0" d="M176.7,100.9c-1.4-0.5-2.3-2.2-1.8-3.6"/>
	<path class="st0" d="M139.1,128.8c-0.6,1.5-2.1,2.2-3.6,1.7c-1.5-0.5-2.3-2.4-1.7-3.9c0.6-1.4,2.3-2.1,3.7-1.5
		C139,125.7,139.6,127.3,139.1,128.8z"/>
	<path class="st0" d="M158.5,109c-1.4-0.5-2.2-2.4-1.6-3.7c0.6-1.4,2.3-2.1,3.7-1.5c1.4,0.6,2,2,1.5,3.5
		C161.6,108.8,159.9,109.6,158.5,109z"/>
	<path class="st0" d="M162.8,397.6c1.4,0.6,2.1,2.3,1.6,3.7c-0.6,1.4-2.2,2.1-3.7,1.6c-1.5-0.6-2.2-2.1-1.6-3.6
		C159.8,397.8,161.4,397,162.8,397.6z"/>
	<path class="st0" d="M174,407.9c-1.5-0.5-2.3-2-1.8-3.5c0.5-1.6,2.2-2.4,3.8-1.8"/>
	<path class="st0" d="M91.3,216c-0.6,1.5-2.2,2.2-3.6,1.7c-1.5-0.5-2.4-2.4-1.7-3.9c0.6-1.4,2.3-2.1,3.8-1.5
		C91.2,212.9,91.9,214.5,91.3,216z"/>
	<path class="st0" d="M112.5,151.9c-1.4-0.5-2.3-2.2-1.8-3.6c0.5-1.4,2-2.1,3.4-1.7c1.6,0.4,2.4,1.9,1.9,3.5
		C115.5,151.5,113.9,152.3,112.5,151.9z"/>
	<path class="st0" d="M88.9,282.6c-0.5,1.5-2.1,2.2-3.6,1.8c-1.5-0.5-2.3-2-1.9-3.5c0.5-1.6,2.2-2.5,3.8-1.9
		C88.6,279.5,89.4,281.2,88.9,282.6z"/>
	<path class="st0" d="M143.5,389c-1.4-0.5-2.3-2.2-1.8-3.7c0.5-1.5,2.1-2.2,3.6-1.7c1.6,0.5,2.3,2,1.8,3.6
		C146.6,388.7,145,389.5,143.5,389z"/>
	<path class="st0" d="M129.9,373.2c-0.5,1.5-2.1,2.2-3.6,1.7c-1.5-0.5-2.1-1.9-1.7-3.4c0.5-1.5,2-2.4,3.5-2
		C129.5,370,130.4,371.7,129.9,373.2z"/>
	<path class="st0" d="M84.6,273.6c-0.6,1.5-2.2,2.2-3.6,1.6c-1.4-0.6-2.1-2.3-1.6-3.7c0.6-1.4,2.2-2.1,3.7-1.6
		C84.5,270.6,85.2,272.1,84.6,273.6z"/>
	<path class="st0" d="M111,163.4c-0.6,1.5-2.2,2.2-3.6,1.7c-1.5-0.6-2.3-2.4-1.6-3.9c0.6-1.4,2.3-2,3.7-1.4
		C111,160.3,111.6,161.9,111,163.4z"/>
	<path class="st0" d="M169.6,99.6c1.4,0.6,2.1,2.3,1.6,3.7c-0.6,1.4-2.2,2.1-3.7,1.5c-1.5-0.6-2.2-2.1-1.6-3.6
		C166.5,99.8,168.2,99,169.6,99.6z"/>
	<path class="st0" d="M125.2,146c-0.5,1.5-2.1,2.2-3.6,1.7c-1.5-0.5-2.3-2-1.9-3.6c0.5-1.6,2.2-2.5,3.8-1.9
		C124.9,142.9,125.7,144.6,125.2,146z"/>
	<path class="st0" d="M96.6,333.6c-1.5-0.6-2.1-2.2-1.5-3.7c0.6-1.3,2.1-2,3.5-1.5c1.4,0.5,2.2,2.3,1.7,3.7
		C99.7,333.5,98,334.2,96.6,333.6z"/>
	<path class="st0" d="M106.9,346.6c1.4,0.6,2.1,2.5,1.5,3.8c-0.6,1.3-2.2,1.9-3.6,1.3c-1.5-0.6-2.1-2.2-1.4-3.7
		C104,346.7,105.6,346,106.9,346.6z"/>
	<path class="st0" d="M80.6,264.4c-0.4,1.4-2,2.2-3.4,1.8c-1.6-0.4-2.4-2-1.9-3.5c0.5-1.4,2-2.2,3.4-1.8
		C80.1,261.2,81,263,80.6,264.4z"/>
	<path class="st0" d="M93.5,182.2c-1.5-0.6-2.2-2.1-1.6-3.6c0.5-1.4,2.1-2.1,3.4-1.7c1.4,0.4,2.3,2.2,1.8,3.6
		C96.6,182,94.9,182.7,93.5,182.2z"/>
	<path class="st0" d="M104.3,341c-0.5,1.5-2.1,2.3-3.6,1.8c-1.4-0.5-2.2-2.3-1.7-3.7c0.5-1.3,2-2.1,3.4-1.6
		C104.1,338,104.9,339.5,104.3,341z"/>
	<path class="st0" d="M81.2,242.4c-0.6,1.3-2.2,2-3.5,1.5c-1.4-0.5-2.2-2.4-1.6-3.7c0.6-1.4,2.4-2,3.8-1.4
		C81.3,239.5,81.8,241,81.2,242.4z"/>
	<path class="st0" d="M83.5,208.5c-1.4-0.5-2.1-2-1.6-3.4c0.5-1.5,2.2-2.3,3.6-1.8c1.4,0.5,2.2,2.4,1.6,3.8
		C86.5,208.4,84.9,209,83.5,208.5z"/>
	<path class="st0" d="M153,111.6c-0.6,1.4-2.4,2-3.8,1.3c-1.4-0.7-1.9-2.1-1.3-3.5c0.6-1.3,2.2-2,3.5-1.5
		C152.8,108.4,153.6,110.3,153,111.6z"/>
	<path class="st0" d="M86.4,301.4c1.4,0.6,2,2.1,1.5,3.5c-0.6,1.5-2.3,2.2-3.7,1.6c-1.3-0.6-2-2.3-1.5-3.5
		C83.2,301.5,84.9,300.8,86.4,301.4z"/>
	<path class="st0" d="M130,132.9c-0.5,1.4-2.2,2.1-3.7,1.6c-1.4-0.6-2.1-2-1.6-3.4c0.5-1.5,2.1-2.3,3.6-1.8
		C129.7,129.7,130.5,131.5,130,132.9z"/>
	<path class="st0" d="M90.5,310.3c1.4,0.6,2.1,2.4,1.5,3.7c-0.6,1.4-2.3,2-3.8,1.4c-1.4-0.6-2-2-1.4-3.5
		C87.4,310.5,89.1,309.8,90.5,310.3z"/>
	<path class="st0" d="M88.5,195.4c-1.5-0.5-2.2-2.1-1.6-3.6c0.5-1.4,2-2.1,3.4-1.7c1.4,0.4,2.3,2.2,1.8,3.6
		C91.7,195.1,90,195.9,88.5,195.4z"/>
	<path class="st0" d="M96.1,323c-0.5,1.5-2.2,2.3-3.6,1.7c-1.4-0.5-2.1-2.4-1.6-3.7c0.5-1.3,2.1-2,3.5-1.5
		C95.9,319.9,96.7,321.4,96.1,323z"/>
	<path class="st0" d="M133.9,382.3c-0.5,1.3-2,2.1-3.4,1.7c-1.4-0.4-2.3-2.2-1.7-3.6c0.5-1.4,2.3-2.1,3.7-1.5
		C133.8,379.4,134.4,380.9,133.9,382.3z"/>
	<path class="st0" d="M176.5,413.3"/>
	<path class="st0" d="M149.5,392.7c1.4,0.5,2.2,2.3,1.6,3.7c-0.5,1.3-2.1,2-3.5,1.5c-1.4-0.5-2.1-1.9-1.7-3.3
		C146.4,393,148.1,392.2,149.5,392.7z"/>
	<path class="st0" d="M98.3,168.9c-1.4-0.6-2-2-1.5-3.4c0.5-1.5,2.2-2.2,3.6-1.6c1.3,0.5,2,2.2,1.5,3.5
		C101.4,168.8,99.7,169.6,98.3,168.9z"/>
	<path class="st0" d="M79.6,286.6c-0.5,1.4-2,2.2-3.4,1.7c-1.4-0.5-2.1-2-1.7-3.4c0.5-1.4,2-2.1,3.4-1.7
		C79.3,283.7,80.1,285.3,79.6,286.6z"/>
	<path class="st0" d="M168.4,410.2c-0.5,1.4-2,2.1-3.4,1.7c-1.4-0.5-2.2-2.3-1.6-3.7c0.6-1.3,2.2-2,3.5-1.4
		C168.2,407.4,168.9,408.9,168.4,410.2z"/>
	<path class="st0" d="M80.2,297.4c-1.4-0.6-2-2-1.5-3.5c0.5-1.4,2.1-2.1,3.4-1.7c1.4,0.5,2.2,2.3,1.6,3.7
		C83.1,297.3,81.5,297.9,80.2,297.4z"/>
	<path class="st0" d="M76.3,255.4c-0.5,1.4-2,2.1-3.4,1.6c-1.4-0.5-2.1-2.1-1.6-3.4s2-2.1,3.4-1.6C76.1,252.5,76.8,254,76.3,255.4z"
		/>
	<path class="st0" d="M120.8,136.9c-0.5,1.4-2,2.1-3.4,1.7c-1.4-0.5-2.2-2.3-1.6-3.6c0.6-1.3,2.2-2,3.5-1.4
		C120.7,134,121.3,135.5,120.8,136.9z"/>
	<path class="st0" d="M82.1,220.1c-0.5,1.3-2.1,2-3.5,1.5c-1.5-0.6-2.2-2.2-1.5-3.7c0.6-1.3,2.2-2,3.5-1.4
		C81.9,217.2,82.6,218.9,82.1,220.1z"/>
	<path class="st0" d="M103.4,155.8c-1.4-0.5-2.1-2-1.6-3.4c0.5-1.5,2.2-2.2,3.6-1.6c1.3,0.6,2,2.2,1.5,3.5
		C106.3,155.6,104.7,156.3,103.4,155.8z"/>
	<path class="st0" d="M112.5,359.1c-0.5,1.4-2,2.2-3.4,1.8c-1.4-0.4-2.3-2.2-1.8-3.6c0.5-1.3,2.1-2,3.5-1.6
		C112.3,356.2,113,357.7,112.5,359.1z"/>
	<path class="st0" d="M77.2,233.1c-0.5,1.4-2,2.2-3.4,1.7c-1.4-0.5-2.1-2-1.7-3.4c0.5-1.4,2-2.2,3.4-1.7
		C76.8,230.2,77.6,231.8,77.2,233.1z"/>
	<path class="st0" d="M114.9,364.8c1.4,0.4,2.2,2,1.7,3.4c-0.4,1.4-2,2.2-3.4,1.7s-2.2-2-1.7-3.4
		C111.9,365.1,113.5,364.3,114.9,364.8z"/>
	<path class="st0" d="M142.4,112.1c1.4,0.6,2,2.1,1.5,3.5c-0.5,1.4-2.1,2.1-3.5,1.6c-1.4-0.5-2.2-2.4-1.6-3.7
		C139.4,112.2,141.1,111.5,142.4,112.1z"/>
	<path class="st0" d="M155.2,405.3c-0.5,1.4-2,2.1-3.4,1.6c-1.4-0.5-2.1-2-1.6-3.4c0.5-1.4,2-2.1,3.4-1.6
		C155,402.4,155.7,403.9,155.2,405.3z"/>
	<path class="st0" d="M131.3,121.2c-1.3-0.6-2-2.1-1.4-3.5c0.6-1.4,2.1-2,3.5-1.4c1.4,0.6,2,2.1,1.4,3.5
		C134.2,121.1,132.6,121.7,131.3,121.2z"/>
	<path class="st0" d="M136.5,387.9c1.4,0.6,2,2.1,1.4,3.5c-0.6,1.3-2.2,2-3.5,1.4c-1.3-0.6-2-2.2-1.4-3.5
		C133.6,388,135.1,387.4,136.5,387.9z"/>
	<path class="st0" d="M82.9,197.8c-0.5,1.4-2.1,2-3.5,1.5c-1.3-0.5-1.9-1.9-1.5-3.2c0.5-1.4,2-2.2,3.4-1.7
		C82.7,194.9,83.4,196.5,82.9,197.8z"/>
	<path class="st0" d="M175.9,90c-0.5,1.4-2.1,2.1-3.4,1.5c-1.3-0.5-2-2.2-1.4-3.5c0.5-1.2,2-1.9,3.3-1.4
		C175.7,87.1,176.4,88.6,175.9,90z"/>
	<path class="st0" d="M125.7,123.8c-0.5,1.4-2.1,2-3.5,1.3c-1.3-0.6-1.8-2-1.3-3.3c0.5-1.3,2-1.9,3.2-1.5
		C125.5,120.8,126.2,122.5,125.7,123.8z"/>
	<path class="st0" d="M72.2,279.2c-1.4-0.4-2.2-2-1.7-3.4c0.5-1.4,2-2.1,3.4-1.6c1.3,0.5,2,1.8,1.6,3.2
		C75,278.9,73.5,279.7,72.2,279.2z"/>
	<path class="st0" d="M81.3,314.6c1.3,0.5,2,2.2,1.4,3.5c-0.6,1.2-2,1.8-3.3,1.3c-1.4-0.5-2-2-1.4-3.4
		C78.6,314.8,80,314.1,81.3,314.6z"/>
	<path class="st0" d="M87.7,337.6c-1.3-0.5-2-1.8-1.6-3.1c0.4-1.4,1.9-2.2,3.3-1.7c1.3,0.5,2.1,2.1,1.5,3.4
		C90.4,337.4,89,338,87.7,337.6z"/>
	<path class="st0" d="M120.6,377.3c-0.5,1.3-2,2-3.4,1.5c-1.3-0.5-1.9-1.8-1.5-3.2c0.5-1.4,2-2.2,3.3-1.7
		C120.4,374.4,121.1,376,120.6,377.3z"/>
	<path class="st0" d="M86.8,327c-0.5,1.4-2,2.1-3.4,1.6c-1.2-0.5-1.9-2-1.5-3.3c0.5-1.4,2-2.1,3.4-1.5
		C86.7,324.3,87.3,325.6,86.8,327z"/>
	<path class="st0" d="M111.7,140.9c-0.5,1.4-2,2.1-3.4,1.6c-1.3-0.5-2-2.1-1.5-3.4c0.5-1.2,1.9-1.9,3.2-1.5
		C111.4,138.1,112.2,139.5,111.7,140.9z"/>
	<path class="st0" d="M87.8,184.6c-0.5,1.4-2,2.1-3.4,1.5c-1.3-0.5-2-1.8-1.5-3.2c0.4-1.4,1.9-2.2,3.3-1.7
		C87.6,181.7,88.3,183.3,87.8,184.6z"/>
	<path class="st0" d="M92.7,171.5c-0.5,1.4-2,2-3.4,1.5c-1.3-0.5-1.9-1.8-1.5-3.2c0.5-1.4,2-2.2,3.3-1.7
		C92.5,168.6,93.2,170.2,92.7,171.5z"/>
	<path class="st0" d="M72,246.4c-0.5,1.3-2,1.9-3.2,1.5c-1.3-0.5-2.1-2.1-1.5-3.4c0.5-1.4,2.1-2,3.5-1.3
		C72,243.8,72.6,245.1,72,246.4z"/>
	<path class="st0" d="M77.9,210.9c-0.5,1.4-2,2.1-3.4,1.6c-1.3-0.5-2-1.8-1.6-3.1c0.4-1.4,1.9-2.2,3.2-1.8
		C77.6,208,78.4,209.5,77.9,210.9z"/>
	<path class="st0" d="M166.9,94c-0.5,1.4-2,2.1-3.4,1.6c-1.3-0.5-2-1.8-1.6-3.1c0.4-1.4,1.9-2.3,3.3-1.8
		C166.6,91.1,167.4,92.7,166.9,94z"/>
	<path class="st0" d="M172.4,419.3c-0.5,1.3-1.9,2-3.1,1.6c-1.4-0.4-2.2-2-1.7-3.4c0.5-1.4,2.1-2,3.4-1.5
		C172.3,416.6,172.9,417.9,172.4,419.3z"/>
	<path class="st0" d="M156.4,95c1.4,0.6,1.9,2.1,1.3,3.5c-0.6,1.2-2,1.8-3.2,1.4c-1.3-0.5-2-2.1-1.5-3.4C153.5,95,155,94.4,156.4,95
		z"/>
	<path class="st0" d="M97.6,158.4c-0.6,1.3-2.1,1.9-3.5,1.2c-1.3-0.6-1.8-2-1.2-3.3c0.5-1.2,2-1.9,3.2-1.4
		C97.4,155.4,98.2,157.1,97.6,158.4z"/>
	<path class="st0" d="M145.4,103.8c-1.3-0.5-1.9-1.8-1.5-3.1c0.5-1.4,2-2.1,3.3-1.6c1.2,0.5,1.9,2,1.5,3.2
		C148.3,103.6,146.8,104.3,145.4,103.8z"/>
	<path class="st0" d="M138.8,401.8c-1.4-0.4-2-1.7-1.6-3.1c0.4-1.4,1.9-2.2,3.2-1.8c1.3,0.4,2.1,2.1,1.6,3.4
		C141.5,401.6,140.1,402.2,138.8,401.8z"/>
	<path class="st0" d="M71.4,220.8c1.3,0.5,2,2.2,1.4,3.5c-0.5,1.2-2,1.8-3.3,1.3c-1.4-0.5-2-2-1.4-3.4
		C68.8,220.9,70.2,220.3,71.4,220.8z"/>
	<path class="st0" d="M78.6,308.8c-0.5,1.4-2,2.1-3.4,1.6c-1.2-0.5-1.9-2-1.5-3.2c0.5-1.3,2-2,3.4-1.5
		C78.5,306.2,79.1,307.5,78.6,308.8z"/>
	<path class="st0" d="M71.2,268.6c-0.5,1.2-1.9,1.9-3.2,1.5c-1.5-0.5-2.1-1.9-1.6-3.3c0.5-1.3,1.9-2,3.1-1.5
		C71,265.6,71.7,267.3,71.2,268.6z"/>
	<path class="st0" d="M91.8,346.7c-1.3-0.4-2.1-2.1-1.6-3.4c0.5-1.2,1.9-1.9,3.2-1.5c1.3,0.5,2,1.7,1.6,3.1
		C94.7,346.3,93.2,347.1,91.8,346.7z"/>
	<path class="st0" d="M146,409.3c-0.5,1.3-1.9,2-3.2,1.5c-1.2-0.5-1.9-2.1-1.4-3.3c0.5-1.2,1.8-1.8,3-1.4
		C145.7,406.6,146.4,407.9,146,409.3z"/>
	<path class="st0" d="M72.1,198.7c1.3,0.5,2,1.8,1.5,3.1c-0.5,1.3-1.9,2-3.1,1.6c-1.2-0.4-2-2-1.6-3.2
		C69.4,199,70.8,198.3,72.1,198.7z"/>
	<path class="st0" d="M136.3,107.9c-1.1-0.5-1.9-2.1-1.5-3.2c0.5-1.4,2.1-2,3.4-1.4c1.3,0.6,1.8,1.9,1.2,3.2
		C139,107.8,137.5,108.4,136.3,107.9z"/>
	<path class="st0" d="M67,259.4c-0.5,1.3-1.9,2-3.2,1.6c-1.2-0.4-2-2-1.5-3.2c0.4-1.2,1.9-1.9,3.2-1.5
		C66.9,256.8,67.5,258.1,67,259.4z"/>
	<path class="st0" d="M129.1,107.3c1.2,0.5,1.9,2.1,1.4,3.3c-0.5,1.3-2,1.9-3.3,1.3c-1.2-0.5-1.8-1.8-1.3-3
		C126.3,107.6,127.8,106.8,129.1,107.3z"/>
	<path class="st0" d="M159.2,414.2c-0.5,1.3-1.8,2-3.1,1.7c-1.3-0.4-2.1-2.1-1.6-3.4c0.5-1.2,1.9-1.9,3.2-1.4
		C159,411.6,159.6,412.9,159.2,414.2z"/>
	<path class="st0" d="M116.5,127.7c-0.4,1.3-1.8,2-3.1,1.7c-1.3-0.4-2.1-2.1-1.6-3.4c0.5-1.2,1.9-1.9,3.2-1.4
		C116.4,125.1,117,126.4,116.5,127.7z"/>
	<path class="st0" d="M125.6,396.8c-1.3-0.5-2-1.8-1.5-3.1c0.5-1.3,1.9-2,3.1-1.5c1.2,0.4,1.9,2,1.5,3.2
		C128.3,396.5,126.8,397.2,125.6,396.8z"/>
	<path class="st0" d="M78.6,188.8c-0.5,1.3-2,1.9-3.2,1.4c-1.2-0.5-1.9-2.1-1.4-3.3c0.5-1.2,2-1.9,3.2-1.4
		C78.5,186.1,79.1,187.4,78.6,188.8z"/>
	<path class="st0" d="M121.5,387.8c-1.2-0.4-2-1.9-1.6-3.2c0.4-1.3,1.8-2,3.1-1.7c1.5,0.4,2.2,1.8,1.7,3.3
		C124.1,387.6,122.7,388.3,121.5,387.8z"/>
	<path class="st0" d="M102.6,145.1c-0.4,1.2-1.9,1.9-3.1,1.5c-1.4-0.4-2-1.7-1.6-3c0.4-1.4,1.9-2.2,3.3-1.7
		C102.3,142.3,103,143.9,102.6,145.1z"/>
	<path class="st0" d="M101.7,360c1.3,0.5,2,1.8,1.5,3.1c-0.4,1.3-1.8,2-3.1,1.6c-1.3-0.4-2.1-2.1-1.6-3.4
		C99,360.2,100.4,359.6,101.7,360z"/>
	<path class="st0" d="M97.6,350.9c1.2,0.4,2,1.9,1.7,3.1c-0.4,1.3-1.7,2.1-3.1,1.7c-1.5-0.4-2.3-1.8-1.8-3.2
		C94.9,351.2,96.3,350.5,97.6,350.9z"/>
	<path class="st0" d="M104.1,373.7c-1.3-0.5-1.9-1.9-1.4-3.2c0.5-1.3,2-1.9,3.2-1.4c1.2,0.5,1.9,2.1,1.4,3.2
		C106.8,373.6,105.4,374.2,104.1,373.7z"/>
	<path class="st0" d="M83.5,175.6c-0.5,1.2-2,1.9-3.2,1.4c-1.2-0.5-1.8-2.1-1.4-3.2c0.5-1.2,2-1.8,3.2-1.3
		C83.4,172.9,84,174.3,83.5,175.6z"/>
	<path class="st0" d="M67.2,292.3c-1.2-0.4-2-2-1.5-3.2c0.4-1.2,1.9-1.9,3.2-1.5c1.3,0.5,2,1.8,1.5,3.1
		C69.8,292,68.4,292.7,67.2,292.3z"/>
	<path class="st0" d="M67.9,237.3c-0.5,1.2-2,1.9-3.2,1.4c-1.3-0.5-1.9-1.9-1.4-3.2c0.5-1.3,2-1.9,3.2-1.4
		C67.7,234.5,68.4,236.1,67.9,237.3z"/>
	<path class="st0" d="M71.4,301.3c-1.3-0.4-2-1.7-1.6-3.1c0.4-1.4,2-2.2,3.3-1.7c1.2,0.5,1.9,2,1.5,3.2
		C74.1,301,72.7,301.7,71.4,301.3z"/>
	<path class="st0" d="M88.5,162.2c-0.4,1.3-1.8,2-3.1,1.6c-1.2-0.4-2-2-1.5-3.2c0.4-1.1,1.8-1.8,3-1.5
		C88.2,159.6,88.9,160.9,88.5,162.2z"/>
	<path class="st0" d="M68.7,214.9c-0.4,1.3-1.8,2-3.1,1.6c-1.2-0.4-2-2-1.5-3.2c0.4-1.2,1.8-1.8,3-1.5
		C68.4,212.2,69.1,213.6,68.7,214.9z"/>
	<path class="st0" d="M176.4,428.4c-0.5,1.2-2,1.8-3.3,1.2c-1.3-0.6-1.8-2-1.1-3.3c0.6-1.1,2-1.7,3.1-1.2"/>
	<path class="st0" d="M163.2,423.3c-0.5,1.3-1.9,1.9-3.2,1.4c-1.2-0.5-1.7-1.8-1.3-3c0.5-1.3,1.9-1.9,3.2-1.4
		C163,420.8,163.6,422.1,163.2,423.3z"/>
	<path class="st0" d="M159.4,86.4c-1.1-0.5-1.8-1.9-1.4-3c0.5-1.3,2-1.9,3.2-1.4c1.3,0.5,1.8,2,1.2,3.3
		C161.9,86.3,160.5,86.9,159.4,86.4z"/>
	<path class="st0" d="M153.5,89.2c-0.5,1.3-2,1.8-3.2,1.2c-1.1-0.5-1.6-1.9-1.2-3.1c0.5-1.3,2-1.8,3.2-1.2
		C153.4,86.7,153.9,88,153.5,89.2z"/>
	<path class="st0" d="M176.1,75.2"/>
	<path class="st0" d="M120,111.5c1.3,0.5,1.9,1.9,1.4,3.2c-0.5,1.1-1.8,1.7-3,1.3c-1.2-0.4-1.8-1.7-1.5-2.9
		C117.3,111.8,118.7,111.1,120,111.5z"/>
	<path class="st0" d="M109.8,378.2c1.3,0.4,2,1.8,1.5,3.1c-0.5,1.2-1.8,1.8-3,1.4c-1.3-0.4-2-1.8-1.5-3.1
		C107.3,378.5,108.7,377.8,109.8,378.2z"/>
	<path class="st0" d="M66.1,281.8c-0.5,1.3-2,1.8-3.3,1.2c-1.1-0.6-1.7-1.9-1.2-3.1c0.5-1.2,1.8-1.8,3-1.4
		C65.9,279,66.6,280.5,66.1,281.8z"/>
	<path class="st0" d="M107.4,132c-0.5,1.3-2,1.9-3.3,1.2c-1.2-0.5-1.7-1.9-1.2-3.1c0.5-1.2,1.8-1.8,3-1.4
		C107.2,129.2,107.9,130.7,107.4,132z"/>
	<path class="st0" d="M93.4,149.1c-0.4,1.3-1.9,2-3.1,1.5c-1.2-0.5-1.8-1.8-1.4-3c0.4-1.2,1.7-1.9,2.9-1.6
		C93.1,146.4,93.8,147.8,93.4,149.1z"/>
	<path class="st0" d="M59.7,251.8c-1.3-0.5-1.9-2-1.3-3.2c0.5-1.1,1.9-1.7,3-1.2c1.1,0.5,1.8,1.8,1.4,3
		C62.4,251.6,61,252.3,59.7,251.8z"/>
	<path class="st0" d="M171.7,80.9c-0.4,1.2-1.7,1.9-3,1.5c-1.3-0.4-2.1-1.8-1.6-3.1c0.5-1.3,2-2,3.2-1.5
		C171.4,78.3,172.1,79.7,171.7,80.9z"/>
	<path class="st0" d="M77.6,331c-0.4,1.2-1.8,1.8-3,1.5c-1.3-0.4-2-1.9-1.4-3.2c0.5-1.2,1.9-1.7,3-1.3C77.4,328.5,78,329.8,77.6,331
		z"/>
	<path class="st0" d="M80.3,337.1c1.2,0.4,1.8,1.8,1.5,2.9c-0.4,1.3-1.9,2-3.2,1.5c-1.2-0.5-1.8-1.8-1.3-3
		C77.8,337.3,79.1,336.6,80.3,337.1z"/>
	<path class="st0" d="M132.7,404.4c-0.5,1.2-1.8,1.8-3,1.3c-1.2-0.5-1.8-1.7-1.4-3c0.5-1.3,1.9-2,3.2-1.4
		C132.6,401.9,133.2,403.3,132.7,404.4z"/>
	<path class="st0" d="M63.7,228.1c-0.4,1.2-1.8,1.8-3,1.4c-1.2-0.4-1.9-1.7-1.5-2.9c0.4-1.3,1.9-2,3.1-1.5
		C63.5,225.6,64.1,227,63.7,228.1z"/>
	<path class="st0" d="M69.3,313c-0.5,1.2-1.9,1.8-3,1.2c-1.1-0.5-1.7-1.9-1.2-3.1c0.5-1.2,1.9-1.7,3.1-1.2
		C69.3,310.5,69.8,311.8,69.3,313z"/>
	<path class="st0" d="M69.4,192.7c-0.4,1.2-1.7,1.9-2.9,1.5c-1.1-0.4-1.8-1.8-1.5-2.9c0.4-1.2,1.7-1.8,2.9-1.4
		C69.2,190.2,69.8,191.4,69.4,192.7z"/>
	<path class="st0" d="M110.8,115.8c1.2,0.4,1.8,1.7,1.4,2.9c-0.4,1.2-1.8,1.8-2.9,1.4c-1.1-0.4-1.8-1.8-1.4-3
		C108.3,115.9,109.6,115.3,110.8,115.8z"/>
	<path class="st0" d="M115.4,390.3c-0.4,1.2-1.8,1.9-2.9,1.5c-1.2-0.4-1.8-1.8-1.4-3c0.4-1.2,1.7-1.8,3-1.4
		C115.2,387.8,115.8,389,115.4,390.3z"/>
	<path class="st0" d="M149.9,418.3c-0.5,1.2-1.8,1.8-3,1.4c-1.2-0.4-1.8-1.8-1.4-3c0.4-1.2,1.8-1.8,3-1.3
		C149.8,415.8,150.4,417.1,149.9,418.3z"/>
	<path class="st0" d="M85.7,349.2c-0.5,1.2-1.8,1.8-3,1.4s-1.8-1.8-1.3-3c0.4-1.2,1.8-1.8,3-1.3C85.7,346.7,86.2,348,85.7,349.2z"/>
	<path class="st0" d="M76.3,167.8c-1.1-0.4-1.8-1.8-1.3-3c0.4-1.2,1.8-1.8,3-1.3c1.2,0.5,1.8,1.7,1.3,2.9
		C78.8,167.6,77.5,168.2,76.3,167.8z"/>
	<path class="st0" d="M87,359.6c-1.3-0.4-1.9-1.6-1.5-2.9c0.4-1.2,1.7-1.9,2.9-1.5c1.1,0.4,1.8,1.8,1.5,2.9
		C89.5,359.3,88.2,360,87,359.6z"/>
	<path class="st0" d="M98.3,135.8c-0.4,1.2-1.7,1.9-2.9,1.5c-1.3-0.4-1.9-1.6-1.5-2.9c0.4-1.2,1.7-1.9,2.9-1.5
		C97.9,133.3,98.7,134.7,98.3,135.8z"/>
	<path class="st0" d="M72,319c1.2,0.4,1.9,1.8,1.5,2.9c-0.4,1.2-1.7,1.9-2.9,1.5c-1.3-0.4-1.9-1.6-1.5-2.9
		C69.5,319.2,70.8,318.6,72,319z"/>
	<path class="st0" d="M59,274c-1.3-0.4-1.9-1.7-1.4-2.9c0.4-1.2,1.8-1.9,2.9-1.5c1.2,0.4,1.8,1.8,1.4,3
		C61.6,273.7,60.3,274.4,59,274z"/>
	<path class="st0" d="M144.4,93.2c-0.4,1.2-1.8,1.8-3,1.3c-1.2-0.5-1.8-1.7-1.3-3c0.5-1.2,1.8-1.8,3-1.4
		C144.2,90.6,144.8,92,144.4,93.2z"/>
	<path class="st0" d="M74.3,179.5c-0.4,1.2-1.7,1.9-2.9,1.5c-1.1-0.4-1.8-1.8-1.5-2.9c0.4-1.2,1.7-1.8,2.9-1.4
		C74.1,177.1,74.7,178.3,74.3,179.5z"/>
	<path class="st0" d="M57.4,238.4c1.1,0.5,1.7,1.9,1.3,3c-0.5,1.1-1.9,1.7-3.1,1.1c-1.1-0.5-1.6-1.6-1.1-2.8
		C54.9,238.5,56.2,237.9,57.4,238.4z"/>
	<path class="st0" d="M82.8,150.4c1.2,0.5,1.8,1.7,1.3,2.9c-0.4,1.1-1.6,1.7-2.7,1.3c-1.1-0.3-1.9-1.8-1.5-2.9
		C80.3,150.6,81.7,149.9,82.8,150.4z"/>
	<path class="st0" d="M176.2,435.6"/>
	<path class="st0" d="M167.2,432.3c-0.4,1.2-1.7,1.8-2.9,1.3c-1.1-0.4-1.7-1.5-1.4-2.7c0.4-1.2,1.6-2,2.8-1.6
		C166.9,429.7,167.6,431.1,167.2,432.3z"/>
	<path class="st0" d="M153.9,427.5c-0.5,1.1-1.9,1.6-3,1c-1.1-0.5-1.5-1.7-1-2.8c0.5-1,1.7-1.6,2.8-1.2
		C153.7,424.9,154.4,426.4,153.9,427.5z"/>
	<path class="st0" d="M93.9,367.3c-0.5,1.2-1.8,1.8-3,1.3c-1.1-0.5-1.7-2-1.2-3.1c0.5-1,1.7-1.5,2.8-1.2
		C93.8,364.8,94.4,366,93.9,367.3z"/>
	<path class="st0" d="M96.7,373.4c1.1,0.4,1.8,1.9,1.3,3c-0.4,1-1.7,1.6-2.8,1.2c-1.1-0.4-1.7-1.5-1.4-2.7
		C94.2,373.7,95.5,373,96.7,373.4z"/>
	<path class="st0" d="M101.9,119.9c1.1,0.5,1.6,2,1.1,3c-0.5,1-1.8,1.4-2.9,1c-1.2-0.5-1.6-1.8-1-3
		C99.6,120,100.9,119.5,101.9,119.9z"/>
	<path class="st0" d="M132.4,98.7c-1.1-0.4-1.8-1.9-1.4-3c0.5-1.2,1.8-1.7,3-1.2c1.1,0.5,1.6,1.6,1.3,2.8
		C134.9,98.4,133.5,99.1,132.4,98.7z"/>
	<path class="st0" d="M118.2,396.5c1.1,0.5,1.7,2,1.2,3.1c-0.5,1-1.8,1.5-2.9,1c-1.2-0.5-1.7-1.8-1.1-3
		C115.9,396.6,117.2,396.1,118.2,396.5z"/>
	<path class="st0" d="M126.2,101.5c-0.5,1.1-1.9,1.7-3,1.1c-1.1-0.5-1.5-1.7-1-2.8c0.5-1.1,1.7-1.7,2.8-1.3
		C125.9,98.9,126.6,100.4,126.2,101.5z"/>
	<path class="st0" d="M136.6,413.5c-0.5,1.2-1.9,1.7-3,1.2c-1.1-0.5-1.6-2-1-3.1c0.5-1,1.8-1.5,2.9-1
		C136.7,411,137.2,412.3,136.6,413.5z"/>
	<path class="st0" d="M58.2,216.3c1.1,0.5,1.6,1.6,1.1,2.8c-0.5,1.2-1.9,1.8-3,1.3c-1-0.5-1.6-1.8-1.2-2.8
		C55.6,216.3,57.1,215.8,58.2,216.3z"/>
	<path class="st0" d="M57.8,263.4c-0.4,1.2-1.7,1.9-2.9,1.4c-1.1-0.4-1.8-1.9-1.3-3c0.4-1,1.6-1.6,2.7-1.3
		C57.6,261,58.2,262.2,57.8,263.4z"/>
	<path class="st0" d="M61.4,207.3c-1.1-0.4-1.8-1.9-1.3-3c0.5-1.2,1.9-1.7,3.1-1.2c1.1,0.5,1.6,1.6,1.2,2.8
		C63.9,207.1,62.6,207.7,61.4,207.3z"/>
	<path class="st0" d="M58.1,296.1c-1.1-0.4-1.7-1.9-1.3-3c0.5-1.1,1.9-1.7,3-1.1c1.1,0.5,1.6,1.6,1.2,2.8
		C60.6,296,59.3,296.6,58.1,296.1z"/>
	<path class="st0" d="M63.9,300.9c1.1,0.4,1.8,1.9,1.3,3c-0.5,1.2-1.9,1.7-3,1.2c-1.1-0.5-1.6-1.6-1.2-2.8
		C61.4,301.1,62.7,300.5,63.9,300.9z"/>
	<path class="st0" d="M155.4,77.2c-1-0.4-1.7-1.7-1.3-2.8c0.4-1.2,1.8-1.8,2.9-1.3c1.1,0.5,1.6,1.7,1.1,2.8
		C157.8,77,156.5,77.6,155.4,77.2z"/>
	<path class="st0" d="M167.3,71.8c-0.4,1-1.7,1.6-2.8,1.2c-1.2-0.5-1.8-1.8-1.2-3c0.5-1,1.8-1.5,2.8-1.1
		C167.1,69.4,167.7,70.8,167.3,71.8z"/>
	<path class="st0" d="M89.1,139.9c-0.4,1.1-1.6,1.8-2.6,1.5c-1.1-0.3-1.9-1.8-1.4-2.9c0.4-1.1,1.7-1.6,2.8-1.2
		C88.9,137.7,89.4,138.8,89.1,139.9z"/>
	<path class="st0" d="M175,64.9c1.1,0.4,1.7,1.5,1.3,2.7c-0.4,1.1-1.6,1.8-2.7,1.5c-1.1-0.3-1.9-1.8-1.4-2.9
		C172.7,65,173.9,64.5,175,64.9z"/>
	<path class="st0" d="M54,286.9c-1.1-0.5-1.6-1.6-1.2-2.8c0.4-1.1,1.6-1.7,2.7-1.3c1.1,0.4,1.8,1.9,1.3,3
		C56.4,286.9,55.1,287.4,54,286.9z"/>
	<path class="st0" d="M99.3,386.7c-1-0.3-1.7-1.7-1.4-2.7c0.3-1.1,1.5-1.7,2.7-1.4c1.3,0.3,1.9,1.6,1.5,2.8
		C101.6,386.4,100.4,387,99.3,386.7z"/>
	<path class="st0" d="M53.6,254.4c-0.4,1.1-1.6,1.7-2.7,1.4c-1.1-0.3-1.8-1.5-1.5-2.6c0.3-1.2,1.7-1.9,2.9-1.5
		C53.3,252,54,253.3,53.6,254.4z"/>
	<path class="st0" d="M53.1,229.4c1.1,0.4,1.7,1.5,1.3,2.7c-0.4,1.1-1.6,1.8-2.7,1.5c-1.1-0.3-1.9-1.8-1.4-2.9
		C50.8,229.6,52,229,53.1,229.4z"/>
	<path class="st0" d="M140.7,422.4c-0.4,1.1-1.6,1.6-2.7,1.2c-1.1-0.4-1.6-1.6-1.2-2.7c0.4-1.1,1.6-1.6,2.7-1.2
		C140.5,420.1,141.1,421.3,140.7,422.4z"/>
	<path class="st0" d="M123.4,408.5c-0.5,1.1-1.8,1.6-2.8,1.1c-1-0.5-1.5-1.9-1.1-2.9c0.5-1,1.8-1.5,2.9-1.1
		C123.4,406.2,123.8,407.4,123.4,408.5z"/>
	<path class="st0" d="M72.4,344.1c-0.4,1.1-1.6,1.7-2.7,1.2c-1.1-0.4-1.6-1.7-1.2-2.7c0.4-1.1,1.6-1.6,2.7-1.2
		C72.3,341.8,72.8,343,72.4,344.1z"/>
	<path class="st0" d="M67,332.3c1.1,0.3,1.7,1.6,1.4,2.7c-0.4,1.1-1.5,1.7-2.6,1.3c-1.1-0.3-1.7-1.5-1.4-2.7
		C64.7,332.6,65.9,332,67,332.3z"/>
	<path class="st0" d="M64.1,326.1c-0.5,1.1-1.7,1.5-2.8,1.1c-1-0.5-1.6-1.8-1.1-2.8c0.5-1,1.8-1.5,2.8-1.1
		C64.1,323.8,64.6,325.1,64.1,326.1z"/>
	<path class="st0" d="M52.7,276.5c-0.3,1.1-1.6,1.8-2.6,1.4c-1.1-0.3-1.7-1.6-1.4-2.7c0.3-1.1,1.5-1.7,2.6-1.4
		C52.4,274.2,53.1,275.4,52.7,276.5z"/>
	<path class="st0" d="M62.4,184.9c-1.1-0.4-1.7-1.6-1.3-2.7c0.4-1.1,1.6-1.7,2.7-1.3c1,0.4,1.7,1.7,1.3,2.8
		C64.8,184.7,63.5,185.3,62.4,184.9z"/>
	<path class="st0" d="M140.1,84c-0.4,1.1-1.6,1.7-2.7,1.3c-1.1-0.4-1.6-1.6-1.3-2.7c0.4-1.1,1.6-1.6,2.7-1.2
		C139.9,81.8,140.5,82.9,140.1,84z"/>
	<path class="st0" d="M70.1,170.4c-0.3,1.1-1.6,1.7-2.7,1.4c-1.1-0.4-1.8-1.5-1.4-2.7c0.3-1.1,1.6-1.8,2.7-1.5
		C69.7,168,70.4,169.3,70.1,170.4z"/>
	<path class="st0" d="M75,157.4c-0.5,1-1.8,1.5-2.8,1.1c-1-0.5-1.5-1.7-1.1-2.8c0.5-1.1,1.7-1.5,2.8-1.1
		C74.9,155.1,75.4,156.4,75,157.4z"/>
	<path class="st0" d="M57.3,198c-1.1-0.5-1.6-1.7-1.1-2.8c0.5-1.1,1.8-1.6,2.8-1.1c1,0.5,1.6,1.9,1.1,2.8
		C59.7,198,58.4,198.5,57.3,198z"/>
	<path class="st0" d="M114.4,106.8c-1-0.3-1.7-1.7-1.4-2.7c0.3-1.1,1.6-1.7,2.7-1.4c1.1,0.4,1.8,1.5,1.4,2.7
		C116.7,106.5,115.5,107.1,114.4,106.8z"/>
	<path class="st0" d="M149.2,80c-0.4,1.1-1.7,1.6-2.8,1.2c-1.1-0.4-1.6-1.6-1.2-2.8c0.4-1.1,1.7-1.6,2.8-1.2
		C149,77.6,149.6,79,149.2,80z"/>
	<path class="st0" d="M55.1,210c-0.4,1.1-1.7,1.6-2.8,1.1c-1.1-0.5-1.6-1.8-1-2.8c0.6-1.1,1.5-1.4,2.6-1
		C55.1,207.6,55.6,208.9,55.1,210z"/>
	<path class="st0" d="M80.6,362.3c-0.4,1.1-1.7,1.7-2.7,1.2c-1.1-0.5-1.5-1.4-1.2-2.5c0.3-1.2,1.5-1.8,2.6-1.4
		C80.4,359.9,81,361.2,80.6,362.3z"/>
	<path class="st0" d="M91.3,128.1c-1.1-0.4-1.7-1.6-1.3-2.7c0.4-1.1,1.3-1.6,2.5-1.3c1.1,0.2,1.8,1.5,1.5,2.6
		C93.7,127.8,92.4,128.4,91.3,128.1z"/>
	<path class="st0" d="M60,317c-0.4,1.1-1.7,1.6-2.8,1.1c-1-0.5-1.5-1.8-1-2.8c0.6-1,1.5-1.4,2.6-1C59.9,314.7,60.5,315.9,60,317z"/>
	<path class="st0" d="M169.9,438.7c1.1,0.4,1.6,1.7,1.2,2.8c-0.5,1.1-1.7,1.6-2.8,1c-1.1-0.5-1.4-1.4-1.1-2.5
		C167.6,438.8,168.8,438.2,169.9,438.7z"/>
	<path class="st0" d="M76.5,353.1c-0.4,1.1-1.6,1.7-2.7,1.3c-1.1-0.4-1.6-1.6-1.2-2.7c0.4-1,1.5-1.5,2.5-1.2
		C76.2,350.8,76.9,352,76.5,353.1z"/>
	<path class="st0" d="M104.9,391.7c1.1,0.4,1.7,1.7,1.1,2.8c-0.5,1-1.4,1.5-2.5,1.1c-1.1-0.3-1.7-1.6-1.3-2.7
		C102.6,391.8,103.8,391.3,104.9,391.7z"/>
	<path class="st0" d="M45.6,243.8c0.4-1,1.5-1.5,2.5-1.1c1.1,0.4,1.6,1.7,1.2,2.7c-0.4,1.1-1.7,1.5-2.8,1
		C45.6,245.9,45.2,244.8,45.6,243.8z"/>
	<path class="st0" d="M157.9,436.5c-0.5,1.1-1.8,1.5-2.8,1c-1-0.5-1.4-1.6-0.9-2.6c0.4-1,1.6-1.5,2.5-1.1
		C157.8,434.1,158.3,435.4,157.9,436.5z"/>
	<path class="st0" d="M107.8,109.5c-0.4,1-1.5,1.5-2.5,1.2c-1.1-0.3-1.7-1.6-1.3-2.7c0.4-1.1,1.6-1.6,2.8-1.1
		C107.8,107.4,108.2,108.5,107.8,109.5z"/>
	<path class="st0" d="M79.8,144.2c-0.4,1-1.5,1.5-2.5,1.1c-1.1-0.4-1.6-1.7-1.2-2.7c0.5-1.1,1.7-1.5,2.8-1
		C79.9,142.1,80.2,143.2,79.8,144.2z"/>
	<path class="st0" d="M128.4,89.4c-1.1-0.4-1.7-1.6-1.3-2.7c0.4-1,1.5-1.5,2.5-1.2c1.1,0.3,1.6,1.3,1.4,2.4
		C130.7,89.1,129.5,89.8,128.4,89.4z"/>
	<path class="st0" d="M55.8,308.1c-0.5,1-1.9,1.4-2.9,0.8c-0.9-0.5-1.2-1.7-0.7-2.7c0.5-1,1.6-1.4,2.6-1
		C55.9,305.8,56.4,307.1,55.8,308.1z"/>
	<path class="st0" d="M55.9,187.8c-0.4,1-1.6,1.4-2.6,0.9c-1-0.5-1.4-1.5-0.9-2.5c0.5-1,1.6-1.4,2.6-1
		C55.8,185.6,56.3,186.9,55.9,187.8z"/>
	<path class="st0" d="M126.2,414.8c1.1,0.4,1.5,1.4,1.2,2.5c-0.4,1-1.5,1.6-2.5,1.3c-1.1-0.3-1.7-1.7-1.3-2.7
		C124.1,415,125.2,414.5,126.2,414.8z"/>
	<path class="st0" d="M47.2,265c1.1,0.4,1.6,1.4,1.2,2.5c-0.3,1.1-1.4,1.7-2.4,1.4c-1.1-0.3-1.8-1.6-1.4-2.7
		C45.1,265.1,46.2,264.6,47.2,265z"/>
	<path class="st0" d="M60.9,174.5c-0.3,1-1.5,1.5-2.5,1.2c-1.1-0.4-1.6-1.4-1.2-2.5c0.4-1,1.5-1.6,2.5-1.2
		C60.6,172.3,61.2,173.5,60.9,174.5z"/>
	<path class="st0" d="M51.7,298.9c-0.4,1-1.6,1.5-2.5,1.1c-1.1-0.4-1.6-1.8-1.1-2.8c0.5-1,1.6-1.3,2.6-0.9
		C51.7,296.8,52.1,297.8,51.7,298.9z"/>
	<path class="st0" d="M142.2,432.5c-1.1-0.4-1.5-1.4-1.2-2.5c0.4-1,1.4-1.6,2.4-1.3c1.1,0.3,1.7,1.6,1.3,2.7
		C144.3,432.4,143.2,432.9,142.2,432.5z"/>
	<path class="st0" d="M88.8,380.3c-0.4,1-1.5,1.5-2.5,1.1c-1.1-0.3-1.6-1.4-1.2-2.4c0.4-1.1,1.6-1.7,2.6-1.3
		C88.6,378.2,89.1,379.4,88.8,380.3z"/>
	<path class="st0" d="M84.7,130.9c-0.4,1-1.5,1.6-2.5,1.2c-0.9-0.3-1.5-1.6-1.2-2.5c0.3-1,1.5-1.5,2.5-1.1
		C84.6,128.8,85.1,129.8,84.7,130.9z"/>
	<path class="st0" d="M98.8,113.5c-0.3,1-1.5,1.5-2.5,1.2c-1.1-0.3-1.6-1.3-1.2-2.4c0.4-1,1.4-1.6,2.4-1.3
		C98.5,111.3,99.1,112.6,98.8,113.5z"/>
	<path class="st0" d="M84.6,371.3c-0.4,1-1.5,1.5-2.5,1.2c-1.1-0.4-1.6-1.7-1.2-2.8c0.5-1,1.6-1.4,2.6-1
		C84.6,369.2,85,370.3,84.6,371.3z"/>
	<path class="st0" d="M110.2,403.3c-0.3,1-1.5,1.5-2.5,1.2c-1.1-0.3-1.6-1.3-1.3-2.4c0.3-1.2,1.5-1.8,2.6-1.4
		C109.9,401.2,110.5,402.4,110.2,403.3z"/>
	<path class="st0" d="M120.6,89.6c1,0.3,1.6,1.5,1.3,2.5c-0.3,1.1-1.5,1.7-2.6,1.3c-1-0.4-1.5-1.4-1.1-2.5
		C118.5,89.9,119.6,89.3,120.6,89.6z"/>
	<path class="st0" d="M50.1,223.1c-0.4,1-1.5,1.6-2.5,1.2c-1.1-0.4-1.7-1.7-1.2-2.8c0.4-1,1.6-1.4,2.6-1
		C50.1,221,50.5,222,50.1,223.1z"/>
	<path class="st0" d="M64.6,158.8c0.9,0.3,1.6,1.5,1.3,2.4c-0.3,1-1.4,1.5-2.4,1.2c-1.1-0.3-1.6-1.3-1.3-2.4
		C62.5,159.1,63.6,158.5,64.6,158.8z"/>
	<path class="st0" d="M50.9,200.9c-0.4,0.9-1.6,1.4-2.5,1c-1-0.4-1.4-1.5-1-2.5c0.4-1,1.6-1.5,2.5-1C50.8,198.8,51.3,200,50.9,200.9
		z"/>
	<path class="st0" d="M42.7,237.4c-0.9-0.3-1.6-1.5-1.3-2.5c0.3-1,1.4-1.5,2.4-1.2c1.1,0.3,1.6,1.3,1.2,2.4
		C44.8,237.1,43.7,237.7,42.7,237.4z"/>
	<path class="st0" d="M172,58.4c-0.3,1-1.4,1.6-2.4,1.3c-0.9-0.3-1.6-1.5-1.3-2.4c0.3-1,1.4-1.6,2.4-1.3
		C171.8,56.3,172.3,57.3,172,58.4z"/>
	<path class="st0" d="M47.6,289.8c-0.4,0.9-1.6,1.4-2.5,1c-1-0.4-1.5-1.5-1-2.5c0.4-0.9,1.6-1.5,2.5-1.1
		C47.4,287.6,48,288.9,47.6,289.8z"/>
	<path class="st0" d="M92.8,389.2c-0.3,1-1.4,1.6-2.4,1.3c-0.9-0.3-1.6-1.5-1.3-2.4c0.3-1,1.4-1.5,2.4-1.2
		C92.6,387.2,93.1,388.2,92.8,389.2z"/>
	<path class="st0" d="M160.6,63.7c-1.1-0.3-1.6-1.3-1.2-2.4c0.3-1,1.4-1.6,2.4-1.3c0.9,0.3,1.5,1.5,1.3,2.5
		C162.7,63.5,161.6,64.1,160.6,63.7z"/>
	<path class="st0" d="M44.3,258.5c-0.4,0.9-1.5,1.4-2.5,1.1c-1-0.4-1.5-1.4-1.1-2.5c0.4-1,1.6-1.5,2.5-1.1
		C44.1,256.3,44.7,257.6,44.3,258.5z"/>
	<path class="st0" d="M86.8,119.3c-0.3-1.3-0.8-2.2-0.6-3c0.2-1,1.2-1.4,2.2-1c1,0.3,1.6,1.6,1,2.5C89,118.4,88,118.7,86.8,119.3z"
		/>
	<path class="st0" d="M131.5,426.4c-0.3,0.9-1.6,1.5-2.5,1.1c-1-0.4-1.4-1.2-1.1-2.2c0.3-1,1.4-1.6,2.4-1.3
		C131.2,424.2,131.8,425.5,131.5,426.4z"/>
	<path class="st0" d="M112.7,96.3c-0.4,1-1.6,1.5-2.5,1.2c-0.9-0.4-1.5-1.7-1-2.5c0.5-0.9,1.3-1.3,2.3-1
		C112.5,94.2,113.1,95.3,112.7,96.3z"/>
	<path class="st0" d="M95.9,395.4c0.4,1.3,1,2.2,0.9,2.9c-0.1,1-1.1,1.5-2.1,1.2c-1.1-0.3-1.8-1.5-1.2-2.4
		C93.9,396.5,94.8,396.1,95.9,395.4z"/>
	<path class="st0" d="M43.6,280.2c-0.6,1.5-1.8,2-2.7,1.5c-0.9-0.5-1.3-1.3-1-2.3c0.3-1,1.7-1.6,2.5-1
		C43,278.8,43.3,279.7,43.6,280.2z"/>
	<path class="st0" d="M55.5,330.2c-1.3,0.5-2.1,1-2.9,0.9c-1.1-0.1-1.5-1-1.3-2.1c0.2-1,1.5-1.8,2.4-1.2
		C54.4,328.2,54.8,329,55.5,330.2z"/>
	<path class="st0" d="M60.4,349.8c-0.3-1.3-0.8-2.2-0.6-3c0.2-1,1.2-1.4,2.2-1c1,0.3,1.6,1.7,1,2.5
		C62.5,348.9,61.6,349.1,60.4,349.8z"/>
	<path class="st0" d="M74.9,132c0.3,1.3,0.8,2.2,0.6,3c-0.2,1-1.2,1.4-2.2,1c-1-0.3-1.6-1.6-1-2.5C72.7,133,73.7,132.7,74.9,132z"/>
	<path class="st0" d="M59.6,339.4c-1.3,0.4-2.1,0.8-2.9,0.8c-1.1-0.1-1.5-1.5-1-2.5c0.5-1,1.5-1.4,2.3-0.8
		C58.6,337.2,58.9,338.2,59.6,339.4z"/>
	<path class="st0" d="M69.7,145.7c0.9,0.4,1.4,1.7,1,2.6c-0.4,0.9-1.6,1.4-2.6,0.9c-1-0.5-1.3-1.3-0.9-2.3
		C67.5,145.8,68.7,145.3,69.7,145.7z"/>
	<path class="st0" d="M144.8,70.8c-0.4,1-1.6,1.5-2.5,1c-1-0.5-1.3-1.3-1-2.3c0.4-1,1.2-1.4,2.2-1.2
		C144.5,68.6,145.2,69.8,144.8,70.8z"/>
	<path class="st0" d="M43,214.8c-0.1-0.5-0.6-1.3-0.5-2.1c0.1-1,1.5-1.6,2.4-1.1c0.9,0.5,1.3,1.3,1,2.3
		C45.7,214.9,44.4,215.4,43,214.8z"/>
	<path class="st0" d="M134.7,71.9c0.5,1.3,1,2.1,1,2.9c0,1-1.4,1.7-2.4,1.2c-1-0.5-1.5-1.4-1-2.3C132.7,73,133.6,72.7,134.7,71.9z"
		/>
	<path class="st0" d="M67.9,357.3c-1.3,0.5-2.1,1-2.8,1c-1.1,0-1.7-1.3-1.2-2.3c0.4-1,1.4-1.5,2.3-1
		C66.7,355.3,67.1,356.2,67.9,357.3z"/>
	<path class="st0" d="M111.7,413.6c-0.9-0.3-1.5-1.7-1.1-2.5c0.4-0.9,1.6-1.4,2.6-0.9c1,0.5,1.3,1.3,1,2.3
		C113.8,413.3,112.6,413.9,111.7,413.6z"/>
	<path class="st0" d="M159.3,446.5c-0.9-0.4-1.4-1.7-1-2.6c0.5-0.9,1.7-1.3,2.6-0.8c1,0.5,1.2,1.3,0.9,2.3
		C161.5,446.4,160.2,446.9,159.3,446.5z"/>
	<path class="st0" d="M145.9,442c-0.3-1.3-0.8-2.2-0.6-3c0.2-1,1.2-1.4,2.2-1c1,0.3,1.6,1.7,1,2.5C148,441.1,147.1,441.4,145.9,442z
		"/>
	<path class="st0" d="M153.8,66.7c-0.4,1-1.6,1.5-2.5,1.2c-0.9-0.4-1.5-1.7-1-2.5c0.5-0.9,1.3-1.3,2.3-1
		C153.7,64.6,154.2,65.6,153.8,66.7z"/>
	<path class="st0" d="M172.5,451.4c-0.9-0.4-1.4-1.7-1-2.6c0.5-0.9,1.7-1.3,2.6-0.8c1,0.5,1.2,1.3,0.9,2.3
		C174.6,451.3,173.4,451.8,172.5,451.4z"/>
	<path class="st0" d="M68.8,368c-0.4-1.3-1-2.1-0.9-2.8c0.1-1,1-1.5,2.1-1.2c1,0.2,1.8,1.5,1.2,2.3C70.8,366.9,69.9,367.2,68.8,368z
		"/>
	<path class="st0" d="M51.3,321.2c-1.3,0.4-2.1,0.8-2.9,0.8c-1-0.1-1.5-1.5-1-2.4c0.5-1,1.4-1.3,2.3-0.8
		C50.3,319.2,50.6,320.1,51.3,321.2z"/>
	<path class="st0" d="M127.2,79.3c-1.3,0.4-2.1,0.8-2.9,0.7c-1-0.1-1.5-1.5-1-2.4c0.5-1,1.5-1.3,2.3-0.8
		C126.2,77.2,126.5,78.2,127.2,79.3z"/>
	<path class="st0" d="M102.7,97.5c0.4,1.3,0.9,2.1,0.8,2.8c-0.1,1-1,1.5-2.1,1.2c-1-0.2-1.7-1.5-1.2-2.4
		C100.7,98.5,101.5,98.2,102.7,97.5z"/>
	<path class="st0" d="M40.1,224.2c0.4,1.3,0.9,2.1,0.8,2.8c-0.2,1-1.1,1.5-2.1,1.2c-1-0.3-1.7-1.5-1.1-2.4
		C38,225.2,38.9,224.9,40.1,224.2z"/>
	<path class="st0" d="M40.7,249.5c-1.3,0.4-2.1,0.9-2.8,0.9c-1-0.1-1.5-1-1.2-2.1c0.2-1,1.5-1.8,2.3-1.2
		C39.6,247.5,40,248.4,40.7,249.5z"/>
	<path class="st0" d="M115.7,423.1c-0.4-1.3-0.9-2.2-0.8-2.9c0.2-1,1.1-1.4,2.2-1c1,0.4,1.5,1.2,1,2.2
		C117.7,422,116.8,422.3,115.7,423.1z"/>
	<path class="st0" d="M136.1,435.6c-1.3,0.4-2.1,0.9-2.8,0.8c-1-0.1-1.5-1-1.1-2.1c0.3-1,1.2-1.6,2.1-1.1
		C134.9,433.5,135.3,434.4,136.1,435.6z"/>
	<path class="st0" d="M39.1,272c-0.6,0.2-1.4,0.7-2.1,0.6c-1-0.2-1.4-1.2-1.1-2.2c0.4-1,1.2-1.4,2.2-1
		C39.2,269.7,39.4,270.5,39.1,272z"/>
	<path class="st0" d="M55.7,162.4c0.4,1.3,0.9,2.1,0.8,2.9c-0.1,1-1.1,1.4-2.1,1.1c-1-0.3-1.6-1.2-1-2.1
		C53.7,163.6,54.6,163.3,55.7,162.4z"/>
	<path class="st0" d="M47.2,312.3c-1.3,0.3-2.2,0.7-2.9,0.5c-1-0.2-1.3-1.2-0.9-2.2c0.4-1,1.3-1.5,2.2-0.9
		C46.2,310.1,46.5,311.1,47.2,312.3z"/>
	<path class="st0" d="M50.9,175.7c0.3,1.4,0.8,2.2,0.6,2.9c-0.2,1-1.2,1.3-2.2,0.9c-1-0.4-1.4-1.3-0.9-2.2
		C48.9,176.7,49.8,176.4,50.9,175.7z"/>
	<path class="st0" d="M75.2,375.7c-0.5,0.2-1.4,0.7-2.1,0.6c-1-0.2-1.4-1.1-1.1-2.1c0.3-1,1.1-1.4,2.2-1.1
		C75.3,373.4,75.6,374.2,75.2,375.7z"/>
	<path class="st0" d="M45.7,188.7c0.5,1.3,1.1,2.1,1,2.8c-0.1,1-1,1.5-2.1,1.2c-1.1-0.3-1.6-1.1-1.1-2.1
		C43.7,190,44.6,189.6,45.7,188.7z"/>
	<path class="st0" d="M163.4,456c-0.4-1.3-0.8-2.2-0.7-2.9c0.2-0.9,1.1-1.2,2-0.9c1,0.3,1.5,1.3,1,2.2
		C165.3,455,164.5,455.3,163.4,456z"/>
	<path class="st0" d="M41.8,204.6c-0.6,1.3-1.7,1.6-2.6,1.1c-0.9-0.5-1.1-1.3-0.6-2.1c0.4-0.9,1.3-1.3,2-0.8
		C41.3,203.1,41.5,204.1,41.8,204.6z"/>
	<path class="st0" d="M100.3,405.4c0.1,0.5,0.5,1.4,0.4,2.1c-0.1,0.9-1.4,1.2-2.3,0.8s-1.1-1.2-0.8-2.1
		C98,405.3,99,404.8,100.3,405.4z"/>
	<path class="st0" d="M77.1,385.9c-0.4-1.2-0.9-1.9-0.9-2.5c0-1,1.2-1.5,2.1-1.2c0.9,0.3,1.5,1.5,1,2.2
		C79,384.9,78.2,385.2,77.1,385.9z"/>
	<path class="st0" d="M38.9,294c-1.2,0.3-2,0.7-2.6,0.6c-1-0.1-1.3-1-1.1-1.9c0.3-1,1.5-1.6,2.2-1C37.9,292.1,38.2,292.9,38.9,294z"
		/>
	<path class="st0" d="M32.5,263.9c-0.2-1.2-0.6-2-0.4-2.7c0.2-1,1.1-1.2,2-0.9c0.9,0.3,1.5,1.6,0.9,2.3
		C34.4,263.1,33.6,263.3,32.5,263.9z"/>
	<path class="st0" d="M176.3,460.1c-0.1-0.5-0.5-1.3-0.4-2.1"/>
	<path class="st0" d="M94.6,104.1c-0.6,1.3-1.7,1.7-2.5,1.2c-0.9-0.5-1.1-1.2-0.7-2.1c0.4-0.9,1.2-1.4,2-0.9
		C94,102.7,94.3,103.7,94.6,104.1z"/>
	<path class="st0" d="M40.1,304.6c-0.4-1.4-0.9-2.2-0.8-2.9c0.1-0.9,1.3-1.3,2.2-1c0.9,0.4,1.4,1.2,0.9,2
		C42,303.3,41.2,303.7,40.1,304.6z"/>
	<path class="st0" d="M116.6,80.1c0.5,1.4,0.9,2.1,0.9,2.9c0,0.9-1.2,1.4-2.2,1c-0.9-0.4-1.4-1.1-1-2
		C114.6,81.4,115.5,81,116.6,80.1z"/>
	<path class="st0" d="M76.6,120.1c1.4-0.2,2.3-0.5,3-0.4c0.9,0.2,1.1,1.1,0.8,2c-0.4,0.9-1.5,1.5-2.2,0.9
		C77.5,122.2,77.3,121.3,76.6,120.1z"/>
	<path class="st0" d="M121.5,427.7c0.3,1.2,0.7,2,0.7,2.7c-0.1,0.9-1.4,1.3-2.3,0.9c-0.9-0.5-1.2-1.3-0.7-2.1
		C119.6,428.6,120.4,428.4,121.5,427.7z"/>
	<path class="st0" d="M63.9,140.5c-0.3-1.2-0.7-2-0.6-2.6c0.1-1,1-1.3,2-1.1c0.9,0.2,1.5,1.5,1,2.2
		C65.9,139.6,65.1,139.9,63.9,140.5z"/>
	<path class="st0" d="M36.3,240.6c-1.2,0.3-1.9,0.7-2.6,0.6c-0.9-0.1-1.4-1.4-1-2.3c0.4-0.8,1.6-1.3,2.3-0.7
		C35.6,238.7,35.8,239.5,36.3,240.6z"/>
	<path class="st0" d="M152,446.8c0.2,1.2,0.6,2,0.5,2.7c-0.2,1-1.1,1.2-2,1c-0.9-0.3-1.5-1.6-0.9-2.3
		C150,447.6,150.9,447.4,152,446.8z"/>
	<path class="st0" d="M59.3,153.2c-1-0.3-1.4-1.3-1-2.2c0.4-0.9,1.1-1.2,2-1c0.9,0.2,1.5,1.3,1.2,2.2
		C61.2,153,60.2,153.5,59.3,153.2z"/>
	<path class="st0" d="M84.4,105.8c0.4,1.2,0.9,2,0.8,2.6c-0.1,1-1,1.3-1.9,1c-0.9-0.3-1.4-1.1-1-2C82.6,107,83.4,106.6,84.4,105.8z"
		/>
	<path class="st0" d="M165.4,50.9c-0.4-1.2-0.8-1.9-0.8-2.6c0-0.9,1.3-1.4,2.2-1c0.9,0.4,1.3,1.2,0.8,2
		C167.2,49.9,166.4,50.2,165.4,50.9z"/>
	<path class="st0" d="M145.9,56.2c1.2-0.3,1.9-0.7,2.6-0.6c0.9,0.1,1.3,1,1,1.9c-0.3,0.9-1.5,1.5-2.2,1
		C146.8,58,146.5,57.2,145.9,56.2z"/>
	<path class="st0" d="M108.9,87.4c-1.2,0.4-1.9,0.8-2.6,0.8c-0.8,0-1.4-1.5-1-2.2c0.5-0.8,1.3-1.3,2.1-0.7
		C107.9,85.5,108.2,86.3,108.9,87.4z"/>
	<path class="st0" d="M82.7,390.7c0.4,1.2,0.8,1.9,0.7,2.6c-0.1,1-1,1.3-1.9,1.1c-0.9-0.1-1.6-1.5-1.1-2.2
		C80.8,391.7,81.6,391.4,82.7,390.7z"/>
	<path class="st0" d="M37.2,218.1c-1.1,0.4-1.9,0.9-2.5,0.8c-0.9-0.1-1.4-0.9-1.2-1.8c0.2-0.9,1.3-1.7,2.1-1.2
		C36.2,216.3,36.5,217.1,37.2,218.1z"/>
	<path class="st0" d="M174.8,46.1c-0.9-0.1-1.4-0.9-1.2-1.8c0.2-0.9,1.3-1.7,2.1-1.2"/>
	<path class="st0" d="M141,61.8c-1.2,0.3-1.9,0.8-2.6,0.7c-0.9-0.1-1.3-1-1-1.9c0.3-0.9,1.2-1.4,2-0.9C140,60,140.3,60.8,141,61.8z"
		/>
	<path class="st0" d="M140,444.5c-1.2,0.4-2,1-2.6,0.9c-0.9-0.1-1.3-1-1-1.9c0.3-0.9,1-1.4,1.9-1C138.9,442.7,139.2,443.5,140,444.5
		z"/>
	<path class="st0" d="M34.7,285c-1.3,0.3-2,0.7-2.7,0.6c-0.9-0.2-1.2-1.1-0.9-2c0.4-0.8,1.2-1.3,2-0.8C33.7,283.1,34,283.9,34.7,285
		z"/>
	<path class="st0" d="M102.4,417.9c-0.3-1.2-0.7-1.9-0.6-2.6c0.1-0.9,1.4-1.3,2.2-0.8c0.9,0.5,1.2,1.3,0.6,2.1
		C104.3,417.1,103.5,417.3,102.4,417.9z"/>
	<path class="st0" d="M159.1,53.7c-1.2,0.3-1.9,0.7-2.6,0.6c-0.9-0.1-1.3-1-1-1.9c0.3-0.9,1.5-1.5,2.2-1
		C158.2,51.9,158.5,52.7,159.1,53.7z"/>
	<path class="st0" d="M51.7,353.8c-0.4-1.2-0.9-2-0.8-2.6c0.1-0.5,1.1-1,1.6-1c0.9,0,1.5,0.9,1.1,1.8
		C53.5,352.6,52.7,352.9,51.7,353.8z"/>
	<path class="st0" d="M167.7,465c-0.4-1.3-0.9-2.1-0.7-2.7c0.1-0.4,1.2-1,1.7-0.8c0.5,0.1,1.1,1.1,1,1.6
		C169.5,463.6,168.7,464.1,167.7,465z"/>
	<path class="st0" d="M71.8,126.2c-1.3,0.2-2.1,0.6-2.7,0.4c-0.9-0.3-1.2-1.3-0.6-2c0.4-0.5,1.4-0.8,1.8-0.6
		C70.8,124.2,71.1,125.1,71.8,126.2z"/>
	<path class="st0" d="M38.1,196c-1.4,0.3-2.2,0.7-2.8,0.4c-0.4-0.2-0.9-1.3-0.7-1.7c0.2-0.5,1.2-1,1.6-0.9
		C36.9,194.1,37.2,194.9,38.1,196z"/>
	<path class="st0" d="M47.3,344.6c-0.2-1.3-0.6-2.1-0.4-2.7c0.3-0.9,1.3-1.2,2-0.6c0.4,0.3,0.8,1.4,0.6,1.8
		C49.3,343.6,48.4,343.9,47.3,344.6z"/>
	<path class="st0" d="M122.8,70c-1.2,0.3-2,0.8-2.6,0.6c-0.4-0.1-0.9-1.2-0.8-1.7c0.1-1,1-1.3,1.9-0.9C121.9,68.3,122.1,69,122.8,70
		z"/>
	<path class="st0" d="M43.3,335.6c-0.3-1.3-0.7-2.1-0.5-2.7c0.2-0.4,1.2-0.9,1.7-0.8c0.9,0.1,1.4,1,1,1.9
		C45.2,334.5,44.4,334.8,43.3,335.6z"/>
	<path class="st0" d="M130.7,63.1c0.2,1.3,0.6,2.1,0.5,2.7c-0.3,0.9-1.2,1.2-2,0.7c-0.5-0.3-0.9-1.4-0.7-1.8
		C128.8,64.2,129.6,63.9,130.7,63.1z"/>
	<path class="st0" d="M88.1,402.7c-1.3,0.2-2,0.7-2.7,0.5c-0.9-0.2-1.2-1.2-0.7-2c0.3-0.5,1.4-0.9,1.8-0.7
		C87.1,400.8,87.4,401.6,88.1,402.7z"/>
	<path class="st0" d="M125.5,436.8c0.3,1.4,0.7,2.2,0.5,2.8c-0.2,0.4-1.3,0.9-1.7,0.7c-0.5-0.2-1-1.2-0.9-1.6
		C123.6,438,124.4,437.6,125.5,436.8z"/>
	<path class="st0" d="M52.9,156.7c-1.3,0.2-2.2,0.6-2.7,0.3c-0.4-0.2-0.8-1.2-0.7-1.8c0.2-0.9,1.1-1.4,1.9-0.9
		C51.9,154.7,52.1,155.5,52.9,156.7z"/>
	<path class="st0" d="M106.6,427c-0.2-1.4-0.6-2.2-0.4-2.8c0.2-0.4,1.3-0.8,1.8-0.6c0.5,0.2,1,1.2,0.8,1.7
		C108.5,425.9,107.7,426.2,106.6,427z"/>
	<path class="st0" d="M31.4,253.7c-1.3,0.3-2.1,0.7-2.7,0.5c-0.4-0.2-0.9-1.2-0.8-1.7c0.1-0.9,1-1.4,1.9-1
		C30.4,251.8,30.7,252.6,31.4,253.7z"/>
	<path class="st0" d="M42,325.2c-1.2,0.3-2.1,0.7-2.6,0.5c-0.4-0.2-0.8-1.2-0.7-1.8c0.2-1,1.1-1.3,1.9-0.8
		C41.1,323.5,41.3,324.2,42,325.2z"/>
	<path class="st0" d="M99.9,91.4c-1.2,0.4-2,0.8-2.6,0.7c-0.9-0.2-1.4-1.1-0.9-1.9c0.3-0.5,1.3-1,1.7-0.9
		C98.7,89.5,99.1,90.3,99.9,91.4z"/>
	<path class="st0" d="M61.5,367.7c0.2,1.4,0.6,2.2,0.3,2.8c-0.2,0.4-1.3,0.8-1.8,0.6c-0.4-0.2-0.9-1.3-0.8-1.7
		C59.5,368.7,60.3,368.5,61.5,367.7z"/>
	<path class="st0" d="M29.5,232.8c-0.4-1.3-0.8-2-0.7-2.7c0.2-1,1.1-1.3,1.9-0.8c0.5,0.3,1,1.3,0.8,1.7
		C31.4,231.6,30.5,231.9,29.5,232.8z"/>
	<path class="st0" d="M47.9,169.8c-1.3,0.2-2.2,0.5-2.7,0.3c-0.4-0.2-0.8-1.2-0.7-1.8c0.2-0.9,1.1-1.4,1.9-0.8
		C47,167.9,47.2,168.7,47.9,169.8z"/>
	<path class="st0" d="M43,183c-1.3,0.2-2.2,0.6-2.7,0.4c-0.4-0.2-0.8-1.2-0.7-1.8c0.2-0.9,1.1-1.4,1.9-0.9C42,181,42.2,181.8,43,183
		z"/>
	<path class="st0" d="M58.4,361.6c-1.3,0.2-2.1,0.6-2.7,0.4c-0.9-0.3-1.2-1.3-0.6-2c0.4-0.5,1.4-0.8,1.8-0.6
		C57.5,359.6,57.8,360.5,58.4,361.6z"/>
	<path class="st0" d="M25.8,241.8c0.4,1.1,0.8,1.9,0.6,2.3c-0.2,0.5-1.1,0.7-1.6,1c-0.3-0.6-0.9-1.2-0.9-1.7
		C24,242.9,24.9,242.6,25.8,241.8z"/>
	<path class="st0" d="M154.5,459.8c-0.4-1.1-0.8-1.8-0.7-2.3c0.2-1,1.1-1.3,1.9-0.8c0.5,0.3,0.8,1.2,0.7,1.7
		C156.2,458.9,155.4,459.2,154.5,459.8z"/>
	<path class="st0" d="M141.2,454.9c-0.3-1.2-0.8-1.9-0.5-2.4c0.2-0.5,1.2-0.8,1.7-0.8c0.8,0.1,1.2,1,0.8,1.7
		C142.9,453.9,142.2,454.2,141.2,454.9z"/>
	<path class="st0" d="M89.4,412.8c-0.3-1.1-0.8-1.8-0.5-2.3c0.2-0.5,1.1-1,1.6-0.9c1,0.1,1.4,1,0.9,1.9
		C91.2,412,90.4,412.2,89.4,412.8z"/>
	<path class="st0" d="M68,389.7c-0.2-1.2-0.7-2-0.4-2.4c0.3-0.5,1.1-0.6,1.7-0.8c0.3,0.6,0.8,1.3,0.7,1.8
		C69.9,388.8,69,389.1,68,389.7z"/>
	<path class="st0" d="M113.7,74.3c-1.2,0.2-1.8,0.5-2.4,0.4c-0.9-0.2-1.2-1.1-0.7-1.7c0.3-0.5,1.3-0.9,1.7-0.7
		C112.8,72.4,113,73.3,113.7,74.3z"/>
	<path class="st0" d="M57.7,143.3c-1.1,0.3-1.9,0.7-2.3,0.5s-0.9-1.1-0.9-1.6c0.1-0.9,1-1.4,1.9-0.9
		C56.8,141.6,57.1,142.3,57.7,143.3z"/>
	<path class="st0" d="M64,380.8c-0.4-1.1-0.8-1.8-0.7-2.3c0.2-1,1.1-1.3,1.9-0.8c0.5,0.3,0.8,1.2,0.7,1.7
		C65.7,379.8,64.9,380.1,64,380.8z"/>
	<path class="st0" d="M76.6,112.8c-1.1,0.3-1.8,0.7-2.4,0.6c-0.9-0.2-1.3-1.1-0.8-1.9c0.3-0.4,1.3-0.8,1.8-0.6
		C75.7,111,76,111.9,76.6,112.8z"/>
	<path class="st0" d="M30.4,210.3c-0.4-1.1-0.9-1.8-0.7-2.2c0.2-0.5,1-1.1,1.6-1c1,0,1.4,1,1,1.8C32.1,209.3,31.4,209.6,30.4,210.3z
		"/>
	<path class="st0" d="M89.3,92.8c0.4,1.1,0.9,1.9,0.7,2.3c-0.2,0.5-1.1,0.9-1.6,0.9c-0.8,0-1.3-0.8-0.9-1.6
		C87.7,93.9,88.4,93.6,89.3,92.8z"/>
	<path class="st0" d="M27.7,277c-0.3-1.1-0.7-1.8-0.6-2.4c0.2-1,1.1-1.2,2-0.8c0.8,0.4,1.1,1.1,0.6,1.8
		C29.4,276.1,28.7,276.4,27.7,277z"/>
	<path class="st0" d="M31.2,308.3c-0.4-1.1-0.9-1.8-0.8-2.3c0.2-0.5,1.1-0.9,1.6-0.9c0.8,0,1.3,0.8,0.9,1.6
		C32.8,307.2,32.1,307.6,31.2,308.3z"/>
	<path class="st0" d="M35.3,317.3c-0.4-1.1-0.9-1.8-0.7-2.2c0.2-0.5,1-1.1,1.6-1c1,0,1.4,1,1,1.8C37,316.4,36.2,316.6,35.3,317.3z"
		/>
	<path class="st0" d="M110.9,435.9c-0.3-1.2-0.7-1.9-0.5-2.4c0.1-0.4,1.2-1,1.4-0.8c0.5,0.3,1,1.1,1,1.6
		C112.7,434.8,111.9,435.1,110.9,435.9z"/>
	<path class="st0" d="M61.3,127.4c0.3,1.2,0.8,2,0.6,2.4c-0.2,0.4-1.1,0.7-1.7,0.7c-0.3,0-0.8-1.1-0.7-1.5
		C59.7,128.5,60.4,128.2,61.3,127.4z"/>
	<path class="st0" d="M26.8,219.6c0.2,1.2,0.6,1.9,0.4,2.5c-0.2,0.8-1.1,1.1-1.8,0.6c-0.4-0.3-0.8-1.2-0.6-1.5
		C25.1,220.6,25.9,220.3,26.8,219.6z"/>
	<path class="st0" d="M25,264c0.3,1.2,0.8,2,0.6,2.4s-1.1,0.7-1.7,0.7c-0.3,0-0.8-1.1-0.7-1.5C23.4,265.2,24.1,264.8,25,264z"/>
	<path class="st0" d="M170.4,37.2c-0.3-0.9-0.7-1.6-0.5-2c0.2-0.4,1-0.9,1.4-0.8c0.9,0.1,1.2,0.9,0.8,1.7
		C171.9,36.5,171.2,36.7,170.4,37.2z"/>
	<path class="st0" d="M104.3,78.1c-0.9,0.3-1.6,0.8-1.9,0.6c-0.5-0.3-1-1.1-0.9-1.7c0.1-0.8,1-1.2,1.7-0.7
		C103.7,76.7,103.9,77.4,104.3,78.1z"/>
	<path class="st0" d="M29.5,297.9c-1,0.3-1.6,0.7-2.1,0.6c-0.9-0.1-1.3-0.9-0.8-1.7c0.2-0.4,1.1-0.9,1.5-0.8
		C28.5,296.3,28.8,297,29.5,297.9z"/>
	<path class="st0" d="M67.3,116.7c-0.9,0.3-1.5,0.8-1.9,0.7c-0.4-0.1-1-0.9-1-1.4c0-0.9,0.8-1.3,1.6-1
		C66.5,115.2,66.7,115.9,67.3,116.7z"/>
	<path class="st0" d="M42.2,158.2c0.3,0.9,0.8,1.4,0.7,1.9c-0.1,0.9-0.9,1.3-1.6,0.9c-0.4-0.2-0.8-1.1-0.7-1.5
		C40.7,159,41.4,158.7,42.2,158.2z"/>
	<path class="st0" d="M38.4,173.6c-0.9,0.3-1.6,0.8-1.9,0.6c-0.5-0.3-1-1.1-0.9-1.7c0.1-0.8,1-1.2,1.7-0.7
		C37.8,172.2,37.9,172.8,38.4,173.6z"/>
	<path class="st0" d="M95.9,420.6c-0.9,0.3-1.6,0.8-1.9,0.6c-0.5-0.3-1-1.2-0.9-1.7c0.1-0.8,1-1.2,1.7-0.7
		C95.2,419.1,95.4,419.8,95.9,420.6z"/>
	<path class="st0" d="M72.1,398.7c-0.2-1.1-0.5-1.8-0.3-2.3c0.1-0.4,1.1-0.7,1.6-0.6c0.8,0.2,1.1,1,0.6,1.7
		C73.7,397.9,73,398.1,72.1,398.7z"/>
	<path class="st0" d="M128,449.7c-0.2-1.1-0.5-1.8-0.3-2.3c0.1-0.4,1.1-0.7,1.6-0.6c0.8,0.2,1.1,1,0.6,1.7
		C129.6,449,128.9,449.2,128,449.7z"/>
	<path class="st0" d="M47.2,145c0.3,0.9,0.7,1.5,0.6,2c-0.2,0.4-0.9,0.9-1.4,0.9c-0.9-0.1-1.2-0.9-0.9-1.6
		C45.8,145.8,46.4,145.5,47.2,145z"/>
	<path class="st0" d="M32.6,184.6c0.2,0.9,0.6,1.6,0.3,2c-0.2,0.4-1.1,0.8-1.5,0.7c-0.8-0.2-1.2-1-0.7-1.7
		C31.1,185.2,31.8,185,32.6,184.6z"/>
	<path class="st0" d="M154.6,44.4c-0.9,0.3-1.5,0.7-2,0.5s-0.9-1-0.8-1.4c0.1-0.9,0.9-1.2,1.6-0.9C153.8,42.9,154.1,43.6,154.6,44.4
		z"/>
	<path class="st0" d="M145.5,48.4c-0.9,0.3-1.5,0.8-2,0.7c-0.9-0.1-1.2-0.9-0.8-1.7c0.2-0.4,1.1-0.8,1.5-0.6
		C144.7,46.9,145,47.7,145.5,48.4z"/>
	<path class="st0" d="M163.6,40.4c-0.9,0.2-1.5,0.6-2,0.5c-0.8-0.2-1.2-1.1-0.6-1.8c0.3-0.4,1.2-0.6,1.6-0.5
		C162.9,38.8,163.1,39.6,163.6,40.4z"/>
	<path class="st0" d="M81.2,99.6c-0.9,0.2-1.5,0.6-2,0.5c-0.8-0.2-1.2-1-0.7-1.7c0.3-0.4,1.1-0.6,1.6-0.5
		C80.6,98,80.8,98.8,81.2,99.6z"/>
	<path class="st0" d="M78.6,406.6c-1,0.2-1.7,0.6-2,0.4c-0.4-0.2-0.5-1-0.7-1.5c0.5-0.2,1.1-0.7,1.6-0.6
		C77.8,405,78.1,405.8,78.6,406.6z"/>
	<path class="st0" d="M135.3,50.4c0.3,1,0.7,1.6,0.5,2c-0.2,0.4-1,0.6-1.5,0.8c-0.3-0.5-0.8-1.1-0.7-1.5
		C133.8,51.3,134.6,51,135.3,50.4z"/>
	<path class="st0" d="M20.6,236.4c-0.3-0.9-0.8-1.6-0.6-2c0.2-0.4,1-0.9,1.4-0.8s0.8,1,0.8,1.4C22.1,235.5,21.4,235.8,20.6,236.4z"
		/>
	<path class="st0" d="M20.9,255.3c0.2,1,0.6,1.7,0.4,2c-0.2,0.4-1,0.5-1.5,0.7c-0.2-0.5-0.7-1.1-0.6-1.6
		C19.4,256.1,20.1,255.9,20.9,255.3z"/>
	<path class="st0" d="M173,470.2c0.3,1,0.7,1.6,0.5,2c-0.2,0.4-1,0.6-1.5,0.8c-0.3-0.5-0.8-1.1-0.7-1.5
		C171.4,471.1,172.2,470.8,173,470.2z"/>
	<path class="st0" d="M160.9,467.5c-1,0.3-1.6,0.7-2,0.5c-0.4-0.2-0.9-1-0.7-1.5c0.1-0.4,1-0.8,1.4-0.7
		C160,466,160.3,466.7,160.9,467.5z"/>
	<path class="st0" d="M28.4,200.1c-1,0.1-1.7,0.5-2,0.2c-0.4-0.2-0.7-1.2-0.5-1.5c0.2-0.4,1.1-0.7,1.5-0.5
		C27.8,198.5,28,199.3,28.4,200.1z"/>
	<path class="st0" d="M24.2,286.6c0.2,1,0.6,1.7,0.4,2c-0.2,0.4-1,0.5-1.5,0.7c-0.2-0.5-0.7-1.1-0.6-1.6
		C22.6,287.4,23.4,287.1,24.2,286.6z"/>
	<path class="st0" d="M46.9,366.5c-0.3-1-0.6-1.6-0.6-2.1c0.1-0.3,0.9-0.7,1.3-0.6c0.4,0.1,0.9,0.8,0.8,1.2
		C48.3,365.4,47.7,365.8,46.9,366.5z"/>
	<path class="st0" d="M147.4,462.6c-0.7,0.2-1.4,0.6-1.6,0.5c-0.4-0.3-0.5-1-0.7-1.5c0.5-0.2,1.1-0.5,1.6-0.4
		C146.9,461.1,147.1,461.9,147.4,462.6z"/>
	<path class="st0" d="M53.1,134.5c-0.5,0-1.2,0.3-1.6,0.1c-0.4-0.2-0.8-0.9-0.8-1.4c0-0.2,0.9-0.9,1.2-0.8c0.5,0.2,0.8,0.8,1.1,1.2
		C53,133.9,53,134.2,53.1,134.5z"/>
	<path class="st0" d="M30.1,329.7c-0.1-0.6-0.3-1.2-0.1-1.7c0.1-0.3,1.2-0.5,1.4-0.4c0.4,0.4,0.6,1.1,0.5,1.6
		c-0.1,0.4-0.7,0.8-1.1,1.2C30.5,330.1,30.3,329.9,30.1,329.7z"/>
	<path class="st0" d="M43.8,354.1c0.3,1,0.6,1.7,0.4,2.1c-0.1,0.3-0.9,0.7-1.3,0.5c-0.4-0.1-0.8-0.9-0.7-1.2
		C42.4,355.1,43,354.8,43.8,354.1z"/>
	<path class="st0" d="M99,427.6c0.2,0.9,0.6,1.6,0.4,1.8c-0.3,0.4-1,0.5-1.5,0.7c-0.2-0.5-0.6-1.1-0.5-1.4
		C97.6,428.3,98.2,428.1,99,427.6z"/>
	<path class="st0" d="M126.4,54.7c0.2,0.9,0.5,1.5,0.3,2c-0.1,0.3-1.1,0.6-1.3,0.5c-0.4-0.3-0.6-1-0.5-1.5
		C124.9,55.3,125.7,55.1,126.4,54.7z"/>
	<path class="st0" d="M94.9,82.3c-0.7,0.2-1.4,0.6-1.6,0.4c-0.4-0.3-0.5-1-0.7-1.5c0.6-0.1,1.1-0.5,1.6-0.4
		C94.5,80.8,94.6,81.6,94.9,82.3z"/>
	<path class="st0" d="M116.3,441.6c0.2,0.9,0.5,1.5,0.3,2c-0.1,0.3-1.1,0.6-1.3,0.5c-0.4-0.3-0.6-1-0.5-1.5
		C114.8,442.2,115.6,442,116.3,441.6z"/>
	<path class="st0" d="M40.4,347.3c-0.7,0.2-1.4,0.6-1.6,0.4c-0.4-0.3-0.5-1-0.7-1.5c0.6-0.2,1.1-0.5,1.6-0.4
		C40,345.9,40.1,346.7,40.4,347.3z"/>
	<path class="st0" d="M23.5,212.9c-0.8,0.3-1.4,0.8-1.7,0.6c-0.4-0.2-0.8-0.9-0.8-1.4c0-0.2,0.9-0.8,1.2-0.7
		C22.6,211.6,22.9,212.2,23.5,212.9z"/>
	<path class="st0" d="M35.7,336.2c0.2,0.9,0.4,1.5,0.3,2c-0.1,0.3-1.1,0.6-1.3,0.5c-0.4-0.3-0.6-1-0.6-1.5
		C34.2,336.8,34.9,336.6,35.7,336.2z"/>
	<path class="st0" d="M85.9,86.3c-0.8,0.1-1.3,0.5-1.7,0.3c-0.3-0.2-0.6-1-0.5-1.3c0.2-0.3,0.9-0.6,1.3-0.5
		C85.4,85,85.5,85.7,85.9,86.3z"/>
	<path class="st0" d="M80.4,416.2c-0.1-0.7-0.4-1.3-0.2-1.6c0.2-0.3,0.9-0.4,1.3-0.6c0.2,0.5,0.5,1.1,0.5,1.6
		C82,415.8,81.1,416,80.4,416.2z"/>
	<path class="st0" d="M71.8,103.6c-0.7,0.2-1.5,0.6-1.6,0.4c-0.4-0.4-0.4-1-0.6-1.6c0.5-0.1,1.1-0.5,1.5-0.3
		C71.4,102.3,71.5,103,71.8,103.6z"/>
	<path class="st0" d="M18.3,226.2c-0.8,0.1-1.3,0.4-1.7,0.2c-0.2-0.1-0.6-0.9-0.4-1.1c0.3-0.3,0.9-0.7,1.2-0.6
		C17.7,224.9,17.9,225.6,18.3,226.2z"/>
	<path class="st0" d="M33.9,164.5c-0.8,0.2-1.4,0.5-1.7,0.4c-0.3-0.2-0.4-0.9-0.6-1.3c0.5-0.2,1-0.6,1.4-0.4
		C33.4,163.2,33.6,163.8,33.9,164.5z"/>
	<path class="st0" d="M15.7,268.8c0.3,0.7,0.7,1.3,0.6,1.6c-0.1,0.3-0.8,0.6-1.2,0.6c-0.2,0-0.7-0.8-0.6-1
		C14.6,269.6,15.1,269.3,15.7,268.8z"/>
	<path class="st0" d="M52.9,374.3c-0.7,0.3-1.2,0.7-1.6,0.6s-0.6-0.7-0.9-1.2c0.5-0.3,0.9-0.8,1.5-0.8
		C52.1,372.8,52.4,373.6,52.9,374.3z"/>
	<path class="st0" d="M56,121.6c-0.2-0.8-0.5-1.3-0.3-1.6c0.2-0.3,0.9-0.4,1.3-0.6c0.2,0.5,0.6,1,0.5,1.4
		C57.4,121.1,56.7,121.2,56,121.6z"/>
	<path class="st0" d="M107.1,65.6c-0.2-0.8-0.5-1.3-0.3-1.6c0.2-0.3,0.9-0.4,1.3-0.6c0.2,0.5,0.6,1,0.5,1.4
		C108.4,65.1,107.8,65.3,107.1,65.6z"/>
	<path class="st0" d="M24.1,190.7c-0.8,0.2-1.4,0.6-1.6,0.5c-0.3-0.2-0.5-0.9-0.5-1.3c0-0.2,0.8-0.6,1.1-0.4
		C23.4,189.5,23.6,190.1,24.1,190.7z"/>
	<path class="st0" d="M117.1,58.9c0.2,0.7,0.6,1.2,0.5,1.6c-0.1,0.4-0.8,0.6-1.2,0.9c-0.3-0.5-0.7-1-0.7-1.5
		C115.7,59.6,116.5,59.3,117.1,58.9z"/>
	<path class="st0" d="M24,311c-0.8,0.2-1.4,0.5-1.7,0.3c-0.3-0.2-0.4-0.9-0.6-1.3c0.5-0.2,1-0.5,1.4-0.4
		C23.4,309.7,23.6,310.4,24,311z"/>
	<path class="st0" d="M102.8,436.8c0.3,0.7,0.7,1.3,0.5,1.6c-0.1,0.3-0.8,0.5-1.3,0.5c-0.2,0-0.6-0.8-0.5-1
		C101.7,437.5,102.2,437.3,102.8,436.8z"/>
	<path class="st0" d="M38.9,151.2c-0.8,0.2-1.4,0.6-1.6,0.5c-0.3-0.2-0.5-0.9-0.5-1.3c0-0.2,0.8-0.6,1.1-0.4
		C38.2,150,38.4,150.6,38.9,151.2z"/>
	<path class="st0" d="M17.4,248.5c-0.8,0.2-1.4,0.5-1.7,0.3c-0.3-0.2-0.4-0.9-0.6-1.3c0.5-0.2,1-0.5,1.4-0.4
		C16.9,247.1,17.1,247.8,17.4,248.5z"/>
	<path class="st0" d="M26.3,320.8c-0.2-0.7-0.6-1.3-0.4-1.6c0.2-0.4,0.8-0.5,1.2-0.8c0.2,0.5,0.6,1,0.6,1.6
		C27.8,320.2,27,320.4,26.3,320.8z"/>
	<path class="st0" d="M27.3,178.4c-0.2-0.8-0.6-1.4-0.4-1.7c0.2-0.3,0.9-0.5,1.3-0.4c0.2,0,0.6,0.8,0.4,1.1
		C28.4,177.7,27.9,177.9,27.3,178.4z"/>
	<path class="st0" d="M61,392.5c-0.8,0.1-1.3,0.4-1.7,0.2c-0.2-0.1-0.6-0.9-0.4-1.1c0.3-0.3,0.9-0.7,1.2-0.6
		C60.4,391.2,60.6,391.9,61,392.5z"/>
	<path class="st0" d="M132.4,458.4c-0.2-0.7-0.6-1.5-0.5-1.6c0.3-0.4,1-0.5,1.5-0.7c0.1,0.5,0.5,1,0.4,1.4
		C133.7,457.8,133,458,132.4,458.4z"/>
	<path class="st0" d="M120.4,450.9c0.1,0.8,0.3,1.3,0.1,1.7c-0.1,0.3-1,0.5-1.1,0.4c-0.3-0.3-0.6-1-0.5-1.3
		C119,451.4,119.7,451.2,120.4,450.9z"/>
	<path class="st0" d="M56.9,383.3c-0.7,0.3-1.3,0.7-1.6,0.6c-0.4-0.2-0.5-0.8-0.7-1.3c0.4-0.2,0.9-0.7,1.3-0.6
		C56.2,382.1,56.5,382.7,56.9,383.3z"/>
	<path class="st0" d="M20.8,279.5c-0.7,0.3-1.4,0.9-1.5,0.8c-0.4-0.3-0.6-1-0.9-1.5c0.4-0.2,0.9-0.6,1.3-0.6
		C20.1,278.3,20.3,278.9,20.8,279.5z"/>
	<path class="st0" d="M65,401.6c-0.7,0.2-1.3,0.5-1.4,0.3c-0.3-0.3-0.4-0.8-0.6-1.3c0.4-0.1,0.9-0.5,1.1-0.4
		C64.5,400.4,64.6,400.9,65,401.6z"/>
	<path class="st0" d="M86.4,424.5c-0.6,0.2-1.2,0.6-1.4,0.5c-0.4-0.3-0.6-0.8-0.7-1.2c0-0.1,0.8-0.6,1-0.5
		C85.8,423.4,86,423.9,86.4,424.5z"/>
	<path class="st0" d="M164.6,476.3c-0.6,0.3-1.1,0.7-1.3,0.5c-0.4-0.2-0.6-0.8-0.7-1.2c0-0.2,0.8-0.7,1-0.6
		C163.9,475.3,164.1,475.8,164.6,476.3z"/>
	<path class="st0" d="M149.6,471.9c-0.1-0.5-0.3-1-0.1-1.4c0.1-0.2,1-0.5,1.1-0.3c0.3,0.3,0.5,0.9,0.4,1.3c-0.1,0.4-0.5,0.7-0.8,1
		C150,472.4,149.8,472.1,149.6,471.9z"/>
	<path class="st0" d="M176.2,482.2c-0.2-0.7-0.5-1.2-0.5-1.6c0-0.2,0.7-0.4,1-0.6"/>
	<path class="st0" d="M19,300.2c0.2,0.7,0.5,1.2,0.4,1.6c0,0.2-0.9,0.6-1,0.5c-0.3-0.3-0.6-0.8-0.6-1.2
		C17.8,300.8,18.4,300.6,19,300.2z"/>
	<path class="st0" d="M43.2,136.5c0.1,0.7,0.2,1.2,0.1,1.6c-0.1,0.2-1,0.4-1.1,0.3c-0.2-0.4-0.4-0.9-0.3-1.3
		C41.9,136.8,42.6,136.8,43.2,136.5z"/>
	<path class="st0" d="M99,67.3c0.2,0.7,0.5,1.2,0.4,1.6c-0.1,0.2-0.7,0.3-1,0.5c-0.2-0.4-0.5-0.9-0.5-1.3
		C97.8,67.9,98.4,67.7,99,67.3z"/>
	<path class="st0" d="M18.2,202.2c0.2,0.7,0.5,1.2,0.4,1.6c-0.1,0.2-0.7,0.4-1,0.5c-0.2-0.4-0.5-0.9-0.5-1.3
		C17.1,202.8,17.7,202.6,18.2,202.2z"/>
	<path class="st0" d="M61.9,106c0.2,0.7,0.4,1.2,0.4,1.6c0,0.2-0.9,0.5-1,0.4c-0.3-0.3-0.6-0.8-0.5-1.2
		C60.7,106.5,61.4,106.3,61.9,106z"/>
	<path class="st0" d="M176.8,22.7c-0.1,0.3-0.7,0.5-1.1,0.5c-0.1,0-0.5-0.6-0.5-0.8c0.1-0.4,0.5-0.6,1-1.2"/>
	<path class="st0" d="M130.3,44c-0.1-0.6-0.3-1.1-0.2-1.4c0-0.2,0.6-0.2,0.9-0.3c0.1,0.4,0.4,0.8,0.3,1.1
		C131.3,43.6,130.8,43.7,130.3,44z"/>
	<path class="st0" d="M168,27.1c-0.7,0.1-1.2,0.3-1.4,0.2c-0.2-0.2-0.3-0.8-0.3-1.2c0-0.1,0.7-0.4,0.9-0.3
		C167.5,26,167.6,26.5,168,27.1z"/>
	<path class="st0" d="M139.4,40c-0.2-0.7-0.4-1.1-0.4-1.4c0-0.2,0.7-0.6,0.8-0.5c0.3,0.2,0.7,0.7,0.7,1
		C140.5,39.3,140,39.6,139.4,40z"/>
	<path class="st0" d="M14,217c-0.6,0.2-1,0.5-1.2,0.3c-0.3-0.2-0.4-0.6-0.6-1c0.3-0.2,0.7-0.5,0.9-0.5C13.4,216,13.6,216.5,14,217z"
		/>
	<path class="st0" d="M148.5,35.9c-0.2-0.7-0.5-1.2-0.4-1.5c0.1-0.3,0.7-0.4,1.1-0.4c0.1,0,0.5,0.6,0.4,0.8
		C149.4,35.3,149,35.5,148.5,35.9z"/>
	<path class="st0" d="M159.1,31c-0.7,0.2-1.1,0.5-1.4,0.4c-0.2,0-0.6-0.6-0.5-0.8c0.2-0.3,0.6-0.8,0.9-0.7
		C158.3,29.9,158.6,30.4,159.1,31z"/>
	<path class="st0" d="M68.4,409.1c0.1,0.6,0.3,1,0.2,1.2c-0.3,0.2-0.7,0.4-1.1,0.4c-0.1,0-0.4-0.7-0.3-0.9
		C67.4,409.6,67.9,409.5,68.4,409.1z"/>
	<path class="st0" d="M137.6,465.1c0.1,0.7,0.2,1.1,0.1,1.4c-0.1,0.2-0.8,0.5-0.9,0.4c-0.3-0.3-0.6-0.8-0.5-1.1
		C136.3,465.5,136.9,465.4,137.6,465.1z"/>
	<path class="st0" d="M123.1,462.1c0-0.4-0.1-0.8,0.1-1.1c0.2-0.3,0.6-0.4,0.9-0.6c0.1,0.3,0.4,0.6,0.4,0.8c0,0.2-0.4,0.4-0.7,0.6
		C123.6,462,123.3,462.1,123.1,462.1z"/>
	<path class="st0" d="M76.5,90.7c-0.7-0.1-1.3,0-1.5-0.2c-0.2-0.2-0.1-0.8,0.1-1.2c0.1-0.1,0.8-0.2,0.9,0
		C76.2,89.5,76.3,90,76.5,90.7z"/>
	<path class="st0" d="M68.1,94.3c-1.3,0.3-1.8,0.5-1.8,0.4c-0.2-0.3-0.2-0.7-0.3-1.1c0.3,0,0.7-0.2,0.9-0.1
		C67.2,93.5,67.4,93.8,68.1,94.3z"/>
	<path class="st0" d="M90.5,72.9c-0.5,0.2-0.9,0.5-1.1,0.4c-0.3-0.2-0.4-0.7-0.6-1c0.4-0.1,0.8-0.4,1.1-0.3
		C90.1,72,90.2,72.5,90.5,72.9z"/>
	<path class="st0" d="M107.6,447.9c-0.8-0.1-1.2-0.1-1.5-0.3c-0.1-0.1-0.1-0.7,0.1-0.9c0.1-0.2,0.8-0.3,0.9-0.2
		C107.2,446.8,107.3,447.2,107.6,447.9z"/>
	<path class="st0" d="M90.4,433.4c-0.6,0.2-1,0.5-1.3,0.5c-0.2,0-0.5-0.7-0.4-0.8c0.2-0.3,0.6-0.5,1-0.6
		C89.8,432.5,90,432.9,90.4,433.4z"/>
	<path class="st0" d="M48,123.4c0.1,0.6,0.3,1.1,0.2,1.4c0,0.2-0.6,0.2-0.9,0.3c-0.1-0.4-0.4-0.8-0.3-1.1
		C47,123.8,47.5,123.7,48,123.4z"/>
	<path class="st0" d="M122.7,47.4c-0.5,0.2-1,0.5-1.2,0.3c-0.3-0.2-0.4-0.6-0.6-1c0.3-0.2,0.7-0.5,0.9-0.5
		C122.1,46.5,122.3,46.9,122.7,47.4z"/>
	<path class="st0" d="M29.5,155.2c-0.5,0.2-1,0.5-1.1,0.4c-0.2-0.3-0.3-0.7-0.5-1c0.3-0.1,0.7-0.3,0.9-0.2
		C29.1,154.3,29.2,154.8,29.5,155.2z"/>
	<path class="st0" d="M24.6,168.2c-0.5,0.2-0.9,0.6-1,0.5c-0.3-0.2-0.4-0.6-0.6-1c0.3-0.1,0.6-0.4,0.9-0.4
		C24.1,167.5,24.2,167.8,24.6,168.2z"/>
	<path class="st0" d="M15.7,292.7c-0.7,0.2-1.1,0.4-1.4,0.3c-0.2,0-0.6-0.7-0.5-0.8c0.2-0.3,0.7-0.7,0.9-0.7
		C15,291.6,15.2,292.1,15.7,292.7z"/>
	<path class="st0" d="M22.2,331.8c0.2,0.5,0.4,0.8,0.3,1c-0.1,0.2-0.5,0.4-0.8,0.6c-0.2-0.3-0.4-0.7-0.5-1
		C21.2,332.3,21.8,332,22.2,331.8z"/>
	<path class="st0" d="M27.5,342.1c-1.1,0.2-1.5,0.4-1.8,0.2c-0.2-0.1-0.3-0.5-0.4-0.8c0.4-0.1,0.7-0.4,1.1-0.3
		C26.7,341.2,26.9,341.6,27.5,342.1z"/>
	<path class="st0" d="M41.6,378.9c0-0.3,0-0.7,0.1-1c0.1-0.3,0.5-0.4,0.7-0.6c0.2,0.3,0.5,0.6,0.6,1c0,0.1-0.4,0.4-0.7,0.6
		C42.1,378.8,41.9,378.9,41.6,378.9z"/>
	<path class="st0" d="M30.6,349.9c0.1,0.6,0.3,1.1,0.1,1.2c-0.3,0.2-0.7,0.4-1.1,0.4c-0.1,0-0.4-0.7-0.3-0.9
		C29.6,350.3,30,350.2,30.6,349.9z"/>
	<path class="st0" d="M35.1,360.4c-0.5,0.1-0.9,0.2-1.1,0.1c-0.2-0.1-0.3-0.5-0.4-0.8c0.4-0.1,0.7-0.3,1.1-0.3
		C34.8,359.3,34.9,359.9,35.1,360.4z"/>
	<path class="st0" d="M39.3,369c-0.5,0.3-0.9,0.6-1,0.5c-0.3-0.2-0.4-0.6-0.7-0.9c0.3-0.1,0.6-0.4,0.9-0.4
		C38.7,368.3,38.9,368.7,39.3,369z"/>
	<path class="st0" d="M13,239.6c-0.7-0.1-1.2,0-1.5-0.2c-0.2-0.1-0.3-0.9-0.2-0.9c0.3-0.2,0.9-0.4,1.1-0.2
		C12.7,238.3,12.8,238.9,13,239.6z"/>
	<path class="st0" d="M11.3,283.4c-0.5,0.3-0.9,0.6-1,0.5c-0.3-0.2-0.4-0.6-0.7-0.9c0.3-0.1,0.6-0.4,0.9-0.4
		C10.8,282.7,11,283.1,11.3,283.4z"/>
	<path class="st0" d="M12.3,261.4c-0.6,0.2-1,0.5-1.2,0.3c-0.3-0.2-0.4-0.6-0.6-1c0.3-0.2,0.7-0.5,0.9-0.5
		C11.7,260.5,11.9,260.9,12.3,261.4z"/>
	<path class="st0" d="M18.6,324.1c-0.6,0-0.9,0.1-1.2,0c-0.1,0-0.3-0.5-0.2-0.6c0.2-0.2,0.6-0.5,0.8-0.4
		C18.2,323.1,18.3,323.6,18.6,324.1z"/>
	<path class="st0" d="M80,77.6c0-0.6-0.1-0.9,0-1.2c0.1-0.2,0.6-0.3,0.6-0.2c0.2,0.2,0.5,0.6,0.4,0.8C80.9,77.2,80.5,77.3,80,77.6z"
		/>
	<path class="st0" d="M8.1,252.2c-0.6,0.2-1,0.4-1.2,0.3c-0.2-0.1-0.3-0.5-0.3-0.8c0-0.1,0.4-0.3,0.6-0.3
		C7.5,251.5,7.6,251.8,8.1,252.2z"/>
	<path class="st0" d="M8.9,229.9c-0.6,0.2-0.9,0.5-1.1,0.4c-0.2-0.1-0.4-0.5-0.4-0.8c0-0.1,0.4-0.4,0.6-0.3
		C8.2,229.3,8.4,229.6,8.9,229.9z"/>
	<path class="st0" d="M168.3,485.5c-0.6,0-0.9,0.1-1.2,0c-0.1,0-0.3-0.5-0.2-0.6c0.2-0.2,0.6-0.5,0.8-0.4
		C167.9,484.5,168,485,168.3,485.5z"/>
	<path class="st0" d="M72.9,419.5c-0.6,0.1-0.9,0.2-1.2,0.2c-0.1,0-0.4-0.5-0.3-0.6c0.2-0.2,0.5-0.5,0.7-0.5
		C72.4,418.6,72.6,419,72.9,419.5z"/>
	<path class="st0" d="M46.8,386.1c0.2,0.6,0.4,1,0.3,1.2c-0.1,0.2-0.5,0.3-0.8,0.3c-0.1,0-0.4-0.5-0.3-0.6
		C46.1,386.7,46.4,386.5,46.8,386.1z"/>
	<path class="st0" d="M19.7,181.3c-0.6,0.2-0.9,0.5-1.1,0.4c-0.2-0.1-0.4-0.5-0.4-0.8c0-0.1,0.4-0.4,0.6-0.4
		C19,180.7,19.2,181,19.7,181.3z"/>
	<path class="st0" d="M34.5,141.9c-0.6,0.2-1,0.4-1.2,0.3c-0.2-0.1-0.3-0.5-0.3-0.8c0-0.1,0.4-0.4,0.6-0.3
		C33.9,141.2,34.1,141.5,34.5,141.9z"/>
	<path class="st0" d="M113.5,51.7c-0.6,0-0.9,0.1-1.2,0c-0.1-0.1-0.3-0.6-0.3-0.6c0.2-0.2,0.6-0.5,0.8-0.4
		C113,50.7,113.2,51.1,113.5,51.7z"/>
	<path class="st0" d="M14.7,194.7c-0.6,0.1-1,0.3-1.2,0.2c-0.2-0.1-0.2-0.6-0.2-0.8c0-0.1,0.5-0.3,0.6-0.2
		C14.1,193.9,14.3,194.3,14.7,194.7z"/>
	<path class="st0" d="M52.7,110.3c0.2,0.6,0.4,1,0.3,1.1c-0.1,0.2-0.5,0.3-0.8,0.3c-0.1,0-0.4-0.5-0.3-0.6
		C52,110.9,52.3,110.8,52.7,110.3z"/>
</g>
</svg>
