<?xml version="1.0" encoding="utf-8"?>
<!-- Generator: Adobe Illustrator 28.1.0, SVG Export Plug-In . SVG Version: 6.00 Build 0)  -->
<svg version="1.1" xmlns="http://www.w3.org/2000/svg" xmlns:xlink="http://www.w3.org/1999/xlink" x="0px" y="0px" width="500px"
	 height="500px" viewBox="0 0 500 500" enable-background="new 0 0 500 500" xml:space="preserve">
<g id="background">
</g>
<g id="objects">
	<g>
		<g>
			<circle fill-rule="evenodd" clip-rule="evenodd" fill="#04A1DF" cx="184.87" cy="237.89" r="8.4"/>
			<circle fill-rule="evenodd" clip-rule="evenodd" fill="#4ECDF4" cx="186.24" cy="235.81" r="4.93"/>
		</g>
		<g>
			<circle fill-rule="evenodd" clip-rule="evenodd" fill="#04A1DF" cx="312.18" cy="262.56" r="8.4"/>
			<circle fill-rule="evenodd" clip-rule="evenodd" fill="#4ECDF4" cx="313.55" cy="260.49" r="4.93"/>
		</g>
		<g>
			<circle fill-rule="evenodd" clip-rule="evenodd" fill="#04A1DF" cx="347.73" cy="268.89" r="8.4"/>
			<circle fill-rule="evenodd" clip-rule="evenodd" fill="#4ECDF4" cx="349.1" cy="266.82" r="4.93"/>
		</g>
		<polygon fill-rule="evenodd" clip-rule="evenodd" fill="#0D1B39" points="184.1,229.78 183.87,226.05 185.09,226.05 
			184.81,229.78 		"/>
		<path fill-rule="evenodd" clip-rule="evenodd" fill="#6102AE" d="M205.45,270.25c0,0,65.97-7.3,87.56,0
			C293.01,270.25,256.5,286.29,205.45,270.25z"/>
		<linearGradient id="SVGID_1_" gradientUnits="userSpaceOnUse" x1="228.8089" y1="278.3868" x2="228.8089" y2="193.7013">
			<stop  offset="0.0171" style="stop-color:#FFA12C"/>
			<stop  offset="0.9665" style="stop-color:#FFD800"/>
		</linearGradient>
		<path fill-rule="evenodd" clip-rule="evenodd" fill="url(#SVGID_1_)" d="M247.1,278.39c0,0,2.74-51.92-4.56-71.38
			s-32.53-11.84-32.53-11.84s17.74-1.45,27.4,19.75s6.65,63.47,6.65,63.47H247.1z"/>
		<path fill-rule="evenodd" clip-rule="evenodd" fill="#04A1DF" d="M244.06,278.39c0,0,6.18-53.57-13.48-76.76
			s-47.63,15.52-47.63,15.52l1.82,1.82c0,0,10.63-13.46,28.26-7.22s18.77,66.64,18.77,66.64H244.06z"/>
		<path fill-rule="evenodd" clip-rule="evenodd" fill="#0D1B39" d="M213.42,278.39l-4.24-13.52c0,0-13.5-36.98-31.94-40.71
			s-23.43,33.49-23.43,33.49h-3.16c0,0-6.47-39.42,20.91-52.86c30.16-14.82,68.62,27.37,68.62,27.37v46.24H213.42z"/>
		<path fill-rule="evenodd" clip-rule="evenodd" fill="#0D1B39" d="M286.33,278.39l4.24-13.52c0,0,13.5-36.98,31.94-40.71
			s23.43,33.49,23.43,33.49h3.16c0,0,6.47-39.42-20.91-52.86c-30.16-14.82-68.62,27.37-68.62,27.37v46.24H286.33z"/>
		<path fill-rule="evenodd" clip-rule="evenodd" fill="#04A1DF" d="M240.18,232.15c0,0,17.51-29.35,35.75-39.08
			c18.24-9.73,35.1,20.42,38.25,58.83h-3.13c0,0-9.06-33.58-26.26-28.12s-12.25,54.61-12.25,54.61h-32.36V232.15z"/>
		
			<linearGradient id="SVGID_00000091713630728040827850000018268259439182714527_" gradientUnits="userSpaceOnUse" x1="273.4394" y1="278.3868" x2="273.4394" y2="223.2404">
			<stop  offset="0.0335" style="stop-color:#FFD800"/>
			<stop  offset="0.9829" style="stop-color:#FFA12C"/>
		</linearGradient>
		<path fill-rule="evenodd" clip-rule="evenodd" fill="url(#SVGID_00000091713630728040827850000018268259439182714527_)" d="
			M259.58,278.39c0,0-2.61-53.92,27.77-55.15c0,0-18.67,1.47-14.81,55.15H259.58z"/>
		
			<linearGradient id="SVGID_00000066490912500995449270000014879678282691812516_" gradientUnits="userSpaceOnUse" x1="298.6352" y1="251.8994" x2="298.6352" y2="191.1819">
			<stop  offset="0.0171" style="stop-color:#FFA12C"/>
			<stop  offset="0.9665" style="stop-color:#FFD800"/>
		</linearGradient>
		<path fill-rule="evenodd" clip-rule="evenodd" fill="url(#SVGID_00000066490912500995449270000014879678282691812516_)" d="
			M314.18,251.9c0,0,4.02-20.11-1.91-38.2s-21.84-23.06-30.5-22.47C281.76,191.23,309.23,193.07,314.18,251.9z"/>
		
			<linearGradient id="SVGID_00000170961418026314375580000006955086037874730368_" gradientUnits="userSpaceOnUse" x1="194.6139" y1="278.3868" x2="194.6139" y2="223.2239">
			<stop  offset="0.0335" style="stop-color:#FFD800"/>
			<stop  offset="0.9829" style="stop-color:#FFA12C"/>
		</linearGradient>
		<path fill-rule="evenodd" clip-rule="evenodd" fill="url(#SVGID_00000170961418026314375580000006955086037874730368_)" d="
			M216.54,278.39c0,0-17-63.16-43.84-54.31c0,0,18.91-8.08,40.73,54.31H216.54z"/>
		
			<radialGradient id="SVGID_00000119810790951699857470000012656265616623389091_" cx="273.2979" cy="250.7869" r="21.9014" gradientUnits="userSpaceOnUse">
			<stop  offset="0" style="stop-color:#FFEADB"/>
			<stop  offset="0.9944" style="stop-color:#A40088"/>
		</radialGradient>
		
			<path opacity="0.5" fill-rule="evenodd" clip-rule="evenodd" fill="url(#SVGID_00000119810790951699857470000012656265616623389091_)" d="
			M259.58,278.39c0,0-2.05-51.99,27.77-55.15C287.35,223.24,255.64,219.34,259.58,278.39z"/>
		
			<radialGradient id="SVGID_00000168091316113912122750000015117233579960357003_" cx="297.9707" cy="221.5631" r="24.3208" gradientUnits="userSpaceOnUse">
			<stop  offset="0" style="stop-color:#FFEADB"/>
			<stop  offset="0.9944" style="stop-color:#A40088"/>
		</radialGradient>
		
			<path opacity="0.5" fill-rule="evenodd" clip-rule="evenodd" fill="url(#SVGID_00000168091316113912122750000015117233579960357003_)" d="
			M281.76,191.23c0,0,29.49,0.68,32.42,60.67C314.18,251.9,312.32,203.21,281.76,191.23z"/>
		
			<radialGradient id="SVGID_00000112622863076124649370000000888742468647041707_" cx="194.6139" cy="250.665" r="24.9903" gradientUnits="userSpaceOnUse">
			<stop  offset="0" style="stop-color:#FFEADB"/>
			<stop  offset="0.9944" style="stop-color:#A40088"/>
		</radialGradient>
		
			<path opacity="0.4" fill-rule="evenodd" clip-rule="evenodd" fill="url(#SVGID_00000112622863076124649370000000888742468647041707_)" d="
			M172.69,224.07c0,0,27.26-13.71,43.84,54.31C216.54,278.39,199.68,219.27,172.69,224.07z"/>
		
			<linearGradient id="SVGID_00000077282450823656007220000015641313326539793836_" gradientUnits="userSpaceOnUse" x1="243.2269" y1="278.3868" x2="243.2269" y2="232.1499">
			<stop  offset="5.586592e-03" style="stop-color:#A40088"/>
			<stop  offset="1" style="stop-color:#FFEADB"/>
		</linearGradient>
		
			<path opacity="0.6" fill-rule="evenodd" clip-rule="evenodd" fill="url(#SVGID_00000077282450823656007220000015641313326539793836_)" d="
			M240.18,232.15c0,0,3.43,35.68,11.03,46.24h-15.96C235.25,278.39,239.94,249.84,240.18,232.15z"/>
		<path fill-rule="evenodd" clip-rule="evenodd" fill="#0D1B39" d="M205.45,270.25c0,0,6.39,3.65,8.52,16.42l73.39-0.06
			c0,0,0.59-8.25,5.66-16.35c0,0-19.19,6.06-45.77,5.06C220.65,274.3,205.45,270.25,205.45,270.25z"/>
		<path fill-rule="evenodd" clip-rule="evenodd" fill="#04A1DF" d="M205.45,270.25c0,0,7,4.71,8.52,16.42l26.21-0.02
			c0,0,0.14-5.75-1.37-10.92l0.28-0.84C239.09,274.88,218.56,273.65,205.45,270.25z"/>
		<path fill-rule="evenodd" clip-rule="evenodd" fill="#04A1DF" d="M274.85,274.04L274.85,274.04c0,0-2.21,6.04-2.61,12.62
			l15.12-0.06c0,0,0.39-8.65,5.66-16.35C293.01,270.25,282.7,272.95,274.85,274.04z"/>
		<path fill-rule="evenodd" clip-rule="evenodd" fill="#FFFFFF" d="M205.45,270.25c0,0,46.82,11.35,87.56,0
			C293.01,270.25,253.79,285.55,205.45,270.25z"/>
		
			<linearGradient id="SVGID_00000170249394794040805360000008367375803957607565_" gradientUnits="userSpaceOnUse" x1="202.2811" y1="220.705" x2="240.1759" y2="220.705">
			<stop  offset="0" style="stop-color:#FFEADB"/>
			<stop  offset="0.9944" style="stop-color:#A40088"/>
		</linearGradient>
		
			<path opacity="0.6" fill-rule="evenodd" clip-rule="evenodd" fill="url(#SVGID_00000170249394794040805360000008367375803957607565_)" d="
			M202.28,205.11c0,0,22.3,11.65,37.77,31.2l0.13-4.16C240.18,232.15,227.08,215.77,202.28,205.11z"/>
		
			<linearGradient id="SVGID_00000085929346079151131760000000651094563387705742_" gradientUnits="userSpaceOnUse" x1="277.3037" y1="274.2063" x2="277.3037" y2="225.6396">
			<stop  offset="0" style="stop-color:#FFEADB"/>
			<stop  offset="0.9944" style="stop-color:#A40088"/>
		</linearGradient>
		
			<path opacity="0.6" fill-rule="evenodd" clip-rule="evenodd" fill="url(#SVGID_00000085929346079151131760000000651094563387705742_)" d="
			M277.38,273.65c0,0-7.17-28.84,5.24-48.01c0,0-12.5,7.68-10.4,48.57L277.38,273.65z"/>
		
			<linearGradient id="SVGID_00000168116530169187700720000000016590053912854953_" gradientUnits="userSpaceOnUse" x1="331.5011" y1="257.6463" x2="331.5011" y2="222.0538">
			<stop  offset="5.586592e-03" style="stop-color:#A40088"/>
			<stop  offset="1" style="stop-color:#FFEADB"/>
		</linearGradient>
		
			<path opacity="0.6" fill-rule="evenodd" clip-rule="evenodd" fill="url(#SVGID_00000168116530169187700720000000016590053912854953_)" d="
			M316.8,226.4c0,0,10-8.17,21.36-2.11c10.24,5.46,7.79,33.36,7.79,33.36S340.44,213.4,316.8,226.4z"/>
		
			<linearGradient id="SVGID_00000031166155214985992080000009485207356528941246_" gradientUnits="userSpaceOnUse" x1="174.4127" y1="257.6463" x2="174.4127" y2="218.558">
			<stop  offset="5.586592e-03" style="stop-color:#A40088"/>
			<stop  offset="1" style="stop-color:#FFEADB"/>
		</linearGradient>
		
			<path opacity="0.6" fill-rule="evenodd" clip-rule="evenodd" fill="url(#SVGID_00000031166155214985992080000009485207356528941246_)" d="
			M153.81,257.65c0,0-1.72-28.11,12.42-36.94c14.14-8.83,28.85,12.43,28.85,12.43s-13.33-15.35-26.48-7.49
			C156.66,232.78,153.81,257.65,153.81,257.65z"/>
		<path fill-rule="evenodd" clip-rule="evenodd" fill="#7E1B3E" d="M150.38,261.29c0,0,2.51,0.6,3.27-0.14
			C153.65,261.15,152.2,260.75,150.38,261.29z"/>
		<polygon fill-rule="evenodd" clip-rule="evenodd" fill="#0D1B39" points="151.89,261.38 151.66,257.65 152.88,257.65 
			152.6,261.38 		"/>
		<polygon fill-rule="evenodd" clip-rule="evenodd" fill="#0D1B39" points="347.35,261.38 347.12,257.65 348.34,257.65 
			348.06,261.38 		"/>
		<polygon fill-rule="evenodd" clip-rule="evenodd" fill="#0D1B39" points="312.4,255.63 312.18,251.9 313.39,251.9 313.11,255.63 
					"/>
		<path fill-rule="evenodd" clip-rule="evenodd" fill="#FFFFFF" d="M189.79,226.58c0,0,15.66,12.55,25.07,45.35
			C214.86,271.93,210.01,243.2,189.79,226.58z"/>
		<path fill-rule="evenodd" clip-rule="evenodd" fill="#FFFFC4" d="M285.73,193.07c0,0,23.32,9.47,28.45,58.83
			C314.18,251.9,311.13,211.66,285.73,193.07z"/>
		<path fill-rule="evenodd" clip-rule="evenodd" fill="#FFFFC4" d="M259.38,274.7c0,0-5.89-40.1,19.57-50.17
			C278.94,224.54,253.49,229.96,259.38,274.7z"/>
		
			<radialGradient id="SVGID_00000181086620124839298320000002402452148410572680_" cx="226.0337" cy="210.9655" r="16.4918" gradientUnits="userSpaceOnUse">
			<stop  offset="0" style="stop-color:#FFEADB"/>
			<stop  offset="0.9944" style="stop-color:#A40088"/>
		</radialGradient>
		
			<path opacity="0.4" fill-rule="evenodd" clip-rule="evenodd" fill="url(#SVGID_00000181086620124839298320000002402452148410572680_)" d="
			M242.06,227.91c0,0-3.77-41.24-32.04-32.74C210.01,195.17,231.9,187.45,242.06,227.91z"/>
		<path fill-rule="evenodd" clip-rule="evenodd" fill="#FFFFC4" d="M221.23,195.94c0,0,12.26,2.18,20.48,30.64
			C241.71,226.58,234.98,203.72,221.23,195.94z"/>
		<path fill-rule="evenodd" clip-rule="evenodd" fill="#FFFFFF" d="M223.82,195.17c0,0,13.03,1.69,16.7,24.23
			C240.52,219.4,237.18,200.7,223.82,195.17z"/>
		<path fill-rule="evenodd" clip-rule="evenodd" fill="#FFFFC4" d="M287.35,192.63c0,0,24.58,5.87,26.15,50.28
			C313.5,242.9,312.09,203.13,287.35,192.63z"/>
		<path fill-rule="evenodd" clip-rule="evenodd" fill="#FFFFC4" d="M259.66,271.59c0,0-0.51-33.5,19.51-45.95
			C279.17,225.64,261.42,237.35,259.66,271.59z"/>
		<path fill-rule="evenodd" clip-rule="evenodd" fill="#FFFFC4" d="M193.98,233.6c0,0,12.57,13.82,20.04,37.13
			C214.02,270.73,199.61,239.79,193.98,233.6z"/>
		<path fill-rule="evenodd" clip-rule="evenodd" fill="#FFFFFF" d="M223.44,274.7c0,0,28.9,5.1,60.63-1.77
			C284.07,272.93,256.55,280.99,223.44,274.7z"/>
		
			<linearGradient id="SVGID_00000050653781678676557950000000317214550433871795_" gradientUnits="userSpaceOnUse" x1="239.1299" y1="286.6433" x2="239.1299" y2="274.8804">
			<stop  offset="5.586592e-03" style="stop-color:#A40088"/>
			<stop  offset="1" style="stop-color:#FFEADB"/>
		</linearGradient>
		<path fill-rule="evenodd" clip-rule="evenodd" fill="url(#SVGID_00000050653781678676557950000000317214550433871795_)" d="
			M240.18,286.64c0,0-0.42-7.62-2.13-10.43l1.04-1.33l0.42,1.68C239.5,276.56,240.39,280.88,240.18,286.64z"/>
		
			<linearGradient id="SVGID_00000144322306633967485270000010067771094867604410_" gradientUnits="userSpaceOnUse" x1="274.0394" y1="286.6659" x2="274.0394" y2="274.0409">
			<stop  offset="5.586592e-03" style="stop-color:#A40088"/>
			<stop  offset="1" style="stop-color:#FFEADB"/>
		</linearGradient>
		<path fill-rule="evenodd" clip-rule="evenodd" fill="url(#SVGID_00000144322306633967485270000010067771094867604410_)" d="
			M272.24,286.67c0,0,1.15-8.76,3.61-11.96l-1-0.66l-0.81,0.98C274.04,275.02,272.36,280.02,272.24,286.67z"/>
		
			<linearGradient id="SVGID_00000089572946083299413740000005157350526528396222_" gradientUnits="userSpaceOnUse" x1="209.8996" y1="286.6659" x2="209.8996" y2="270.2484">
			<stop  offset="5.586592e-03" style="stop-color:#A40088"/>
			<stop  offset="1" style="stop-color:#FFEADB"/>
		</linearGradient>
		<path fill-rule="evenodd" clip-rule="evenodd" fill="url(#SVGID_00000089572946083299413740000005157350526528396222_)" d="
			M205.45,270.25c0,0,11.06,6.08,8.52,16.42C213.97,286.67,212.7,276.09,205.45,270.25z"/>
		
			<linearGradient id="SVGID_00000103960670666641519970000003334840195043182506_" gradientUnits="userSpaceOnUse" x1="290.0351" y1="286.6027" x2="290.0351" y2="270.2484">
			<stop  offset="5.586592e-03" style="stop-color:#A40088"/>
			<stop  offset="1" style="stop-color:#FFEADB"/>
		</linearGradient>
		<path fill-rule="evenodd" clip-rule="evenodd" fill="url(#SVGID_00000103960670666641519970000003334840195043182506_)" d="
			M287.35,286.6c0,0-2.25-8.6,5.66-16.35C293.01,270.25,288.39,276.96,287.35,286.6z"/>
		<path fill-rule="evenodd" clip-rule="evenodd" fill="#FFFFC4" d="M312.18,201.69c0,0,34.42-0.98,36.92,41.22
			C349.1,242.9,348.1,206,312.18,201.69z"/>
		<path fill-rule="evenodd" clip-rule="evenodd" fill="#FFFFC4" d="M151.17,238.1c0,0,2.92-35.4,33.31-35.41
			c28.49-0.01,52.08,29.46,52.08,29.46s-25.79-30-53.15-27.78C154.47,206.72,151.17,238.1,151.17,238.1z"/>
		<g>
			<circle fill-rule="evenodd" clip-rule="evenodd" fill="#04A1DF" cx="152.27" cy="267.91" r="8.4"/>
			<circle fill-rule="evenodd" clip-rule="evenodd" fill="#4ECDF4" cx="153.65" cy="265.84" r="4.93"/>
		</g>
	</g>
</g>
</svg>
