<?xml version="1.0" encoding="utf-8"?>
<!-- Generator: Adobe Illustrator 25.0.0, SVG Export Plug-In . SVG Version: 6.00 Build 0)  -->
<svg version="1.1" id="Capa_1" xmlns="http://www.w3.org/2000/svg" xmlns:xlink="http://www.w3.org/1999/xlink" x="0px" y="0px"
	 viewBox="0 0 341.4 257.5" style="enable-background:new 0 0 341.4 257.5;" xml:space="preserve">
<style type="text/css">
	.st0{fill:#093560;}
	.st1{fill:url(#SVGID_1_);}
	.st2{fill:#FDFEB0;}
	.st3{fill:url(#SVGID_2_);}
	.st4{fill:url(#SVGID_3_);}
	.st5{fill:url(#SVGID_4_);}
	.st6{fill:none;}
</style>
<g id="esquina_x2F_inferior_1_">
	<polygon class="st0" points="174.5,189.9 310.6,54 310.6,105.4 225.9,189.9 	"/>
	
		<linearGradient id="SVGID_1_" gradientUnits="userSpaceOnUse" x1="-117.5438" y1="-290.4619" x2="26.48" y2="-290.4619" gradientTransform="matrix(-1 0 0 1 26.48 514.16)">
		<stop  offset="0" style="stop-color:#052560"/>
		<stop  offset="1" style="stop-color:#02144C"/>
	</linearGradient>
	<polygon class="st1" points="67.6,189.9 0,257.5 77.5,257.5 144,189.9 	"/>
	<polygon class="st2" points="152.7,257.5 181.8,229 234.4,229 150.4,189.9 142.8,189.9 75.2,257.5 	"/>
	
		<linearGradient id="SVGID_2_" gradientUnits="userSpaceOnUse" x1="-147.5387" y1="-352.9529" x2="-212.8888" y2="-287.6029" gradientTransform="matrix(-1 0 0 1 26.48 514.16)">
		<stop  offset="0" style="stop-color:#04235E"/>
		<stop  offset="1" style="stop-color:#06508F"/>
	</linearGradient>
	<polygon class="st3" points="155.3,257.5 184.4,229 236.9,229 310.6,155.3 310.7,105.3 225.9,189.9 145.3,189.9 77.7,257.5 	"/>
	
		<linearGradient id="SVGID_3_" gradientUnits="userSpaceOnUse" x1="-342.4552" y1="-461.2773" x2="-205.1097" y2="-230.9457" gradientTransform="matrix(-1 0 0 1 26.48 514.16)">
		<stop  offset="0" style="stop-color:#00D4F4"/>
		<stop  offset="0.2393" style="stop-color:#00D1F2"/>
		<stop  offset="0.4139" style="stop-color:#00C8EE"/>
		<stop  offset="0.568" style="stop-color:#00B8E5"/>
		<stop  offset="0.7103" style="stop-color:#00A1DA"/>
		<stop  offset="0.8444" style="stop-color:#0184CB"/>
		<stop  offset="0.9707" style="stop-color:#0161B9"/>
		<stop  offset="1" style="stop-color:#0158B4"/>
	</linearGradient>
	<polygon class="st4" points="341.6,257.5 152.2,257.5 183.1,227.2 235.6,227.2 309.3,153.5 309.4,29.9 341.6,0 	"/>
	
		<linearGradient id="SVGID_4_" gradientUnits="userSpaceOnUse" x1="-203.7888" y1="-402.1028" x2="-332.1888" y2="-273.703" gradientTransform="matrix(-1 0 0 1 26.48 514.16)">
		<stop  offset="0" style="stop-color:#022266"/>
		<stop  offset="1" style="stop-color:#0876B4"/>
	</linearGradient>
	<polygon class="st5" points="341.6,257.5 155.3,257.5 184.4,229 236.9,229 311,154.9 310.9,31.4 341.6,3 	"/>
</g>
<path class="st6" d="M286.9,77.6"/>
<path class="st6" d="M171.4,193"/>
</svg>
