<svg width="38" height="47" viewBox="0 0 38 47" fill="none" xmlns="http://www.w3.org/2000/svg">
<g clip-path="url(#clip0_1103_2413)">
<path d="M37.08 0.875117C36.97 0.645117 36.73 0.495117 36.47 0.495117H23.03C22.82 0.495117 22.62 0.595117 22.49 0.755117L18.58 5.75512L14.66 0.755117C14.53 0.595117 14.33 0.495117 14.12 0.495117H9.78002H5.03002H0.680019C0.420019 0.495117 0.180019 0.645117 0.0700185 0.875117C-0.0399815 1.11512 -0.00998147 1.38512 0.150019 1.59512L9.25002 13.2151C9.02002 13.5251 8.90002 13.8951 8.90002 14.2951V20.9851C5.88002 23.6651 3.98002 27.5651 3.98002 31.9051C3.98002 39.9551 10.53 46.5051 18.58 46.5051C26.63 46.5051 33.18 39.9551 33.18 31.9051C33.18 27.5651 31.28 23.6651 28.26 20.9851V14.2951C28.26 13.8951 28.13 13.5151 27.9 13.2151L37 1.59512C37.16 1.38512 37.19 1.10512 37.08 0.875117ZM27.7 1.86512H30.71L23.11 11.5651L21.6 9.64512L27.69 1.87512L27.7 1.86512ZM23.36 1.86512H25.97L20.75 8.52512L19.45 6.86512L23.37 1.86512H23.36ZM13.79 1.86512L23.89 14.7551H21.28L11.18 1.86512H13.79ZM24.61 16.1151V18.6051C22.77 17.7651 20.73 17.2951 18.57 17.2951C16.41 17.2951 14.37 17.7651 12.53 18.6051V16.1151H24.6H24.61ZM2.09002 1.86512H4.70002L8.29002 6.44512C8.52002 6.74512 8.95002 6.79512 9.25002 6.56512C9.55002 6.33512 9.60002 5.90512 9.37002 5.60512L6.44002 1.86512H9.45002L19.55 14.7551H16.53L11.4 8.20512C11.17 7.90512 10.74 7.85512 10.44 8.08512C10.14 8.31512 10.09 8.74512 10.32 9.04512L14.79 14.7551H12.18L2.09002 1.86512ZM11.17 15.6751V19.3251C10.86 19.5051 10.55 19.7051 10.26 19.9051V14.5051L11.17 15.6651V15.6751ZM31.81 31.9051C31.81 39.2051 25.87 45.1451 18.58 45.1451C11.29 45.1451 5.34002 39.2051 5.34002 31.9051C5.34002 24.6051 11.28 18.6651 18.58 18.6651C25.88 18.6651 31.81 24.6051 31.81 31.9051ZM25.97 15.3651C25.97 15.3351 25.97 15.3151 25.96 15.2851C25.96 15.2851 25.96 15.2751 25.96 15.2651C25.96 15.2451 25.95 15.2151 25.94 15.1951C25.94 15.1951 25.94 15.1951 25.94 15.1851C25.93 15.1551 25.92 15.1351 25.9 15.1051C25.9 15.1051 25.9 15.1051 25.9 15.0951C25.89 15.0751 25.87 15.0551 25.86 15.0351L24.94 13.8651H26.46C26.71 13.8651 26.92 14.0651 26.92 14.3251V19.9351C26.62 19.7251 26.32 19.5351 26.01 19.3551V15.4651C26.01 15.4651 26.01 15.4151 26.01 15.3951L25.97 15.3651ZM26.73 12.5051C26.63 12.4851 26.54 12.4751 26.44 12.4751H24.15L32.45 1.86512H35.06L26.72 12.5051H26.73Z" fill="#FFEC2D"/>
<path d="M28.58 27.0952C28.41 26.7352 27.97 26.5952 27.62 26.7952C27.31 26.9752 27.19 27.3652 27.34 27.6852C27.97 28.9952 28.3 30.4452 28.3 31.9152C28.3 37.4152 23.72 41.8552 18.18 41.6452C13.13 41.4452 9.03 37.3552 8.84 32.3052C8.63 26.7652 13.07 22.1852 18.57 22.1852C21.26 22.1852 23.79 23.2852 25.63 25.2152C25.88 25.4752 26.29 25.5052 26.56 25.2752C26.86 25.0252 26.89 24.5652 26.62 24.2852C24.53 22.0752 21.63 20.8252 18.57 20.8252C12.3 20.8252 7.23 26.0452 7.48 32.3652C7.7 38.1252 12.37 42.7952 18.14 43.0252C24.46 43.2652 29.68 38.1952 29.68 31.9352C29.68 30.2652 29.3 28.6152 28.58 27.1252V27.0952Z" fill="#FFEC2D"/>
<path d="M19.11 24.4756C18.87 24.4756 18.71 24.5556 18.57 24.6956L16.48 26.7056C16.22 26.8856 16.06 27.2256 16.06 27.5256C16.06 27.9456 16.36 28.3856 16.78 28.3856C16.9 28.3856 17.08 28.3256 17.22 28.1856L17.92 27.3056V38.4556C17.92 38.9156 18.44 39.1556 18.98 39.1556C19.52 39.1556 20.04 38.9156 20.04 38.4556V25.1756C20.04 24.7356 19.54 24.4756 19.1 24.4756H19.11Z" fill="#FFEC2D"/>
</g>
<defs>
<clipPath id="clip0_1103_2413">
<rect width="37.15" height="46.01" fill="white" transform="translate(0 0.495117)"/>
</clipPath>
</defs>
</svg>
