<svg width="46" height="46" viewBox="0 0 46 46" fill="none" xmlns="http://www.w3.org/2000/svg">
<path d="M22.531 37.7702C22.5309 37.77 22.5335 37.7659 22.5387 37.7586C22.5336 37.7667 22.5311 37.7704 22.531 37.7702ZM24.8404 38.2788C24.8403 38.2791 24.8395 38.2748 24.8383 38.2651C24.8399 38.2737 24.8405 38.2785 24.8404 38.2788ZM24.1116 7.83772C24.1116 7.83797 24.109 7.8421 24.1039 7.84937C24.109 7.84111 24.1116 7.83747 24.1116 7.83772ZM21.8022 7.32907C21.8023 7.32885 21.8031 7.33324 21.8043 7.34289C21.8027 7.33411 21.8021 7.32929 21.8022 7.32907ZM17.0762 27.679H21.8213V37.4088C21.8213 37.4312 21.8213 37.4536 21.8213 37.4761C21.8212 37.8614 21.821 38.2663 21.8544 38.5766C21.8713 38.7337 21.909 39.0106 22.0346 39.2916C22.1753 39.6063 22.5168 40.1036 23.1949 40.2529C23.8729 40.4023 24.3918 40.0945 24.6516 39.868C24.8837 39.6657 25.0342 39.4303 25.1155 39.2949C25.2762 39.0273 25.4462 38.6599 25.6079 38.3102C25.6174 38.2898 25.6268 38.2694 25.6362 38.2491L32.7426 22.8994C32.7553 22.8719 32.768 22.8445 32.7807 22.817C33.0432 22.2504 33.3061 21.6831 33.4491 21.1973C33.6063 20.6634 33.7335 19.8583 33.238 19.0828C32.7425 18.3073 31.9584 18.0845 31.4079 18.0029C30.907 17.9286 30.2817 17.9288 29.6572 17.9289C29.627 17.9289 29.5967 17.929 29.5664 17.929H24.8213V8.19908C24.8213 8.17674 24.8213 8.1543 24.8213 8.1318C24.8214 7.74647 24.8215 7.34164 24.7882 7.03129C24.7713 6.87421 24.7336 6.59733 24.608 6.31632C24.4673 6.0016 24.1258 5.50433 23.4477 5.35498C22.7696 5.20563 22.2508 5.51341 21.9909 5.73992C21.7589 5.94216 21.6084 6.17757 21.527 6.31302C21.3664 6.58063 21.1964 6.94806 21.0346 7.29779C21.0252 7.3182 21.0157 7.33856 21.0064 7.35883L13.9 22.7085C13.8873 22.736 13.8746 22.7635 13.8618 22.7909C13.5993 23.3575 13.3365 23.9249 13.1935 24.4106C13.0363 24.9445 12.9091 25.7496 13.4046 26.5251C13.9001 27.3006 14.6842 27.5234 15.2347 27.605C15.7356 27.6793 16.3609 27.6791 16.9853 27.679C17.0156 27.679 17.0459 27.679 17.0762 27.679Z" stroke="#FFEC2D" stroke-width="3"/>
</svg>
