<svg width="24" height="30" viewBox="0 0 24 30" fill="none" xmlns="http://www.w3.org/2000/svg">
<path d="M12.3213 15.045L3.0089 8.70633C2.46174 8.3339 2.13428 7.71488 2.13428 7.053L2.13428 2.44743C2.13428 2.17129 2.35814 1.94743 2.63428 1.94743L22.0083 1.94743C22.2844 1.94743 22.5083 2.17129 22.5083 2.44743L22.5083 7.053C22.5083 7.71488 22.1808 8.3339 21.6337 8.70633L12.3213 15.045ZM12.3213 15.045L3.0089 21.3837C2.46174 21.7561 2.13428 22.3752 2.13428 23.037L2.13428 27.6426C2.13428 27.9187 2.35813 28.1426 2.63428 28.1426L22.0083 28.1426C22.2844 28.1426 22.5083 27.9188 22.5083 27.6426L22.5083 23.037C22.5083 22.3752 22.1808 21.7561 21.6337 21.3837L12.3213 15.045Z" stroke="#FFEC2D" stroke-width="3" stroke-linecap="round" stroke-linejoin="round"/>
<path d="M6.50016 5.30853L6.50016 2.09744C6.50016 2.0146 6.56732 1.94744 6.65016 1.94744L17.9925 1.94744C18.0753 1.94744 18.1425 2.0146 18.1425 2.09744L18.1425 5.30853C18.1425 5.48093 18.0536 5.64116 17.9075 5.73253L12.7453 8.95888C12.4859 9.12101 12.1567 9.12101 11.8973 8.95888L6.73516 5.73253C6.58897 5.64116 6.50016 5.48093 6.50016 5.30853Z" fill="#FFEC2D"/>
</svg>
