<svg width="38" height="47" viewBox="0 0 38 47" fill="none" xmlns="http://www.w3.org/2000/svg">
<g clip-path="url(#clip0_1103_2441)">
<mask id="mask0_1103_2441" style="mask-type:luminance" maskUnits="userSpaceOnUse" x="0" y="0" width="38" height="47">
<path d="M37.27 0.419922H0V46.5799H37.27V0.419922Z" fill="white"/>
</mask>
<g mask="url(#mask0_1103_2441)">
<path d="M37.05 0.709961C36.92 0.549961 36.71 0.459961 36.5 0.459961H23.08C22.87 0.459961 22.67 0.559961 22.54 0.719961L18.63 5.71996L14.71 0.719961C14.58 0.559961 14.38 0.459961 14.17 0.459961H9.82999H5.07999H0.749988C0.539988 0.459961 0.339988 0.539961 0.199988 0.709961C-1.22041e-05 0.959961 -1.22041e-05 1.30996 0.199988 1.55996L9.29999 13.18C9.06999 13.49 8.94999 13.86 8.94999 14.26V20.95C5.84999 23.7 3.91999 27.75 4.02999 32.23C4.21999 39.96 10.47 46.24 18.2 46.47C26.45 46.71 33.23 40.07 33.23 31.87C33.23 27.53 31.33 23.63 28.31 20.95V14.26C28.31 13.86 28.18 13.48 27.95 13.18L32.51 7.35996C32.74 7.05996 32.69 6.62996 32.39 6.39996C32.09 6.16996 31.66 6.21996 31.43 6.51996L26.77 12.46C26.67 12.44 26.58 12.43 26.48 12.43H24.19L32.51 1.81996H35.12L33.34 4.08996C33.11 4.38996 33.16 4.81996 33.46 5.04996C33.76 5.27996 34.19 5.22996 34.42 4.92996L37.06 1.55996C37.25 1.30996 37.26 0.959961 37.06 0.709961H37.05ZM23.41 1.81996H26.02L20.8 8.47996L19.5 6.81996L23.42 1.81996H23.41ZM13.84 1.81996L23.94 14.71H21.33L11.23 1.81996H13.84ZM9.49999 1.81996L19.6 14.71H16.59L6.47999 1.81996H9.48999H9.49999ZM2.13999 1.81996H4.74999L14.85 14.71H12.24L2.13999 1.81996ZM11.22 15.63V19.28C10.91 19.46 10.6 19.66 10.31 19.86V14.46L11.22 15.62V15.63ZM31.86 31.87C31.86 39.17 25.92 45.11 18.63 45.11C11.34 45.11 5.38999 39.17 5.38999 31.87C5.38999 24.57 11.33 18.63 18.63 18.63C25.93 18.63 31.86 24.57 31.86 31.87ZM26.48 13.8C26.73 13.8 26.94 14 26.94 14.26V19.87C26.64 19.66 26.34 19.47 26.03 19.28V15.39C26.03 15.39 26.03 15.34 26.03 15.32C26.03 15.29 26.03 15.26 26.02 15.24C26.02 15.24 26.02 15.23 26.02 15.22C26.02 15.19 26.01 15.17 26 15.15C25.99 15.12 25.98 15.1 25.96 15.07C25.96 15.07 25.96 15.07 25.96 15.06C25.95 15.04 25.93 15.02 25.92 15L25 13.83H26.52L26.48 13.8ZM24.66 16.08V18.57C22.82 17.73 20.78 17.26 18.62 17.26C16.46 17.26 14.42 17.73 12.58 18.57V16.08H24.65H24.66ZM23.17 11.52L21.66 9.59996L27.75 1.82996H30.76L23.16 11.53L23.17 11.52Z" fill="#FFEC2D"/>
</g>
<path d="M29.72 31.4299C29.5 25.6699 24.83 20.9999 19.06 20.7699C12.74 20.5299 7.52002 25.5999 7.52002 31.8599C7.52002 32.1099 7.52002 32.3499 7.54002 32.5999C7.57002 32.9899 7.92002 33.2799 8.31002 33.2299C8.67002 33.1799 8.93002 32.8699 8.90002 32.5099C8.89002 32.2999 8.88002 32.0799 8.88002 31.8699C8.88002 26.3699 13.46 21.9299 19 22.1399C24.05 22.3399 28.15 26.4299 28.34 31.4799C28.55 37.0199 24.11 41.5999 18.61 41.5999C14.58 41.5999 11.02 39.1499 9.55002 35.4499C9.42002 35.1099 9.05002 34.9299 8.70002 35.0399C8.33002 35.1599 8.13002 35.5699 8.27002 35.9399C9.03002 37.8699 10.31 39.5399 12 40.7899C13.92 42.2099 16.21 42.9699 18.61 42.9699C24.88 42.9699 29.95 37.7499 29.7 31.4299H29.72Z" fill="#FFEC2D"/>
<path d="M22.6 36.8198H16.7V36.0598C16.7 33.7498 23.2 32.3498 23.2 28.0398C23.2 25.6298 21.23 24.0498 18.91 24.0498C16.72 24.0498 14.8 25.4498 14.8 27.5998C14.8 28.4998 15.2 28.7798 15.76 28.7798C16.46 28.7798 16.88 28.3798 16.88 27.9798C16.88 26.6198 17.78 25.9898 18.91 25.9898C20.43 25.9898 21.08 27.1098 21.08 28.0998C21.08 31.1898 14.52 32.8098 14.52 36.0598V38.0098C14.52 38.4298 15.06 38.7098 15.46 38.7098H22.6C22.96 38.7098 23.3 38.2498 23.3 37.7498C23.3 37.2498 22.96 36.8298 22.6 36.8298V36.8198Z" fill="#FFEC2D"/>
</g>
<defs>
<clipPath id="clip0_1103_2441">
<rect width="37.27" height="46.16" fill="white" transform="translate(0 0.419922)"/>
</clipPath>
</defs>
</svg>
