<svg width="32" height="33" viewBox="0 0 32 33" fill="none" xmlns="http://www.w3.org/2000/svg">
<path d="M12.125 10.9167L16.5497 14.2353C16.9682 14.5491 17.5579 14.4874 17.9023 14.0938L26.3333 4.45834" stroke="#FFEC2D" stroke-width="3" stroke-linecap="round"/>
<path d="M27.625 13.5C27.625 15.929 26.8642 18.2969 25.4493 20.2713C24.0345 22.2457 22.0368 23.7273 19.7367 24.5081C17.4367 25.2888 14.9498 25.3295 12.6254 24.6244C10.3011 23.9193 8.25593 22.5039 6.77727 20.5769C5.29861 18.6498 4.4607 16.308 4.38122 13.8804C4.30175 11.4527 4.9847 9.06111 6.33417 7.0415C7.68363 5.02188 9.63181 3.4757 11.9051 2.62009C14.1784 1.76449 16.6626 1.64245 19.0088 2.27111" stroke="#FFEC2D" stroke-width="3" stroke-linecap="round"/>
</svg>
