<svg width="38" height="39" viewBox="0 0 38 39" fill="none" xmlns="http://www.w3.org/2000/svg">
<circle cx="14.25" cy="15.25" r="4.83333" stroke="#FFEC2D" stroke-width="3" stroke-linecap="round"/>
<path d="M19.352 15.2083C19.783 14.4619 20.4929 13.9172 21.3255 13.6941C22.158 13.471 23.0452 13.5878 23.7916 14.0188C24.5381 14.4497 25.0828 15.1596 25.3059 15.9922C25.529 16.8248 25.4122 17.7119 24.9812 18.4583C24.5502 19.2048 23.8404 19.7495 23.0078 19.9726C22.1752 20.1957 21.2881 20.0789 20.5416 19.6479C19.7952 19.2169 19.2505 18.5071 19.0274 17.6745C18.8043 16.8419 18.9211 15.9548 19.352 15.2083L19.352 15.2083Z" stroke="#FFEC2D" stroke-width="3"/>
<path d="M21.9792 31.0833L20.5087 31.3795L20.7512 32.5833H21.9792V31.0833ZM28.2582 29.98L29.7014 29.5712L28.2582 29.98ZM18.653 25.875L17.7457 24.6805L16.0108 25.9982L17.8608 27.1488L18.653 25.875ZM27.3672 29.5833H21.9792V32.5833H27.3672V29.5833ZM26.815 30.3888C26.7563 30.1817 26.8125 29.9518 26.9431 29.7935C27.0641 29.6471 27.2269 29.5833 27.3672 29.5833V32.5833C28.8193 32.5833 30.1747 31.242 29.7014 29.5712L26.815 30.3888ZM22.1667 26.25C23.7166 26.25 24.7167 26.8757 25.4192 27.6749C26.1618 28.5198 26.5882 29.5881 26.815 30.3888L29.7014 29.5712C29.4142 28.5573 28.8296 27.0107 27.6724 25.6942C26.475 24.332 24.6863 23.25 22.1667 23.25V26.25ZM19.5602 27.0695C20.1832 26.5963 21.0113 26.25 22.1667 26.25V23.25C20.3455 23.25 18.8822 23.8173 17.7457 24.6805L19.5602 27.0695ZM17.8608 27.1488C19.5348 28.1899 20.2311 30.0008 20.5087 31.3795L23.4497 30.7872C23.1064 29.0827 22.1532 26.2855 19.4451 24.6013L17.8608 27.1488Z" fill="#FFEC2D"/>
<path d="M14.25 24.75C20.4118 24.75 21.7776 29.5459 22.0804 31.6721C22.1583 32.2189 21.7189 32.6667 21.1666 32.6667H7.33331C6.78103 32.6667 6.34168 32.2189 6.41954 31.6721C6.72232 29.5459 8.0882 24.75 14.25 24.75Z" stroke="#FFEC2D" stroke-width="3" stroke-linecap="round"/>
<path d="M29 1.93434V10.0657" stroke="#FFEC2D" stroke-width="3" stroke-linecap="round"/>
<path d="M33.1602 6L24.8398 6" stroke="#FFEC2D" stroke-width="3" stroke-linecap="round"/>
</svg>
