<svg width="35" height="33" viewBox="0 0 35 33" fill="none" xmlns="http://www.w3.org/2000/svg">
<path d="M0.934387 16.908C0.934387 8.07558 8.09444 0.915527 16.9268 0.915527H18.0652C26.8976 0.915527 34.0577 8.07558 34.0577 16.908C34.0577 25.7403 26.8976 32.9004 18.0652 32.9004H16.9268C8.09444 32.9004 0.934387 25.7403 0.934387 16.908Z" fill="url(#paint0_linear_614_1479)"/>
<path d="M8.49603 14.2643C8.49603 13.2403 9.32614 12.4102 10.3501 12.4102V12.4102C11.0524 12.4102 11.6944 12.0134 12.0085 11.3852L12.8294 9.74349C12.9393 9.52357 12.9943 9.41362 13.0566 9.31798C13.3819 8.81897 13.9127 8.49093 14.5045 8.42315C14.6179 8.41016 14.7409 8.41016 14.9867 8.41016H20.0053C20.2512 8.41016 20.3741 8.41016 20.4876 8.42315C21.0793 8.49093 21.6101 8.81897 21.9354 9.31798C21.9978 9.41362 22.0527 9.52357 22.1627 9.74349L22.9836 11.3852C23.2976 12.0134 23.9396 12.4102 24.6419 12.4102V12.4102C25.6659 12.4102 26.496 13.2403 26.496 14.2643V19.2673C26.496 21.2721 26.496 22.2744 26.0362 23.0063C25.7964 23.3879 25.4737 23.7105 25.0921 23.9503C24.3603 24.4102 23.3579 24.4102 21.3532 24.4102H13.6389C11.6341 24.4102 10.6317 24.4102 9.89994 23.9503C9.51832 23.7105 9.19564 23.3879 8.95586 23.0063C8.49603 22.2744 8.49603 21.2721 8.49603 19.2673V14.2643Z" stroke="#FFEC2D" stroke-width="2"/>
<circle cx="17.496" cy="17.4102" r="3" stroke="#FFEC2D" stroke-width="2"/>
<defs>
<linearGradient id="paint0_linear_614_1479" x1="17.496" y1="0.915527" x2="17.496" y2="32.9004" gradientUnits="userSpaceOnUse">
<stop stop-color="#00A3E0"/>
<stop offset="1" stop-color="#1E529D"/>
</linearGradient>
</defs>
</svg>
