<svg width="38" height="47" viewBox="0 0 38 47" fill="none" xmlns="http://www.w3.org/2000/svg">
<g clip-path="url(#clip0_1103_2449)">
<mask id="mask0_1103_2449" style="mask-type:luminance" maskUnits="userSpaceOnUse" x="0" y="0" width="38" height="47">
<path d="M37.27 0.419922H0V46.5799H37.27V0.419922Z" fill="white"/>
</mask>
<g mask="url(#mask0_1103_2449)">
<path d="M37.05 0.709961C36.92 0.549961 36.71 0.459961 36.5 0.459961H23.08C22.87 0.459961 22.67 0.559961 22.54 0.719961L18.63 5.71996L14.71 0.719961C14.58 0.549961 14.38 0.459961 14.17 0.459961H9.82999H5.07999H0.749988C0.539988 0.459961 0.339988 0.539961 0.199988 0.709961C-1.22041e-05 0.959961 -1.22041e-05 1.30996 0.199988 1.55996L9.29999 13.18C9.06999 13.49 8.94999 13.86 8.94999 14.26V20.95C5.84999 23.7 3.91999 27.75 4.02999 32.24C4.22999 40.16 10.79 46.52 18.71 46.48C23.02 46.46 27.02 44.58 29.78 41.3C30.03 41 29.98 40.55 29.67 40.31C29.38 40.09 28.97 40.13 28.74 40.41C26.14 43.5 22.33 45.22 18.25 45.11C11.27 44.92 5.59999 39.25 5.39999 32.27C5.17999 24.8 11.2 18.65 18.63 18.65C26.06 18.65 31.86 24.59 31.86 31.89C31.86 34 31.36 36.07 30.4 37.93C30.23 38.25 30.35 38.65 30.67 38.83C31.01 39.03 31.44 38.9 31.62 38.55C32.67 36.5 33.22 34.21 33.22 31.89C33.22 27.55 31.32 23.65 28.3 20.97V14.28C28.3 13.88 28.17 13.5 27.94 13.2L37.05 1.55996C37.24 1.30996 37.25 0.959961 37.05 0.709961ZM23.41 1.81996H26.02L24.95 3.17996C24.72 3.47996 24.77 3.90996 25.07 4.13996C25.37 4.36996 25.8 4.31996 26.03 4.01996L27.76 1.80996H30.77L23.17 11.51L21.66 9.58996L24 6.59996C24.23 6.29996 24.18 5.86996 23.88 5.63996C23.58 5.40996 23.15 5.45996 22.92 5.75996L20.79 8.47996L19.49 6.81996L23.41 1.81996ZM13.84 1.81996L23.94 14.71H21.33L11.23 1.81996H13.84ZM9.49999 1.81996L19.6 14.71H16.59L6.47999 1.81996H9.48999H9.49999ZM11.22 19.29C10.91 19.47 10.6 19.67 10.31 19.87V14.47L11.22 15.63V19.28V19.29ZM2.13999 1.81996H4.74999L14.85 14.71H12.24L2.13999 1.81996ZM24.66 18.57C22.82 17.73 20.78 17.26 18.62 17.26C16.46 17.26 14.42 17.73 12.58 18.57V16.08H24.65V18.57H24.66ZM26.94 19.87C26.64 19.66 26.34 19.47 26.03 19.29V15.4C26.03 15.4 26.03 15.35 26.03 15.33C26.03 15.33 26.03 15.27 26.02 15.24C26.02 15.24 26.02 15.23 26.02 15.22C26.02 15.2 26.01 15.17 26 15.15C25.99 15.12 25.98 15.1 25.96 15.07C25.96 15.07 25.96 15.07 25.96 15.06C25.95 15.04 25.93 15.02 25.92 15L25 13.83H26.52C26.77 13.83 26.98 14.03 26.98 14.29V19.9L26.94 19.87ZM26.78 12.46C26.68 12.44 26.59 12.43 26.49 12.43H24.2L32.51 1.81996H35.12L26.78 12.46Z" fill="#FFEC2D"/>
</g>
<path d="M18.63 20.7598C12.51 20.7598 7.53003 25.7398 7.53003 31.8598C7.53003 37.9798 12.51 42.9598 18.63 42.9598C24.75 42.9598 29.73 37.9798 29.73 31.8598C29.73 25.7398 24.75 20.7598 18.63 20.7598ZM18.63 41.5998C13.26 41.5998 8.89003 37.2298 8.89003 31.8598C8.89003 26.4898 13.26 22.1198 18.63 22.1198C24 22.1198 28.37 26.4898 28.37 31.8598C28.37 37.2298 24 41.5998 18.63 41.5998Z" fill="#FFEC2D"/>
<path d="M21.39 31.2403C22.35 30.7803 22.99 29.5603 22.99 27.8903C22.99 25.2403 21.31 24.3203 18.96 24.3203C15.65 24.3203 14.75 26.4103 14.75 27.7103C14.75 28.4703 14.91 28.6903 15.85 28.6903C16.61 28.6903 16.85 28.3503 16.85 27.8303C16.85 27.0103 17.31 26.1903 18.94 26.1903C20.24 26.1903 20.95 26.7903 20.95 28.2603C20.95 30.0803 20.09 30.4703 18.86 30.4703C18.36 30.4703 18.18 30.8903 18.18 31.3303C18.18 31.7703 18.36 32.1703 18.86 32.1703C20.32 32.1703 21.31 32.7503 21.31 34.3603V34.7403C21.31 36.4803 20.53 37.2303 18.88 37.2303C17.23 37.2303 16.51 36.3703 16.51 35.4903C16.51 34.9503 16.29 34.6903 15.41 34.6903C14.69 34.6903 14.43 34.8903 14.43 35.5903C14.43 37.1703 15.73 39.1203 18.86 39.1203C21.39 39.1203 23.43 37.9403 23.43 34.7503V34.3703C23.43 32.6703 22.57 31.7203 21.38 31.2603L21.39 31.2403Z" fill="#FFEC2D"/>
</g>
<defs>
<clipPath id="clip0_1103_2449">
<rect width="37.27" height="46.16" fill="white" transform="translate(0 0.419922)"/>
</clipPath>
</defs>
</svg>
