<svg width="28" height="29" viewBox="0 0 28 29" fill="none" xmlns="http://www.w3.org/2000/svg">
<path d="M3.50091 3.82038L5.11418 2.20711C5.50471 1.81658 6.13787 1.81658 6.5284 2.20711L11.1142 6.79289C11.5047 7.18342 11.5047 7.81658 11.1142 8.20711L9.22891 10.0924C8.98548 10.3358 8.92513 10.7077 9.07909 11.0156C10.8591 14.5756 13.7457 17.4622 17.3057 19.2422C17.6136 19.3962 17.9855 19.3358 18.2289 19.0924L20.1142 17.2071C20.5047 16.8166 21.1379 16.8166 21.5284 17.2071L26.1142 21.7929C26.5047 22.1834 26.5047 22.8166 26.1142 23.2071L24.5009 24.8204C22.3896 26.9317 19.047 27.1693 16.6583 25.3777L11.4499 21.4714C9.70633 20.1638 8.15751 18.615 6.84986 16.8714L2.94355 11.663C1.15201 9.2743 1.38956 5.93173 3.50091 3.82038Z" stroke="#FFEC2D" stroke-width="3"/>
</svg>
