<svg width="43" height="42" viewBox="0 0 43 42" fill="none" xmlns="http://www.w3.org/2000/svg">
<circle cx="21.3213" cy="14" r="5.5" stroke="#FFEC2D" stroke-width="3" stroke-linecap="round"/>
<path d="M26.8237 13.875C27.321 13.0137 28.14 12.3852 29.1007 12.1278C30.0614 11.8704 31.085 12.0051 31.9463 12.5024C32.8076 12.9997 33.4361 13.8188 33.6935 14.7794C33.9509 15.7401 33.8162 16.7637 33.3189 17.625C32.8216 18.4863 32.0025 19.1148 31.0419 19.3722C30.0812 19.6296 29.0576 19.4949 28.1963 18.9976C27.335 18.5003 26.7065 17.6812 26.4491 16.7206C26.1917 15.7599 26.3264 14.7363 26.8237 13.875L26.8237 13.875Z" stroke="#FFEC2D" stroke-width="3"/>
<path d="M9.32369 13.875C9.82097 13.0137 10.64 12.3852 11.6007 12.1278C12.5614 11.8704 13.585 12.0051 14.4463 12.5024C15.3076 12.9997 15.9361 13.8188 16.1935 14.7794C16.4509 15.7401 16.3162 16.7637 15.8189 17.625C15.3216 18.4863 14.5025 19.1148 13.5419 19.3722C12.5812 19.6296 11.5576 19.4949 10.6963 18.9976C9.83497 18.5003 9.20648 17.6812 8.94907 16.7206C8.69166 15.7599 8.82641 14.7363 9.32369 13.875L9.32369 13.875Z" stroke="#FFEC2D" stroke-width="3"/>
<path d="M29.8641 31.5L28.3937 31.7962L28.6361 33H29.8641V31.5ZM36.8354 30.3933L38.2828 29.9995L36.8354 30.3933ZM26.1877 25.7434L25.2805 24.5489L23.5456 25.8666L25.3956 27.0172L26.1877 25.7434ZM35.9385 30H29.8641V33H35.9385V30ZM35.388 30.7872C35.3329 30.5847 35.3887 30.3621 35.5157 30.2085C35.6342 30.0651 35.7957 30 35.9385 30V33C37.4007 33 38.7329 31.6538 38.2828 29.9995L35.388 30.7872ZM30.0713 26C31.8669 26 33.0256 26.7416 33.8318 27.6827C34.6787 28.6713 35.1479 29.9049 35.388 30.7872L38.2828 29.9995C37.986 28.9087 37.365 27.1957 36.1101 25.7309C34.8144 24.2185 32.8595 23 30.0713 23V26ZM27.095 26.9379C27.8106 26.3944 28.7593 26 30.0713 26V23C28.0935 23 26.5096 23.6154 25.2805 24.5489L27.095 26.9379ZM25.3956 27.0172C27.3002 28.2018 28.0833 30.2552 28.3937 31.7962L31.3346 31.2038C30.9587 29.3371 29.9186 26.2973 26.9799 24.4697L25.3956 27.0172Z" fill="#FFEC2D"/>
<path d="M16.4548 25.7434L17.247 27.0172L19.097 25.8666L17.3621 24.5489L16.4548 25.7434ZM5.8072 30.3933L7.25457 30.7872L5.8072 30.3933ZM12.7784 31.5V33H14.0064L14.2489 31.7962L12.7784 31.5ZM12.5713 26C13.8833 26 14.8319 26.3944 15.5476 26.9379L17.3621 24.5489C16.133 23.6153 14.5491 23 12.5713 23V26ZM7.25457 30.7872C7.49464 29.9049 7.96386 28.6713 8.81079 27.6827C9.61703 26.7416 10.7758 26 12.5713 26V23C9.78309 23 7.82821 24.2185 6.53255 25.7309C5.2776 27.1957 4.65664 28.9087 4.35983 29.9995L7.25457 30.7872ZM6.70405 30C6.84683 30 7.00835 30.0651 7.12687 30.2085C7.25386 30.3621 7.30967 30.5847 7.25457 30.7872L4.35983 29.9995C3.90966 31.6538 5.24186 33 6.70405 33V30ZM12.7784 30H6.70405V33H12.7784V30ZM14.2489 31.7962C14.5592 30.2552 15.3423 28.2017 17.247 27.0172L15.6626 24.4697C12.724 26.2973 11.6839 29.3371 11.3079 31.2038L14.2489 31.7962Z" fill="#FFEC2D"/>
<path d="M21.3213 24.5C28.2364 24.5 29.6865 29.965 29.9906 32.257C30.0632 32.8045 29.6236 33.25 29.0713 33.25H13.5713C13.019 33.25 12.5793 32.8045 12.652 32.257C12.9561 29.965 14.4062 24.5 21.3213 24.5Z" stroke="#FFEC2D" stroke-width="3" stroke-linecap="round"/>
</svg>
