<?xml version="1.0" encoding="utf-8"?>
<!-- Generator: Adobe Illustrator 25.0.0, SVG Export Plug-In . SVG Version: 6.00 Build 0)  -->
<svg version="1.1" id="Capa_1" xmlns="http://www.w3.org/2000/svg" xmlns:xlink="http://www.w3.org/1999/xlink" x="0px" y="0px"
	 viewBox="0 0 21.7 24" style="enable-background:new 0 0 21.7 24;" xml:space="preserve">
<style type="text/css">
	.st0{fill:none;stroke:#00A3E0;stroke-width:2.3324;}
	.st1{fill:none;stroke:#00A3E0;stroke-width:2.3324;stroke-linecap:round;}
</style>
<g>
	<path class="st0" d="M1.5,13.2c0-2.2,0-3.3,0.7-4s1.8-0.7,4-0.7h9.3c2.2,0,3.3,0,4,0.7c0.7,0.7,0.7,1.8,0.7,4v2.4c0,3.3,0,5-1,6
		s-2.7,1-6,1H8.5c-3.3,0-5,0-6-1c-1-1.1-1-2.7-1-6V13.2z"/>
	<path class="st1" d="M15.5,7.3V6.2c0-2.6-2.1-4.7-4.7-4.7l0,0c-2.6,0-4.7,2.1-4.7,4.7v1.2"/>
</g>
</svg>
