<?xml version="1.0" encoding="utf-8"?>
<!-- Generator: Adobe Illustrator 25.0.0, SVG Export Plug-In . SVG Version: 6.00 Build 0)  -->
<svg version="1.1" id="Capa_1" xmlns="http://www.w3.org/2000/svg" xmlns:xlink="http://www.w3.org/1999/xlink" x="0px" y="0px"
	 viewBox="0 0 337.9 118.2" style="enable-background:new 0 0 337.9 118.2;" xml:space="preserve">
<style type="text/css">
	.st0{fill:#D5F3FF;}
	.st1{fill:url(#SVGID_1_);}
	.st2{fill:#FFFFFF;fill-opacity:0.77;}
	.st3{fill:url(#SVGID_2_);}
	.st4{opacity:0.77;}
	.st5{fill:#FFFFFF;}
	.st6{fill:#F0FBFF;}
	.st7{fill:url(#SVGID_3_);}
</style>
<g id="_x33_">
	<path class="st0" d="M299,44.2h-74.3v12h112L299,44.2z"/>
	
		<linearGradient id="SVGID_1_" gradientUnits="userSpaceOnUse" x1="280.7" y1="193.1" x2="280.7" y2="255.1" gradientTransform="matrix(1 0 0 1 0 -136.9)">
		<stop  offset="0" style="stop-color:#00A3E0"/>
		<stop  offset="1" style="stop-color:#1E529D"/>
	</linearGradient>
	<rect x="224.7" y="56.2" class="st1" width="112" height="62"/>
	<g>
		<path id="_x33__1_" class="st2" d="M278.6,76.9V81h-7.9v-5.2c0-1.9,0.5-3.4,1.6-4.5s2.9-1.6,5.4-1.6h6.2c2.5,0,4.3,0.5,5.3,1.6
			c1.1,1.1,1.6,2.6,1.6,4.5v5.9c0,1.2-0.2,2.3-0.5,3.2c-0.3,0.9-1,1.5-2,2c1,0.4,1.6,0.9,2,1.7c0.3,0.8,0.5,1.8,0.5,3.1v6.9
			c0,1.9-0.5,3.4-1.6,4.5s-2.8,1.6-5.3,1.6h-6.2c-2.5,0-4.3-0.5-5.4-1.6s-1.6-2.6-1.6-4.5v-5.1h7.9v4.1c0,0.5,0.1,0.8,0.3,1
			s0.6,0.3,1.1,0.3h1.5c0.6,0,1-0.1,1.2-0.3c0.2-0.2,0.3-0.6,0.3-1v-6.5c0-0.5-0.1-0.9-0.3-1.1c-0.2-0.2-0.6-0.3-1.2-0.3h-4.3v-5.4
			h4.3c0.6,0,1-0.1,1.2-0.3c0.2-0.2,0.3-0.5,0.3-1v-6.1c0-0.5-0.1-0.9-0.3-1.1c-0.2-0.2-0.6-0.3-1.2-0.3H280c-0.5,0-0.9,0.1-1.1,0.3
			C278.7,76,278.6,76.4,278.6,76.9z"/>
	</g>
</g>
<g id="_x32__1_">
	<path class="st0" d="M38.5,25.6h74.3v11H0.7L38.5,25.6z"/>
	
		<linearGradient id="SVGID_2_" gradientUnits="userSpaceOnUse" x1="-115.9092" y1="-218.44" x2="-115.9092" y2="-136.84" gradientTransform="matrix(-1 0 0 1 -59.2092 255.04)">
		<stop  offset="0" style="stop-color:#00A3E0"/>
		<stop  offset="1" style="stop-color:#1E529D"/>
	</linearGradient>
	<rect x="0.7" y="36.6" class="st3" width="112" height="81.6"/>
	<g>
		<g>
			<g id="_x32__10_">
				<g class="st4">
					<path class="st5" d="M54.6,67.1v4.6h-7.9V66c0-1.9,0.5-3.4,1.6-4.5s2.8-1.6,5.3-1.6h5.9c2.5,0,4.3,0.5,5.4,1.6s1.7,2.6,1.7,4.5
						v4.4c0,1.8-0.3,3.3-0.8,4.5s-1.3,2.5-2.4,3.9l-7,10.3h10.3v5.8H46.9v-5.3l9.7-13c0.9-1.2,1.5-2.2,1.8-3.1s0.5-1.9,0.5-3.1v-3.3
						c0-0.5-0.1-0.9-0.3-1.1s-0.6-0.3-1.2-0.3H56c-0.5,0-0.9,0.1-1.1,0.3C54.7,66.2,54.6,66.6,54.6,67.1z"/>
				</g>
			</g>
		</g>
	</g>
</g>
<g id="_x31__1_">
	<path id="trazado" class="st6" d="M207.6,1.2h-77.3l-17.7,9h112L207.6,1.2z"/>
	
		<linearGradient id="SVGID_3_" gradientUnits="userSpaceOnUse" x1="168.7" y1="145.9" x2="168.7" y2="253.9" gradientTransform="matrix(1 0 0 -1 0 264.1)">
		<stop  offset="0" style="stop-color:#00A3E0"/>
		<stop  offset="1" style="stop-color:#1E529D"/>
	</linearGradient>
	<rect x="112.7" y="10.2" class="st7" width="112" height="108"/>
	<g>
		<g>
			<g id="_x31__10_">
				<g class="st4">
					<path class="st5" d="M172,46.7v5.8h-9.5v-5.8H172z M167.1,46.7h7.9v35h-7.9V46.7z"/>
				</g>
			</g>
		</g>
	</g>
</g>
</svg>
