<?xml version="1.0" encoding="utf-8"?>
<!-- Generator: Adobe Illustrator 25.0.0, SVG Export Plug-In . SVG Version: 6.00 Build 0)  -->
<svg version="1.1" id="Capa_1" xmlns="http://www.w3.org/2000/svg" xmlns:xlink="http://www.w3.org/1999/xlink" x="0px" y="0px"
	 viewBox="0 0 50 50" style="enable-background:new 0 0 50 50;" xml:space="preserve">
<style type="text/css">
	.st0{display:none;fill:url(#SVGID_1_);}
	.st1{fill:#EBBB00;}
	.st2{fill:#F4DD00;}
	.st3{opacity:0.98;fill:#F4DD00;enable-background:new    ;}
	.st4{fill:#FFF300;}
	.st5{opacity:0.5;}
	.st6{fill:none;stroke:#EBBB00;stroke-width:0.3091;stroke-miterlimit:9.9992;stroke-dasharray:6.7266,2.018,6.7266,5.3813;}
</style>
<g>
	<g>
		
			<linearGradient id="SVGID_1_" gradientUnits="userSpaceOnUse" x1="281.3596" y1="-6.8107" x2="409.9596" y2="-6.8107" gradientTransform="matrix(1 0 0 1 0 243.16)">
			<stop  offset="0" style="stop-color:#E7EF01"/>
			<stop  offset="1" style="stop-color:#AFBF0A"/>
		</linearGradient>
		<path class="st0" d="M293.2,210.8c7.3,3.1,17.7,6.6,30.5,7.7c7.8,0.8,14.7,0.4,20.5-0.2c-3.9,1.9-8.7,3.8-14.4,5.3
			c-7.4,2-14,2.5-19.2,2.7c9,3,26.9,7.5,49.1,3.9c25.9-4.2,43.1-17.2,50.4-23.4c-6.4,7.3-16.9,17.6-32.4,26
			c-11.5,6.3-22.2,9.6-30.3,11.4c4.6,0.4,9.9,0.6,15.7,0.2c13.8-0.9,25.2-4.5,33.3-8c-10.4,6.9-24.5,14.6-42.2,20.5
			c-30,9.9-56.3,9.7-72.7,8.3C285.3,247,289.3,228.8,293.2,210.8z"/>
	</g>
</g>
<g>
	<g id="SUN">
		<path class="st1" d="M39.2,26.9c0.3-1.5,0.1-3-0.1-4.3l9.7,2.2c0.9,0.2,0.9,0.4,0,0.5L39.2,26.9z"/>
		<path class="st1" d="M10.8,23.1c-0.3,1.5-0.1,3,0.1,4.3l-9.7-2.2c-0.9-0.2-0.9-0.4,0-0.5L10.8,23.1z"/>
		<g>
			<path class="st1" d="M13.7,33.9c1,1.3,2.1,2.2,3.2,2.9l-8.3,5.4c-0.8,0.5-0.9,0.4-0.4-0.4L13.7,33.9z"/>
			<path class="st1" d="M36.2,16.2c-1-1.3-2.1-2.2-3.2-2.9l8.3-5.4c0.8-0.5,0.9-0.4,0.4,0.4L36.2,16.2z"/>
		</g>
		<g>
			<path class="st1" d="M33.8,36.3c1.3-1,2.2-2.1,2.9-3.2l5.4,8.3c0.5,0.8,0.4,0.9-0.4,0.4L33.8,36.3z"/>
			<path class="st1" d="M16.1,13.7c-1.3,1-2.2,2.1-2.9,3.2L7.7,8.5C7.2,7.8,7.3,7.6,8.1,8.2L16.1,13.7z"/>
		</g>
		<g>
			<path class="st1" d="M23.1,39.2c1.5,0.3,3,0.1,4.3-0.1l-2.2,9.7c-0.2,0.9-0.4,0.9-0.5,0L23.1,39.2z"/>
			<path class="st1" d="M26.9,10.8c-1.5-0.3-3-0.1-4.3,0.1l2.2-9.7c0.2-0.9,0.4-0.9,0.5,0L26.9,10.8z"/>
		</g>
		<g>
			<path class="st2" d="M37.1,17.5l1.3,3.7c2.1-0.7,3.2-1.4,3.9-2.7c0.5-1,1.6-1.8,2.6-2.2c1-0.4,2.8-0.6,3.4-0.4
				c-0.6-0.4-1.9-1.3-3.6-1.3c-0.9,0-2.5,0.5-3.3,1.4c-0.6,0.7-1,1.3-1.8,1.4C38.6,17.6,37.6,17.7,37.1,17.5z"/>
			<path class="st3" d="M12.8,32.4l-1.3-3.7c-2.1,0.7-3.2,1.4-4,2.7c-0.5,1-1.6,1.8-2.6,2.2C4,34,2.1,34.1,1.5,34
				c0.6,0.4,1.8,1.3,3.6,1.3c0.9,0,2.5-0.4,3.3-1.4c0.6-0.7,1.1-1.2,1.9-1.4C11.3,32.3,12.3,32.3,12.8,32.4z"/>
		</g>
		<g>
			<path class="st2" d="M38.7,28.2l-1.7,3.6c2,1,3.3,1.2,4.7,0.8c1.1-0.4,2.4-0.2,3.4,0.2c1,0.4,2.5,1.5,2.8,2.1
				c-0.1-0.7-0.4-2.2-1.7-3.4c-0.7-0.6-2.1-1.4-3.3-1.3c-0.9,0-1.6,0.2-2.3-0.3C39.8,29.3,39,28.6,38.7,28.2z"/>
			<path class="st3" d="M11.1,21.8l1.7-3.5c-2-1-3.3-1.3-4.7-0.9c-1.1,0.4-2.4,0.1-3.4-0.3c-1-0.4-2.4-1.6-2.7-2.1
				c0.1,0.7,0.4,2.2,1.7,3.4C4.3,19,5.8,19.9,7,19.8c0.9,0,1.6-0.1,2.3,0.3C10,20.6,10.8,21.4,11.1,21.8z"/>
		</g>
		<g>
			<path class="st2" d="M17.5,12.6l3.7-1.3c-0.7-2.1-1.4-3.2-2.7-4c-1-0.5-1.8-1.6-2.2-2.6c-0.4-1-0.5-2.8-0.4-3.4
				c-0.4,0.6-1.3,1.8-1.3,3.6c0,0.9,0.4,2.5,1.4,3.3c0.7,0.6,1.2,1,1.4,1.9C17.6,11,17.6,12.1,17.5,12.6z"/>
			<path class="st3" d="M32.4,36.9l-3.8,1.2c0.7,2.1,1.4,3.3,2.6,4c1,0.5,1.8,1.7,2.1,2.6c0.4,1,0.5,2.8,0.4,3.4
				c0.4-0.6,1.4-1.8,1.4-3.6c0-0.9-0.4-2.5-1.3-3.4c-0.7-0.6-1.2-1.1-1.4-1.9C32.2,38.4,32.2,37.4,32.4,36.9z"/>
		</g>
		<g>
			<path class="st2" d="M28.1,11l3.5,1.8c1.1-2,1.4-3.3,1-4.7c-0.4-1.1-0.1-2.4,0.4-3.3c0.4-1,1.7-2.4,2.2-2.7
				c-0.7,0.1-2.2,0.4-3.5,1.5C31,4.3,30.1,5.8,30.2,7c0,0.9,0.1,1.6-0.4,2.3C29.3,10,28.6,10.7,28.1,11z"/>
			<path class="st3" d="M22.3,39l-3.2-2.3c-1.4,1.8-1.8,3-1.7,4.5c0.1,1.1-0.3,2.4-0.9,3.2c-0.6,0.9-2,2.1-2.6,2.3
				c0.7,0,2.3,0,3.7-1c0.8-0.5,1.8-1.8,2-3.1c0.1-0.9,0.1-1.6,0.7-2.2C20.9,39.8,21.7,39.2,22.3,39z"/>
		</g>
		<circle class="st4" cx="25.1" cy="25" r="14.4"/>
		<g class="st5">
			<ellipse class="st6" cx="25.1" cy="25" rx="13.3" ry="13.3"/>
		</g>
	</g>
</g>
</svg>
