<?xml version="1.0" encoding="utf-8"?>
<!-- Generator: Adobe Illustrator 25.0.0, SVG Export Plug-In . SVG Version: 6.00 Build 0)  -->
<svg version="1.1" id="Capa_1" xmlns="http://www.w3.org/2000/svg" xmlns:xlink="http://www.w3.org/1999/xlink" x="0px" y="0px"
	 viewBox="0 0 468.1 121.1" style="enable-background:new 0 0 468.1 121.1;" xml:space="preserve">
<style type="text/css">
	.st0{fill:#FFFFFF;}
</style>
<g>
	<g>
		<path class="st0" d="M305.4,73.1h-14.7V90h-5.9v-43h20.6c8.5,0,13.6,6.3,13.6,13.1S313.9,73.1,305.4,73.1 M304.9,51.9h-14.2v16.4
			h14.2c4.9,0,8.1-3.4,8.1-8.2C313,55.2,309.3,51.9,304.9,51.9"/>
		<path class="st0" d="M338.6,90.7c-12.1,0-20.9-10-20.9-22.2s8.7-22.2,20.9-22.2c12.1,0,20.9,10.1,20.9,22.2S350.8,90.7,338.6,90.7
			 M338.6,51.5c-9,0-15,7.3-15,17.1c0,9.7,5.9,17,15,17c9.1,0,14.9-7.2,14.9-17S347.6,51.5,338.6,51.5"/>
		<path class="st0" d="M376.3,90.7c-5.7,0-11.7-1.2-17.5-3.5l1.3-4.6c5.2,1.8,11,3,16,3c7,0,11-2.7,11-6.5c0-3.4-2.1-5.2-11.9-8.8
			c-11.3-4.2-14.9-7.1-14.9-13.8c0-7,5.8-10.3,16.4-10.3c4.5,0,10.9,0.8,15.1,2.2l-1.1,4.7c-4.3-1.1-9.4-1.8-13.9-1.8
			c-7.6,0-10.6,1.2-10.6,5.2c0,4.1,2.8,5.5,13,9.5c11.1,4.4,13.8,6.8,13.8,12.9C393.1,85.8,386.5,90.7,376.3,90.7"/>
	</g>
	<path class="st0" d="M424.2,90L419.9,79h-19.3L396.4,90h-5.9l17.3-43h5l17.3,43H424.2z M410.3,53.4l-8,21.1h16L410.3,53.4z"/>
	<polygon class="st0" points="452.8,46.9 439.5,67.4 426.2,46.9 420.1,46.9 436.6,72.7 436.6,90 442.5,90 442.5,72.7 458.9,46.9 	
		"/>
	<polygon class="st0" points="9.2,46.9 9.2,90 37.1,90 37.1,84.9 15.2,84.9 15.2,46.9 	"/>
	<path class="st0" d="M69.5,90L65.2,79H46L41.6,90h-5.9l17.3-43h5l17.3,43H69.5z M55.6,53.4l-8,21.1h16L55.6,53.4z"/>
	<g>
		<path class="st0" d="M116.8,90l-12.9-17.5H91V90h-5.9v-43H106c8.3,0,13.4,6.1,13.4,12.8c0,5.4-3.2,10.3-9,12L123.9,90H116.8z
			 M105.2,51.9H91v15.8h14.2c4.9,0,8.1-3.2,8.1-7.9C113.4,54.9,109.6,51.9,105.2,51.9"/>
		<path class="st0" d="M141.5,90.7c-12.1,0-20.9-10-20.9-22.2s8.7-22.2,20.9-22.2c12.1,0,20.9,10.1,20.9,22.2S153.7,90.7,141.5,90.7
			 M141.5,51.5c-9,0-15,7.3-15,17.1c0,9.7,5.9,17,15,17c9,0,14.9-7.2,14.9-17S150.6,51.5,141.5,51.5"/>
		<path class="st0" d="M195.9,52.7c-2.8-0.8-6.4-1.2-9.5-1.2c-11.2,0-18.3,6.9-18.3,17c0,10.1,7.1,17.1,18.3,17.1
			c2.9,0,5.9-0.5,9.5-1.3L197,89c-3.4,1-7.2,1.7-11,1.7c-13.9,0-23.8-9.9-23.8-22.2s9.9-22.2,23.8-22.2c4.1,0,7.6,0.5,11.1,1.6
			L195.9,52.7z"/>
	</g>
	<path class="st0" d="M222.8,70.5v19.5h6.3V90h0V70.5H222.8z M222.8,2.3v63h-16.1V47h-5.9v43h5.9V70.6h16.1v-5.2h6.3V47h6v43l0,0
		v0.1h5.3v-0.9l0,0V47h29.7v5.1h-23.7v13.1h22.2v5.1h-22.2v14.6h23.7v4.3v0.9h14.4V2.4L222.8,2.3L222.8,2.3z"/>
	<polygon class="st0" points="84.6,114.4 84.6,97.6 86.1,97.6 86.1,113.1 94.9,113.1 94.9,114.4 	"/>
	<path class="st0" d="M108.3,114.4l-1.9-4.7h-8.3l-1.9,4.7h-1.6l7-16.8h1.1l7,16.8H108.3z M102.3,99.4l-3.6,9h7.3L102.3,99.4z"/>
	<g>
		<path class="st0" d="M118.1,114.4h-7.6V97.6h6.8c3.6,0,5.4,1.7,5.4,4.3c0,1.5-0.9,3.1-2.7,3.7c2.1,0.7,3.2,2.2,3.2,4.2
			C123.2,112.1,121.3,114.4,118.1,114.4 M117.3,98.9H112v6.2h5.2c2.1,0,4-0.9,4-3.1C121.1,99.8,119.5,98.9,117.3,98.9 M117.9,106.4
			H112v6.7h6c2.2,0,3.7-1.2,3.7-3.4C121.7,107.8,120.4,106.4,117.9,106.4"/>
		<path class="st0" d="M131.3,114.7c-4.7,0-7.9-4-7.9-8.7c0-4.7,3.2-8.7,7.9-8.7c4.7,0,7.9,4,7.9,8.7
			C139.3,110.7,136.1,114.7,131.3,114.7 M131.3,98.6c-3.8,0-6.4,3.2-6.4,7.4c0,4.2,2.6,7.4,6.4,7.4c3.8,0,6.4-3.1,6.4-7.4
			C137.8,101.8,135.1,98.6,131.3,98.6"/>
		<path class="st0" d="M153.7,114.4l-5.4-7.3h-5.9v7.3h-1.5V97.6h7.6c3.3,0,5.1,2.3,5.1,4.8c0,2.1-1.3,4.1-3.7,4.6l5.5,7.4
			L153.7,114.4L153.7,114.4z M148.5,98.9h-6.1v7h6.1c2.2,0,3.6-1.4,3.6-3.5S150.4,98.9,148.5,98.9"/>
	</g>
	<path class="st0" d="M168.4,114.4l-1.9-4.7h-8.3l-1.9,4.7h-1.5l7-16.8h1.1l7,16.8H168.4z M162.4,99.4l-3.6,9h7.3L162.4,99.4z"/>
	<polygon class="st0" points="174.7,98.9 174.7,114.4 173.1,114.4 173.1,98.9 167.4,98.9 167.4,97.6 180.4,97.6 180.4,98.9 	"/>
	<g>
		<path class="st0" d="M187.3,114.7c-4.7,0-7.9-4-7.9-8.7c0-4.7,3.2-8.7,7.9-8.7c4.7,0,7.9,4,7.9,8.7
			C195.3,110.7,192.1,114.7,187.3,114.7 M187.3,98.6c-3.8,0-6.4,3.2-6.4,7.4c0,4.2,2.6,7.4,6.4,7.4c3.8,0,6.4-3.1,6.4-7.4
			C193.8,101.8,191.1,98.6,187.3,98.6"/>
	</g>
	<rect x="197" y="97.6" class="st0" width="1.5" height="16.8"/>
	<g>
		<path class="st0" d="M214.2,114.4l-5.4-7.3H203v7.3h-1.5V97.6h7.6c3.3,0,5.1,2.3,5.1,4.8c0,2.1-1.3,4.1-3.7,4.6l5.5,7.4
			L214.2,114.4L214.2,114.4z M209,98.9h-6.1v7h6.1c2.2,0,3.6-1.4,3.6-3.5S211,98.9,209,98.9"/>
	</g>
	<polygon class="st0" points="216.8,114.4 216.8,97.6 228,97.6 228,98.9 218.3,98.9 218.3,105 227.4,105 227.4,106.4 218.3,106.4 
		218.3,113.1 228,113.1 228,114.4 	"/>
	<g>
		<path class="st0" d="M236.4,114.4H233V97.6h3.4c5.7,0,9.9,3.6,9.9,8.4C246.3,110.8,242.1,114.4,236.4,114.4 M236.6,98.9h-2.1v14.2
			h2.1c4.1,0,8.1-2.6,8.1-7.1C244.7,101.5,240.7,98.9,236.6,98.9"/>
	</g>
	<polygon class="st0" points="247.5,114.4 247.5,97.6 258.7,97.6 258.7,98.9 249,98.9 249,105 258.1,105 258.1,106.4 249,106.4 
		249,113.1 258.7,113.1 258.7,114.4 	"/>
	<g>
		<path class="st0" d="M273.5,114.4l-5.4-7.3h-5.9v7.3h-1.5V97.6h7.6c3.3,0,5.1,2.3,5.1,4.8c0,2.1-1.3,4.1-3.7,4.6l5.5,7.4
			L273.5,114.4L273.5,114.4z M268.3,98.9h-6.1v7h6.1c2.2,0,3.6-1.4,3.6-3.5S270.2,98.9,268.3,98.9"/>
	</g>
	<polygon class="st0" points="290.1,114.4 290.1,100.4 284.3,112.2 283.3,112.2 277.5,100.4 277.5,114.4 276,114.4 276,97.6 
		277.5,97.6 283.8,110.2 290.1,97.6 291.6,97.6 291.6,114.4 	"/>
	<path class="st0" d="M305.7,114.4l-1.9-4.7h-8.3l-1.9,4.7h-1.6l7-16.8h1.1l7,16.8H305.7z M299.7,99.4l-3.6,9h7.3L299.7,99.4z"/>
	<polygon class="st0" points="312,98.9 312,114.4 310.5,114.4 310.5,98.9 304.7,98.9 304.7,97.6 317.8,97.6 317.8,98.9 	"/>
	<g>
		<path class="st0" d="M324.7,114.7c-4.7,0-7.9-4-7.9-8.7c0-4.7,3.2-8.7,7.9-8.7c4.7,0,7.9,4,7.9,8.7
			C332.6,110.7,329.4,114.7,324.7,114.7 M324.7,98.6c-3.8,0-6.4,3.2-6.4,7.4c0,4.2,2.6,7.4,6.4,7.4s6.4-3.1,6.4-7.4
			C331.1,101.8,328.5,98.6,324.7,98.6"/>
	</g>
	<polygon class="st0" points="334.3,114.4 334.3,97.6 335.8,97.6 335.8,113.1 344.6,113.1 344.6,114.4 	"/>
	<g>
		<path class="st0" d="M351.8,114.7c-4.7,0-7.9-4-7.9-8.7c0-4.7,3.2-8.7,7.9-8.7s7.9,4,7.9,8.7C359.7,110.7,356.5,114.7,351.8,114.7
			 M351.8,98.6c-3.8,0-6.4,3.2-6.4,7.4c0,4.2,2.6,7.4,6.4,7.4s6.4-3.1,6.4-7.4C358.2,101.8,355.5,98.6,351.8,98.6"/>
		<path class="st0" d="M369.1,114.7c-5.4,0-9.3-3.8-9.3-8.7c0-5,3.5-8.7,9.3-8.7c1.4,0,3.1,0.2,4.4,0.5l-0.2,1.2
			c-1.5-0.3-2.9-0.5-4.2-0.5c-4.5,0-7.7,2.8-7.7,7.4c0,4.4,3.3,7.4,7.7,7.4c1,0,2.4-0.1,3.6-0.4v-6h1.4v7
			C372.4,114.4,370.4,114.7,369.1,114.7"/>
	</g>
	<rect x="376.4" y="97.6" class="st0" width="1.5" height="16.8"/>
	<g>
		<path class="st0" d="M388.2,114.7v4.5h-1.6v-4.5c-4.3-0.4-7.2-4.2-7.2-8.7c0-4.7,3.2-8.7,8-8.7c4.7,0,7.9,4,7.9,8.7
			C395.4,110.5,392.5,114.3,388.2,114.7 M387.4,98.6c-3.8,0-6.4,3.1-6.4,7.4c0,4.2,2.6,7.4,6.4,7.4c3.8,0,6.4-3.2,6.4-7.4
			S391.2,98.6,387.4,98.6"/>
		<path class="st0" d="M403.4,114.7c-4.3,0-6.6-3-6.6-6.2V97.6h1.6v11c0,3,2.1,4.8,5.1,4.8c2.9,0,5.1-1.9,5.1-4.8v-11h1.5v10.9
			C410,111.7,407.6,114.7,403.4,114.7"/>
	</g>
	<polygon class="st0" points="412.5,114.4 412.5,97.6 423.7,97.6 423.7,98.9 414,98.9 414,105 423,105 423,106.4 414,106.4 
		414,113.1 423.7,113.1 423.7,114.4 	"/>
</g>
</svg>
